<?xml version="1.0" encoding="UTF-8" standalone="no"?>
<!DOCTYPE svg PUBLIC "-//W3C//DTD SVG 1.1//EN"
 "http://www.w3.org/Graphics/SVG/1.1/DTD/svg11.dtd">
<!-- Generated by graphviz version 2.36.0 (20140111.2315)
 -->
<!-- Title: G Pages: 1 -->
<svg width="976pt" height="779pt"
 viewBox="0.00 0.00 976.00 779.00" xmlns="http://www.w3.org/2000/svg" xmlns:xlink="http://www.w3.org/1999/xlink">
<g id="graph0" class="graph" transform="scale(1 1) rotate(0) translate(4 775)">
<title>G</title>
<polygon fill="white" stroke="none" points="-4,4 -4,-775 972,-775 972,4 -4,4"/>
<g id="clust1" class="cluster"><title>cluster_cl</title>
<polygon fill="none" stroke="black" points="332,-196 332,-575 564,-575 564,-196 332,-196"/>
<text text-anchor="middle" x="448" y="-559.8" font-family="Times,serif" font-size="14.00">Classes</text>
</g>
<g id="clust2" class="cluster"><title>cluster_std</title>
<polygon fill="none" stroke="black" points="8,-8 8,-763 240,-763 240,-8 8,-8"/>
<text text-anchor="middle" x="124" y="-747.8" font-family="Times,serif" font-size="14.00">Standards</text>
</g>
<g id="clust3" class="cluster"><title>cluster_fcd</title>
<polygon fill="none" stroke="black" points="656,-389 656,-580 960,-580 960,-389 656,-389"/>
<text text-anchor="middle" x="808" y="-564.8" font-family="Times,serif" font-size="14.00">FreeCAD</text>
</g>
<g id="clust4" class="cluster"><title>cluster_ocd</title>
<polygon fill="none" stroke="black" points="656,-190 656,-381 960,-381 960,-190 656,-190"/>
<text text-anchor="middle" x="808" y="-365.8" font-family="Times,serif" font-size="14.00">OpenSCAD</text>
</g>
<!-- hexscrew1 -->
<g id="node1" class="node"><title>hexscrew1</title>
<ellipse fill="none" stroke="black" cx="448" cy="-515" rx="108" ry="29"/>
<text text-anchor="middle" x="448" y="-511.3" font-family="Times,serif" font-size="14.00">hexscrew1</text>
</g>
<!-- hex.py:hex1 -->
<g id="node13" class="node"><title>hex.py:hex1</title>
<ellipse fill="none" stroke="black" cx="808" cy="-520" rx="144" ry="29"/>
<text text-anchor="middle" x="808" y="-516.3" font-family="Times,serif" font-size="14.00">hex.py:hex1</text>
</g>
<!-- hexscrew1&#45;&gt;hex.py:hex1 -->
<g id="edge1" class="edge"><title>hexscrew1&#45;&gt;hex.py:hex1</title>
<path fill="none" stroke="black" d="M555.927,-516.493C586.736,-516.924 620.964,-517.402 653.987,-517.863"/>
<polygon fill="black" stroke="black" points="654.144,-521.365 664.192,-518.005 654.242,-514.366 654.144,-521.365"/>
</g>
<!-- hex.scad:hex1 -->
<g id="node15" class="node"><title>hex.scad:hex1</title>
<ellipse fill="none" stroke="black" cx="808" cy="-321" rx="144" ry="29"/>
<text text-anchor="middle" x="808" y="-317.3" font-family="Times,serif" font-size="14.00">hex.scad:hex1</text>
</g>
<!-- hexscrew1&#45;&gt;hex.scad:hex1 -->
<g id="edge2" class="edge"><title>hexscrew1&#45;&gt;hex.scad:hex1</title>
<path fill="none" stroke="black" d="M506.5,-491C535.25,-479 564,-467 564,-467 564,-467 656,-380 656,-380 656,-380 694.379,-365.004 732.44,-350.133"/>
<polygon fill="black" stroke="black" points="734.046,-353.263 742.086,-346.364 731.498,-346.743 734.046,-353.263"/>
</g>
<!-- hexscrew2 -->
<g id="node2" class="node"><title>hexscrew2</title>
<ellipse fill="none" stroke="black" cx="448" cy="-421" rx="108" ry="29"/>
<text text-anchor="middle" x="448" y="-417.3" font-family="Times,serif" font-size="14.00">hexscrew2</text>
</g>
<!-- hexscrew2&#45;&gt;hex.py:hex1 -->
<g id="edge4" class="edge"><title>hexscrew2&#45;&gt;hex.py:hex1</title>
<path fill="none" stroke="black" d="M523.178,-441.513C578.469,-456.803 654.363,-477.79 713.76,-494.216"/>
<polygon fill="black" stroke="black" points="712.949,-497.623 723.52,-496.915 714.815,-490.876 712.949,-497.623"/>
</g>
<!-- hexscrew2&#45;&gt;hex.scad:hex1 -->
<g id="edge5" class="edge"><title>hexscrew2&#45;&gt;hex.scad:hex1</title>
<path fill="none" stroke="black" d="M522.744,-400.401C578.197,-384.911 654.553,-363.583 714.165,-346.931"/>
<polygon fill="black" stroke="black" points="715.269,-350.257 723.959,-344.196 713.386,-343.515 715.269,-350.257"/>
</g>
<!-- hexbolt1 -->
<g id="node3" class="node"><title>hexbolt1</title>
<ellipse fill="none" stroke="black" cx="448" cy="-327" rx="108" ry="29"/>
<text text-anchor="middle" x="448" y="-323.3" font-family="Times,serif" font-size="14.00">hexbolt1</text>
</g>
<!-- hex.py:hex2 -->
<g id="node14" class="node"><title>hex.py:hex2</title>
<ellipse fill="none" stroke="black" cx="808" cy="-426" rx="144" ry="29"/>
<text text-anchor="middle" x="808" y="-422.3" font-family="Times,serif" font-size="14.00">hex.py:hex2</text>
</g>
<!-- hexbolt1&#45;&gt;hex.py:hex2 -->
<g id="edge9" class="edge"><title>hexbolt1&#45;&gt;hex.py:hex2</title>
<path fill="none" stroke="black" d="M519.37,-348.417C579.379,-366.681 656,-390 656,-390 656,-390 678.106,-395.27 705.402,-401.778"/>
<polygon fill="black" stroke="black" points="704.707,-405.21 715.246,-404.125 706.33,-398.401 704.707,-405.21"/>
</g>
<!-- hex.scad:hex2 -->
<g id="node16" class="node"><title>hex.scad:hex2</title>
<ellipse fill="none" stroke="black" cx="808" cy="-227" rx="144" ry="29"/>
<text text-anchor="middle" x="808" y="-223.3" font-family="Times,serif" font-size="14.00">hex.scad:hex2</text>
</g>
<!-- hexbolt1&#45;&gt;hex.scad:hex2 -->
<g id="edge10" class="edge"><title>hexbolt1&#45;&gt;hex.scad:hex2</title>
<path fill="none" stroke="black" d="M522.744,-306.401C578.197,-290.911 654.553,-269.583 714.165,-252.931"/>
<polygon fill="black" stroke="black" points="715.269,-256.257 723.959,-250.196 713.386,-249.515 715.269,-256.257"/>
</g>
<!-- hexbolt2 -->
<g id="node4" class="node"><title>hexbolt2</title>
<ellipse fill="none" stroke="black" cx="448" cy="-233" rx="108" ry="29"/>
<text text-anchor="middle" x="448" y="-229.3" font-family="Times,serif" font-size="14.00">hexbolt2</text>
</g>
<!-- hexbolt2&#45;&gt;hex.py:hex2 -->
<g id="edge12" class="edge"><title>hexbolt2&#45;&gt;hex.py:hex2</title>
<path fill="none" stroke="black" d="M507.511,-256.913C535.92,-268.524 564,-280 564,-280 564,-280 656,-390 656,-390 656,-390 678.106,-395.27 705.402,-401.778"/>
<polygon fill="black" stroke="black" points="704.707,-405.21 715.246,-404.125 706.33,-398.401 704.707,-405.21"/>
</g>
<!-- hexbolt2&#45;&gt;hex.scad:hex2 -->
<g id="edge13" class="edge"><title>hexbolt2&#45;&gt;hex.scad:hex2</title>
<path fill="none" stroke="black" d="M555.927,-231.208C586.736,-230.692 620.964,-230.118 653.987,-229.564"/>
<polygon fill="black" stroke="black" points="654.252,-233.061 664.192,-229.393 654.134,-226.062 654.252,-233.061"/>
</g>
<!-- DIN933 -->
<g id="node5" class="node"><title>DIN933</title>
<ellipse fill="none" stroke="black" cx="124" cy="-703" rx="108" ry="29"/>
<text text-anchor="middle" x="124" y="-699.3" font-family="Times,serif" font-size="14.00">DIN933</text>
</g>
<!-- DIN933&#45;&gt;hexscrew1 -->
<g id="edge3" class="edge"><title>DIN933&#45;&gt;hexscrew1</title>
<path fill="none" stroke="black" d="M182.5,-679C211.25,-667 240,-655 240,-655 240,-655 338.076,-588.669 399.21,-547.321"/>
<polygon fill="black" stroke="black" points="401.255,-550.164 407.578,-541.662 397.333,-544.366 401.255,-550.164"/>
</g>
<!-- ISO4017 -->
<g id="node6" class="node"><title>ISO4017</title>
<ellipse fill="none" stroke="black" cx="124" cy="-421" rx="108" ry="29"/>
<text text-anchor="middle" x="124" y="-417.3" font-family="Times,serif" font-size="14.00">ISO4017</text>
</g>
<!-- ISO4017&#45;&gt;hexscrew2 -->
<g id="edge6" class="edge"><title>ISO4017&#45;&gt;hexscrew2</title>
<path fill="none" stroke="black" d="M232.221,-421C263.505,-421 297.848,-421 329.719,-421"/>
<polygon fill="black" stroke="black" points="329.973,-424.5 339.973,-421 329.973,-417.5 329.973,-424.5"/>
</g>
<!-- DINENISO4017 -->
<g id="node7" class="node"><title>DINENISO4017</title>
<ellipse fill="none" stroke="black" cx="124" cy="-609" rx="108" ry="29"/>
<text text-anchor="middle" x="124" y="-605.3" font-family="Times,serif" font-size="14.00">DINENISO4017</text>
</g>
<!-- DINENISO4017&#45;&gt;hexscrew2 -->
<g id="edge7" class="edge"><title>DINENISO4017&#45;&gt;hexscrew2</title>
<path fill="none" stroke="black" d="M182.5,-585C211.25,-573 240,-561 240,-561 240,-561 332,-468 332,-468 332,-468 354.274,-458.897 379.216,-448.703"/>
<polygon fill="black" stroke="black" points="380.557,-451.936 388.489,-444.913 377.908,-445.456 380.557,-451.936"/>
</g>
<!-- DINEN24017 -->
<g id="node8" class="node"><title>DINEN24017</title>
<ellipse fill="none" stroke="black" cx="124" cy="-515" rx="108" ry="29"/>
<text text-anchor="middle" x="124" y="-511.3" font-family="Times,serif" font-size="14.00">DINEN24017</text>
</g>
<!-- DINEN24017&#45;&gt;hexscrew2 -->
<g id="edge8" class="edge"><title>DINEN24017&#45;&gt;hexscrew2</title>
<path fill="none" stroke="black" d="M197.263,-493.905C247.083,-479.361 313.389,-460.004 365.158,-444.892"/>
<polygon fill="black" stroke="black" points="366.36,-448.187 374.978,-442.025 364.398,-441.468 366.36,-448.187"/>
</g>
<!-- DIN931 -->
<g id="node9" class="node"><title>DIN931</title>
<ellipse fill="none" stroke="black" cx="124" cy="-327" rx="108" ry="29"/>
<text text-anchor="middle" x="124" y="-323.3" font-family="Times,serif" font-size="14.00">DIN931</text>
</g>
<!-- DIN931&#45;&gt;hexbolt1 -->
<g id="edge11" class="edge"><title>DIN931&#45;&gt;hexbolt1</title>
<path fill="none" stroke="black" d="M232.221,-327C263.505,-327 297.848,-327 329.719,-327"/>
<polygon fill="black" stroke="black" points="329.973,-330.5 339.973,-327 329.973,-323.5 329.973,-330.5"/>
</g>
<!-- ISO4014 -->
<g id="node10" class="node"><title>ISO4014</title>
<ellipse fill="none" stroke="black" cx="124" cy="-45" rx="108" ry="29"/>
<text text-anchor="middle" x="124" y="-41.3" font-family="Times,serif" font-size="14.00">ISO4014</text>
</g>
<!-- ISO4014&#45;&gt;hexbolt2 -->
<g id="edge14" class="edge"><title>ISO4014&#45;&gt;hexbolt2</title>
<path fill="none" stroke="black" d="M183.511,-68.9131C211.92,-80.5238 240,-92 240,-92 240,-92 338.608,-159.168 399.707,-200.786"/>
<polygon fill="black" stroke="black" points="397.83,-203.742 408.065,-206.479 401.77,-197.957 397.83,-203.742"/>
</g>
<!-- DINENISO4014 -->
<g id="node11" class="node"><title>DINENISO4014</title>
<ellipse fill="none" stroke="black" cx="124" cy="-233" rx="108" ry="29"/>
<text text-anchor="middle" x="124" y="-229.3" font-family="Times,serif" font-size="14.00">DINENISO4014</text>
</g>
<!-- DINENISO4014&#45;&gt;hexbolt2 -->
<g id="edge15" class="edge"><title>DINENISO4014&#45;&gt;hexbolt2</title>
<path fill="none" stroke="black" d="M232.221,-233C263.505,-233 297.848,-233 329.719,-233"/>
<polygon fill="black" stroke="black" points="329.973,-236.5 339.973,-233 329.973,-229.5 329.973,-236.5"/>
</g>
<!-- DINEN24014 -->
<g id="node12" class="node"><title>DINEN24014</title>
<ellipse fill="none" stroke="black" cx="124" cy="-139" rx="108" ry="29"/>
<text text-anchor="middle" x="124" y="-135.3" font-family="Times,serif" font-size="14.00">DINEN24014</text>
</g>
<!-- DINEN24014&#45;&gt;hexbolt2 -->
<g id="edge16" class="edge"><title>DINEN24014&#45;&gt;hexbolt2</title>
<path fill="none" stroke="black" d="M197.263,-160.095C247.083,-174.639 313.389,-193.996 365.158,-209.108"/>
<polygon fill="black" stroke="black" points="364.398,-212.532 374.978,-211.975 366.36,-205.813 364.398,-212.532"/>
</g>
</g>
</svg>
