<?xml version="1.0" encoding="UTF-8" standalone="no"?>
<!DOCTYPE svg PUBLIC "-//W3C//DTD SVG 1.1//EN"
 "http://www.w3.org/Graphics/SVG/1.1/DTD/svg11.dtd">
<!-- Generated by graphviz version 2.26.3 (20100126.1600)
 -->
<!-- Title: G Pages: 1 -->
<svg width="976pt" height="594pt"
 viewBox="0.00 0.00 976.00 594.00" xmlns="http://www.w3.org/2000/svg" xmlns:xlink="http://www.w3.org/1999/xlink">
<g id="graph1" class="graph" transform="scale(1 1) rotate(0) translate(4 590)">
<title>G</title>
<polygon fill="white" stroke="white" points="-4,5 -4,-590 973,-590 973,5 -4,5"/>
<g id="graph2" class="cluster"><title>cluster_cl</title>
<polygon fill="none" stroke="black" points="332,-196 332,-390 564,-390 564,-196 332,-196"/>
<text text-anchor="middle" x="448" y="-373.4" font-family="Times Roman,serif" font-size="14.00">Classes</text>
</g>
<g id="graph3" class="cluster"><title>cluster_std</title>
<polygon fill="none" stroke="black" points="8,-8 8,-578 240,-578 240,-8 8,-8"/>
<text text-anchor="middle" x="124" y="-561.4" font-family="Times Roman,serif" font-size="14.00">Standards</text>
</g>
<g id="graph5" class="cluster"><title>cluster_ocd</title>
<polygon fill="none" stroke="black" points="656,-196 656,-390 960,-390 960,-196 656,-196"/>
<text text-anchor="middle" x="808" y="-373.4" font-family="Times Roman,serif" font-size="14.00">OpenSCAD</text>
</g>
<!-- hexsocketcountersunk -->
<g id="node2" class="node"><title>hexsocketcountersunk</title>
<ellipse fill="none" stroke="black" cx="448" cy="-327" rx="108" ry="29"/>
<text text-anchor="middle" x="448" y="-323.4" font-family="Times Roman,serif" font-size="14.00">hexsocketcountersunk</text>
</g>
<!-- hex_socket.scad:hex_socket1 -->
<g id="node13" class="node"><title>hex_socket.scad:hex_socket1</title>
<ellipse fill="none" stroke="black" cx="808" cy="-327" rx="144" ry="29"/>
<text text-anchor="middle" x="808" y="-323.4" font-family="Times Roman,serif" font-size="14.00">hex_socket.scad:hex_socket1</text>
</g>
<!-- hexsocketcountersunk&#45;&gt;hex_socket.scad:hex_socket1 -->
<g id="edge6" class="edge"><title>hexsocketcountersunk&#45;&gt;hex_socket.scad:hex_socket1</title>
<path fill="none" stroke="black" d="M556.012,-327C586.7,-327 620.73,-327 653.598,-327"/>
<polygon fill="black" stroke="black" points="653.756,-330.5 663.756,-327 653.756,-323.5 653.756,-330.5"/>
</g>
<!-- hexsocketheadcap -->
<g id="node3" class="node"><title>hexsocketheadcap</title>
<ellipse fill="none" stroke="black" cx="448" cy="-233" rx="108" ry="29"/>
<text text-anchor="middle" x="448" y="-229.4" font-family="Times Roman,serif" font-size="14.00">hexsocketheadcap</text>
</g>
<!-- hex_socket.scad:hex_socket2 -->
<g id="node14" class="node"><title>hex_socket.scad:hex_socket2</title>
<ellipse fill="none" stroke="black" cx="808" cy="-233" rx="144" ry="29"/>
<text text-anchor="middle" x="808" y="-229.4" font-family="Times Roman,serif" font-size="14.00">hex_socket.scad:hex_socket2</text>
</g>
<!-- hexsocketheadcap&#45;&gt;hex_socket.scad:hex_socket2 -->
<g id="edge14" class="edge"><title>hexsocketheadcap&#45;&gt;hex_socket.scad:hex_socket2</title>
<path fill="none" stroke="black" d="M556.012,-233C586.7,-233 620.73,-233 653.598,-233"/>
<polygon fill="black" stroke="black" points="653.756,-236.5 663.756,-233 653.756,-229.5 653.756,-236.5"/>
</g>
<!-- ISO10642 -->
<g id="node5" class="node"><title>ISO10642</title>
<ellipse fill="none" stroke="black" cx="124" cy="-515" rx="108" ry="29"/>
<text text-anchor="middle" x="124" y="-511.4" font-family="Times Roman,serif" font-size="14.00">ISO10642</text>
</g>
<!-- ISO10642&#45;&gt;hexsocketcountersunk -->
<g id="edge8" class="edge"><title>ISO10642&#45;&gt;hexsocketcountersunk</title>
<path fill="none" stroke="black" d="M183.699,-490.812C212.122,-479.295 240,-468 240,-468 240,-468 338.016,-401.556 399.479,-359.891"/>
<polygon fill="black" stroke="black" points="401.582,-362.694 407.896,-354.186 397.654,-356.9 401.582,-362.694"/>
</g>
<!-- DINISO10642 -->
<g id="node6" class="node"><title>DINISO10642</title>
<ellipse fill="none" stroke="black" cx="124" cy="-421" rx="108" ry="29"/>
<text text-anchor="middle" x="124" y="-417.4" font-family="Times Roman,serif" font-size="14.00">DINISO10642</text>
</g>
<!-- DINISO10642&#45;&gt;hexsocketcountersunk -->
<g id="edge10" class="edge"><title>DINISO10642&#45;&gt;hexsocketcountersunk</title>
<path fill="none" stroke="black" d="M197.521,-399.67C247.247,-385.243 313.017,-366.162 364.685,-351.172"/>
<polygon fill="black" stroke="black" points="365.862,-354.475 374.49,-348.327 363.911,-347.752 365.862,-354.475"/>
</g>
<!-- DIN7991 -->
<g id="node7" class="node"><title>DIN7991</title>
<ellipse fill="none" stroke="black" cx="124" cy="-327" rx="108" ry="29"/>
<text text-anchor="middle" x="124" y="-323.4" font-family="Times Roman,serif" font-size="14.00">DIN7991</text>
</g>
<!-- DIN7991&#45;&gt;hexsocketcountersunk -->
<g id="edge12" class="edge"><title>DIN7991&#45;&gt;hexsocketcountersunk</title>
<path fill="none" stroke="black" d="M232.338,-327C263.545,-327 297.748,-327 329.536,-327"/>
<polygon fill="black" stroke="black" points="329.764,-330.5 339.764,-327 329.764,-323.5 329.764,-330.5"/>
</g>
<!-- ISO4762 -->
<g id="node8" class="node"><title>ISO4762</title>
<ellipse fill="none" stroke="black" cx="124" cy="-233" rx="108" ry="29"/>
<text text-anchor="middle" x="124" y="-229.4" font-family="Times Roman,serif" font-size="14.00">ISO4762</text>
</g>
<!-- ISO4762&#45;&gt;hexsocketheadcap -->
<g id="edge16" class="edge"><title>ISO4762&#45;&gt;hexsocketheadcap</title>
<path fill="none" stroke="black" d="M232.338,-233C263.545,-233 297.748,-233 329.536,-233"/>
<polygon fill="black" stroke="black" points="329.764,-236.5 339.764,-233 329.764,-229.5 329.764,-236.5"/>
</g>
<!-- DINENISO4762 -->
<g id="node9" class="node"><title>DINENISO4762</title>
<ellipse fill="none" stroke="black" cx="124" cy="-139" rx="108" ry="29"/>
<text text-anchor="middle" x="124" y="-135.4" font-family="Times Roman,serif" font-size="14.00">DINENISO4762</text>
</g>
<!-- DINENISO4762&#45;&gt;hexsocketheadcap -->
<g id="edge18" class="edge"><title>DINENISO4762&#45;&gt;hexsocketheadcap</title>
<path fill="none" stroke="black" d="M197.521,-160.33C247.247,-174.757 313.017,-193.838 364.685,-208.828"/>
<polygon fill="black" stroke="black" points="363.911,-212.248 374.49,-211.673 365.862,-205.525 363.911,-212.248"/>
</g>
<!-- DIN912 -->
<g id="node10" class="node"><title>DIN912</title>
<ellipse fill="none" stroke="black" cx="124" cy="-45" rx="108" ry="29"/>
<text text-anchor="middle" x="124" y="-41.4" font-family="Times Roman,serif" font-size="14.00">DIN912</text>
</g>
<!-- DIN912&#45;&gt;hexsocketheadcap -->
<g id="edge20" class="edge"><title>DIN912&#45;&gt;hexsocketheadcap</title>
<path fill="none" stroke="black" d="M183.699,-69.1884C212.122,-80.7045 240,-92 240,-92 240,-92 338.016,-158.444 399.479,-200.109"/>
<polygon fill="black" stroke="black" points="397.654,-203.1 407.896,-205.814 401.582,-197.306 397.654,-203.1"/>
</g>
</g>
</svg>
