<?xml version="1.0" encoding="UTF-8" standalone="no"?>
<!DOCTYPE svg PUBLIC "-//W3C//DTD SVG 1.1//EN"
 "http://www.w3.org/Graphics/SVG/1.1/DTD/svg11.dtd">
<!-- Generated by graphviz version 2.26.3 (20100126.1600)
 -->
<!-- Title: G Pages: 1 -->
<svg width="976pt" height="1440pt"
 viewBox="0.00 0.00 976.00 1440.00" xmlns="http://www.w3.org/2000/svg" xmlns:xlink="http://www.w3.org/1999/xlink">
<g id="graph1" class="graph" transform="scale(1 1) rotate(0) translate(4 1436)">
<title>G</title>
<polygon fill="white" stroke="white" points="-4,5 -4,-1436 973,-1436 973,5 -4,5"/>
<g id="graph2" class="cluster"><title>cluster_cl</title>
<polygon fill="none" stroke="black" points="332,-290 332,-954 564,-954 564,-290 332,-290"/>
<text text-anchor="middle" x="448" y="-937.4" font-family="Times Roman,serif" font-size="14.00">Classes</text>
</g>
<g id="graph3" class="cluster"><title>cluster_std</title>
<polygon fill="none" stroke="black" points="8,-8 8,-1424 240,-1424 240,-8 8,-8"/>
<text text-anchor="middle" x="124" y="-1407.4" font-family="Times Roman,serif" font-size="14.00">Standards</text>
</g>
<g id="graph5" class="cluster"><title>cluster_ocd</title>
<polygon fill="none" stroke="black" points="656,-760 656,-954 960,-954 960,-760 656,-760"/>
<text text-anchor="middle" x="808" y="-937.4" font-family="Times Roman,serif" font-size="14.00">OpenSCAD</text>
</g>
<!-- hexsocketcountersunk -->
<g id="node2" class="node"><title>hexsocketcountersunk</title>
<ellipse fill="none" stroke="black" cx="448" cy="-891" rx="108" ry="29"/>
<text text-anchor="middle" x="448" y="-887.4" font-family="Times Roman,serif" font-size="14.00">hexsocketcountersunk</text>
</g>
<!-- hex_socket.scad:hex_socket1 -->
<g id="node27" class="node"><title>hex_socket.scad:hex_socket1</title>
<ellipse fill="none" stroke="black" cx="808" cy="-891" rx="144" ry="29"/>
<text text-anchor="middle" x="808" y="-887.4" font-family="Times Roman,serif" font-size="14.00">hex_socket.scad:hex_socket1</text>
</g>
<!-- hexsocketcountersunk&#45;&gt;hex_socket.scad:hex_socket1 -->
<g id="edge6" class="edge"><title>hexsocketcountersunk&#45;&gt;hex_socket.scad:hex_socket1</title>
<path fill="none" stroke="black" d="M556.012,-891C586.7,-891 620.73,-891 653.598,-891"/>
<polygon fill="black" stroke="black" points="653.756,-894.5 663.756,-891 653.756,-887.5 653.756,-894.5"/>
</g>
<!-- hexsocketheadcap -->
<g id="node3" class="node"><title>hexsocketheadcap</title>
<ellipse fill="none" stroke="black" cx="448" cy="-797" rx="108" ry="29"/>
<text text-anchor="middle" x="448" y="-793.4" font-family="Times Roman,serif" font-size="14.00">hexsocketheadcap</text>
</g>
<!-- hex_socket.scad:hex_socket2 -->
<g id="node28" class="node"><title>hex_socket.scad:hex_socket2</title>
<ellipse fill="none" stroke="black" cx="808" cy="-797" rx="144" ry="29"/>
<text text-anchor="middle" x="808" y="-793.4" font-family="Times Roman,serif" font-size="14.00">hex_socket.scad:hex_socket2</text>
</g>
<!-- hexsocketheadcap&#45;&gt;hex_socket.scad:hex_socket2 -->
<g id="edge14" class="edge"><title>hexsocketheadcap&#45;&gt;hex_socket.scad:hex_socket2</title>
<path fill="none" stroke="black" d="M556.012,-797C586.7,-797 620.73,-797 653.598,-797"/>
<polygon fill="black" stroke="black" points="653.756,-800.5 663.756,-797 653.756,-793.5 653.756,-800.5"/>
</g>
<!-- hexsocketsetscrewflat -->
<g id="node4" class="node"><title>hexsocketsetscrewflat</title>
<ellipse fill="none" stroke="black" cx="448" cy="-703" rx="108" ry="29"/>
<text text-anchor="middle" x="448" y="-699.4" font-family="Times Roman,serif" font-size="14.00">hexsocketsetscrewflat</text>
</g>
<!-- hexsocketsetscrewcone -->
<g id="node5" class="node"><title>hexsocketsetscrewcone</title>
<ellipse fill="none" stroke="black" cx="448" cy="-609" rx="108" ry="29"/>
<text text-anchor="middle" x="448" y="-605.4" font-family="Times Roman,serif" font-size="14.00">hexsocketsetscrewcone</text>
</g>
<!-- hexsocketsetscrewdog -->
<g id="node6" class="node"><title>hexsocketsetscrewdog</title>
<ellipse fill="none" stroke="black" cx="448" cy="-515" rx="108" ry="29"/>
<text text-anchor="middle" x="448" y="-511.4" font-family="Times Roman,serif" font-size="14.00">hexsocketsetscrewdog</text>
</g>
<!-- hexsocketsetscrewcup -->
<g id="node7" class="node"><title>hexsocketsetscrewcup</title>
<ellipse fill="none" stroke="black" cx="448" cy="-421" rx="108" ry="29"/>
<text text-anchor="middle" x="448" y="-417.4" font-family="Times Roman,serif" font-size="14.00">hexsocketsetscrewcup</text>
</g>
<!-- hexsocketsetscrewall -->
<g id="node8" class="node"><title>hexsocketsetscrewall</title>
<ellipse fill="none" stroke="black" cx="448" cy="-327" rx="108" ry="29"/>
<text text-anchor="middle" x="448" y="-323.4" font-family="Times Roman,serif" font-size="14.00">hexsocketsetscrewall</text>
</g>
<!-- ISO10642 -->
<g id="node10" class="node"><title>ISO10642</title>
<ellipse fill="none" stroke="black" cx="124" cy="-1361" rx="108" ry="29"/>
<text text-anchor="middle" x="124" y="-1357.4" font-family="Times Roman,serif" font-size="14.00">ISO10642</text>
</g>
<!-- ISO10642&#45;&gt;hexsocketcountersunk -->
<g id="edge8" class="edge"><title>ISO10642&#45;&gt;hexsocketcountersunk</title>
<path fill="none" stroke="black" d="M183.699,-1336.81C212.122,-1325.3 240,-1314 240,-1314 240,-1314 377.962,-1033.43 429.168,-929.298"/>
<polygon fill="black" stroke="black" points="432.431,-930.593 433.703,-920.075 426.15,-927.504 432.431,-930.593"/>
</g>
<!-- DINISO10642 -->
<g id="node11" class="node"><title>DINISO10642</title>
<ellipse fill="none" stroke="black" cx="124" cy="-1267" rx="108" ry="29"/>
<text text-anchor="middle" x="124" y="-1263.4" font-family="Times Roman,serif" font-size="14.00">DINISO10642</text>
</g>
<!-- DINISO10642&#45;&gt;hexsocketcountersunk -->
<g id="edge10" class="edge"><title>DINISO10642&#45;&gt;hexsocketcountersunk</title>
<path fill="none" stroke="black" d="M183.699,-1242.81C212.122,-1231.3 240,-1220 240,-1220 240,-1220 369.94,-1014.47 424.414,-928.306"/>
<polygon fill="black" stroke="black" points="427.52,-929.944 429.905,-919.621 421.603,-926.203 427.52,-929.944"/>
</g>
<!-- DIN7991 -->
<g id="node12" class="node"><title>DIN7991</title>
<ellipse fill="none" stroke="black" cx="124" cy="-1173" rx="108" ry="29"/>
<text text-anchor="middle" x="124" y="-1169.4" font-family="Times Roman,serif" font-size="14.00">DIN7991</text>
</g>
<!-- DIN7991&#45;&gt;hexsocketcountersunk -->
<g id="edge12" class="edge"><title>DIN7991&#45;&gt;hexsocketcountersunk</title>
<path fill="none" stroke="black" d="M183.699,-1148.81C212.122,-1137.3 240,-1126 240,-1126 240,-1126 357.816,-992.891 416.108,-927.031"/>
<polygon fill="black" stroke="black" points="418.903,-929.154 422.91,-919.346 413.662,-924.515 418.903,-929.154"/>
</g>
<!-- ISO4762 -->
<g id="node13" class="node"><title>ISO4762</title>
<ellipse fill="none" stroke="black" cx="124" cy="-1079" rx="108" ry="29"/>
<text text-anchor="middle" x="124" y="-1075.4" font-family="Times Roman,serif" font-size="14.00">ISO4762</text>
</g>
<!-- ISO4762&#45;&gt;hexsocketheadcap -->
<g id="edge16" class="edge"><title>ISO4762&#45;&gt;hexsocketheadcap</title>
<path fill="none" stroke="black" d="M183.699,-1054.81C212.122,-1043.3 240,-1032 240,-1032 240,-1032 332,-844 332,-844 332,-844 354.113,-835.04 379.03,-824.945"/>
<polygon fill="black" stroke="black" points="380.347,-828.188 388.301,-821.188 377.719,-821.7 380.347,-828.188"/>
</g>
<!-- DINENISO4762 -->
<g id="node14" class="node"><title>DINENISO4762</title>
<ellipse fill="none" stroke="black" cx="124" cy="-985" rx="108" ry="29"/>
<text text-anchor="middle" x="124" y="-981.4" font-family="Times Roman,serif" font-size="14.00">DINENISO4762</text>
</g>
<!-- DINENISO4762&#45;&gt;hexsocketheadcap -->
<g id="edge18" class="edge"><title>DINENISO4762&#45;&gt;hexsocketheadcap</title>
<path fill="none" stroke="black" d="M183.699,-960.812C212.122,-949.295 240,-938 240,-938 240,-938 332,-844 332,-844 332,-844 354.113,-835.04 379.03,-824.945"/>
<polygon fill="black" stroke="black" points="380.347,-828.188 388.301,-821.188 377.719,-821.7 380.347,-828.188"/>
</g>
<!-- DIN912 -->
<g id="node15" class="node"><title>DIN912</title>
<ellipse fill="none" stroke="black" cx="124" cy="-891" rx="108" ry="29"/>
<text text-anchor="middle" x="124" y="-887.4" font-family="Times Roman,serif" font-size="14.00">DIN912</text>
</g>
<!-- DIN912&#45;&gt;hexsocketheadcap -->
<g id="edge20" class="edge"><title>DIN912&#45;&gt;hexsocketheadcap</title>
<path fill="none" stroke="black" d="M197.521,-869.67C247.247,-855.243 313.017,-836.162 364.685,-821.172"/>
<polygon fill="black" stroke="black" points="365.862,-824.475 374.49,-818.327 363.911,-817.752 365.862,-824.475"/>
</g>
<!-- DIN913 -->
<g id="node16" class="node"><title>DIN913</title>
<ellipse fill="none" stroke="black" cx="124" cy="-797" rx="108" ry="29"/>
<text text-anchor="middle" x="124" y="-793.4" font-family="Times Roman,serif" font-size="14.00">DIN913</text>
</g>
<!-- DIN913&#45;&gt;hexsocketsetscrewflat -->
<g id="edge22" class="edge"><title>DIN913&#45;&gt;hexsocketsetscrewflat</title>
<path fill="none" stroke="black" d="M197.521,-775.67C247.247,-761.243 313.017,-742.162 364.685,-727.172"/>
<polygon fill="black" stroke="black" points="365.862,-730.475 374.49,-724.327 363.911,-723.752 365.862,-730.475"/>
</g>
<!-- ISO4026 -->
<g id="node17" class="node"><title>ISO4026</title>
<ellipse fill="none" stroke="black" cx="124" cy="-703" rx="108" ry="29"/>
<text text-anchor="middle" x="124" y="-699.4" font-family="Times Roman,serif" font-size="14.00">ISO4026</text>
</g>
<!-- ISO4026&#45;&gt;hexsocketsetscrewflat -->
<g id="edge24" class="edge"><title>ISO4026&#45;&gt;hexsocketsetscrewflat</title>
<path fill="none" stroke="black" d="M232.338,-703C263.545,-703 297.748,-703 329.536,-703"/>
<polygon fill="black" stroke="black" points="329.764,-706.5 339.764,-703 329.764,-699.5 329.764,-706.5"/>
</g>
<!-- DIN914 -->
<g id="node18" class="node"><title>DIN914</title>
<ellipse fill="none" stroke="black" cx="124" cy="-609" rx="108" ry="29"/>
<text text-anchor="middle" x="124" y="-605.4" font-family="Times Roman,serif" font-size="14.00">DIN914</text>
</g>
<!-- DIN914&#45;&gt;hexsocketsetscrewcone -->
<g id="edge26" class="edge"><title>DIN914&#45;&gt;hexsocketsetscrewcone</title>
<path fill="none" stroke="black" d="M232.338,-609C263.545,-609 297.748,-609 329.536,-609"/>
<polygon fill="black" stroke="black" points="329.764,-612.5 339.764,-609 329.764,-605.5 329.764,-612.5"/>
</g>
<!-- ISO4027 -->
<g id="node19" class="node"><title>ISO4027</title>
<ellipse fill="none" stroke="black" cx="124" cy="-515" rx="108" ry="29"/>
<text text-anchor="middle" x="124" y="-511.4" font-family="Times Roman,serif" font-size="14.00">ISO4027</text>
</g>
<!-- ISO4027&#45;&gt;hexsocketsetscrewcone -->
<g id="edge28" class="edge"><title>ISO4027&#45;&gt;hexsocketsetscrewcone</title>
<path fill="none" stroke="black" d="M197.521,-536.33C247.247,-550.757 313.017,-569.838 364.685,-584.828"/>
<polygon fill="black" stroke="black" points="363.911,-588.248 374.49,-587.673 365.862,-581.525 363.911,-588.248"/>
</g>
<!-- DIN915 -->
<g id="node20" class="node"><title>DIN915</title>
<ellipse fill="none" stroke="black" cx="124" cy="-421" rx="108" ry="29"/>
<text text-anchor="middle" x="124" y="-417.4" font-family="Times Roman,serif" font-size="14.00">DIN915</text>
</g>
<!-- DIN915&#45;&gt;hexsocketsetscrewdog -->
<g id="edge30" class="edge"><title>DIN915&#45;&gt;hexsocketsetscrewdog</title>
<path fill="none" stroke="black" d="M197.521,-442.33C247.247,-456.757 313.017,-475.838 364.685,-490.828"/>
<polygon fill="black" stroke="black" points="363.911,-494.248 374.49,-493.673 365.862,-487.525 363.911,-494.248"/>
</g>
<!-- ISO4028 -->
<g id="node21" class="node"><title>ISO4028</title>
<ellipse fill="none" stroke="black" cx="124" cy="-327" rx="108" ry="29"/>
<text text-anchor="middle" x="124" y="-323.4" font-family="Times Roman,serif" font-size="14.00">ISO4028</text>
</g>
<!-- ISO4028&#45;&gt;hexsocketsetscrewdog -->
<g id="edge32" class="edge"><title>ISO4028&#45;&gt;hexsocketsetscrewdog</title>
<path fill="none" stroke="black" d="M183.699,-351.188C212.122,-362.705 240,-374 240,-374 240,-374 332,-468 332,-468 332,-468 354.113,-476.96 379.03,-487.055"/>
<polygon fill="black" stroke="black" points="377.719,-490.3 388.301,-490.812 380.347,-483.812 377.719,-490.3"/>
</g>
<!-- DIN916 -->
<g id="node22" class="node"><title>DIN916</title>
<ellipse fill="none" stroke="black" cx="124" cy="-233" rx="108" ry="29"/>
<text text-anchor="middle" x="124" y="-229.4" font-family="Times Roman,serif" font-size="14.00">DIN916</text>
</g>
<!-- DIN916&#45;&gt;hexsocketsetscrewcup -->
<g id="edge34" class="edge"><title>DIN916&#45;&gt;hexsocketsetscrewcup</title>
<path fill="none" stroke="black" d="M183.699,-257.188C212.122,-268.705 240,-280 240,-280 240,-280 332,-374 332,-374 332,-374 354.113,-382.96 379.03,-393.055"/>
<polygon fill="black" stroke="black" points="377.719,-396.3 388.301,-396.812 380.347,-389.812 377.719,-396.3"/>
</g>
<!-- ISO4029 -->
<g id="node23" class="node"><title>ISO4029</title>
<ellipse fill="none" stroke="black" cx="124" cy="-139" rx="108" ry="29"/>
<text text-anchor="middle" x="124" y="-135.4" font-family="Times Roman,serif" font-size="14.00">ISO4029</text>
</g>
<!-- ISO4029&#45;&gt;hexsocketsetscrewcup -->
<g id="edge36" class="edge"><title>ISO4029&#45;&gt;hexsocketsetscrewcup</title>
<path fill="none" stroke="black" d="M183.699,-163.188C212.122,-174.705 240,-186 240,-186 240,-186 332,-374 332,-374 332,-374 354.113,-382.96 379.03,-393.055"/>
<polygon fill="black" stroke="black" points="377.719,-396.3 388.301,-396.812 380.347,-389.812 377.719,-396.3"/>
</g>
<!-- ANSI B18.3.6M -->
<g id="node24" class="node"><title>ANSI B18.3.6M</title>
<ellipse fill="none" stroke="black" cx="124" cy="-45" rx="108" ry="29"/>
<text text-anchor="middle" x="124" y="-41.4" font-family="Times Roman,serif" font-size="14.00">ANSI B18.3.6M</text>
</g>
<!-- ANSI B18.3.6M&#45;&gt;hexsocketsetscrewall -->
<g id="edge38" class="edge"><title>ANSI B18.3.6M&#45;&gt;hexsocketsetscrewall</title>
<path fill="none" stroke="black" d="M183.699,-69.1884C212.122,-80.7045 240,-92 240,-92 240,-92 357.816,-225.109 416.108,-290.969"/>
<polygon fill="black" stroke="black" points="413.662,-293.485 422.91,-298.654 418.903,-288.846 413.662,-293.485"/>
</g>
</g>
</svg>
