<?xml version="1.0" encoding="UTF-8" standalone="no"?>
<!DOCTYPE svg PUBLIC "-//W3C//DTD SVG 1.1//EN"
 "http://www.w3.org/Graphics/SVG/1.1/DTD/svg11.dtd">
<!-- Generated by graphviz version 2.26.3 (20100126.1600)
 -->
<!-- Title: G Pages: 1 -->
<svg width="976pt" height="688pt"
 viewBox="0.00 0.00 976.00 688.00" xmlns="http://www.w3.org/2000/svg" xmlns:xlink="http://www.w3.org/1999/xlink">
<g id="graph1" class="graph" transform="scale(1 1) rotate(0) translate(4 684)">
<title>G</title>
<polygon fill="white" stroke="white" points="-4,5 -4,-684 973,-684 973,5 -4,5"/>
<g id="graph2" class="cluster"><title>cluster_cl</title>
<polygon fill="none" stroke="black" points="332,-102 332,-578 564,-578 564,-102 332,-102"/>
<text text-anchor="middle" x="448" y="-561.4" font-family="Times Roman,serif" font-size="14.00">Classes</text>
</g>
<g id="graph3" class="cluster"><title>cluster_std</title>
<polygon fill="none" stroke="black" points="8,-8 8,-672 240,-672 240,-8 8,-8"/>
<text text-anchor="middle" x="124" y="-655.4" font-family="Times Roman,serif" font-size="14.00">Standards</text>
</g>
<g id="graph4" class="cluster"><title>cluster_fcd</title>
<polygon fill="none" stroke="black" points="656,-344 656,-444 960,-444 960,-344 656,-344"/>
<text text-anchor="middle" x="808" y="-427.4" font-family="Times Roman,serif" font-size="14.00">FreeCAD</text>
</g>
<g id="graph5" class="cluster"><title>cluster_ocd</title>
<polygon fill="none" stroke="black" points="656,-236 656,-336 960,-336 960,-236 656,-236"/>
<text text-anchor="middle" x="808" y="-319.4" font-family="Times Roman,serif" font-size="14.00">OpenSCAD</text>
</g>
<!-- hexagonthinnut1 -->
<g id="node2" class="node"><title>hexagonthinnut1</title>
<ellipse fill="none" stroke="black" cx="448" cy="-515" rx="108" ry="29"/>
<text text-anchor="middle" x="448" y="-511.4" font-family="Times Roman,serif" font-size="14.00">hexagonthinnut1</text>
</g>
<!-- nut.py:nut1 -->
<g id="node16" class="node"><title>nut.py:nut1</title>
<ellipse fill="none" stroke="black" cx="808" cy="-381" rx="144" ry="29"/>
<text text-anchor="middle" x="808" y="-377.4" font-family="Times Roman,serif" font-size="14.00">nut.py:nut1</text>
</g>
<!-- hexagonthinnut1&#45;&gt;nut.py:nut1 -->
<g id="edge6" class="edge"><title>hexagonthinnut1&#45;&gt;nut.py:nut1</title>
<path fill="none" stroke="black" d="M511.532,-491.352C572.424,-468.687 664.479,-434.422 729.837,-410.094"/>
<polygon fill="black" stroke="black" points="731.128,-413.348 739.279,-406.579 728.686,-406.788 731.128,-413.348"/>
</g>
<!-- nut.scad:nut1 -->
<g id="node18" class="node"><title>nut.scad:nut1</title>
<ellipse fill="none" stroke="black" cx="808" cy="-273" rx="144" ry="29"/>
<text text-anchor="middle" x="808" y="-269.4" font-family="Times Roman,serif" font-size="14.00">nut.scad:nut1</text>
</g>
<!-- hexagonthinnut1&#45;&gt;nut.scad:nut1 -->
<g id="edge8" class="edge"><title>hexagonthinnut1&#45;&gt;nut.scad:nut1</title>
<path fill="none" stroke="black" d="M507.699,-490.812C536.122,-479.295 564,-468 564,-468 564,-468 656,-335 656,-335 656,-335 695.801,-318.765 734.67,-302.911"/>
<polygon fill="black" stroke="black" points="736.041,-306.132 743.979,-299.114 733.398,-299.65 736.041,-306.132"/>
</g>
<!-- hexagonthinnut2 -->
<g id="node3" class="node"><title>hexagonthinnut2</title>
<ellipse fill="none" stroke="black" cx="448" cy="-421" rx="108" ry="29"/>
<text text-anchor="middle" x="448" y="-417.4" font-family="Times Roman,serif" font-size="14.00">hexagonthinnut2</text>
</g>
<!-- hexagonthinnut2&#45;&gt;nut.py:nut1 -->
<g id="edge14" class="edge"><title>hexagonthinnut2&#45;&gt;nut.py:nut1</title>
<path fill="none" stroke="black" d="M547.802,-409.911C586.057,-405.66 630.387,-400.735 671.497,-396.167"/>
<polygon fill="black" stroke="black" points="672.042,-399.628 681.595,-395.045 671.269,-392.671 672.042,-399.628"/>
</g>
<!-- hexagonthinnut2&#45;&gt;nut.scad:nut1 -->
<g id="edge16" class="edge"><title>hexagonthinnut2&#45;&gt;nut.scad:nut1</title>
<path fill="none" stroke="black" d="M507.699,-396.812C536.122,-385.295 564,-374 564,-374 564,-374 656,-335 656,-335 656,-335 695.801,-318.765 734.67,-302.911"/>
<polygon fill="black" stroke="black" points="736.041,-306.132 743.979,-299.114 733.398,-299.65 736.041,-306.132"/>
</g>
<!-- hexagonnut1 -->
<g id="node4" class="node"><title>hexagonnut1</title>
<ellipse fill="none" stroke="black" cx="448" cy="-327" rx="108" ry="29"/>
<text text-anchor="middle" x="448" y="-323.4" font-family="Times Roman,serif" font-size="14.00">hexagonnut1</text>
</g>
<!-- hexagonnut1&#45;&gt;nut.py:nut1 -->
<g id="edge20" class="edge"><title>hexagonnut1&#45;&gt;nut.py:nut1</title>
<path fill="none" stroke="black" d="M542.586,-341.188C585.284,-347.593 636.33,-355.249 682.198,-362.13"/>
<polygon fill="black" stroke="black" points="681.797,-365.609 692.205,-363.631 682.835,-358.686 681.797,-365.609"/>
</g>
<!-- hexagonnut1&#45;&gt;nut.scad:nut1 -->
<g id="edge22" class="edge"><title>hexagonnut1&#45;&gt;nut.scad:nut1</title>
<path fill="none" stroke="black" d="M542.586,-312.812C585.284,-306.407 636.33,-298.751 682.198,-291.87"/>
<polygon fill="black" stroke="black" points="682.835,-295.314 692.205,-290.369 681.797,-288.391 682.835,-295.314"/>
</g>
<!-- hexagonnut2 -->
<g id="node5" class="node"><title>hexagonnut2</title>
<ellipse fill="none" stroke="black" cx="448" cy="-233" rx="108" ry="29"/>
<text text-anchor="middle" x="448" y="-229.4" font-family="Times Roman,serif" font-size="14.00">hexagonnut2</text>
</g>
<!-- hexagonnut2&#45;&gt;nut.py:nut1 -->
<g id="edge26" class="edge"><title>hexagonnut2&#45;&gt;nut.py:nut1</title>
<path fill="none" stroke="black" d="M507.699,-257.188C536.122,-268.705 564,-280 564,-280 564,-280 656,-345 656,-345 656,-345 677.459,-350.082 704.25,-356.428"/>
<polygon fill="black" stroke="black" points="703.795,-359.917 714.332,-358.816 705.408,-353.105 703.795,-359.917"/>
</g>
<!-- hexagonnut2&#45;&gt;nut.scad:nut1 -->
<g id="edge28" class="edge"><title>hexagonnut2&#45;&gt;nut.scad:nut1</title>
<path fill="none" stroke="black" d="M547.802,-244.089C586.057,-248.34 630.387,-253.265 671.497,-257.833"/>
<polygon fill="black" stroke="black" points="671.269,-261.329 681.595,-258.955 672.042,-254.372 671.269,-261.329"/>
</g>
<!-- hexagonnut3 -->
<g id="node6" class="node"><title>hexagonnut3</title>
<ellipse fill="none" stroke="black" cx="448" cy="-139" rx="108" ry="29"/>
<text text-anchor="middle" x="448" y="-135.4" font-family="Times Roman,serif" font-size="14.00">hexagonnut3</text>
</g>
<!-- hexagonnut3&#45;&gt;nut.py:nut1 -->
<g id="edge32" class="edge"><title>hexagonnut3&#45;&gt;nut.py:nut1</title>
<path fill="none" stroke="black" d="M507.699,-163.188C536.122,-174.705 564,-186 564,-186 564,-186 656,-345 656,-345 656,-345 677.459,-350.082 704.25,-356.428"/>
<polygon fill="black" stroke="black" points="703.795,-359.917 714.332,-358.816 705.408,-353.105 703.795,-359.917"/>
</g>
<!-- hexagonnut3&#45;&gt;nut.scad:nut1 -->
<g id="edge34" class="edge"><title>hexagonnut3&#45;&gt;nut.scad:nut1</title>
<path fill="none" stroke="black" d="M511.532,-162.648C572.424,-185.313 664.479,-219.578 729.837,-243.906"/>
<polygon fill="black" stroke="black" points="728.686,-247.212 739.279,-247.421 731.128,-240.652 728.686,-247.212"/>
</g>
<!-- ISO4035 -->
<g id="node8" class="node"><title>ISO4035</title>
<ellipse fill="none" stroke="black" cx="124" cy="-609" rx="108" ry="29"/>
<text text-anchor="middle" x="124" y="-605.4" font-family="Times Roman,serif" font-size="14.00">ISO4035</text>
</g>
<!-- ISO4035&#45;&gt;hexagonthinnut1 -->
<g id="edge10" class="edge"><title>ISO4035&#45;&gt;hexagonthinnut1</title>
<path fill="none" stroke="black" d="M197.521,-587.67C247.247,-573.243 313.017,-554.162 364.685,-539.172"/>
<polygon fill="black" stroke="black" points="365.862,-542.475 374.49,-536.327 363.911,-535.752 365.862,-542.475"/>
</g>
<!-- DINENISO4035 -->
<g id="node9" class="node"><title>DINENISO4035</title>
<ellipse fill="none" stroke="black" cx="124" cy="-515" rx="108" ry="29"/>
<text text-anchor="middle" x="124" y="-511.4" font-family="Times Roman,serif" font-size="14.00">DINENISO4035</text>
</g>
<!-- DINENISO4035&#45;&gt;hexagonthinnut1 -->
<g id="edge12" class="edge"><title>DINENISO4035&#45;&gt;hexagonthinnut1</title>
<path fill="none" stroke="black" d="M232.338,-515C263.545,-515 297.748,-515 329.536,-515"/>
<polygon fill="black" stroke="black" points="329.764,-518.5 339.764,-515 329.764,-511.5 329.764,-518.5"/>
</g>
<!-- DIN439B -->
<g id="node10" class="node"><title>DIN439B</title>
<ellipse fill="none" stroke="black" cx="124" cy="-421" rx="108" ry="29"/>
<text text-anchor="middle" x="124" y="-417.4" font-family="Times Roman,serif" font-size="14.00">DIN439B</text>
</g>
<!-- DIN439B&#45;&gt;hexagonthinnut2 -->
<g id="edge18" class="edge"><title>DIN439B&#45;&gt;hexagonthinnut2</title>
<path fill="none" stroke="black" d="M232.338,-421C263.545,-421 297.748,-421 329.536,-421"/>
<polygon fill="black" stroke="black" points="329.764,-424.5 339.764,-421 329.764,-417.5 329.764,-424.5"/>
</g>
<!-- ISO4032 -->
<g id="node11" class="node"><title>ISO4032</title>
<ellipse fill="none" stroke="black" cx="124" cy="-327" rx="108" ry="29"/>
<text text-anchor="middle" x="124" y="-323.4" font-family="Times Roman,serif" font-size="14.00">ISO4032</text>
</g>
<!-- ISO4032&#45;&gt;hexagonnut1 -->
<g id="edge24" class="edge"><title>ISO4032&#45;&gt;hexagonnut1</title>
<path fill="none" stroke="black" d="M232.338,-327C263.545,-327 297.748,-327 329.536,-327"/>
<polygon fill="black" stroke="black" points="329.764,-330.5 339.764,-327 329.764,-323.5 329.764,-330.5"/>
</g>
<!-- DIN934 -->
<g id="node12" class="node"><title>DIN934</title>
<ellipse fill="none" stroke="black" cx="124" cy="-233" rx="108" ry="29"/>
<text text-anchor="middle" x="124" y="-229.4" font-family="Times Roman,serif" font-size="14.00">DIN934</text>
</g>
<!-- DIN934&#45;&gt;hexagonnut2 -->
<g id="edge30" class="edge"><title>DIN934&#45;&gt;hexagonnut2</title>
<path fill="none" stroke="black" d="M232.338,-233C263.545,-233 297.748,-233 329.536,-233"/>
<polygon fill="black" stroke="black" points="329.764,-236.5 339.764,-233 329.764,-229.5 329.764,-236.5"/>
</g>
<!-- ANSI B18.2.2 -->
<g id="node13" class="node"><title>ANSI B18.2.2</title>
<ellipse fill="none" stroke="black" cx="124" cy="-139" rx="108" ry="29"/>
<text text-anchor="middle" x="124" y="-135.4" font-family="Times Roman,serif" font-size="14.00">ANSI B18.2.2</text>
</g>
<!-- ANSI B18.2.2&#45;&gt;hexagonnut3 -->
<g id="edge36" class="edge"><title>ANSI B18.2.2&#45;&gt;hexagonnut3</title>
<path fill="none" stroke="black" d="M232.338,-139C263.545,-139 297.748,-139 329.536,-139"/>
<polygon fill="black" stroke="black" points="329.764,-142.5 339.764,-139 329.764,-135.5 329.764,-142.5"/>
</g>
<!-- ASME B18.2.2 -->
<g id="node14" class="node"><title>ASME B18.2.2</title>
<ellipse fill="none" stroke="black" cx="124" cy="-45" rx="108" ry="29"/>
<text text-anchor="middle" x="124" y="-41.4" font-family="Times Roman,serif" font-size="14.00">ASME B18.2.2</text>
</g>
<!-- ASME B18.2.2&#45;&gt;hexagonnut3 -->
<g id="edge38" class="edge"><title>ASME B18.2.2&#45;&gt;hexagonnut3</title>
<path fill="none" stroke="black" d="M197.521,-66.3301C247.247,-80.7568 313.017,-99.8384 364.685,-114.828"/>
<polygon fill="black" stroke="black" points="363.911,-118.248 374.49,-117.673 365.862,-111.525 363.911,-118.248"/>
</g>
</g>
</svg>
