<?xml version="1.0" encoding="UTF-8" standalone="no"?>
<!DOCTYPE svg PUBLIC "-//W3C//DTD SVG 1.1//EN"
 "http://www.w3.org/Graphics/SVG/1.1/DTD/svg11.dtd">
<!-- Generated by graphviz version 2.26.3 (20100126.1600)
 -->
<!-- Title: G Pages: 1 -->
<svg width="976pt" height="970pt"
 viewBox="0.00 0.00 976.00 970.00" xmlns="http://www.w3.org/2000/svg" xmlns:xlink="http://www.w3.org/1999/xlink">
<g id="graph1" class="graph" transform="scale(1 1) rotate(0) translate(4 966)">
<title>G</title>
<polygon fill="white" stroke="white" points="-4,5 -4,-966 973,-966 973,5 -4,5"/>
<g id="graph2" class="cluster"><title>cluster_cl</title>
<polygon fill="none" stroke="black" points="332,-8 332,-954 564,-954 564,-8 332,-8"/>
<text text-anchor="middle" x="448" y="-937.4" font-family="Times Roman,serif" font-size="14.00">Classes</text>
</g>
<g id="graph3" class="cluster"><title>cluster_std</title>
<polygon fill="none" stroke="black" points="8,-384 8,-860 240,-860 240,-384 8,-384"/>
<text text-anchor="middle" x="124" y="-843.4" font-family="Times Roman,serif" font-size="14.00">Standards</text>
</g>
<g id="graph4" class="cluster"><title>cluster_fcd</title>
<polygon fill="none" stroke="black" points="656,-431 656,-531 960,-531 960,-431 656,-431"/>
<text text-anchor="middle" x="808" y="-514.4" font-family="Times Roman,serif" font-size="14.00">FreeCAD</text>
</g>
<!-- ibeam_hea -->
<g id="node2" class="node"><title>ibeam_hea</title>
<ellipse fill="none" stroke="black" cx="448" cy="-891" rx="108" ry="29"/>
<text text-anchor="middle" x="448" y="-887.4" font-family="Times Roman,serif" font-size="14.00">ibeam_hea</text>
</g>
<!-- profiles&#45;rolled_i&#45;beams.py:ibeam_parallel_flange -->
<g id="node19" class="node"><title>profiles&#45;rolled_i&#45;beams.py:ibeam_parallel_flange</title>
<ellipse fill="none" stroke="black" cx="808" cy="-468" rx="144" ry="29"/>
<text text-anchor="middle" x="808" y="-464.4" font-family="Times Roman,serif" font-size="14.00">profiles&#45;rolled_i&#45;beams.py:ibeam_parallel_flange</text>
</g>
<!-- ibeam_hea&#45;&gt;profiles&#45;rolled_i&#45;beams.py:ibeam_parallel_flange -->
<g id="edge6" class="edge"><title>ibeam_hea&#45;&gt;profiles&#45;rolled_i&#45;beams.py:ibeam_parallel_flange</title>
<path fill="none" stroke="black" d="M507.699,-866.812C536.122,-855.295 564,-844 564,-844 564,-844 722.098,-600.374 783.772,-505.334"/>
<polygon fill="black" stroke="black" points="786.751,-507.174 789.259,-496.88 780.879,-503.363 786.751,-507.174"/>
</g>
<!-- ibeam_heaa -->
<g id="node3" class="node"><title>ibeam_heaa</title>
<ellipse fill="none" stroke="black" cx="448" cy="-797" rx="108" ry="29"/>
<text text-anchor="middle" x="448" y="-793.4" font-family="Times Roman,serif" font-size="14.00">ibeam_heaa</text>
</g>
<!-- ibeam_heaa&#45;&gt;profiles&#45;rolled_i&#45;beams.py:ibeam_parallel_flange -->
<g id="edge10" class="edge"><title>ibeam_heaa&#45;&gt;profiles&#45;rolled_i&#45;beams.py:ibeam_parallel_flange</title>
<path fill="none" stroke="black" d="M507.699,-772.812C536.122,-761.295 564,-750 564,-750 564,-750 710.368,-580.836 776.377,-504.548"/>
<polygon fill="black" stroke="black" points="779.365,-506.444 783.261,-496.592 774.071,-501.864 779.365,-506.444"/>
</g>
<!-- ibeam_heb -->
<g id="node4" class="node"><title>ibeam_heb</title>
<ellipse fill="none" stroke="black" cx="448" cy="-703" rx="108" ry="29"/>
<text text-anchor="middle" x="448" y="-699.4" font-family="Times Roman,serif" font-size="14.00">ibeam_heb</text>
</g>
<!-- ibeam_heb&#45;&gt;profiles&#45;rolled_i&#45;beams.py:ibeam_parallel_flange -->
<g id="edge12" class="edge"><title>ibeam_heb&#45;&gt;profiles&#45;rolled_i&#45;beams.py:ibeam_parallel_flange</title>
<path fill="none" stroke="black" d="M507.699,-678.812C536.122,-667.295 564,-656 564,-656 564,-656 692.725,-556.819 763.18,-502.533"/>
<polygon fill="black" stroke="black" points="765.686,-505.021 771.471,-496.145 761.413,-499.476 765.686,-505.021"/>
</g>
<!-- ibeam_hem -->
<g id="node5" class="node"><title>ibeam_hem</title>
<ellipse fill="none" stroke="black" cx="448" cy="-609" rx="108" ry="29"/>
<text text-anchor="middle" x="448" y="-605.4" font-family="Times Roman,serif" font-size="14.00">ibeam_hem</text>
</g>
<!-- ibeam_hem&#45;&gt;profiles&#45;rolled_i&#45;beams.py:ibeam_parallel_flange -->
<g id="edge16" class="edge"><title>ibeam_hem&#45;&gt;profiles&#45;rolled_i&#45;beams.py:ibeam_parallel_flange</title>
<path fill="none" stroke="black" d="M509.069,-585.081C570.732,-560.93 666.098,-523.578 732.475,-497.581"/>
<polygon fill="black" stroke="black" points="734.016,-500.736 742.051,-493.83 731.463,-494.218 734.016,-500.736"/>
</g>
<!-- ibeam_ipe -->
<g id="node6" class="node"><title>ibeam_ipe</title>
<ellipse fill="none" stroke="black" cx="448" cy="-515" rx="108" ry="29"/>
<text text-anchor="middle" x="448" y="-511.4" font-family="Times Roman,serif" font-size="14.00">ibeam_ipe</text>
</g>
<!-- ibeam_ipe&#45;&gt;profiles&#45;rolled_i&#45;beams.py:ibeam_parallel_flange -->
<g id="edge20" class="edge"><title>ibeam_ipe&#45;&gt;profiles&#45;rolled_i&#45;beams.py:ibeam_parallel_flange</title>
<path fill="none" stroke="black" d="M545.421,-502.281C585.894,-496.997 633.477,-490.785 676.941,-485.111"/>
<polygon fill="black" stroke="black" points="677.554,-488.56 687.017,-483.795 676.648,-481.619 677.554,-488.56"/>
</g>
<!-- ibeam_ipe750 -->
<g id="node7" class="node"><title>ibeam_ipe750</title>
<ellipse fill="none" stroke="black" cx="448" cy="-421" rx="108" ry="29"/>
<text text-anchor="middle" x="448" y="-417.4" font-family="Times Roman,serif" font-size="14.00">ibeam_ipe750</text>
</g>
<!-- ibeam_ipe750&#45;&gt;profiles&#45;rolled_i&#45;beams.py:ibeam_parallel_flange -->
<g id="edge26" class="edge"><title>ibeam_ipe750&#45;&gt;profiles&#45;rolled_i&#45;beams.py:ibeam_parallel_flange</title>
<path fill="none" stroke="black" d="M545.421,-433.719C585.894,-439.003 633.477,-445.215 676.941,-450.889"/>
<polygon fill="black" stroke="black" points="676.648,-454.381 687.017,-452.205 677.554,-447.44 676.648,-454.381"/>
</g>
<!-- ibeam_ipea -->
<g id="node8" class="node"><title>ibeam_ipea</title>
<ellipse fill="none" stroke="black" cx="448" cy="-327" rx="108" ry="29"/>
<text text-anchor="middle" x="448" y="-323.4" font-family="Times Roman,serif" font-size="14.00">ibeam_ipea</text>
</g>
<!-- ibeam_ipea&#45;&gt;profiles&#45;rolled_i&#45;beams.py:ibeam_parallel_flange -->
<g id="edge28" class="edge"><title>ibeam_ipea&#45;&gt;profiles&#45;rolled_i&#45;beams.py:ibeam_parallel_flange</title>
<path fill="none" stroke="black" d="M509.069,-350.919C570.732,-375.07 666.098,-412.422 732.475,-438.419"/>
<polygon fill="black" stroke="black" points="731.463,-441.782 742.051,-442.17 734.016,-435.264 731.463,-441.782"/>
</g>
<!-- ibeam_ipeo -->
<g id="node9" class="node"><title>ibeam_ipeo</title>
<ellipse fill="none" stroke="black" cx="448" cy="-233" rx="108" ry="29"/>
<text text-anchor="middle" x="448" y="-229.4" font-family="Times Roman,serif" font-size="14.00">ibeam_ipeo</text>
</g>
<!-- ibeam_ipeo&#45;&gt;profiles&#45;rolled_i&#45;beams.py:ibeam_parallel_flange -->
<g id="edge30" class="edge"><title>ibeam_ipeo&#45;&gt;profiles&#45;rolled_i&#45;beams.py:ibeam_parallel_flange</title>
<path fill="none" stroke="black" d="M507.699,-257.188C536.122,-268.705 564,-280 564,-280 564,-280 692.725,-379.181 763.18,-433.467"/>
<polygon fill="black" stroke="black" points="761.413,-436.524 771.471,-439.855 765.686,-430.979 761.413,-436.524"/>
</g>
<!-- ibeam_iper -->
<g id="node10" class="node"><title>ibeam_iper</title>
<ellipse fill="none" stroke="black" cx="448" cy="-139" rx="108" ry="29"/>
<text text-anchor="middle" x="448" y="-135.4" font-family="Times Roman,serif" font-size="14.00">ibeam_iper</text>
</g>
<!-- ibeam_iper&#45;&gt;profiles&#45;rolled_i&#45;beams.py:ibeam_parallel_flange -->
<g id="edge32" class="edge"><title>ibeam_iper&#45;&gt;profiles&#45;rolled_i&#45;beams.py:ibeam_parallel_flange</title>
<path fill="none" stroke="black" d="M507.699,-163.188C536.122,-174.705 564,-186 564,-186 564,-186 710.368,-355.164 776.377,-431.452"/>
<polygon fill="black" stroke="black" points="774.071,-434.136 783.261,-439.408 779.365,-429.556 774.071,-434.136"/>
</g>
<!-- ibeam_ipev -->
<g id="node11" class="node"><title>ibeam_ipev</title>
<ellipse fill="none" stroke="black" cx="448" cy="-45" rx="108" ry="29"/>
<text text-anchor="middle" x="448" y="-41.4" font-family="Times Roman,serif" font-size="14.00">ibeam_ipev</text>
</g>
<!-- ibeam_ipev&#45;&gt;profiles&#45;rolled_i&#45;beams.py:ibeam_parallel_flange -->
<g id="edge34" class="edge"><title>ibeam_ipev&#45;&gt;profiles&#45;rolled_i&#45;beams.py:ibeam_parallel_flange</title>
<path fill="none" stroke="black" d="M507.699,-69.1884C536.122,-80.7045 564,-92 564,-92 564,-92 722.098,-335.626 783.772,-430.666"/>
<polygon fill="black" stroke="black" points="780.879,-432.637 789.259,-439.12 786.751,-428.826 780.879,-432.637"/>
</g>
<!-- DIN1025&#45;3 -->
<g id="node13" class="node"><title>DIN1025&#45;3</title>
<ellipse fill="none" stroke="black" cx="124" cy="-797" rx="108" ry="29"/>
<text text-anchor="middle" x="124" y="-793.4" font-family="Times Roman,serif" font-size="14.00">DIN1025&#45;3</text>
</g>
<!-- DIN1025&#45;3&#45;&gt;ibeam_hea -->
<g id="edge8" class="edge"><title>DIN1025&#45;3&#45;&gt;ibeam_hea</title>
<path fill="none" stroke="black" d="M197.521,-818.33C247.247,-832.757 313.017,-851.838 364.685,-866.828"/>
<polygon fill="black" stroke="black" points="363.911,-870.248 374.49,-869.673 365.862,-863.525 363.911,-870.248"/>
</g>
<!-- DIN1025&#45;2 -->
<g id="node14" class="node"><title>DIN1025&#45;2</title>
<ellipse fill="none" stroke="black" cx="124" cy="-703" rx="108" ry="29"/>
<text text-anchor="middle" x="124" y="-699.4" font-family="Times Roman,serif" font-size="14.00">DIN1025&#45;2</text>
</g>
<!-- DIN1025&#45;2&#45;&gt;ibeam_heb -->
<g id="edge14" class="edge"><title>DIN1025&#45;2&#45;&gt;ibeam_heb</title>
<path fill="none" stroke="black" d="M232.338,-703C263.545,-703 297.748,-703 329.536,-703"/>
<polygon fill="black" stroke="black" points="329.764,-706.5 339.764,-703 329.764,-699.5 329.764,-706.5"/>
</g>
<!-- DIN1025&#45;4 -->
<g id="node15" class="node"><title>DIN1025&#45;4</title>
<ellipse fill="none" stroke="black" cx="124" cy="-609" rx="108" ry="29"/>
<text text-anchor="middle" x="124" y="-605.4" font-family="Times Roman,serif" font-size="14.00">DIN1025&#45;4</text>
</g>
<!-- DIN1025&#45;4&#45;&gt;ibeam_hem -->
<g id="edge18" class="edge"><title>DIN1025&#45;4&#45;&gt;ibeam_hem</title>
<path fill="none" stroke="black" d="M232.338,-609C263.545,-609 297.748,-609 329.536,-609"/>
<polygon fill="black" stroke="black" points="329.764,-612.5 339.764,-609 329.764,-605.5 329.764,-612.5"/>
</g>
<!-- DIN1025&#45;5 -->
<g id="node16" class="node"><title>DIN1025&#45;5</title>
<ellipse fill="none" stroke="black" cx="124" cy="-515" rx="108" ry="29"/>
<text text-anchor="middle" x="124" y="-511.4" font-family="Times Roman,serif" font-size="14.00">DIN1025&#45;5</text>
</g>
<!-- DIN1025&#45;5&#45;&gt;ibeam_ipe -->
<g id="edge22" class="edge"><title>DIN1025&#45;5&#45;&gt;ibeam_ipe</title>
<path fill="none" stroke="black" d="M232.338,-515C263.545,-515 297.748,-515 329.536,-515"/>
<polygon fill="black" stroke="black" points="329.764,-518.5 339.764,-515 329.764,-511.5 329.764,-518.5"/>
</g>
<!-- EN19&#45;57 -->
<g id="node17" class="node"><title>EN19&#45;57</title>
<ellipse fill="none" stroke="black" cx="124" cy="-421" rx="108" ry="29"/>
<text text-anchor="middle" x="124" y="-417.4" font-family="Times Roman,serif" font-size="14.00">EN19&#45;57</text>
</g>
<!-- EN19&#45;57&#45;&gt;ibeam_ipe -->
<g id="edge24" class="edge"><title>EN19&#45;57&#45;&gt;ibeam_ipe</title>
<path fill="none" stroke="black" d="M197.521,-442.33C247.247,-456.757 313.017,-475.838 364.685,-490.828"/>
<polygon fill="black" stroke="black" points="363.911,-494.248 374.49,-493.673 365.862,-487.525 363.911,-494.248"/>
</g>
</g>
</svg>
