<?xml version="1.0" encoding="UTF-8" standalone="no"?>
<!DOCTYPE svg PUBLIC "-//W3C//DTD SVG 1.1//EN"
 "http://www.w3.org/Graphics/SVG/1.1/DTD/svg11.dtd">
<!-- Generated by graphviz version 2.36.0 (20140111.2315)
 -->
<!-- Title: G Pages: 1 -->
<svg width="976pt" height="1061pt"
 viewBox="0.00 0.00 976.00 1061.00" xmlns="http://www.w3.org/2000/svg" xmlns:xlink="http://www.w3.org/1999/xlink">
<g id="graph0" class="graph" transform="scale(1 1) rotate(0) translate(4 1057)">
<title>G</title>
<polygon fill="white" stroke="none" points="-4,4 -4,-1057 972,-1057 972,4 -4,4"/>
<g id="clust1" class="cluster"><title>cluster_cl</title>
<polygon fill="none" stroke="black" points="332,-8 332,-1045 564,-1045 564,-8 332,-8"/>
<text text-anchor="middle" x="448" y="-1029.8" font-family="Times,serif" font-size="14.00">Classes</text>
</g>
<g id="clust2" class="cluster"><title>cluster_std</title>
<polygon fill="none" stroke="black" points="8,-478 8,-951 240,-951 240,-478 8,-478"/>
<text text-anchor="middle" x="124" y="-935.8" font-family="Times,serif" font-size="14.00">Standards</text>
</g>
<g id="clust3" class="cluster"><title>cluster_fcd</title>
<polygon fill="none" stroke="black" points="656,-384 656,-575 960,-575 960,-384 656,-384"/>
<text text-anchor="middle" x="808" y="-559.8" font-family="Times,serif" font-size="14.00">FreeCAD</text>
</g>
<!-- ibeam_hea -->
<g id="node1" class="node"><title>ibeam_hea</title>
<ellipse fill="none" stroke="black" cx="448" cy="-985" rx="108" ry="29"/>
<text text-anchor="middle" x="448" y="-981.3" font-family="Times,serif" font-size="14.00">ibeam_hea</text>
</g>
<!-- profiles&#45;rolled_i&#45;beams.py:ibeam_parallel_flange -->
<g id="node17" class="node"><title>profiles&#45;rolled_i&#45;beams.py:ibeam_parallel_flange</title>
<ellipse fill="none" stroke="black" cx="808" cy="-515" rx="144" ry="29"/>
<text text-anchor="middle" x="808" y="-511.3" font-family="Times,serif" font-size="14.00">profiles&#45;rolled_i&#45;beams.py:ibeam_parallel_flange</text>
</g>
<!-- ibeam_hea&#45;&gt;profiles&#45;rolled_i&#45;beams.py:ibeam_parallel_flange -->
<g id="edge1" class="edge"><title>ibeam_hea&#45;&gt;profiles&#45;rolled_i&#45;beams.py:ibeam_parallel_flange</title>
<path fill="none" stroke="black" d="M506.5,-961C535.25,-949 564,-937 564,-937 564,-937 726.253,-655.227 785.594,-552.174"/>
<polygon fill="black" stroke="black" points="788.722,-553.756 790.679,-543.344 782.656,-550.263 788.722,-553.756"/>
</g>
<!-- ibeam_heaa -->
<g id="node2" class="node"><title>ibeam_heaa</title>
<ellipse fill="none" stroke="black" cx="448" cy="-891" rx="108" ry="29"/>
<text text-anchor="middle" x="448" y="-887.3" font-family="Times,serif" font-size="14.00">ibeam_heaa</text>
</g>
<!-- ibeam_heaa&#45;&gt;profiles&#45;rolled_i&#45;beams.py:ibeam_parallel_flange -->
<g id="edge3" class="edge"><title>ibeam_heaa&#45;&gt;profiles&#45;rolled_i&#45;beams.py:ibeam_parallel_flange</title>
<path fill="none" stroke="black" d="M506.5,-867C535.25,-855 564,-843 564,-843 564,-843 716.784,-636.773 780.057,-551.367"/>
<polygon fill="black" stroke="black" points="782.931,-553.368 786.072,-543.249 777.306,-549.201 782.931,-553.368"/>
</g>
<!-- ibeam_heb -->
<g id="node3" class="node"><title>ibeam_heb</title>
<ellipse fill="none" stroke="black" cx="448" cy="-797" rx="108" ry="29"/>
<text text-anchor="middle" x="448" y="-793.3" font-family="Times,serif" font-size="14.00">ibeam_heb</text>
</g>
<!-- ibeam_heb&#45;&gt;profiles&#45;rolled_i&#45;beams.py:ibeam_parallel_flange -->
<g id="edge4" class="edge"><title>ibeam_heb&#45;&gt;profiles&#45;rolled_i&#45;beams.py:ibeam_parallel_flange</title>
<path fill="none" stroke="black" d="M506.5,-773C535.25,-761 564,-749 564,-749 564,-749 702.2,-615.918 770.156,-550.479"/>
<polygon fill="black" stroke="black" points="772.913,-552.683 777.689,-543.226 768.058,-547.641 772.913,-552.683"/>
</g>
<!-- ibeam_hem -->
<g id="node4" class="node"><title>ibeam_hem</title>
<ellipse fill="none" stroke="black" cx="448" cy="-703" rx="108" ry="29"/>
<text text-anchor="middle" x="448" y="-699.3" font-family="Times,serif" font-size="14.00">ibeam_hem</text>
</g>
<!-- ibeam_hem&#45;&gt;profiles&#45;rolled_i&#45;beams.py:ibeam_parallel_flange -->
<g id="edge6" class="edge"><title>ibeam_hem&#45;&gt;profiles&#45;rolled_i&#45;beams.py:ibeam_parallel_flange</title>
<path fill="none" stroke="black" d="M506.5,-679C535.25,-667 564,-655 564,-655 564,-655 679.448,-588.487 751.194,-547.152"/>
<polygon fill="black" stroke="black" points="753.23,-550.018 760.147,-541.993 749.735,-543.953 753.23,-550.018"/>
</g>
<!-- ibeam_ipe -->
<g id="node5" class="node"><title>ibeam_ipe</title>
<ellipse fill="none" stroke="black" cx="448" cy="-609" rx="108" ry="29"/>
<text text-anchor="middle" x="448" y="-605.3" font-family="Times,serif" font-size="14.00">ibeam_ipe</text>
</g>
<!-- ibeam_ipe&#45;&gt;profiles&#45;rolled_i&#45;beams.py:ibeam_parallel_flange -->
<g id="edge8" class="edge"><title>ibeam_ipe&#45;&gt;profiles&#45;rolled_i&#45;beams.py:ibeam_parallel_flange</title>
<path fill="none" stroke="black" d="M525.361,-588.95C579.424,-574.755 652.354,-555.605 710.454,-540.35"/>
<polygon fill="black" stroke="black" points="711.599,-543.668 720.382,-537.743 709.821,-536.898 711.599,-543.668"/>
</g>
<!-- ibeam_ipe750 -->
<g id="node6" class="node"><title>ibeam_ipe750</title>
<ellipse fill="none" stroke="black" cx="448" cy="-515" rx="108" ry="29"/>
<text text-anchor="middle" x="448" y="-511.3" font-family="Times,serif" font-size="14.00">ibeam_ipe750</text>
</g>
<!-- ibeam_ipe750&#45;&gt;profiles&#45;rolled_i&#45;beams.py:ibeam_parallel_flange -->
<g id="edge11" class="edge"><title>ibeam_ipe750&#45;&gt;profiles&#45;rolled_i&#45;beams.py:ibeam_parallel_flange</title>
<path fill="none" stroke="black" d="M556.412,-515C587.022,-515 620.977,-515 653.755,-515"/>
<polygon fill="black" stroke="black" points="653.885,-518.5 663.885,-515 653.885,-511.5 653.885,-518.5"/>
</g>
<!-- ibeam_ipea -->
<g id="node7" class="node"><title>ibeam_ipea</title>
<ellipse fill="none" stroke="black" cx="448" cy="-421" rx="108" ry="29"/>
<text text-anchor="middle" x="448" y="-417.3" font-family="Times,serif" font-size="14.00">ibeam_ipea</text>
</g>
<!-- ibeam_ipea&#45;&gt;profiles&#45;rolled_i&#45;beams.py:ibeam_parallel_flange -->
<g id="edge12" class="edge"><title>ibeam_ipea&#45;&gt;profiles&#45;rolled_i&#45;beams.py:ibeam_parallel_flange</title>
<path fill="none" stroke="black" d="M525.361,-441.05C579.424,-455.245 652.354,-474.395 710.454,-489.65"/>
<polygon fill="black" stroke="black" points="709.821,-493.102 720.382,-492.257 711.599,-486.332 709.821,-493.102"/>
</g>
<!-- ibeam_ipeo -->
<g id="node8" class="node"><title>ibeam_ipeo</title>
<ellipse fill="none" stroke="black" cx="448" cy="-327" rx="108" ry="29"/>
<text text-anchor="middle" x="448" y="-323.3" font-family="Times,serif" font-size="14.00">ibeam_ipeo</text>
</g>
<!-- ibeam_ipeo&#45;&gt;profiles&#45;rolled_i&#45;beams.py:ibeam_parallel_flange -->
<g id="edge13" class="edge"><title>ibeam_ipeo&#45;&gt;profiles&#45;rolled_i&#45;beams.py:ibeam_parallel_flange</title>
<path fill="none" stroke="black" d="M507.511,-350.913C535.92,-362.524 564,-374 564,-374 564,-374 656,-467 656,-467 656,-467 687.295,-476.948 721.39,-487.786"/>
<polygon fill="black" stroke="black" points="720.467,-491.165 731.058,-490.859 722.588,-484.494 720.467,-491.165"/>
</g>
<!-- ibeam_iper -->
<g id="node9" class="node"><title>ibeam_iper</title>
<ellipse fill="none" stroke="black" cx="448" cy="-233" rx="108" ry="29"/>
<text text-anchor="middle" x="448" y="-229.3" font-family="Times,serif" font-size="14.00">ibeam_iper</text>
</g>
<!-- ibeam_iper&#45;&gt;profiles&#45;rolled_i&#45;beams.py:ibeam_parallel_flange -->
<g id="edge14" class="edge"><title>ibeam_iper&#45;&gt;profiles&#45;rolled_i&#45;beams.py:ibeam_parallel_flange</title>
<path fill="none" stroke="black" d="M507.511,-256.913C535.92,-268.524 564,-280 564,-280 564,-280 656,-467 656,-467 656,-467 687.295,-476.948 721.39,-487.786"/>
<polygon fill="black" stroke="black" points="720.467,-491.165 731.058,-490.859 722.588,-484.494 720.467,-491.165"/>
</g>
<!-- ibeam_ipev -->
<g id="node10" class="node"><title>ibeam_ipev</title>
<ellipse fill="none" stroke="black" cx="448" cy="-139" rx="108" ry="29"/>
<text text-anchor="middle" x="448" y="-135.3" font-family="Times,serif" font-size="14.00">ibeam_ipev</text>
</g>
<!-- ibeam_ipev&#45;&gt;profiles&#45;rolled_i&#45;beams.py:ibeam_parallel_flange -->
<g id="edge15" class="edge"><title>ibeam_ipev&#45;&gt;profiles&#45;rolled_i&#45;beams.py:ibeam_parallel_flange</title>
<path fill="none" stroke="black" d="M507.511,-162.913C535.92,-174.524 564,-186 564,-186 564,-186 656,-467 656,-467 656,-467 687.295,-476.948 721.39,-487.786"/>
<polygon fill="black" stroke="black" points="720.467,-491.165 731.058,-490.859 722.588,-484.494 720.467,-491.165"/>
</g>
<!-- inp -->
<g id="node11" class="node"><title>inp</title>
<ellipse fill="none" stroke="black" cx="448" cy="-45" rx="108" ry="29"/>
<text text-anchor="middle" x="448" y="-41.3" font-family="Times,serif" font-size="14.00">inp</text>
</g>
<!-- profiles&#45;rolled_i&#45;beams.py:ibeam_angled_flange -->
<g id="node18" class="node"><title>profiles&#45;rolled_i&#45;beams.py:ibeam_angled_flange</title>
<ellipse fill="none" stroke="black" cx="808" cy="-421" rx="144" ry="29"/>
<text text-anchor="middle" x="808" y="-417.3" font-family="Times,serif" font-size="14.00">profiles&#45;rolled_i&#45;beams.py:ibeam_angled_flange</text>
</g>
<!-- inp&#45;&gt;profiles&#45;rolled_i&#45;beams.py:ibeam_angled_flange -->
<g id="edge16" class="edge"><title>inp&#45;&gt;profiles&#45;rolled_i&#45;beams.py:ibeam_angled_flange</title>
<path fill="none" stroke="black" d="M507.511,-68.9131C535.92,-80.5238 564,-92 564,-92 564,-92 716.784,-298.856 780.057,-384.522"/>
<polygon fill="black" stroke="black" points="777.315,-386.701 786.072,-392.665 782.946,-382.542 777.315,-386.701"/>
</g>
<!-- DIN1025&#45;3 -->
<g id="node12" class="node"><title>DIN1025&#45;3</title>
<ellipse fill="none" stroke="black" cx="124" cy="-891" rx="108" ry="29"/>
<text text-anchor="middle" x="124" y="-887.3" font-family="Times,serif" font-size="14.00">DIN1025&#45;3</text>
</g>
<!-- DIN1025&#45;3&#45;&gt;ibeam_hea -->
<g id="edge2" class="edge"><title>DIN1025&#45;3&#45;&gt;ibeam_hea</title>
<path fill="none" stroke="black" d="M197.263,-912.095C247.083,-926.639 313.389,-945.996 365.158,-961.108"/>
<polygon fill="black" stroke="black" points="364.398,-964.532 374.978,-963.975 366.36,-957.813 364.398,-964.532"/>
</g>
<!-- DIN1025&#45;2 -->
<g id="node13" class="node"><title>DIN1025&#45;2</title>
<ellipse fill="none" stroke="black" cx="124" cy="-797" rx="108" ry="29"/>
<text text-anchor="middle" x="124" y="-793.3" font-family="Times,serif" font-size="14.00">DIN1025&#45;2</text>
</g>
<!-- DIN1025&#45;2&#45;&gt;ibeam_heb -->
<g id="edge5" class="edge"><title>DIN1025&#45;2&#45;&gt;ibeam_heb</title>
<path fill="none" stroke="black" d="M232.221,-797C263.505,-797 297.848,-797 329.719,-797"/>
<polygon fill="black" stroke="black" points="329.973,-800.5 339.973,-797 329.973,-793.5 329.973,-800.5"/>
</g>
<!-- DIN1025&#45;4 -->
<g id="node14" class="node"><title>DIN1025&#45;4</title>
<ellipse fill="none" stroke="black" cx="124" cy="-703" rx="108" ry="29"/>
<text text-anchor="middle" x="124" y="-699.3" font-family="Times,serif" font-size="14.00">DIN1025&#45;4</text>
</g>
<!-- DIN1025&#45;4&#45;&gt;ibeam_hem -->
<g id="edge7" class="edge"><title>DIN1025&#45;4&#45;&gt;ibeam_hem</title>
<path fill="none" stroke="black" d="M232.221,-703C263.505,-703 297.848,-703 329.719,-703"/>
<polygon fill="black" stroke="black" points="329.973,-706.5 339.973,-703 329.973,-699.5 329.973,-706.5"/>
</g>
<!-- DIN1025&#45;5 -->
<g id="node15" class="node"><title>DIN1025&#45;5</title>
<ellipse fill="none" stroke="black" cx="124" cy="-609" rx="108" ry="29"/>
<text text-anchor="middle" x="124" y="-605.3" font-family="Times,serif" font-size="14.00">DIN1025&#45;5</text>
</g>
<!-- DIN1025&#45;5&#45;&gt;ibeam_ipe -->
<g id="edge9" class="edge"><title>DIN1025&#45;5&#45;&gt;ibeam_ipe</title>
<path fill="none" stroke="black" d="M232.221,-609C263.505,-609 297.848,-609 329.719,-609"/>
<polygon fill="black" stroke="black" points="329.973,-612.5 339.973,-609 329.973,-605.5 329.973,-612.5"/>
</g>
<!-- EN19&#45;57 -->
<g id="node16" class="node"><title>EN19&#45;57</title>
<ellipse fill="none" stroke="black" cx="124" cy="-515" rx="108" ry="29"/>
<text text-anchor="middle" x="124" y="-511.3" font-family="Times,serif" font-size="14.00">EN19&#45;57</text>
</g>
<!-- EN19&#45;57&#45;&gt;ibeam_ipe -->
<g id="edge10" class="edge"><title>EN19&#45;57&#45;&gt;ibeam_ipe</title>
<path fill="none" stroke="black" d="M197.263,-536.095C247.083,-550.639 313.389,-569.996 365.158,-585.108"/>
<polygon fill="black" stroke="black" points="364.398,-588.532 374.978,-587.975 366.36,-581.813 364.398,-588.532"/>
</g>
</g>
</svg>
