<?xml version="1.0" encoding="UTF-8" standalone="no"?>
<!DOCTYPE svg PUBLIC "-//W3C//DTD SVG 1.1//EN"
 "http://www.w3.org/Graphics/SVG/1.1/DTD/svg11.dtd">
<!-- Generated by graphviz version 2.26.3 (20100126.1600)
 -->
<!-- Title: G Pages: 1 -->
<svg width="976pt" height="1064pt"
 viewBox="0.00 0.00 976.00 1064.00" xmlns="http://www.w3.org/2000/svg" xmlns:xlink="http://www.w3.org/1999/xlink">
<g id="graph1" class="graph" transform="scale(1 1) rotate(0) translate(4 1060)">
<title>G</title>
<polygon fill="white" stroke="white" points="-4,5 -4,-1060 973,-1060 973,5 -4,5"/>
<g id="graph2" class="cluster"><title>cluster_cl</title>
<polygon fill="none" stroke="black" points="332,-8 332,-1048 564,-1048 564,-8 332,-8"/>
<text text-anchor="middle" x="448" y="-1031.4" font-family="Times Roman,serif" font-size="14.00">Classes</text>
</g>
<g id="graph3" class="cluster"><title>cluster_std</title>
<polygon fill="none" stroke="black" points="8,-478 8,-954 240,-954 240,-478 8,-478"/>
<text text-anchor="middle" x="124" y="-937.4" font-family="Times Roman,serif" font-size="14.00">Standards</text>
</g>
<g id="graph4" class="cluster"><title>cluster_fcd</title>
<polygon fill="none" stroke="black" points="656,-384 656,-578 960,-578 960,-384 656,-384"/>
<text text-anchor="middle" x="808" y="-561.4" font-family="Times Roman,serif" font-size="14.00">FreeCAD</text>
</g>
<!-- ibeam_hea -->
<g id="node2" class="node"><title>ibeam_hea</title>
<ellipse fill="none" stroke="black" cx="448" cy="-985" rx="108" ry="29"/>
<text text-anchor="middle" x="448" y="-981.4" font-family="Times Roman,serif" font-size="14.00">ibeam_hea</text>
</g>
<!-- profiles&#45;rolled_i&#45;beams.py:ibeam_parallel_flange -->
<g id="node20" class="node"><title>profiles&#45;rolled_i&#45;beams.py:ibeam_parallel_flange</title>
<ellipse fill="none" stroke="black" cx="808" cy="-515" rx="144" ry="29"/>
<text text-anchor="middle" x="808" y="-511.4" font-family="Times Roman,serif" font-size="14.00">profiles&#45;rolled_i&#45;beams.py:ibeam_parallel_flange</text>
</g>
<!-- ibeam_hea&#45;&gt;profiles&#45;rolled_i&#45;beams.py:ibeam_parallel_flange -->
<g id="edge6" class="edge"><title>ibeam_hea&#45;&gt;profiles&#45;rolled_i&#45;beams.py:ibeam_parallel_flange</title>
<path fill="none" stroke="black" d="M507.699,-960.812C536.122,-949.295 564,-938 564,-938 564,-938 726.166,-656.868 786.09,-552.984"/>
<polygon fill="black" stroke="black" points="789.264,-554.486 791.229,-544.075 783.2,-550.988 789.264,-554.486"/>
</g>
<!-- ibeam_heaa -->
<g id="node3" class="node"><title>ibeam_heaa</title>
<ellipse fill="none" stroke="black" cx="448" cy="-891" rx="108" ry="29"/>
<text text-anchor="middle" x="448" y="-887.4" font-family="Times Roman,serif" font-size="14.00">ibeam_heaa</text>
</g>
<!-- ibeam_heaa&#45;&gt;profiles&#45;rolled_i&#45;beams.py:ibeam_parallel_flange -->
<g id="edge10" class="edge"><title>ibeam_heaa&#45;&gt;profiles&#45;rolled_i&#45;beams.py:ibeam_parallel_flange</title>
<path fill="none" stroke="black" d="M507.699,-866.812C536.122,-855.295 564,-844 564,-844 564,-844 716.682,-638.129 780.491,-552.093"/>
<polygon fill="black" stroke="black" points="783.415,-554.025 786.56,-543.908 777.792,-549.855 783.415,-554.025"/>
</g>
<!-- ibeam_heb -->
<g id="node4" class="node"><title>ibeam_heb</title>
<ellipse fill="none" stroke="black" cx="448" cy="-797" rx="108" ry="29"/>
<text text-anchor="middle" x="448" y="-793.4" font-family="Times Roman,serif" font-size="14.00">ibeam_heb</text>
</g>
<!-- ibeam_heb&#45;&gt;profiles&#45;rolled_i&#45;beams.py:ibeam_parallel_flange -->
<g id="edge12" class="edge"><title>ibeam_heb&#45;&gt;profiles&#45;rolled_i&#45;beams.py:ibeam_parallel_flange</title>
<path fill="none" stroke="black" d="M507.699,-772.812C536.122,-761.295 564,-750 564,-750 564,-750 702.078,-617.015 770.493,-551.124"/>
<polygon fill="black" stroke="black" points="773.306,-553.274 778.081,-543.816 768.45,-548.232 773.306,-553.274"/>
</g>
<!-- ibeam_hem -->
<g id="node5" class="node"><title>ibeam_hem</title>
<ellipse fill="none" stroke="black" cx="448" cy="-703" rx="108" ry="29"/>
<text text-anchor="middle" x="448" y="-699.4" font-family="Times Roman,serif" font-size="14.00">ibeam_hem</text>
</g>
<!-- ibeam_hem&#45;&gt;profiles&#45;rolled_i&#45;beams.py:ibeam_parallel_flange -->
<g id="edge16" class="edge"><title>ibeam_hem&#45;&gt;profiles&#45;rolled_i&#45;beams.py:ibeam_parallel_flange</title>
<path fill="none" stroke="black" d="M507.699,-678.812C536.122,-667.295 564,-656 564,-656 564,-656 679.294,-589.375 751.376,-547.721"/>
<polygon fill="black" stroke="black" points="753.468,-550.555 760.375,-542.521 749.966,-544.494 753.468,-550.555"/>
</g>
<!-- ibeam_ipe -->
<g id="node6" class="node"><title>ibeam_ipe</title>
<ellipse fill="none" stroke="black" cx="448" cy="-609" rx="108" ry="29"/>
<text text-anchor="middle" x="448" y="-605.4" font-family="Times Roman,serif" font-size="14.00">ibeam_ipe</text>
</g>
<!-- ibeam_ipe&#45;&gt;profiles&#45;rolled_i&#45;beams.py:ibeam_parallel_flange -->
<g id="edge20" class="edge"><title>ibeam_ipe&#45;&gt;profiles&#45;rolled_i&#45;beams.py:ibeam_parallel_flange</title>
<path fill="none" stroke="black" d="M525.671,-588.719C579.698,-574.612 652.142,-555.696 710.119,-540.558"/>
<polygon fill="black" stroke="black" points="711.239,-543.883 720.03,-537.97 709.47,-537.11 711.239,-543.883"/>
</g>
<!-- ibeam_ipe750 -->
<g id="node7" class="node"><title>ibeam_ipe750</title>
<ellipse fill="none" stroke="black" cx="448" cy="-515" rx="108" ry="29"/>
<text text-anchor="middle" x="448" y="-511.4" font-family="Times Roman,serif" font-size="14.00">ibeam_ipe750</text>
</g>
<!-- ibeam_ipe750&#45;&gt;profiles&#45;rolled_i&#45;beams.py:ibeam_parallel_flange -->
<g id="edge26" class="edge"><title>ibeam_ipe750&#45;&gt;profiles&#45;rolled_i&#45;beams.py:ibeam_parallel_flange</title>
<path fill="none" stroke="black" d="M556.012,-515C586.7,-515 620.73,-515 653.598,-515"/>
<polygon fill="black" stroke="black" points="653.756,-518.5 663.756,-515 653.756,-511.5 653.756,-518.5"/>
</g>
<!-- ibeam_ipea -->
<g id="node8" class="node"><title>ibeam_ipea</title>
<ellipse fill="none" stroke="black" cx="448" cy="-421" rx="108" ry="29"/>
<text text-anchor="middle" x="448" y="-417.4" font-family="Times Roman,serif" font-size="14.00">ibeam_ipea</text>
</g>
<!-- ibeam_ipea&#45;&gt;profiles&#45;rolled_i&#45;beams.py:ibeam_parallel_flange -->
<g id="edge28" class="edge"><title>ibeam_ipea&#45;&gt;profiles&#45;rolled_i&#45;beams.py:ibeam_parallel_flange</title>
<path fill="none" stroke="black" d="M525.671,-441.281C579.698,-455.388 652.142,-474.304 710.119,-489.442"/>
<polygon fill="black" stroke="black" points="709.47,-492.89 720.03,-492.03 711.239,-486.117 709.47,-492.89"/>
</g>
<!-- ibeam_ipeo -->
<g id="node9" class="node"><title>ibeam_ipeo</title>
<ellipse fill="none" stroke="black" cx="448" cy="-327" rx="108" ry="29"/>
<text text-anchor="middle" x="448" y="-323.4" font-family="Times Roman,serif" font-size="14.00">ibeam_ipeo</text>
</g>
<!-- ibeam_ipeo&#45;&gt;profiles&#45;rolled_i&#45;beams.py:ibeam_parallel_flange -->
<g id="edge30" class="edge"><title>ibeam_ipeo&#45;&gt;profiles&#45;rolled_i&#45;beams.py:ibeam_parallel_flange</title>
<path fill="none" stroke="black" d="M507.699,-351.188C536.122,-362.705 564,-374 564,-374 564,-374 656,-468 656,-468 656,-468 686.02,-477.283 719.378,-487.597"/>
<polygon fill="black" stroke="black" points="718.741,-491.064 729.329,-490.674 720.809,-484.376 718.741,-491.064"/>
</g>
<!-- ibeam_iper -->
<g id="node10" class="node"><title>ibeam_iper</title>
<ellipse fill="none" stroke="black" cx="448" cy="-233" rx="108" ry="29"/>
<text text-anchor="middle" x="448" y="-229.4" font-family="Times Roman,serif" font-size="14.00">ibeam_iper</text>
</g>
<!-- ibeam_iper&#45;&gt;profiles&#45;rolled_i&#45;beams.py:ibeam_parallel_flange -->
<g id="edge32" class="edge"><title>ibeam_iper&#45;&gt;profiles&#45;rolled_i&#45;beams.py:ibeam_parallel_flange</title>
<path fill="none" stroke="black" d="M507.699,-257.188C536.122,-268.705 564,-280 564,-280 564,-280 656,-468 656,-468 656,-468 686.02,-477.283 719.378,-487.597"/>
<polygon fill="black" stroke="black" points="718.741,-491.064 729.329,-490.674 720.809,-484.376 718.741,-491.064"/>
</g>
<!-- ibeam_ipev -->
<g id="node11" class="node"><title>ibeam_ipev</title>
<ellipse fill="none" stroke="black" cx="448" cy="-139" rx="108" ry="29"/>
<text text-anchor="middle" x="448" y="-135.4" font-family="Times Roman,serif" font-size="14.00">ibeam_ipev</text>
</g>
<!-- ibeam_ipev&#45;&gt;profiles&#45;rolled_i&#45;beams.py:ibeam_parallel_flange -->
<g id="edge34" class="edge"><title>ibeam_ipev&#45;&gt;profiles&#45;rolled_i&#45;beams.py:ibeam_parallel_flange</title>
<path fill="none" stroke="black" d="M507.699,-163.188C536.122,-174.705 564,-186 564,-186 564,-186 656,-468 656,-468 656,-468 686.02,-477.283 719.378,-487.597"/>
<polygon fill="black" stroke="black" points="718.741,-491.064 729.329,-490.674 720.809,-484.376 718.741,-491.064"/>
</g>
<!-- inp -->
<g id="node12" class="node"><title>inp</title>
<ellipse fill="none" stroke="black" cx="448" cy="-45" rx="108" ry="29"/>
<text text-anchor="middle" x="448" y="-41.4" font-family="Times Roman,serif" font-size="14.00">inp</text>
</g>
<!-- profiles&#45;rolled_i&#45;beams.py:ibeam_angled_flange -->
<g id="node21" class="node"><title>profiles&#45;rolled_i&#45;beams.py:ibeam_angled_flange</title>
<ellipse fill="none" stroke="black" cx="808" cy="-421" rx="144" ry="29"/>
<text text-anchor="middle" x="808" y="-417.4" font-family="Times Roman,serif" font-size="14.00">profiles&#45;rolled_i&#45;beams.py:ibeam_angled_flange</text>
</g>
<!-- inp&#45;&gt;profiles&#45;rolled_i&#45;beams.py:ibeam_angled_flange -->
<g id="edge36" class="edge"><title>inp&#45;&gt;profiles&#45;rolled_i&#45;beams.py:ibeam_angled_flange</title>
<path fill="none" stroke="black" d="M507.699,-69.1884C536.122,-80.7045 564,-92 564,-92 564,-92 716.682,-297.871 780.491,-383.907"/>
<polygon fill="black" stroke="black" points="777.792,-386.145 786.56,-392.092 783.415,-381.975 777.792,-386.145"/>
</g>
<!-- DIN1025&#45;3 -->
<g id="node14" class="node"><title>DIN1025&#45;3</title>
<ellipse fill="none" stroke="black" cx="124" cy="-891" rx="108" ry="29"/>
<text text-anchor="middle" x="124" y="-887.4" font-family="Times Roman,serif" font-size="14.00">DIN1025&#45;3</text>
</g>
<!-- DIN1025&#45;3&#45;&gt;ibeam_hea -->
<g id="edge8" class="edge"><title>DIN1025&#45;3&#45;&gt;ibeam_hea</title>
<path fill="none" stroke="black" d="M197.521,-912.33C247.247,-926.757 313.017,-945.838 364.685,-960.828"/>
<polygon fill="black" stroke="black" points="363.911,-964.248 374.49,-963.673 365.862,-957.525 363.911,-964.248"/>
</g>
<!-- DIN1025&#45;2 -->
<g id="node15" class="node"><title>DIN1025&#45;2</title>
<ellipse fill="none" stroke="black" cx="124" cy="-797" rx="108" ry="29"/>
<text text-anchor="middle" x="124" y="-793.4" font-family="Times Roman,serif" font-size="14.00">DIN1025&#45;2</text>
</g>
<!-- DIN1025&#45;2&#45;&gt;ibeam_heb -->
<g id="edge14" class="edge"><title>DIN1025&#45;2&#45;&gt;ibeam_heb</title>
<path fill="none" stroke="black" d="M232.338,-797C263.545,-797 297.748,-797 329.536,-797"/>
<polygon fill="black" stroke="black" points="329.764,-800.5 339.764,-797 329.764,-793.5 329.764,-800.5"/>
</g>
<!-- DIN1025&#45;4 -->
<g id="node16" class="node"><title>DIN1025&#45;4</title>
<ellipse fill="none" stroke="black" cx="124" cy="-703" rx="108" ry="29"/>
<text text-anchor="middle" x="124" y="-699.4" font-family="Times Roman,serif" font-size="14.00">DIN1025&#45;4</text>
</g>
<!-- DIN1025&#45;4&#45;&gt;ibeam_hem -->
<g id="edge18" class="edge"><title>DIN1025&#45;4&#45;&gt;ibeam_hem</title>
<path fill="none" stroke="black" d="M232.338,-703C263.545,-703 297.748,-703 329.536,-703"/>
<polygon fill="black" stroke="black" points="329.764,-706.5 339.764,-703 329.764,-699.5 329.764,-706.5"/>
</g>
<!-- DIN1025&#45;5 -->
<g id="node17" class="node"><title>DIN1025&#45;5</title>
<ellipse fill="none" stroke="black" cx="124" cy="-609" rx="108" ry="29"/>
<text text-anchor="middle" x="124" y="-605.4" font-family="Times Roman,serif" font-size="14.00">DIN1025&#45;5</text>
</g>
<!-- DIN1025&#45;5&#45;&gt;ibeam_ipe -->
<g id="edge22" class="edge"><title>DIN1025&#45;5&#45;&gt;ibeam_ipe</title>
<path fill="none" stroke="black" d="M232.338,-609C263.545,-609 297.748,-609 329.536,-609"/>
<polygon fill="black" stroke="black" points="329.764,-612.5 339.764,-609 329.764,-605.5 329.764,-612.5"/>
</g>
<!-- EN19&#45;57 -->
<g id="node18" class="node"><title>EN19&#45;57</title>
<ellipse fill="none" stroke="black" cx="124" cy="-515" rx="108" ry="29"/>
<text text-anchor="middle" x="124" y="-511.4" font-family="Times Roman,serif" font-size="14.00">EN19&#45;57</text>
</g>
<!-- EN19&#45;57&#45;&gt;ibeam_ipe -->
<g id="edge24" class="edge"><title>EN19&#45;57&#45;&gt;ibeam_ipe</title>
<path fill="none" stroke="black" d="M197.521,-536.33C247.247,-550.757 313.017,-569.838 364.685,-584.828"/>
<polygon fill="black" stroke="black" points="363.911,-588.248 374.49,-587.673 365.862,-581.525 363.911,-588.248"/>
</g>
</g>
</svg>
