<?xml version="1.0" encoding="UTF-8" standalone="no"?>
<!DOCTYPE svg PUBLIC "-//W3C//DTD SVG 1.1//EN"
 "http://www.w3.org/Graphics/SVG/1.1/DTD/svg11.dtd">
<!-- Generated by graphviz version 2.26.3 (20100126.1600)
 -->
<!-- Title: G Pages: 1 -->
<svg width="652pt" height="1172pt"
 viewBox="0.00 0.00 652.00 1172.00" xmlns="http://www.w3.org/2000/svg" xmlns:xlink="http://www.w3.org/1999/xlink">
<g id="graph1" class="graph" transform="scale(1 1) rotate(0) translate(4 1168)">
<title>G</title>
<polygon fill="white" stroke="white" points="-4,5 -4,-1168 649,-1168 649,5 -4,5"/>
<g id="graph2" class="cluster"><title>cluster_cl</title>
<polygon fill="none" stroke="black" points="8,-8 8,-1142 240,-1142 240,-8 8,-8"/>
<text text-anchor="middle" x="124" y="-1125.4" font-family="Times Roman,serif" font-size="14.00">Classes</text>
</g>
<g id="graph4" class="cluster"><title>cluster_fcd</title>
<polygon fill="none" stroke="black" points="332,-8 332,-672 636,-672 636,-8 332,-8"/>
<text text-anchor="middle" x="484" y="-655.4" font-family="Times Roman,serif" font-size="14.00">FreeCAD</text>
</g>
<g id="graph5" class="cluster"><title>cluster_ocd</title>
<polygon fill="none" stroke="black" points="332,-680 332,-1156 636,-1156 636,-680 332,-680"/>
<text text-anchor="middle" x="484" y="-1139.4" font-family="Times Roman,serif" font-size="14.00">OpenSCAD</text>
</g>
<!-- tslot20x20 -->
<g id="node2" class="node"><title>tslot20x20</title>
<ellipse fill="none" stroke="black" cx="124" cy="-1079" rx="108" ry="29"/>
<text text-anchor="middle" x="124" y="-1075.4" font-family="Times Roman,serif" font-size="14.00">tslot20x20</text>
</g>
<!-- aluminiumProfiles.scad:tslot_20x20_base -->
<g id="node24" class="node"><title>aluminiumProfiles.scad:tslot_20x20_base</title>
<ellipse fill="none" stroke="black" cx="484" cy="-1093" rx="144" ry="29"/>
<text text-anchor="middle" x="484" y="-1089.4" font-family="Times Roman,serif" font-size="14.00">aluminiumProfiles.scad:tslot_20x20_base</text>
</g>
<!-- tslot20x20&#45;&gt;aluminiumProfiles.scad:tslot_20x20_base -->
<g id="edge6" class="edge"><title>tslot20x20&#45;&gt;aluminiumProfiles.scad:tslot_20x20_base</title>
<path fill="none" stroke="black" d="M231.037,-1083.16C262.823,-1084.4 298.263,-1085.78 332.316,-1087.1"/>
<polygon fill="black" stroke="black" points="332.227,-1090.6 342.355,-1087.49 332.499,-1083.61 332.227,-1090.6"/>
</g>
<!-- tslot20x20&#45;1s -->
<g id="node3" class="node"><title>tslot20x20&#45;1s</title>
<ellipse fill="none" stroke="black" cx="124" cy="-985" rx="108" ry="29"/>
<text text-anchor="middle" x="124" y="-981.4" font-family="Times Roman,serif" font-size="14.00">tslot20x20&#45;1s</text>
</g>
<!-- aluminiumProfiles.scad:tslot_20x20_1s_base -->
<g id="node25" class="node"><title>aluminiumProfiles.scad:tslot_20x20_1s_base</title>
<ellipse fill="none" stroke="black" cx="484" cy="-999" rx="144" ry="29"/>
<text text-anchor="middle" x="484" y="-995.4" font-family="Times Roman,serif" font-size="14.00">aluminiumProfiles.scad:tslot_20x20_1s_base</text>
</g>
<!-- tslot20x20&#45;1s&#45;&gt;aluminiumProfiles.scad:tslot_20x20_1s_base -->
<g id="edge8" class="edge"><title>tslot20x20&#45;1s&#45;&gt;aluminiumProfiles.scad:tslot_20x20_1s_base</title>
<path fill="none" stroke="black" d="M231.037,-989.163C262.823,-990.399 298.263,-991.777 332.316,-993.101"/>
<polygon fill="black" stroke="black" points="332.227,-996.6 342.355,-993.492 332.499,-989.606 332.227,-996.6"/>
</g>
<!-- tslot20x20&#45;2s -->
<g id="node4" class="node"><title>tslot20x20&#45;2s</title>
<ellipse fill="none" stroke="black" cx="124" cy="-891" rx="108" ry="29"/>
<text text-anchor="middle" x="124" y="-887.4" font-family="Times Roman,serif" font-size="14.00">tslot20x20&#45;2s</text>
</g>
<!-- aluminiumProfiles.scad:tslot_20x20_2s_base -->
<g id="node26" class="node"><title>aluminiumProfiles.scad:tslot_20x20_2s_base</title>
<ellipse fill="none" stroke="black" cx="484" cy="-905" rx="144" ry="29"/>
<text text-anchor="middle" x="484" y="-901.4" font-family="Times Roman,serif" font-size="14.00">aluminiumProfiles.scad:tslot_20x20_2s_base</text>
</g>
<!-- tslot20x20&#45;2s&#45;&gt;aluminiumProfiles.scad:tslot_20x20_2s_base -->
<g id="edge10" class="edge"><title>tslot20x20&#45;2s&#45;&gt;aluminiumProfiles.scad:tslot_20x20_2s_base</title>
<path fill="none" stroke="black" d="M231.037,-895.163C262.823,-896.399 298.263,-897.777 332.316,-899.101"/>
<polygon fill="black" stroke="black" points="332.227,-902.6 342.355,-899.492 332.499,-895.606 332.227,-902.6"/>
</g>
<!-- tslot20x20&#45;2sa -->
<g id="node5" class="node"><title>tslot20x20&#45;2sa</title>
<ellipse fill="none" stroke="black" cx="124" cy="-797" rx="108" ry="29"/>
<text text-anchor="middle" x="124" y="-793.4" font-family="Times Roman,serif" font-size="14.00">tslot20x20&#45;2sa</text>
</g>
<!-- aluminiumProfiles.scad:tslot_20x20_2sa_base -->
<g id="node27" class="node"><title>aluminiumProfiles.scad:tslot_20x20_2sa_base</title>
<ellipse fill="none" stroke="black" cx="484" cy="-811" rx="144" ry="29"/>
<text text-anchor="middle" x="484" y="-807.4" font-family="Times Roman,serif" font-size="14.00">aluminiumProfiles.scad:tslot_20x20_2sa_base</text>
</g>
<!-- tslot20x20&#45;2sa&#45;&gt;aluminiumProfiles.scad:tslot_20x20_2sa_base -->
<g id="edge12" class="edge"><title>tslot20x20&#45;2sa&#45;&gt;aluminiumProfiles.scad:tslot_20x20_2sa_base</title>
<path fill="none" stroke="black" d="M231.037,-801.163C262.823,-802.399 298.263,-803.777 332.316,-805.101"/>
<polygon fill="black" stroke="black" points="332.227,-808.6 342.355,-805.492 332.499,-801.606 332.227,-808.6"/>
</g>
<!-- tslot20x20&#45;3s -->
<g id="node6" class="node"><title>tslot20x20&#45;3s</title>
<ellipse fill="none" stroke="black" cx="124" cy="-703" rx="108" ry="29"/>
<text text-anchor="middle" x="124" y="-699.4" font-family="Times Roman,serif" font-size="14.00">tslot20x20&#45;3s</text>
</g>
<!-- aluminiumProfiles.scad:tslot_20x20_3s_base -->
<g id="node28" class="node"><title>aluminiumProfiles.scad:tslot_20x20_3s_base</title>
<ellipse fill="none" stroke="black" cx="484" cy="-717" rx="144" ry="29"/>
<text text-anchor="middle" x="484" y="-713.4" font-family="Times Roman,serif" font-size="14.00">aluminiumProfiles.scad:tslot_20x20_3s_base</text>
</g>
<!-- tslot20x20&#45;3s&#45;&gt;aluminiumProfiles.scad:tslot_20x20_3s_base -->
<g id="edge14" class="edge"><title>tslot20x20&#45;3s&#45;&gt;aluminiumProfiles.scad:tslot_20x20_3s_base</title>
<path fill="none" stroke="black" d="M231.037,-707.163C262.823,-708.399 298.263,-709.777 332.316,-711.101"/>
<polygon fill="black" stroke="black" points="332.227,-714.6 342.355,-711.492 332.499,-707.606 332.227,-714.6"/>
</g>
<!-- vslot20x20 -->
<g id="node7" class="node"><title>vslot20x20</title>
<ellipse fill="none" stroke="black" cx="124" cy="-609" rx="108" ry="29"/>
<text text-anchor="middle" x="124" y="-605.4" font-family="Times Roman,serif" font-size="14.00">vslot20x20</text>
</g>
<!-- profiles.py:vslot20x20 -->
<g id="node16" class="node"><title>profiles.py:vslot20x20</title>
<ellipse fill="none" stroke="black" cx="484" cy="-609" rx="144" ry="29"/>
<text text-anchor="middle" x="484" y="-605.4" font-family="Times Roman,serif" font-size="14.00">profiles.py:vslot20x20</text>
</g>
<!-- vslot20x20&#45;&gt;profiles.py:vslot20x20 -->
<g id="edge16" class="edge"><title>vslot20x20&#45;&gt;profiles.py:vslot20x20</title>
<path fill="none" stroke="black" d="M232.012,-609C262.7,-609 296.73,-609 329.598,-609"/>
<polygon fill="black" stroke="black" points="329.756,-612.5 339.756,-609 329.756,-605.5 329.756,-612.5"/>
</g>
<!-- vslot20x40 -->
<g id="node8" class="node"><title>vslot20x40</title>
<ellipse fill="none" stroke="black" cx="124" cy="-515" rx="108" ry="29"/>
<text text-anchor="middle" x="124" y="-511.4" font-family="Times Roman,serif" font-size="14.00">vslot20x40</text>
</g>
<!-- profiles.py:vslot20x40 -->
<g id="node17" class="node"><title>profiles.py:vslot20x40</title>
<ellipse fill="none" stroke="black" cx="484" cy="-515" rx="144" ry="29"/>
<text text-anchor="middle" x="484" y="-511.4" font-family="Times Roman,serif" font-size="14.00">profiles.py:vslot20x40</text>
</g>
<!-- vslot20x40&#45;&gt;profiles.py:vslot20x40 -->
<g id="edge18" class="edge"><title>vslot20x40&#45;&gt;profiles.py:vslot20x40</title>
<path fill="none" stroke="black" d="M232.012,-515C262.7,-515 296.73,-515 329.598,-515"/>
<polygon fill="black" stroke="black" points="329.756,-518.5 339.756,-515 329.756,-511.5 329.756,-518.5"/>
</g>
<!-- vslot20x60 -->
<g id="node9" class="node"><title>vslot20x60</title>
<ellipse fill="none" stroke="black" cx="124" cy="-421" rx="108" ry="29"/>
<text text-anchor="middle" x="124" y="-417.4" font-family="Times Roman,serif" font-size="14.00">vslot20x60</text>
</g>
<!-- profiles.py:vslot20x60 -->
<g id="node18" class="node"><title>profiles.py:vslot20x60</title>
<ellipse fill="none" stroke="black" cx="484" cy="-421" rx="144" ry="29"/>
<text text-anchor="middle" x="484" y="-417.4" font-family="Times Roman,serif" font-size="14.00">profiles.py:vslot20x60</text>
</g>
<!-- vslot20x60&#45;&gt;profiles.py:vslot20x60 -->
<g id="edge20" class="edge"><title>vslot20x60&#45;&gt;profiles.py:vslot20x60</title>
<path fill="none" stroke="black" d="M232.012,-421C262.7,-421 296.73,-421 329.598,-421"/>
<polygon fill="black" stroke="black" points="329.756,-424.5 339.756,-421 329.756,-417.5 329.756,-424.5"/>
</g>
<!-- vslot20x80 -->
<g id="node10" class="node"><title>vslot20x80</title>
<ellipse fill="none" stroke="black" cx="124" cy="-327" rx="108" ry="29"/>
<text text-anchor="middle" x="124" y="-323.4" font-family="Times Roman,serif" font-size="14.00">vslot20x80</text>
</g>
<!-- profiles.py:vslot20x80 -->
<g id="node19" class="node"><title>profiles.py:vslot20x80</title>
<ellipse fill="none" stroke="black" cx="484" cy="-327" rx="144" ry="29"/>
<text text-anchor="middle" x="484" y="-323.4" font-family="Times Roman,serif" font-size="14.00">profiles.py:vslot20x80</text>
</g>
<!-- vslot20x80&#45;&gt;profiles.py:vslot20x80 -->
<g id="edge22" class="edge"><title>vslot20x80&#45;&gt;profiles.py:vslot20x80</title>
<path fill="none" stroke="black" d="M232.012,-327C262.7,-327 296.73,-327 329.598,-327"/>
<polygon fill="black" stroke="black" points="329.756,-330.5 339.756,-327 329.756,-323.5 329.756,-330.5"/>
</g>
<!-- openbuildsdualvwheel -->
<g id="node11" class="node"><title>openbuildsdualvwheel</title>
<ellipse fill="none" stroke="black" cx="124" cy="-233" rx="108" ry="29"/>
<text text-anchor="middle" x="124" y="-229.4" font-family="Times Roman,serif" font-size="14.00">openbuildsdualvwheel</text>
</g>
<!-- wheels.py:dualvwheel -->
<g id="node20" class="node"><title>wheels.py:dualvwheel</title>
<ellipse fill="none" stroke="black" cx="484" cy="-233" rx="144" ry="29"/>
<text text-anchor="middle" x="484" y="-229.4" font-family="Times Roman,serif" font-size="14.00">wheels.py:dualvwheel</text>
</g>
<!-- openbuildsdualvwheel&#45;&gt;wheels.py:dualvwheel -->
<g id="edge24" class="edge"><title>openbuildsdualvwheel&#45;&gt;wheels.py:dualvwheel</title>
<path fill="none" stroke="black" d="M232.012,-233C262.7,-233 296.73,-233 329.598,-233"/>
<polygon fill="black" stroke="black" points="329.756,-236.5 339.756,-233 329.756,-229.5 329.756,-236.5"/>
</g>
<!-- openbuildssolidvwheel -->
<g id="node12" class="node"><title>openbuildssolidvwheel</title>
<ellipse fill="none" stroke="black" cx="124" cy="-139" rx="108" ry="29"/>
<text text-anchor="middle" x="124" y="-135.4" font-family="Times Roman,serif" font-size="14.00">openbuildssolidvwheel</text>
</g>
<!-- wheels.py:solidvwheel -->
<g id="node21" class="node"><title>wheels.py:solidvwheel</title>
<ellipse fill="none" stroke="black" cx="484" cy="-139" rx="144" ry="29"/>
<text text-anchor="middle" x="484" y="-135.4" font-family="Times Roman,serif" font-size="14.00">wheels.py:solidvwheel</text>
</g>
<!-- openbuildssolidvwheel&#45;&gt;wheels.py:solidvwheel -->
<g id="edge26" class="edge"><title>openbuildssolidvwheel&#45;&gt;wheels.py:solidvwheel</title>
<path fill="none" stroke="black" d="M232.012,-139C262.7,-139 296.73,-139 329.598,-139"/>
<polygon fill="black" stroke="black" points="329.756,-142.5 339.756,-139 329.756,-135.5 329.756,-142.5"/>
</g>
<!-- openbuildssolidminivwheel -->
<g id="node13" class="node"><title>openbuildssolidminivwheel</title>
<ellipse fill="none" stroke="black" cx="124" cy="-45" rx="108" ry="29"/>
<text text-anchor="middle" x="124" y="-41.4" font-family="Times Roman,serif" font-size="14.00">openbuildssolidminivwheel</text>
</g>
<!-- wheels.py:minivwheel -->
<g id="node22" class="node"><title>wheels.py:minivwheel</title>
<ellipse fill="none" stroke="black" cx="484" cy="-45" rx="144" ry="29"/>
<text text-anchor="middle" x="484" y="-41.4" font-family="Times Roman,serif" font-size="14.00">wheels.py:minivwheel</text>
</g>
<!-- openbuildssolidminivwheel&#45;&gt;wheels.py:minivwheel -->
<g id="edge28" class="edge"><title>openbuildssolidminivwheel&#45;&gt;wheels.py:minivwheel</title>
<path fill="none" stroke="black" d="M232.012,-45C262.7,-45 296.73,-45 329.598,-45"/>
<polygon fill="black" stroke="black" points="329.756,-48.5001 339.756,-45 329.756,-41.5001 329.756,-48.5001"/>
</g>
</g>
</svg>
