<?xml version="1.0" encoding="UTF-8" standalone="no"?>
<!DOCTYPE svg PUBLIC "-//W3C//DTD SVG 1.1//EN"
 "http://www.w3.org/Graphics/SVG/1.1/DTD/svg11.dtd">
<!-- Generated by graphviz version 2.36.0 (20140111.2315)
 -->
<!-- Title: G Pages: 1 -->
<svg width="976pt" height="215pt"
 viewBox="0.00 0.00 976.00 215.00" xmlns="http://www.w3.org/2000/svg" xmlns:xlink="http://www.w3.org/1999/xlink">
<g id="graph0" class="graph" transform="scale(1 1) rotate(0) translate(4 211)">
<title>G</title>
<polygon fill="white" stroke="none" points="-4,4 -4,-211 972,-211 972,4 -4,4"/>
<g id="clust1" class="cluster"><title>cluster_cl</title>
<polygon fill="none" stroke="black" points="332,-8 332,-199 564,-199 564,-8 332,-8"/>
<text text-anchor="middle" x="448" y="-183.8" font-family="Times,serif" font-size="14.00">Classes</text>
</g>
<g id="clust2" class="cluster"><title>cluster_std</title>
<polygon fill="none" stroke="black" points="8,-8 8,-199 240,-199 240,-8 8,-8"/>
<text text-anchor="middle" x="124" y="-183.8" font-family="Times,serif" font-size="14.00">Standards</text>
</g>
<g id="clust3" class="cluster"><title>cluster_fcd</title>
<polygon fill="none" stroke="black" points="656,-8 656,-105 960,-105 960,-8 656,-8"/>
<text text-anchor="middle" x="808" y="-89.8" font-family="Times,serif" font-size="14.00">FreeCAD</text>
</g>
<!-- cbeam_upe -->
<g id="node1" class="node"><title>cbeam_upe</title>
<ellipse fill="none" stroke="black" cx="448" cy="-139" rx="108" ry="29"/>
<text text-anchor="middle" x="448" y="-135.3" font-family="Times,serif" font-size="14.00">cbeam_upe</text>
</g>
<!-- profiles&#45;rolled_c&#45;beams.py:cbeam_parallel_flange -->
<g id="node5" class="node"><title>profiles&#45;rolled_c&#45;beams.py:cbeam_parallel_flange</title>
<ellipse fill="none" stroke="black" cx="808" cy="-45" rx="144" ry="29"/>
<text text-anchor="middle" x="808" y="-41.3" font-family="Times,serif" font-size="14.00">profiles&#45;rolled_c&#45;beams.py:cbeam_parallel_flange</text>
</g>
<!-- cbeam_upe&#45;&gt;profiles&#45;rolled_c&#45;beams.py:cbeam_parallel_flange -->
<g id="edge1" class="edge"><title>cbeam_upe&#45;&gt;profiles&#45;rolled_c&#45;beams.py:cbeam_parallel_flange</title>
<path fill="none" stroke="black" d="M525.361,-118.95C579.424,-104.755 652.354,-85.6053 710.454,-70.35"/>
<polygon fill="black" stroke="black" points="711.599,-73.6681 720.382,-67.7432 709.821,-66.8976 711.599,-73.6681"/>
</g>
<!-- cbeam_uap -->
<g id="node2" class="node"><title>cbeam_uap</title>
<ellipse fill="none" stroke="black" cx="448" cy="-45" rx="108" ry="29"/>
<text text-anchor="middle" x="448" y="-41.3" font-family="Times,serif" font-size="14.00">cbeam_uap</text>
</g>
<!-- cbeam_uap&#45;&gt;profiles&#45;rolled_c&#45;beams.py:cbeam_parallel_flange -->
<g id="edge3" class="edge"><title>cbeam_uap&#45;&gt;profiles&#45;rolled_c&#45;beams.py:cbeam_parallel_flange</title>
<path fill="none" stroke="black" d="M556.412,-45C587.022,-45 620.977,-45 653.755,-45"/>
<polygon fill="black" stroke="black" points="653.885,-48.5001 663.885,-45 653.885,-41.5001 653.885,-48.5001"/>
</g>
<!-- DIN1026&#45;2 -->
<g id="node3" class="node"><title>DIN1026&#45;2</title>
<ellipse fill="none" stroke="black" cx="124" cy="-139" rx="108" ry="29"/>
<text text-anchor="middle" x="124" y="-135.3" font-family="Times,serif" font-size="14.00">DIN1026&#45;2</text>
</g>
<!-- DIN1026&#45;2&#45;&gt;cbeam_upe -->
<g id="edge2" class="edge"><title>DIN1026&#45;2&#45;&gt;cbeam_upe</title>
<path fill="none" stroke="black" d="M232.221,-139C263.505,-139 297.848,-139 329.719,-139"/>
<polygon fill="black" stroke="black" points="329.973,-142.5 339.973,-139 329.973,-135.5 329.973,-142.5"/>
</g>
<!-- NFA45&#45;255 -->
<g id="node4" class="node"><title>NFA45&#45;255</title>
<ellipse fill="none" stroke="black" cx="124" cy="-45" rx="108" ry="29"/>
<text text-anchor="middle" x="124" y="-41.3" font-family="Times,serif" font-size="14.00">NFA45&#45;255</text>
</g>
<!-- NFA45&#45;255&#45;&gt;cbeam_uap -->
<g id="edge4" class="edge"><title>NFA45&#45;255&#45;&gt;cbeam_uap</title>
<path fill="none" stroke="black" d="M232.221,-45C263.505,-45 297.848,-45 329.719,-45"/>
<polygon fill="black" stroke="black" points="329.973,-48.5001 339.973,-45 329.973,-41.5001 329.973,-48.5001"/>
</g>
</g>
</svg>
