<?xml version="1.0" encoding="UTF-8" standalone="no"?>
<!DOCTYPE svg PUBLIC "-//W3C//DTD SVG 1.1//EN"
 "http://www.w3.org/Graphics/SVG/1.1/DTD/svg11.dtd">
<!-- Generated by graphviz version 2.36.0 (20140111.2315)
 -->
<!-- Title: G Pages: 1 -->
<svg width="976pt" height="1719pt"
 viewBox="0.00 0.00 976.00 1719.00" xmlns="http://www.w3.org/2000/svg" xmlns:xlink="http://www.w3.org/1999/xlink">
<g id="graph0" class="graph" transform="scale(1 1) rotate(0) translate(4 1715)">
<title>G</title>
<polygon fill="white" stroke="none" points="-4,4 -4,-1715 972,-1715 972,4 -4,4"/>
<g id="clust1" class="cluster"><title>cluster_cl</title>
<polygon fill="none" stroke="black" points="332,-619 332,-1092 564,-1092 564,-619 332,-619"/>
<text text-anchor="middle" x="448" y="-1076.8" font-family="Times,serif" font-size="14.00">Classes</text>
</g>
<g id="clust2" class="cluster"><title>cluster_std</title>
<polygon fill="none" stroke="black" points="8,-8 8,-1703 240,-1703 240,-8 8,-8"/>
<text text-anchor="middle" x="124" y="-1687.8" font-family="Times,serif" font-size="14.00">Standards</text>
</g>
<g id="clust3" class="cluster"><title>cluster_fcd</title>
<polygon fill="none" stroke="black" points="656,-901 656,-1092 960,-1092 960,-901 656,-901"/>
<text text-anchor="middle" x="808" y="-1076.8" font-family="Times,serif" font-size="14.00">FreeCAD</text>
</g>
<g id="clust4" class="cluster"><title>cluster_ocd</title>
<polygon fill="none" stroke="black" points="656,-702 656,-893 960,-893 960,-702 656,-702"/>
<text text-anchor="middle" x="808" y="-877.8" font-family="Times,serif" font-size="14.00">OpenSCAD</text>
</g>
<!-- plainwasher1 -->
<g id="node1" class="node"><title>plainwasher1</title>
<ellipse fill="none" stroke="black" cx="448" cy="-750" rx="108" ry="29"/>
<text text-anchor="middle" x="448" y="-746.3" font-family="Times,serif" font-size="14.00">plainwasher1</text>
</g>
<!-- washer.py:washer1 -->
<g id="node24" class="node"><title>washer.py:washer1</title>
<ellipse fill="none" stroke="black" cx="808" cy="-938" rx="144" ry="29"/>
<text text-anchor="middle" x="808" y="-934.3" font-family="Times,serif" font-size="14.00">washer.py:washer1</text>
</g>
<!-- plainwasher1&#45;&gt;washer.py:washer1 -->
<g id="edge1" class="edge"><title>plainwasher1&#45;&gt;washer.py:washer1</title>
<path fill="none" stroke="black" d="M507.511,-773.913C535.92,-785.524 564,-797 564,-797 564,-797 656,-902 656,-902 656,-902 678.106,-907.27 705.402,-913.778"/>
<polygon fill="black" stroke="black" points="704.707,-917.21 715.246,-916.125 706.33,-910.401 704.707,-917.21"/>
</g>
<!-- washer.scad:washer1 -->
<g id="node26" class="node"><title>washer.scad:washer1</title>
<ellipse fill="none" stroke="black" cx="808" cy="-739" rx="144" ry="29"/>
<text text-anchor="middle" x="808" y="-735.3" font-family="Times,serif" font-size="14.00">washer.scad:washer1</text>
</g>
<!-- plainwasher1&#45;&gt;washer.scad:washer1 -->
<g id="edge2" class="edge"><title>plainwasher1&#45;&gt;washer.scad:washer1</title>
<path fill="none" stroke="black" d="M555.443,-746.729C586.729,-745.768 621.576,-744.697 655.122,-743.667"/>
<polygon fill="black" stroke="black" points="655.598,-747.154 665.486,-743.348 655.383,-740.157 655.598,-747.154"/>
</g>
<!-- plainwasherchamfered -->
<g id="node2" class="node"><title>plainwasherchamfered</title>
<ellipse fill="none" stroke="black" cx="448" cy="-1032" rx="108" ry="29"/>
<text text-anchor="middle" x="448" y="-1028.3" font-family="Times,serif" font-size="14.00">plainwasherchamfered</text>
</g>
<!-- washer.py:washer2 -->
<g id="node25" class="node"><title>washer.py:washer2</title>
<ellipse fill="none" stroke="black" cx="808" cy="-1032" rx="144" ry="29"/>
<text text-anchor="middle" x="808" y="-1028.3" font-family="Times,serif" font-size="14.00">washer.py:washer2</text>
</g>
<!-- plainwasherchamfered&#45;&gt;washer.py:washer2 -->
<g id="edge8" class="edge"><title>plainwasherchamfered&#45;&gt;washer.py:washer2</title>
<path fill="none" stroke="black" d="M556.412,-1032C587.022,-1032 620.977,-1032 653.755,-1032"/>
<polygon fill="black" stroke="black" points="653.885,-1035.5 663.885,-1032 653.885,-1028.5 653.885,-1035.5"/>
</g>
<!-- washer.scad:washer2 -->
<g id="node27" class="node"><title>washer.scad:washer2</title>
<ellipse fill="none" stroke="black" cx="808" cy="-833" rx="144" ry="29"/>
<text text-anchor="middle" x="808" y="-829.3" font-family="Times,serif" font-size="14.00">washer.scad:washer2</text>
</g>
<!-- plainwasherchamfered&#45;&gt;washer.scad:washer2 -->
<g id="edge9" class="edge"><title>plainwasherchamfered&#45;&gt;washer.scad:washer2</title>
<path fill="none" stroke="black" d="M506.5,-1008C535.25,-996 564,-984 564,-984 564,-984 656,-892 656,-892 656,-892 694.379,-877.004 732.44,-862.133"/>
<polygon fill="black" stroke="black" points="734.046,-865.263 742.086,-858.364 731.498,-858.743 734.046,-865.263"/>
</g>
<!-- plainwasher2 -->
<g id="node3" class="node"><title>plainwasher2</title>
<ellipse fill="none" stroke="black" cx="448" cy="-938" rx="108" ry="29"/>
<text text-anchor="middle" x="448" y="-934.3" font-family="Times,serif" font-size="14.00">plainwasher2</text>
</g>
<!-- plainwasher2&#45;&gt;washer.py:washer1 -->
<g id="edge14" class="edge"><title>plainwasher2&#45;&gt;washer.py:washer1</title>
<path fill="none" stroke="black" d="M556.412,-938C587.022,-938 620.977,-938 653.755,-938"/>
<polygon fill="black" stroke="black" points="653.885,-941.5 663.885,-938 653.885,-934.5 653.885,-941.5"/>
</g>
<!-- plainwasher2&#45;&gt;washer.scad:washer1 -->
<g id="edge15" class="edge"><title>plainwasher2&#45;&gt;washer.scad:washer1</title>
<path fill="none" stroke="black" d="M506.5,-914C535.25,-902 564,-890 564,-890 564,-890 656,-786 656,-786 656,-786 686.302,-776.568 719.757,-766.155"/>
<polygon fill="black" stroke="black" points="721.223,-769.365 729.731,-763.051 719.142,-762.681 721.223,-769.365"/>
</g>
<!-- plainwasherforcheesehead -->
<g id="node4" class="node"><title>plainwasherforcheesehead</title>
<ellipse fill="none" stroke="black" cx="448" cy="-844" rx="108" ry="29"/>
<text text-anchor="middle" x="448" y="-840.3" font-family="Times,serif" font-size="14.00">plainwasherforcheesehead</text>
</g>
<!-- plainwasherforcheesehead&#45;&gt;washer.py:washer1 -->
<g id="edge20" class="edge"><title>plainwasherforcheesehead&#45;&gt;washer.py:washer1</title>
<path fill="none" stroke="black" d="M522.855,-864.694C582.302,-881.35 656,-902 656,-902 656,-902 678.106,-907.27 705.402,-913.778"/>
<polygon fill="black" stroke="black" points="704.707,-917.21 715.246,-916.125 706.33,-910.401 704.707,-917.21"/>
</g>
<!-- plainwasherforcheesehead&#45;&gt;washer.scad:washer1 -->
<g id="edge21" class="edge"><title>plainwasherforcheesehead&#45;&gt;washer.scad:washer1</title>
<path fill="none" stroke="black" d="M521.016,-822.878C577.397,-806.342 656.144,-783.245 716.735,-765.474"/>
<polygon fill="black" stroke="black" points="718.068,-768.731 726.678,-762.558 716.097,-762.014 718.068,-768.731"/>
</g>
<!-- heavydutyplainwasher -->
<g id="node5" class="node"><title>heavydutyplainwasher</title>
<ellipse fill="none" stroke="black" cx="448" cy="-656" rx="108" ry="29"/>
<text text-anchor="middle" x="448" y="-652.3" font-family="Times,serif" font-size="14.00">heavydutyplainwasher</text>
</g>
<!-- heavydutyplainwasher&#45;&gt;washer.py:washer1 -->
<g id="edge26" class="edge"><title>heavydutyplainwasher&#45;&gt;washer.py:washer1</title>
<path fill="none" stroke="black" d="M507.511,-679.913C535.92,-691.524 564,-703 564,-703 564,-703 656,-902 656,-902 656,-902 678.106,-907.27 705.402,-913.778"/>
<polygon fill="black" stroke="black" points="704.707,-917.21 715.246,-916.125 706.33,-910.401 704.707,-917.21"/>
</g>
<!-- heavydutyplainwasher&#45;&gt;washer.scad:washer1 -->
<g id="edge27" class="edge"><title>heavydutyplainwasher&#45;&gt;washer.scad:washer1</title>
<path fill="none" stroke="black" d="M529.789,-674.73C581.343,-686.683 648.641,-702.285 704.017,-715.124"/>
<polygon fill="black" stroke="black" points="703.325,-718.556 713.857,-717.405 704.906,-711.737 703.325,-718.556"/>
</g>
<!-- ISO7089 -->
<g id="node6" class="node"><title>ISO7089</title>
<ellipse fill="none" stroke="black" cx="124" cy="-233" rx="108" ry="29"/>
<text text-anchor="middle" x="124" y="-229.3" font-family="Times,serif" font-size="14.00">ISO7089</text>
</g>
<!-- ISO7089&#45;&gt;plainwasher1 -->
<g id="edge3" class="edge"><title>ISO7089&#45;&gt;plainwasher1</title>
<path fill="none" stroke="black" d="M183.511,-256.913C211.92,-268.524 240,-280 240,-280 240,-280 332,-702 332,-702 332,-702 354.805,-711.519 380.104,-722.078"/>
<polygon fill="black" stroke="black" points="378.923,-725.378 389.5,-726 381.62,-718.918 378.923,-725.378"/>
</g>
<!-- EN7089 -->
<g id="node7" class="node"><title>EN7089</title>
<ellipse fill="none" stroke="black" cx="124" cy="-139" rx="108" ry="29"/>
<text text-anchor="middle" x="124" y="-135.3" font-family="Times,serif" font-size="14.00">EN7089</text>
</g>
<!-- EN7089&#45;&gt;plainwasher1 -->
<g id="edge4" class="edge"><title>EN7089&#45;&gt;plainwasher1</title>
<path fill="none" stroke="black" d="M183.511,-162.913C211.92,-174.524 240,-186 240,-186 240,-186 332,-702 332,-702 332,-702 354.805,-711.519 380.104,-722.078"/>
<polygon fill="black" stroke="black" points="378.923,-725.378 389.5,-726 381.62,-718.918 378.923,-725.378"/>
</g>
<!-- DINENISO7089 -->
<g id="node8" class="node"><title>DINENISO7089</title>
<ellipse fill="none" stroke="black" cx="124" cy="-515" rx="108" ry="29"/>
<text text-anchor="middle" x="124" y="-511.3" font-family="Times,serif" font-size="14.00">DINENISO7089</text>
</g>
<!-- DINENISO7089&#45;&gt;plainwasher1 -->
<g id="edge5" class="edge"><title>DINENISO7089&#45;&gt;plainwasher1</title>
<path fill="none" stroke="black" d="M183.511,-538.913C211.92,-550.524 240,-562 240,-562 240,-562 332,-702 332,-702 332,-702 354.805,-711.519 380.104,-722.078"/>
<polygon fill="black" stroke="black" points="378.923,-725.378 389.5,-726 381.62,-718.918 378.923,-725.378"/>
</g>
<!-- DINEN27089 -->
<g id="node9" class="node"><title>DINEN27089</title>
<ellipse fill="none" stroke="black" cx="124" cy="-421" rx="108" ry="29"/>
<text text-anchor="middle" x="124" y="-417.3" font-family="Times,serif" font-size="14.00">DINEN27089</text>
</g>
<!-- DINEN27089&#45;&gt;plainwasher1 -->
<g id="edge6" class="edge"><title>DINEN27089&#45;&gt;plainwasher1</title>
<path fill="none" stroke="black" d="M183.511,-444.913C211.92,-456.524 240,-468 240,-468 240,-468 332,-702 332,-702 332,-702 354.805,-711.519 380.104,-722.078"/>
<polygon fill="black" stroke="black" points="378.923,-725.378 389.5,-726 381.62,-718.918 378.923,-725.378"/>
</g>
<!-- DIN125A -->
<g id="node10" class="node"><title>DIN125A</title>
<ellipse fill="none" stroke="black" cx="124" cy="-327" rx="108" ry="29"/>
<text text-anchor="middle" x="124" y="-323.3" font-family="Times,serif" font-size="14.00">DIN125A</text>
</g>
<!-- DIN125A&#45;&gt;plainwasher1 -->
<g id="edge7" class="edge"><title>DIN125A&#45;&gt;plainwasher1</title>
<path fill="none" stroke="black" d="M183.511,-350.913C211.92,-362.524 240,-374 240,-374 240,-374 332,-702 332,-702 332,-702 354.805,-711.519 380.104,-722.078"/>
<polygon fill="black" stroke="black" points="378.923,-725.378 389.5,-726 381.62,-718.918 378.923,-725.378"/>
</g>
<!-- ISO7090 -->
<g id="node11" class="node"><title>ISO7090</title>
<ellipse fill="none" stroke="black" cx="124" cy="-1455" rx="108" ry="29"/>
<text text-anchor="middle" x="124" y="-1451.3" font-family="Times,serif" font-size="14.00">ISO7090</text>
</g>
<!-- ISO7090&#45;&gt;plainwasherchamfered -->
<g id="edge10" class="edge"><title>ISO7090&#45;&gt;plainwasherchamfered</title>
<path fill="none" stroke="black" d="M182.5,-1431C211.25,-1419 240,-1407 240,-1407 240,-1407 374.214,-1163.86 426.499,-1069.14"/>
<polygon fill="black" stroke="black" points="429.673,-1070.63 431.441,-1060.19 423.545,-1067.25 429.673,-1070.63"/>
</g>
<!-- DINISO7090 -->
<g id="node12" class="node"><title>DINISO7090</title>
<ellipse fill="none" stroke="black" cx="124" cy="-1361" rx="108" ry="29"/>
<text text-anchor="middle" x="124" y="-1357.3" font-family="Times,serif" font-size="14.00">DINISO7090</text>
</g>
<!-- DINISO7090&#45;&gt;plainwasherchamfered -->
<g id="edge11" class="edge"><title>DINISO7090&#45;&gt;plainwasherchamfered</title>
<path fill="none" stroke="black" d="M182.5,-1337C211.25,-1325 240,-1313 240,-1313 240,-1313 364.274,-1144.3 420.24,-1068.33"/>
<polygon fill="black" stroke="black" points="423.282,-1070.1 426.395,-1059.97 417.646,-1065.95 423.282,-1070.1"/>
</g>
<!-- DINENISO7090 -->
<g id="node13" class="node"><title>DINENISO7090</title>
<ellipse fill="none" stroke="black" cx="124" cy="-1643" rx="108" ry="29"/>
<text text-anchor="middle" x="124" y="-1639.3" font-family="Times,serif" font-size="14.00">DINENISO7090</text>
</g>
<!-- DINENISO7090&#45;&gt;plainwasherchamfered -->
<g id="edge12" class="edge"><title>DINENISO7090&#45;&gt;plainwasherchamfered</title>
<path fill="none" stroke="black" d="M182.5,-1619C211.25,-1607 240,-1595 240,-1595 240,-1595 386.24,-1197.26 432.885,-1070.39"/>
<polygon fill="black" stroke="black" points="436.284,-1071.29 436.45,-1060.69 429.714,-1068.87 436.284,-1071.29"/>
</g>
<!-- DIN125B -->
<g id="node14" class="node"><title>DIN125B</title>
<ellipse fill="none" stroke="black" cx="124" cy="-1549" rx="108" ry="29"/>
<text text-anchor="middle" x="124" y="-1545.3" font-family="Times,serif" font-size="14.00">DIN125B</text>
</g>
<!-- DIN125B&#45;&gt;plainwasherchamfered -->
<g id="edge13" class="edge"><title>DIN125B&#45;&gt;plainwasherchamfered</title>
<path fill="none" stroke="black" d="M182.5,-1525C211.25,-1513 240,-1501 240,-1501 240,-1501 381.401,-1180.63 430.468,-1069.46"/>
<polygon fill="black" stroke="black" points="433.681,-1070.84 434.517,-1060.28 427.277,-1068.02 433.681,-1070.84"/>
</g>
<!-- DIN126 -->
<g id="node15" class="node"><title>DIN126</title>
<ellipse fill="none" stroke="black" cx="124" cy="-1173" rx="108" ry="29"/>
<text text-anchor="middle" x="124" y="-1169.3" font-family="Times,serif" font-size="14.00">DIN126</text>
</g>
<!-- DIN126&#45;&gt;plainwasher2 -->
<g id="edge16" class="edge"><title>DIN126&#45;&gt;plainwasher2</title>
<path fill="none" stroke="black" d="M182.5,-1149C211.25,-1137 240,-1125 240,-1125 240,-1125 332,-985 332,-985 332,-985 354.274,-975.897 379.216,-965.703"/>
<polygon fill="black" stroke="black" points="380.557,-968.936 388.489,-961.913 377.908,-962.456 380.557,-968.936"/>
</g>
<!-- DINISO7091 -->
<g id="node16" class="node"><title>DINISO7091</title>
<ellipse fill="none" stroke="black" cx="124" cy="-1079" rx="108" ry="29"/>
<text text-anchor="middle" x="124" y="-1075.3" font-family="Times,serif" font-size="14.00">DINISO7091</text>
</g>
<!-- DINISO7091&#45;&gt;plainwasher2 -->
<g id="edge17" class="edge"><title>DINISO7091&#45;&gt;plainwasher2</title>
<path fill="none" stroke="black" d="M182.5,-1055C211.25,-1043 240,-1031 240,-1031 240,-1031 332,-985 332,-985 332,-985 354.274,-975.897 379.216,-965.703"/>
<polygon fill="black" stroke="black" points="380.557,-968.936 388.489,-961.913 377.908,-962.456 380.557,-968.936"/>
</g>
<!-- DINENISO7091 -->
<g id="node17" class="node"><title>DINENISO7091</title>
<ellipse fill="none" stroke="black" cx="124" cy="-985" rx="108" ry="29"/>
<text text-anchor="middle" x="124" y="-981.3" font-family="Times,serif" font-size="14.00">DINENISO7091</text>
</g>
<!-- DINENISO7091&#45;&gt;plainwasher2 -->
<g id="edge18" class="edge"><title>DINENISO7091&#45;&gt;plainwasher2</title>
<path fill="none" stroke="black" d="M219.001,-971.279C257.933,-965.597 303.226,-958.986 343.137,-953.16"/>
<polygon fill="black" stroke="black" points="343.771,-956.605 353.16,-951.697 342.76,-949.678 343.771,-956.605"/>
</g>
<!-- ISO7091 -->
<g id="node18" class="node"><title>ISO7091</title>
<ellipse fill="none" stroke="black" cx="124" cy="-1267" rx="108" ry="29"/>
<text text-anchor="middle" x="124" y="-1263.3" font-family="Times,serif" font-size="14.00">ISO7091</text>
</g>
<!-- ISO7091&#45;&gt;plainwasher2 -->
<g id="edge19" class="edge"><title>ISO7091&#45;&gt;plainwasher2</title>
<path fill="none" stroke="black" d="M182.5,-1243C211.25,-1231 240,-1219 240,-1219 240,-1219 332,-985 332,-985 332,-985 354.274,-975.897 379.216,-965.703"/>
<polygon fill="black" stroke="black" points="380.557,-968.936 388.489,-961.913 377.908,-962.456 380.557,-968.936"/>
</g>
<!-- DIN433 -->
<g id="node19" class="node"><title>DIN433</title>
<ellipse fill="none" stroke="black" cx="124" cy="-797" rx="108" ry="29"/>
<text text-anchor="middle" x="124" y="-793.3" font-family="Times,serif" font-size="14.00">DIN433</text>
</g>
<!-- DIN433&#45;&gt;plainwasherforcheesehead -->
<g id="edge22" class="edge"><title>DIN433&#45;&gt;plainwasherforcheesehead</title>
<path fill="none" stroke="black" d="M219.001,-810.721C257.933,-816.403 303.226,-823.014 343.137,-828.84"/>
<polygon fill="black" stroke="black" points="342.76,-832.322 353.16,-830.303 343.771,-825.395 342.76,-832.322"/>
</g>
<!-- ISO7092 -->
<g id="node20" class="node"><title>ISO7092</title>
<ellipse fill="none" stroke="black" cx="124" cy="-703" rx="108" ry="29"/>
<text text-anchor="middle" x="124" y="-699.3" font-family="Times,serif" font-size="14.00">ISO7092</text>
</g>
<!-- ISO7092&#45;&gt;plainwasherforcheesehead -->
<g id="edge23" class="edge"><title>ISO7092&#45;&gt;plainwasherforcheesehead</title>
<path fill="none" stroke="black" d="M183.511,-726.913C211.92,-738.524 240,-750 240,-750 240,-750 332,-796 332,-796 332,-796 354.805,-805.519 380.104,-816.078"/>
<polygon fill="black" stroke="black" points="378.923,-819.378 389.5,-820 381.62,-812.918 378.923,-819.378"/>
</g>
<!-- DINISO7092 -->
<g id="node21" class="node"><title>DINISO7092</title>
<ellipse fill="none" stroke="black" cx="124" cy="-609" rx="108" ry="29"/>
<text text-anchor="middle" x="124" y="-605.3" font-family="Times,serif" font-size="14.00">DINISO7092</text>
</g>
<!-- DINISO7092&#45;&gt;plainwasherforcheesehead -->
<g id="edge24" class="edge"><title>DINISO7092&#45;&gt;plainwasherforcheesehead</title>
<path fill="none" stroke="black" d="M183.511,-632.913C211.92,-644.524 240,-656 240,-656 240,-656 332,-796 332,-796 332,-796 354.805,-805.519 380.104,-816.078"/>
<polygon fill="black" stroke="black" points="378.923,-819.378 389.5,-820 381.62,-812.918 378.923,-819.378"/>
</g>
<!-- DINENISO7092 -->
<g id="node22" class="node"><title>DINENISO7092</title>
<ellipse fill="none" stroke="black" cx="124" cy="-891" rx="108" ry="29"/>
<text text-anchor="middle" x="124" y="-887.3" font-family="Times,serif" font-size="14.00">DINENISO7092</text>
</g>
<!-- DINENISO7092&#45;&gt;plainwasherforcheesehead -->
<g id="edge25" class="edge"><title>DINENISO7092&#45;&gt;plainwasherforcheesehead</title>
<path fill="none" stroke="black" d="M219.001,-877.279C257.933,-871.597 303.226,-864.986 343.137,-859.16"/>
<polygon fill="black" stroke="black" points="343.771,-862.605 353.16,-857.697 342.76,-855.678 343.771,-862.605"/>
</g>
<!-- DIN7349 -->
<g id="node23" class="node"><title>DIN7349</title>
<ellipse fill="none" stroke="black" cx="124" cy="-45" rx="108" ry="29"/>
<text text-anchor="middle" x="124" y="-41.3" font-family="Times,serif" font-size="14.00">DIN7349</text>
</g>
<!-- DIN7349&#45;&gt;heavydutyplainwasher -->
<g id="edge28" class="edge"><title>DIN7349&#45;&gt;heavydutyplainwasher</title>
<path fill="none" stroke="black" d="M183.511,-68.9131C211.92,-80.5238 240,-92 240,-92 240,-92 386.571,-491.352 433.043,-617.971"/>
<polygon fill="black" stroke="black" points="429.862,-619.463 436.593,-627.645 436.433,-617.051 429.862,-619.463"/>
</g>
</g>
</svg>
