<?xml version="1.0" encoding="UTF-8" standalone="no"?>
<!DOCTYPE svg PUBLIC "-//W3C//DTD SVG 1.1//EN"
 "http://www.w3.org/Graphics/SVG/1.1/DTD/svg11.dtd">
<!-- Generated by graphviz version 2.26.3 (20100126.1600)
 -->
<!-- Title: G Pages: 1 -->
<svg width="652pt" height="232pt"
 viewBox="0.00 0.00 652.00 232.00" xmlns="http://www.w3.org/2000/svg" xmlns:xlink="http://www.w3.org/1999/xlink">
<g id="graph1" class="graph" transform="scale(1 1) rotate(0) translate(4 228)">
<title>G</title>
<polygon fill="white" stroke="white" points="-4,5 -4,-228 649,-228 649,5 -4,5"/>
<g id="graph2" class="cluster"><title>cluster_cl</title>
<polygon fill="none" stroke="black" points="8,-35 8,-135 240,-135 240,-35 8,-35"/>
<text text-anchor="middle" x="124" y="-118.4" font-family="Times Roman,serif" font-size="14.00">Classes</text>
</g>
<g id="graph4" class="cluster"><title>cluster_fcd</title>
<polygon fill="none" stroke="black" points="332,-116 332,-216 636,-216 636,-116 332,-116"/>
<text text-anchor="middle" x="484" y="-199.4" font-family="Times Roman,serif" font-size="14.00">FreeCAD</text>
</g>
<g id="graph5" class="cluster"><title>cluster_ocd</title>
<polygon fill="none" stroke="black" points="332,-8 332,-108 636,-108 636,-8 332,-8"/>
<text text-anchor="middle" x="484" y="-91.4" font-family="Times Roman,serif" font-size="14.00">OpenSCAD</text>
</g>
<!-- roundBattery -->
<g id="node2" class="node"><title>roundBattery</title>
<ellipse fill="none" stroke="black" cx="124" cy="-72" rx="108" ry="29"/>
<text text-anchor="middle" x="124" y="-68.4" font-family="Times Roman,serif" font-size="14.00">roundBattery</text>
</g>
<!-- batteries.py:roundBattery -->
<g id="node5" class="node"><title>batteries.py:roundBattery</title>
<ellipse fill="none" stroke="black" cx="484" cy="-153" rx="144" ry="29"/>
<text text-anchor="middle" x="484" y="-149.4" font-family="Times Roman,serif" font-size="14.00">batteries.py:roundBattery</text>
</g>
<!-- roundBattery&#45;&gt;batteries.py:roundBattery -->
<g id="edge6" class="edge"><title>roundBattery&#45;&gt;batteries.py:roundBattery</title>
<path fill="none" stroke="black" d="M207.043,-90.6847C257.771,-102.098 323.143,-116.807 377.635,-129.068"/>
<polygon fill="black" stroke="black" points="377.153,-132.547 387.678,-131.327 378.69,-125.718 377.153,-132.547"/>
</g>
<!-- batteries.scad:roundBatteryBase -->
<g id="node7" class="node"><title>batteries.scad:roundBatteryBase</title>
<ellipse fill="none" stroke="black" cx="484" cy="-45" rx="144" ry="29"/>
<text text-anchor="middle" x="484" y="-41.4" font-family="Times Roman,serif" font-size="14.00">batteries.scad:roundBatteryBase</text>
</g>
<!-- roundBattery&#45;&gt;batteries.scad:roundBatteryBase -->
<g id="edge8" class="edge"><title>roundBattery&#45;&gt;batteries.scad:roundBatteryBase</title>
<path fill="none" stroke="black" d="M228.127,-64.1905C262.578,-61.6066 301.568,-58.6824 338.539,-55.9096"/>
<polygon fill="black" stroke="black" points="339.197,-59.3702 348.907,-55.132 338.673,-52.3898 339.197,-59.3702"/>
</g>
</g>
</svg>
