<?xml version="1.0" encoding="UTF-8" standalone="no"?>
<!DOCTYPE svg PUBLIC "-//W3C//DTD SVG 1.1//EN"
 "http://www.w3.org/Graphics/SVG/1.1/DTD/svg11.dtd">
<!-- Generated by graphviz version 2.26.3 (20100126.1600)
 -->
<!-- Title: G Pages: 1 -->
<svg width="880pt" height="512pt"
 viewBox="0.00 0.00 880.00 512.00" xmlns="http://www.w3.org/2000/svg" xmlns:xlink="http://www.w3.org/1999/xlink">
<g id="graph1" class="graph" transform="scale(1 1) rotate(0) translate(4 508)">
<title>G</title>
<polygon fill="white" stroke="white" points="-4,5 -4,-508 877,-508 877,5 -4,5"/>
<g id="graph2" class="cluster"><title>cluster_cl</title>
<polygon fill="none" stroke="black" points="176,-148 176,-442 446,-442 446,-148 176,-148"/>
<text text-anchor="middle" x="311" y="-425.4" font-family="Times Roman,serif" font-size="14.00">Classes</text>
</g>
<g id="graph3" class="cluster"><title>cluster_std</title>
<polygon fill="none" stroke="black" points="8,-94 8,-496 156,-496 156,-94 8,-94"/>
<text text-anchor="middle" x="82" y="-479.4" font-family="Times Roman,serif" font-size="14.00">Standards</text>
</g>
<g id="graph4" class="cluster"><title>cluster_fcd</title>
<polygon fill="none" stroke="black" points="471,-148 471,-442 859,-442 859,-148 471,-148"/>
<text text-anchor="middle" x="665" y="-425.4" font-family="Times Roman,serif" font-size="14.00">FreeCAD</text>
</g>
<g id="graph5" class="cluster"><title>cluster_ocd</title>
<polygon fill="none" stroke="black" points="466,-8 466,-140 864,-140 864,-8 466,-8"/>
<text text-anchor="middle" x="665" y="-123.4" font-family="Times Roman,serif" font-size="14.00">OpenSCAD</text>
</g>
<!-- singlerowradialbearing -->
<g id="node2" class="node"><title>singlerowradialbearing</title>
<ellipse fill="none" stroke="black" cx="311" cy="-228" rx="121.83" ry="18.3848"/>
<text text-anchor="middle" x="311" y="-224.4" font-family="Times Roman,serif" font-size="14.00">singlerowradialbearing</text>
</g>
<!-- bearings.py:singlerowradialbearing -->
<g id="node16" class="node"><title>bearings.py:singlerowradialbearing</title>
<ellipse fill="none" stroke="black" cx="665" cy="-228" rx="181.019" ry="18.3848"/>
<text text-anchor="middle" x="665" y="-224.4" font-family="Times Roman,serif" font-size="14.00">bearings.py:singlerowradialbearing</text>
</g>
<!-- singlerowradialbearing&#45;&gt;bearings.py:singlerowradialbearing -->
<g id="edge6" class="edge"><title>singlerowradialbearing&#45;&gt;bearings.py:singlerowradialbearing</title>
<path fill="none" stroke="black" d="M433.819,-228C446.708,-228 460.022,-228 473.448,-228"/>
<polygon fill="black" stroke="black" points="473.732,-231.5 483.732,-228 473.732,-224.5 473.732,-231.5"/>
</g>
<!-- bearings.scad:singlerowradialbearing -->
<g id="node22" class="node"><title>bearings.scad:singlerowradialbearing</title>
<ellipse fill="none" stroke="black" cx="665" cy="-88" rx="190.919" ry="18.3848"/>
<text text-anchor="middle" x="665" y="-84.4" font-family="Times Roman,serif" font-size="14.00">bearings.scad:singlerowradialbearing</text>
</g>
<!-- singlerowradialbearing&#45;&gt;bearings.scad:singlerowradialbearing -->
<g id="edge8" class="edge"><title>singlerowradialbearing&#45;&gt;bearings.scad:singlerowradialbearing</title>
<path fill="none" stroke="black" d="M415.715,-218.656C426.757,-214.412 437.159,-208.682 446,-201 466.266,-183.391 446.426,-162.375 466,-144 485.374,-125.812 510.188,-113.46 535.674,-105.091"/>
<polygon fill="black" stroke="black" points="536.938,-108.363 545.464,-102.074 534.877,-101.674 536.938,-108.363"/>
</g>
<!-- doublerowradialbearing -->
<g id="node3" class="node"><title>doublerowradialbearing</title>
<ellipse fill="none" stroke="black" cx="311" cy="-390" rx="126.072" ry="18.3848"/>
<text text-anchor="middle" x="311" y="-386.4" font-family="Times Roman,serif" font-size="14.00">doublerowradialbearing</text>
</g>
<!-- bearings.py:doublerowradialbearing -->
<g id="node17" class="node"><title>bearings.py:doublerowradialbearing</title>
<ellipse fill="none" stroke="black" cx="665" cy="-390" rx="184.763" ry="18.3848"/>
<text text-anchor="middle" x="665" y="-386.4" font-family="Times Roman,serif" font-size="14.00">bearings.py:doublerowradialbearing</text>
</g>
<!-- doublerowradialbearing&#45;&gt;bearings.py:doublerowradialbearing -->
<g id="edge12" class="edge"><title>doublerowradialbearing&#45;&gt;bearings.py:doublerowradialbearing</title>
<path fill="none" stroke="black" d="M437.802,-390C448.026,-390 458.493,-390 469.05,-390"/>
<polygon fill="black" stroke="black" points="469.196,-393.5 479.196,-390 469.196,-386.5 469.196,-393.5"/>
</g>
<!-- axialthrustbearing -->
<g id="node4" class="node"><title>axialthrustbearing</title>
<ellipse fill="none" stroke="black" cx="311" cy="-174" rx="101.116" ry="18.3848"/>
<text text-anchor="middle" x="311" y="-170.4" font-family="Times Roman,serif" font-size="14.00">axialthrustbearing</text>
</g>
<!-- bearings.py:axialthrustbearing -->
<g id="node18" class="node"><title>bearings.py:axialthrustbearing</title>
<ellipse fill="none" stroke="black" cx="665" cy="-174" rx="159.806" ry="18.3848"/>
<text text-anchor="middle" x="665" y="-170.4" font-family="Times Roman,serif" font-size="14.00">bearings.py:axialthrustbearing</text>
</g>
<!-- axialthrustbearing&#45;&gt;bearings.py:axialthrustbearing -->
<g id="edge16" class="edge"><title>axialthrustbearing&#45;&gt;bearings.py:axialthrustbearing</title>
<path fill="none" stroke="black" d="M412.442,-174C438.099,-174 466.363,-174 494.413,-174"/>
<polygon fill="black" stroke="black" points="494.732,-177.5 504.732,-174 494.732,-170.5 494.732,-177.5"/>
</g>
<!-- bearings.scad:axialthrustbearing -->
<g id="node23" class="node"><title>bearings.scad:axialthrustbearing</title>
<ellipse fill="none" stroke="black" cx="665" cy="-34" rx="169.913" ry="18.3848"/>
<text text-anchor="middle" x="665" y="-30.4" font-family="Times Roman,serif" font-size="14.00">bearings.scad:axialthrustbearing</text>
</g>
<!-- axialthrustbearing&#45;&gt;bearings.scad:axialthrustbearing -->
<g id="edge18" class="edge"><title>axialthrustbearing&#45;&gt;bearings.scad:axialthrustbearing</title>
<path fill="none" stroke="black" d="M329.167,-155.95C356.35,-130.146 410.387,-83.3677 466,-61 481.345,-54.8282 497.837,-50.0166 514.523,-46.273"/>
<polygon fill="black" stroke="black" points="515.304,-49.6852 524.363,-44.1901 513.855,-42.837 515.304,-49.6852"/>
</g>
<!-- needleroller -->
<g id="node5" class="node"><title>needleroller</title>
<ellipse fill="none" stroke="black" cx="311" cy="-336" rx="68.7979" ry="18.3848"/>
<text text-anchor="middle" x="311" y="-332.4" font-family="Times Roman,serif" font-size="14.00">needleroller</text>
</g>
<!-- bearings.py:needlebearing -->
<g id="node19" class="node"><title>bearings.py:needlebearing</title>
<ellipse fill="none" stroke="black" cx="665" cy="-336" rx="138.801" ry="18.3848"/>
<text text-anchor="middle" x="665" y="-332.4" font-family="Times Roman,serif" font-size="14.00">bearings.py:needlebearing</text>
</g>
<!-- needleroller&#45;&gt;bearings.py:needlebearing -->
<g id="edge24" class="edge"><title>needleroller&#45;&gt;bearings.py:needlebearing</title>
<path fill="none" stroke="black" d="M380.517,-336C418.973,-336 468.323,-336 515.09,-336"/>
<polygon fill="black" stroke="black" points="515.337,-339.5 525.337,-336 515.337,-332.5 515.337,-339.5"/>
</g>
<!-- cylindricalrollerbearing -->
<g id="node6" class="node"><title>cylindricalrollerbearing</title>
<ellipse fill="none" stroke="black" cx="311" cy="-282" rx="121.122" ry="18.3848"/>
<text text-anchor="middle" x="311" y="-278.4" font-family="Times Roman,serif" font-size="14.00">cylindricalrollerbearing</text>
</g>
<!-- bearings.py:cylindricalrollerbearing -->
<g id="node20" class="node"><title>bearings.py:cylindricalrollerbearing</title>
<ellipse fill="none" stroke="black" cx="665" cy="-282" rx="179.813" ry="18.3848"/>
<text text-anchor="middle" x="665" y="-278.4" font-family="Times Roman,serif" font-size="14.00">bearings.py:cylindricalrollerbearing</text>
</g>
<!-- cylindricalrollerbearing&#45;&gt;bearings.py:cylindricalrollerbearing -->
<g id="edge30" class="edge"><title>cylindricalrollerbearing&#45;&gt;bearings.py:cylindricalrollerbearing</title>
<path fill="none" stroke="black" d="M432.827,-282C446.265,-282 460.175,-282 474.201,-282"/>
<polygon fill="black" stroke="black" points="474.429,-285.5 484.429,-282 474.429,-278.5 474.429,-285.5"/>
</g>
<!-- DIN625&#45;1 -->
<g id="node8" class="node"><title>DIN625&#45;1</title>
<ellipse fill="none" stroke="black" cx="82" cy="-228" rx="58.8978" ry="18.3848"/>
<text text-anchor="middle" x="82" y="-224.4" font-family="Times Roman,serif" font-size="14.00">DIN625&#45;1</text>
</g>
<!-- DIN625&#45;1&#45;&gt;singlerowradialbearing -->
<g id="edge10" class="edge"><title>DIN625&#45;1&#45;&gt;singlerowradialbearing</title>
<path fill="none" stroke="black" d="M141.569,-228C152.967,-228 165.317,-228 177.977,-228"/>
<polygon fill="black" stroke="black" points="178.185,-231.5 188.184,-228 178.184,-224.5 178.185,-231.5"/>
</g>
<!-- DIN625&#45;3 -->
<g id="node9" class="node"><title>DIN625&#45;3</title>
<ellipse fill="none" stroke="black" cx="82" cy="-444" rx="58.8978" ry="18.3848"/>
<text text-anchor="middle" x="82" y="-440.4" font-family="Times Roman,serif" font-size="14.00">DIN625&#45;3</text>
</g>
<!-- DIN625&#45;3&#45;&gt;doublerowradialbearing -->
<g id="edge14" class="edge"><title>DIN625&#45;3&#45;&gt;doublerowradialbearing</title>
<path fill="none" stroke="black" d="M129.171,-432.877C159.678,-425.683 200.075,-416.157 235.043,-407.911"/>
<polygon fill="black" stroke="black" points="236.295,-411.212 245.224,-405.51 234.688,-404.399 236.295,-411.212"/>
</g>
<!-- DIN711 -->
<g id="node10" class="node"><title>DIN711</title>
<ellipse fill="none" stroke="black" cx="82" cy="-174" rx="48.9975" ry="18.3848"/>
<text text-anchor="middle" x="82" y="-170.4" font-family="Times Roman,serif" font-size="14.00">DIN711</text>
</g>
<!-- DIN711&#45;&gt;axialthrustbearing -->
<g id="edge20" class="edge"><title>DIN711&#45;&gt;axialthrustbearing</title>
<path fill="none" stroke="black" d="M131.69,-174C151.717,-174 175.689,-174 199.489,-174"/>
<polygon fill="black" stroke="black" points="199.667,-177.5 209.667,-174 199.667,-170.5 199.667,-177.5"/>
</g>
<!-- ISO104 -->
<g id="node11" class="node"><title>ISO104</title>
<ellipse fill="none" stroke="black" cx="82" cy="-120" rx="48.0833" ry="18.3848"/>
<text text-anchor="middle" x="82" y="-116.4" font-family="Times Roman,serif" font-size="14.00">ISO104</text>
</g>
<!-- ISO104&#45;&gt;axialthrustbearing -->
<g id="edge22" class="edge"><title>ISO104&#45;&gt;axialthrustbearing</title>
<path fill="none" stroke="black" d="M122.677,-129.592C155.122,-137.243 201.354,-148.145 239.89,-157.232"/>
<polygon fill="black" stroke="black" points="239.485,-160.732 250.022,-159.621 241.092,-153.919 239.485,-160.732"/>
</g>
<!-- DIN5405&#45;1 -->
<g id="node12" class="node"><title>DIN5405&#45;1</title>
<ellipse fill="none" stroke="black" cx="82" cy="-336" rx="65.7609" ry="18.3848"/>
<text text-anchor="middle" x="82" y="-332.4" font-family="Times Roman,serif" font-size="14.00">DIN5405&#45;1</text>
</g>
<!-- DIN5405&#45;1&#45;&gt;needleroller -->
<g id="edge26" class="edge"><title>DIN5405&#45;1&#45;&gt;needleroller</title>
<path fill="none" stroke="black" d="M148.236,-336C174.122,-336 204.036,-336 231.103,-336"/>
<polygon fill="black" stroke="black" points="231.323,-339.5 241.323,-336 231.323,-332.5 231.323,-339.5"/>
</g>
<!-- ISO 3030 -->
<g id="node13" class="node"><title>ISO 3030</title>
<ellipse fill="none" stroke="black" cx="82" cy="-390" rx="57.9828" ry="18.3848"/>
<text text-anchor="middle" x="82" y="-386.4" font-family="Times Roman,serif" font-size="14.00">ISO 3030</text>
</g>
<!-- ISO 3030&#45;&gt;needleroller -->
<g id="edge28" class="edge"><title>ISO 3030&#45;&gt;needleroller</title>
<path fill="none" stroke="black" d="M123.45,-377.297C139.75,-372.512 158.677,-367.213 176,-363 198.054,-357.637 222.321,-352.538 244.125,-348.244"/>
<polygon fill="black" stroke="black" points="244.807,-351.678 253.953,-346.33 243.469,-344.807 244.807,-351.678"/>
</g>
<!-- DIN5412&#45;1 -->
<g id="node14" class="node"><title>DIN5412&#45;1</title>
<ellipse fill="none" stroke="black" cx="82" cy="-282" rx="65.7609" ry="18.3848"/>
<text text-anchor="middle" x="82" y="-278.4" font-family="Times Roman,serif" font-size="14.00">DIN5412&#45;1</text>
</g>
<!-- DIN5412&#45;1&#45;&gt;cylindricalrollerbearing -->
<g id="edge32" class="edge"><title>DIN5412&#45;1&#45;&gt;cylindricalrollerbearing</title>
<path fill="none" stroke="black" d="M148.236,-282C158.046,-282 168.435,-282 179.028,-282"/>
<polygon fill="black" stroke="black" points="179.235,-285.5 189.235,-282 179.234,-278.5 179.235,-285.5"/>
</g>
</g>
</svg>
