<?xml version="1.0" encoding="UTF-8" standalone="no"?>
<!DOCTYPE svg PUBLIC "-//W3C//DTD SVG 1.1//EN"
 "http://www.w3.org/Graphics/SVG/1.1/DTD/svg11.dtd">
<!-- Generated by graphviz version 2.26.3 (20100126.1600)
 -->
<!-- Title: G Pages: 1 -->
<svg width="976pt" height="782pt"
 viewBox="0.00 0.00 976.00 782.00" xmlns="http://www.w3.org/2000/svg" xmlns:xlink="http://www.w3.org/1999/xlink">
<g id="graph1" class="graph" transform="scale(1 1) rotate(0) translate(4 778)">
<title>G</title>
<polygon fill="white" stroke="white" points="-4,5 -4,-778 973,-778 973,5 -4,5"/>
<g id="graph2" class="cluster"><title>cluster_cl</title>
<polygon fill="none" stroke="black" points="332,-196 332,-578 564,-578 564,-196 332,-196"/>
<text text-anchor="middle" x="448" y="-561.4" font-family="Times Roman,serif" font-size="14.00">Classes</text>
</g>
<g id="graph3" class="cluster"><title>cluster_std</title>
<polygon fill="none" stroke="black" points="8,-8 8,-766 240,-766 240,-8 8,-8"/>
<text text-anchor="middle" x="124" y="-749.4" font-family="Times Roman,serif" font-size="14.00">Standards</text>
</g>
<g id="graph4" class="cluster"><title>cluster_fcd</title>
<polygon fill="none" stroke="black" points="656,-391 656,-585 960,-585 960,-391 656,-391"/>
<text text-anchor="middle" x="808" y="-568.4" font-family="Times Roman,serif" font-size="14.00">FreeCAD</text>
</g>
<g id="graph5" class="cluster"><title>cluster_ocd</title>
<polygon fill="none" stroke="black" points="656,-189 656,-383 960,-383 960,-189 656,-189"/>
<text text-anchor="middle" x="808" y="-366.4" font-family="Times Roman,serif" font-size="14.00">OpenSCAD</text>
</g>
<!-- hexscrew1 -->
<g id="node2" class="node"><title>hexscrew1</title>
<ellipse fill="none" stroke="black" cx="448" cy="-515" rx="108" ry="29"/>
<text text-anchor="middle" x="448" y="-511.4" font-family="Times Roman,serif" font-size="14.00">hexscrew1</text>
</g>
<!-- hex.py:hex1 -->
<g id="node16" class="node"><title>hex.py:hex1</title>
<ellipse fill="none" stroke="black" cx="808" cy="-522" rx="144" ry="29"/>
<text text-anchor="middle" x="808" y="-518.4" font-family="Times Roman,serif" font-size="14.00">hex.py:hex1</text>
</g>
<!-- hexscrew1&#45;&gt;hex.py:hex1 -->
<g id="edge6" class="edge"><title>hexscrew1&#45;&gt;hex.py:hex1</title>
<path fill="none" stroke="black" d="M556.012,-517.1C586.887,-517.701 621.146,-518.367 654.201,-519.009"/>
<polygon fill="black" stroke="black" points="654.349,-522.513 664.415,-519.208 654.485,-515.514 654.349,-522.513"/>
</g>
<!-- hex.scad:hex1 -->
<g id="node19" class="node"><title>hex.scad:hex1</title>
<ellipse fill="none" stroke="black" cx="808" cy="-320" rx="144" ry="29"/>
<text text-anchor="middle" x="808" y="-316.4" font-family="Times Roman,serif" font-size="14.00">hex.scad:hex1</text>
</g>
<!-- hexscrew1&#45;&gt;hex.scad:hex1 -->
<g id="edge8" class="edge"><title>hexscrew1&#45;&gt;hex.scad:hex1</title>
<path fill="none" stroke="black" d="M507.699,-490.812C536.122,-479.295 564,-468 564,-468 564,-468 656,-382 656,-382 656,-382 695.801,-365.765 734.67,-349.911"/>
<polygon fill="black" stroke="black" points="736.041,-353.132 743.979,-346.114 733.398,-346.65 736.041,-353.132"/>
</g>
<!-- hexscrew2 -->
<g id="node3" class="node"><title>hexscrew2</title>
<ellipse fill="none" stroke="black" cx="448" cy="-421" rx="108" ry="29"/>
<text text-anchor="middle" x="448" y="-417.4" font-family="Times Roman,serif" font-size="14.00">hexscrew2</text>
</g>
<!-- hexscrew2&#45;&gt;hex.py:hex1 -->
<g id="edge12" class="edge"><title>hexscrew2&#45;&gt;hex.py:hex1</title>
<path fill="none" stroke="black" d="M523.03,-442.05C578.564,-457.63 654.589,-478.96 714.147,-495.669"/>
<polygon fill="black" stroke="black" points="713.361,-499.084 723.935,-498.415 715.252,-492.344 713.361,-499.084"/>
</g>
<!-- hexscrew2&#45;&gt;hex.scad:hex1 -->
<g id="edge14" class="edge"><title>hexscrew2&#45;&gt;hex.scad:hex1</title>
<path fill="none" stroke="black" d="M523.03,-399.95C578.564,-384.37 654.589,-363.04 714.147,-346.331"/>
<polygon fill="black" stroke="black" points="715.252,-349.656 723.935,-343.585 713.361,-342.916 715.252,-349.656"/>
</g>
<!-- hexbolt1 -->
<g id="node4" class="node"><title>hexbolt1</title>
<ellipse fill="none" stroke="black" cx="448" cy="-327" rx="108" ry="29"/>
<text text-anchor="middle" x="448" y="-323.4" font-family="Times Roman,serif" font-size="14.00">hexbolt1</text>
</g>
<!-- hex.py:hex2 -->
<g id="node17" class="node"><title>hex.py:hex2</title>
<ellipse fill="none" stroke="black" cx="808" cy="-428" rx="144" ry="29"/>
<text text-anchor="middle" x="808" y="-424.4" font-family="Times Roman,serif" font-size="14.00">hex.py:hex2</text>
</g>
<!-- hexbolt1&#45;&gt;hex.py:hex2 -->
<g id="edge22" class="edge"><title>hexbolt1&#45;&gt;hex.py:hex2</title>
<path fill="none" stroke="black" d="M518.419,-349.006C578.762,-367.863 656,-392 656,-392 656,-392 677.459,-397.082 704.25,-403.428"/>
<polygon fill="black" stroke="black" points="703.795,-406.917 714.332,-405.816 705.408,-400.105 703.795,-406.917"/>
</g>
<!-- hex.scad:hex2 -->
<g id="node20" class="node"><title>hex.scad:hex2</title>
<ellipse fill="none" stroke="black" cx="808" cy="-226" rx="144" ry="29"/>
<text text-anchor="middle" x="808" y="-222.4" font-family="Times Roman,serif" font-size="14.00">hex.scad:hex2</text>
</g>
<!-- hexbolt1&#45;&gt;hex.scad:hex2 -->
<g id="edge24" class="edge"><title>hexbolt1&#45;&gt;hex.scad:hex2</title>
<path fill="none" stroke="black" d="M523.03,-305.95C578.564,-290.37 654.589,-269.04 714.147,-252.331"/>
<polygon fill="black" stroke="black" points="715.252,-255.656 723.935,-249.585 713.361,-248.916 715.252,-255.656"/>
</g>
<!-- hexbolt2 -->
<g id="node5" class="node"><title>hexbolt2</title>
<ellipse fill="none" stroke="black" cx="448" cy="-233" rx="108" ry="29"/>
<text text-anchor="middle" x="448" y="-229.4" font-family="Times Roman,serif" font-size="14.00">hexbolt2</text>
</g>
<!-- hexbolt2&#45;&gt;hex.py:hex2 -->
<g id="edge28" class="edge"><title>hexbolt2&#45;&gt;hex.py:hex2</title>
<path fill="none" stroke="black" d="M507.699,-257.188C536.122,-268.705 564,-280 564,-280 564,-280 656,-392 656,-392 656,-392 677.459,-397.082 704.25,-403.428"/>
<polygon fill="black" stroke="black" points="703.795,-406.917 714.332,-405.816 705.408,-400.105 703.795,-406.917"/>
</g>
<!-- hexbolt2&#45;&gt;hex.scad:hex2 -->
<g id="edge30" class="edge"><title>hexbolt2&#45;&gt;hex.scad:hex2</title>
<path fill="none" stroke="black" d="M556.012,-230.9C586.887,-230.299 621.146,-229.633 654.201,-228.991"/>
<polygon fill="black" stroke="black" points="654.485,-232.486 664.415,-228.792 654.349,-225.487 654.485,-232.486"/>
</g>
<!-- DIN933 -->
<g id="node7" class="node"><title>DIN933</title>
<ellipse fill="none" stroke="black" cx="124" cy="-703" rx="108" ry="29"/>
<text text-anchor="middle" x="124" y="-699.4" font-family="Times Roman,serif" font-size="14.00">DIN933</text>
</g>
<!-- DIN933&#45;&gt;hexscrew1 -->
<g id="edge10" class="edge"><title>DIN933&#45;&gt;hexscrew1</title>
<path fill="none" stroke="black" d="M183.699,-678.812C212.122,-667.295 240,-656 240,-656 240,-656 338.016,-589.556 399.479,-547.891"/>
<polygon fill="black" stroke="black" points="401.582,-550.694 407.896,-542.186 397.654,-544.9 401.582,-550.694"/>
</g>
<!-- ISO4017 -->
<g id="node8" class="node"><title>ISO4017</title>
<ellipse fill="none" stroke="black" cx="124" cy="-421" rx="108" ry="29"/>
<text text-anchor="middle" x="124" y="-417.4" font-family="Times Roman,serif" font-size="14.00">ISO4017</text>
</g>
<!-- ISO4017&#45;&gt;hexscrew2 -->
<g id="edge16" class="edge"><title>ISO4017&#45;&gt;hexscrew2</title>
<path fill="none" stroke="black" d="M232.338,-421C263.545,-421 297.748,-421 329.536,-421"/>
<polygon fill="black" stroke="black" points="329.764,-424.5 339.764,-421 329.764,-417.5 329.764,-424.5"/>
</g>
<!-- DINENISO4017 -->
<g id="node9" class="node"><title>DINENISO4017</title>
<ellipse fill="none" stroke="black" cx="124" cy="-609" rx="108" ry="29"/>
<text text-anchor="middle" x="124" y="-605.4" font-family="Times Roman,serif" font-size="14.00">DINENISO4017</text>
</g>
<!-- DINENISO4017&#45;&gt;hexscrew2 -->
<g id="edge18" class="edge"><title>DINENISO4017&#45;&gt;hexscrew2</title>
<path fill="none" stroke="black" d="M183.699,-584.812C212.122,-573.295 240,-562 240,-562 240,-562 332,-468 332,-468 332,-468 354.113,-459.04 379.03,-448.945"/>
<polygon fill="black" stroke="black" points="380.347,-452.188 388.301,-445.188 377.719,-445.7 380.347,-452.188"/>
</g>
<!-- DINEN24017 -->
<g id="node10" class="node"><title>DINEN24017</title>
<ellipse fill="none" stroke="black" cx="124" cy="-515" rx="108" ry="29"/>
<text text-anchor="middle" x="124" y="-511.4" font-family="Times Roman,serif" font-size="14.00">DINEN24017</text>
</g>
<!-- DINEN24017&#45;&gt;hexscrew2 -->
<g id="edge20" class="edge"><title>DINEN24017&#45;&gt;hexscrew2</title>
<path fill="none" stroke="black" d="M197.521,-493.67C247.247,-479.243 313.017,-460.162 364.685,-445.172"/>
<polygon fill="black" stroke="black" points="365.862,-448.475 374.49,-442.327 363.911,-441.752 365.862,-448.475"/>
</g>
<!-- DIN931 -->
<g id="node11" class="node"><title>DIN931</title>
<ellipse fill="none" stroke="black" cx="124" cy="-327" rx="108" ry="29"/>
<text text-anchor="middle" x="124" y="-323.4" font-family="Times Roman,serif" font-size="14.00">DIN931</text>
</g>
<!-- DIN931&#45;&gt;hexbolt1 -->
<g id="edge26" class="edge"><title>DIN931&#45;&gt;hexbolt1</title>
<path fill="none" stroke="black" d="M232.338,-327C263.545,-327 297.748,-327 329.536,-327"/>
<polygon fill="black" stroke="black" points="329.764,-330.5 339.764,-327 329.764,-323.5 329.764,-330.5"/>
</g>
<!-- ISO4014 -->
<g id="node12" class="node"><title>ISO4014</title>
<ellipse fill="none" stroke="black" cx="124" cy="-45" rx="108" ry="29"/>
<text text-anchor="middle" x="124" y="-41.4" font-family="Times Roman,serif" font-size="14.00">ISO4014</text>
</g>
<!-- ISO4014&#45;&gt;hexbolt2 -->
<g id="edge32" class="edge"><title>ISO4014&#45;&gt;hexbolt2</title>
<path fill="none" stroke="black" d="M183.699,-69.1884C212.122,-80.7045 240,-92 240,-92 240,-92 338.016,-158.444 399.479,-200.109"/>
<polygon fill="black" stroke="black" points="397.654,-203.1 407.896,-205.814 401.582,-197.306 397.654,-203.1"/>
</g>
<!-- DINENISO4014 -->
<g id="node13" class="node"><title>DINENISO4014</title>
<ellipse fill="none" stroke="black" cx="124" cy="-233" rx="108" ry="29"/>
<text text-anchor="middle" x="124" y="-229.4" font-family="Times Roman,serif" font-size="14.00">DINENISO4014</text>
</g>
<!-- DINENISO4014&#45;&gt;hexbolt2 -->
<g id="edge34" class="edge"><title>DINENISO4014&#45;&gt;hexbolt2</title>
<path fill="none" stroke="black" d="M232.338,-233C263.545,-233 297.748,-233 329.536,-233"/>
<polygon fill="black" stroke="black" points="329.764,-236.5 339.764,-233 329.764,-229.5 329.764,-236.5"/>
</g>
<!-- DINEN24014 -->
<g id="node14" class="node"><title>DINEN24014</title>
<ellipse fill="none" stroke="black" cx="124" cy="-139" rx="108" ry="29"/>
<text text-anchor="middle" x="124" y="-135.4" font-family="Times Roman,serif" font-size="14.00">DINEN24014</text>
</g>
<!-- DINEN24014&#45;&gt;hexbolt2 -->
<g id="edge36" class="edge"><title>DINEN24014&#45;&gt;hexbolt2</title>
<path fill="none" stroke="black" d="M197.521,-160.33C247.247,-174.757 313.017,-193.838 364.685,-208.828"/>
<polygon fill="black" stroke="black" points="363.911,-212.248 374.49,-211.673 365.862,-205.525 363.911,-212.248"/>
</g>
</g>
</svg>
