<?xml version="1.0" encoding="UTF-8" standalone="no"?>
<!DOCTYPE svg PUBLIC "-//W3C//DTD SVG 1.1//EN"
 "http://www.w3.org/Graphics/SVG/1.1/DTD/svg11.dtd">
<!-- Generated by graphviz version 2.26.3 (20100126.1600)
 -->
<!-- Title: G Pages: 1 -->
<svg width="580pt" height="480pt"
 viewBox="0.00 0.00 580.00 480.00" xmlns="http://www.w3.org/2000/svg" xmlns:xlink="http://www.w3.org/1999/xlink">
<g id="graph1" class="graph" transform="scale(1 1) rotate(0) translate(4 476)">
<title>G</title>
<polygon fill="white" stroke="white" points="-4,5 -4,-476 577,-476 577,5 -4,5"/>
<g id="graph2" class="cluster"><title>cluster_cl</title>
<polygon fill="none" stroke="black" points="218,-116 218,-356 364,-356 364,-116 218,-116"/>
<text text-anchor="middle" x="291" y="-339.4" font-family="Times Roman,serif" font-size="14.00">Classes</text>
</g>
<g id="graph3" class="cluster"><title>cluster_std</title>
<polygon fill="none" stroke="black" points="8,-8 8,-464 198,-464 198,-8 8,-8"/>
<text text-anchor="middle" x="103" y="-447.4" font-family="Times Roman,serif" font-size="14.00">Standards</text>
</g>
<g id="graph4" class="cluster"><title>cluster_fcd</title>
<polygon fill="none" stroke="black" points="395,-240 395,-372 553,-372 553,-240 395,-240"/>
<text text-anchor="middle" x="474" y="-355.4" font-family="Times Roman,serif" font-size="14.00">FreeCAD</text>
</g>
<g id="graph5" class="cluster"><title>cluster_ocd</title>
<polygon fill="none" stroke="black" points="384,-100 384,-232 564,-232 564,-100 384,-100"/>
<text text-anchor="middle" x="474" y="-215.4" font-family="Times Roman,serif" font-size="14.00">OpenSCAD</text>
</g>
<!-- hexscrew1 -->
<g id="node2" class="node"><title>hexscrew1</title>
<ellipse fill="none" stroke="black" cx="291" cy="-304" rx="63.8479" ry="18.3848"/>
<text text-anchor="middle" x="291" y="-300.4" font-family="Times Roman,serif" font-size="14.00">hexscrew1</text>
</g>
<!-- hex.py:hex1 -->
<g id="node16" class="node"><title>hex.py:hex1</title>
<ellipse fill="none" stroke="black" cx="474" cy="-320" rx="70.2092" ry="18.3848"/>
<text text-anchor="middle" x="474" y="-316.4" font-family="Times Roman,serif" font-size="14.00">hex.py:hex1</text>
</g>
<!-- hexscrew1&#45;&gt;hex.py:hex1 -->
<g id="edge6" class="edge"><title>hexscrew1&#45;&gt;hex.py:hex1</title>
<path fill="none" stroke="black" d="M352.7,-309.395C366.948,-310.64 382.279,-311.981 397.086,-313.275"/>
<polygon fill="black" stroke="black" points="396.967,-316.778 407.233,-314.162 397.576,-309.805 396.967,-316.778"/>
</g>
<!-- hex.scad:hex1 -->
<g id="node19" class="node"><title>hex.scad:hex1</title>
<ellipse fill="none" stroke="black" cx="474" cy="-180" rx="80.8184" ry="18.3848"/>
<text text-anchor="middle" x="474" y="-176.4" font-family="Times Roman,serif" font-size="14.00">hex.scad:hex1</text>
</g>
<!-- hexscrew1&#45;&gt;hex.scad:hex1 -->
<g id="edge8" class="edge"><title>hexscrew1&#45;&gt;hex.scad:hex1</title>
<path fill="none" stroke="black" d="M339.504,-292.004C348.351,-288.242 356.987,-283.347 364,-277 379.032,-263.395 370.419,-251.054 384,-236 396.572,-222.065 413.41,-210.345 429.121,-201.288"/>
<polygon fill="black" stroke="black" points="431.144,-204.168 438.2,-196.265 427.755,-198.043 431.144,-204.168"/>
</g>
<!-- hexscrew2 -->
<g id="node3" class="node"><title>hexscrew2</title>
<ellipse fill="none" stroke="black" cx="291" cy="-250" rx="63.8479" ry="18.3848"/>
<text text-anchor="middle" x="291" y="-246.4" font-family="Times Roman,serif" font-size="14.00">hexscrew2</text>
</g>
<!-- hexscrew2&#45;&gt;hex.py:hex1 -->
<g id="edge12" class="edge"><title>hexscrew2&#45;&gt;hex.py:hex1</title>
<path fill="none" stroke="black" d="M334.491,-263.485C344.464,-267.281 354.825,-271.813 364,-277 373.91,-282.602 373.919,-287.712 384,-293 392.668,-297.547 402.216,-301.445 411.757,-304.75"/>
<polygon fill="black" stroke="black" points="410.669,-308.076 421.261,-307.858 412.845,-301.423 410.669,-308.076"/>
</g>
<!-- hexscrew2&#45;&gt;hex.scad:hex1 -->
<g id="edge14" class="edge"><title>hexscrew2&#45;&gt;hex.scad:hex1</title>
<path fill="none" stroke="black" d="M330.451,-235.559C341.336,-231.534 353.138,-227.131 364,-223 383.92,-215.423 405.798,-206.911 424.759,-199.471"/>
<polygon fill="black" stroke="black" points="426.07,-202.717 434.097,-195.802 423.51,-196.202 426.07,-202.717"/>
</g>
<!-- hexbolt1 -->
<g id="node4" class="node"><title>hexbolt1</title>
<ellipse fill="none" stroke="black" cx="291" cy="-196" rx="53.9477" ry="18.3848"/>
<text text-anchor="middle" x="291" y="-192.4" font-family="Times Roman,serif" font-size="14.00">hexbolt1</text>
</g>
<!-- hex.py:hex2 -->
<g id="node17" class="node"><title>hex.py:hex2</title>
<ellipse fill="none" stroke="black" cx="474" cy="-266" rx="70.2092" ry="18.3848"/>
<text text-anchor="middle" x="474" y="-262.4" font-family="Times Roman,serif" font-size="14.00">hex.py:hex2</text>
</g>
<!-- hexbolt1&#45;&gt;hex.py:hex2 -->
<g id="edge22" class="edge"><title>hexbolt1&#45;&gt;hex.py:hex2</title>
<path fill="none" stroke="black" d="M330.323,-208.729C341.426,-212.807 353.373,-217.664 364,-223 373.474,-227.757 374.449,-231.398 384,-236 394.328,-240.977 405.694,-245.466 416.769,-249.363"/>
<polygon fill="black" stroke="black" points="415.8,-252.73 426.394,-252.634 418.052,-246.102 415.8,-252.73"/>
</g>
<!-- hex.scad:hex2 -->
<g id="node20" class="node"><title>hex.scad:hex2</title>
<ellipse fill="none" stroke="black" cx="474" cy="-126" rx="80.8184" ry="18.3848"/>
<text text-anchor="middle" x="474" y="-122.4" font-family="Times Roman,serif" font-size="14.00">hex.scad:hex2</text>
</g>
<!-- hexbolt1&#45;&gt;hex.scad:hex2 -->
<g id="edge24" class="edge"><title>hexbolt1&#45;&gt;hex.scad:hex2</title>
<path fill="none" stroke="black" d="M331.437,-183.659C342.326,-179.642 353.884,-174.719 364,-169 373.91,-163.398 373.919,-158.288 384,-153 391.662,-148.981 400.013,-145.468 408.437,-142.424"/>
<polygon fill="black" stroke="black" points="409.61,-145.722 417.948,-139.185 407.353,-139.096 409.61,-145.722"/>
</g>
<!-- hexbolt2 -->
<g id="node5" class="node"><title>hexbolt2</title>
<ellipse fill="none" stroke="black" cx="291" cy="-142" rx="53.9477" ry="18.3848"/>
<text text-anchor="middle" x="291" y="-138.4" font-family="Times Roman,serif" font-size="14.00">hexbolt2</text>
</g>
<!-- hexbolt2&#45;&gt;hex.py:hex2 -->
<g id="edge28" class="edge"><title>hexbolt2&#45;&gt;hex.py:hex2</title>
<path fill="none" stroke="black" d="M336.963,-151.706C346.95,-155.661 356.698,-161.213 364,-169 385.258,-191.668 362.376,-213.681 384,-236 390.396,-242.602 398.281,-247.751 406.702,-251.768"/>
<polygon fill="black" stroke="black" points="405.431,-255.03 416.005,-255.696 408.154,-248.581 405.431,-255.03"/>
</g>
<!-- hexbolt2&#45;&gt;hex.scad:hex2 -->
<g id="edge30" class="edge"><title>hexbolt2&#45;&gt;hex.scad:hex2</title>
<path fill="none" stroke="black" d="M343.931,-137.372C357.654,-136.172 372.794,-134.849 387.746,-133.541"/>
<polygon fill="black" stroke="black" points="388.39,-136.998 398.047,-132.641 387.781,-130.025 388.39,-136.998"/>
</g>
<!-- DIN933 -->
<g id="node7" class="node"><title>DIN933</title>
<ellipse fill="none" stroke="black" cx="103" cy="-412" rx="48.9975" ry="18.3848"/>
<text text-anchor="middle" x="103" y="-408.4" font-family="Times Roman,serif" font-size="14.00">DIN933</text>
</g>
<!-- DIN933&#45;&gt;hexscrew1 -->
<g id="edge10" class="edge"><title>DIN933&#45;&gt;hexscrew1</title>
<path fill="none" stroke="black" d="M147.123,-403.735C163.705,-399.547 182.323,-393.498 198,-385 224.847,-370.447 250.646,-346.968 268.232,-329.026"/>
<polygon fill="black" stroke="black" points="270.846,-331.357 275.245,-321.718 265.796,-326.51 270.846,-331.357"/>
</g>
<!-- ISO4017 -->
<g id="node8" class="node"><title>ISO4017</title>
<ellipse fill="none" stroke="black" cx="103" cy="-250" rx="53.9477" ry="18.3848"/>
<text text-anchor="middle" x="103" y="-246.4" font-family="Times Roman,serif" font-size="14.00">ISO4017</text>
</g>
<!-- ISO4017&#45;&gt;hexscrew2 -->
<g id="edge16" class="edge"><title>ISO4017&#45;&gt;hexscrew2</title>
<path fill="none" stroke="black" d="M157.63,-250C175.909,-250 196.613,-250 216.162,-250"/>
<polygon fill="black" stroke="black" points="216.261,-253.5 226.261,-250 216.261,-246.5 216.261,-253.5"/>
</g>
<!-- DINENISO4017 -->
<g id="node9" class="node"><title>DINENISO4017</title>
<ellipse fill="none" stroke="black" cx="103" cy="-358" rx="86.9741" ry="18.3848"/>
<text text-anchor="middle" x="103" y="-354.4" font-family="Times Roman,serif" font-size="14.00">DINENISO4017</text>
</g>
<!-- DINENISO4017&#45;&gt;hexscrew2 -->
<g id="edge18" class="edge"><title>DINENISO4017&#45;&gt;hexscrew2</title>
<path fill="none" stroke="black" d="M171.995,-346.846C181.525,-343.007 190.574,-337.87 198,-331 216.787,-313.62 199.899,-295.093 218,-277 222.225,-272.777 227.167,-269.208 232.453,-266.192"/>
<polygon fill="black" stroke="black" points="234.223,-269.22 241.607,-261.622 231.097,-262.957 234.223,-269.22"/>
</g>
<!-- DINEN24017 -->
<g id="node10" class="node"><title>DINEN24017</title>
<ellipse fill="none" stroke="black" cx="103" cy="-304" rx="75.1594" ry="18.3848"/>
<text text-anchor="middle" x="103" y="-300.4" font-family="Times Roman,serif" font-size="14.00">DINEN24017</text>
</g>
<!-- DINEN24017&#45;&gt;hexscrew2 -->
<g id="edge20" class="edge"><title>DINEN24017&#45;&gt;hexscrew2</title>
<path fill="none" stroke="black" d="M151.832,-290.178C166.664,-285.965 183.003,-281.308 198,-277 210.368,-273.447 223.654,-269.605 236.203,-265.965"/>
<polygon fill="black" stroke="black" points="237.45,-269.247 246.077,-263.098 235.498,-262.525 237.45,-269.247"/>
</g>
<!-- DIN931 -->
<g id="node11" class="node"><title>DIN931</title>
<ellipse fill="none" stroke="black" cx="103" cy="-196" rx="48.9975" ry="18.3848"/>
<text text-anchor="middle" x="103" y="-192.4" font-family="Times Roman,serif" font-size="14.00">DIN931</text>
</g>
<!-- DIN931&#45;&gt;hexbolt1 -->
<g id="edge26" class="edge"><title>DIN931&#45;&gt;hexbolt1</title>
<path fill="none" stroke="black" d="M152.887,-196C175.35,-196 202.16,-196 226.157,-196"/>
<polygon fill="black" stroke="black" points="226.248,-199.5 236.248,-196 226.248,-192.5 226.248,-199.5"/>
</g>
<!-- ISO4014 -->
<g id="node12" class="node"><title>ISO4014</title>
<ellipse fill="none" stroke="black" cx="103" cy="-34" rx="53.9477" ry="18.3848"/>
<text text-anchor="middle" x="103" y="-30.4" font-family="Times Roman,serif" font-size="14.00">ISO4014</text>
</g>
<!-- ISO4014&#45;&gt;hexbolt2 -->
<g id="edge32" class="edge"><title>ISO4014&#45;&gt;hexbolt2</title>
<path fill="none" stroke="black" d="M150.497,-43.136C166.198,-47.2782 183.378,-53.0741 198,-61 225.012,-75.642 250.963,-99.3202 268.555,-117.303"/>
<polygon fill="black" stroke="black" points="266.116,-119.818 275.561,-124.619 271.172,-114.976 266.116,-119.818"/>
</g>
<!-- DINENISO4014 -->
<g id="node13" class="node"><title>DINENISO4014</title>
<ellipse fill="none" stroke="black" cx="103" cy="-142" rx="86.9741" ry="18.3848"/>
<text text-anchor="middle" x="103" y="-138.4" font-family="Times Roman,serif" font-size="14.00">DINENISO4014</text>
</g>
<!-- DINENISO4014&#45;&gt;hexbolt2 -->
<g id="edge34" class="edge"><title>DINENISO4014&#45;&gt;hexbolt2</title>
<path fill="none" stroke="black" d="M190.121,-142C202.304,-142 214.642,-142 226.311,-142"/>
<polygon fill="black" stroke="black" points="226.372,-145.5 236.372,-142 226.372,-138.5 226.372,-145.5"/>
</g>
<!-- DINEN24014 -->
<g id="node14" class="node"><title>DINEN24014</title>
<ellipse fill="none" stroke="black" cx="103" cy="-88" rx="75.1594" ry="18.3848"/>
<text text-anchor="middle" x="103" y="-84.4" font-family="Times Roman,serif" font-size="14.00">DINEN24014</text>
</g>
<!-- DINEN24014&#45;&gt;hexbolt2 -->
<g id="edge36" class="edge"><title>DINEN24014&#45;&gt;hexbolt2</title>
<path fill="none" stroke="black" d="M151.832,-101.822C166.664,-106.035 183.003,-110.692 198,-115 211.653,-118.922 226.424,-123.196 240.089,-127.163"/>
<polygon fill="black" stroke="black" points="239.231,-130.559 249.811,-129.988 241.184,-123.837 239.231,-130.559"/>
</g>
</g>
</svg>
