<?xml version="1.0" encoding="UTF-8" standalone="no"?>
<!DOCTYPE svg PUBLIC "-//W3C//DTD SVG 1.1//EN"
 "http://www.w3.org/Graphics/SVG/1.1/DTD/svg11.dtd">
<!-- Generated by graphviz version 2.26.3 (20100126.1600)
 -->
<!-- Title: G Pages: 1 -->
<svg width="838pt" height="372pt"
 viewBox="0.00 0.00 838.00 372.00" xmlns="http://www.w3.org/2000/svg" xmlns:xlink="http://www.w3.org/1999/xlink">
<g id="graph1" class="graph" transform="scale(1 1) rotate(0) translate(4 368)">
<title>G</title>
<polygon fill="white" stroke="white" points="-4,5 -4,-368 835,-368 835,5 -4,5"/>
<g id="graph2" class="cluster"><title>cluster_cl</title>
<polygon fill="none" stroke="black" points="218,-116 218,-248 478,-248 478,-116 218,-116"/>
<text text-anchor="middle" x="348" y="-231.4" font-family="Times Roman,serif" font-size="14.00">Classes</text>
</g>
<g id="graph3" class="cluster"><title>cluster_std</title>
<polygon fill="none" stroke="black" points="8,-8 8,-356 198,-356 198,-8 8,-8"/>
<text text-anchor="middle" x="103" y="-339.4" font-family="Times Roman,serif" font-size="14.00">Standards</text>
</g>
<g id="graph5" class="cluster"><title>cluster_ocd</title>
<polygon fill="none" stroke="black" points="498,-116 498,-248 822,-248 822,-116 498,-116"/>
<text text-anchor="middle" x="660" y="-231.4" font-family="Times Roman,serif" font-size="14.00">OpenSCAD</text>
</g>
<!-- hexsocketcountersunk -->
<g id="node2" class="node"><title>hexsocketcountersunk</title>
<ellipse fill="none" stroke="black" cx="348" cy="-196" rx="121.122" ry="18.3848"/>
<text text-anchor="middle" x="348" y="-192.4" font-family="Times Roman,serif" font-size="14.00">hexsocketcountersunk</text>
</g>
<!-- hex_socket.scad:hex_socket1 -->
<g id="node13" class="node"><title>hex_socket.scad:hex_socket1</title>
<ellipse fill="none" stroke="black" cx="660" cy="-196" rx="154.149" ry="18.3848"/>
<text text-anchor="middle" x="660" y="-192.4" font-family="Times Roman,serif" font-size="14.00">hex_socket.scad:hex_socket1</text>
</g>
<!-- hexsocketcountersunk&#45;&gt;hex_socket.scad:hex_socket1 -->
<g id="edge6" class="edge"><title>hexsocketcountersunk&#45;&gt;hex_socket.scad:hex_socket1</title>
<path fill="none" stroke="black" d="M469.521,-196C478.068,-196 486.76,-196 495.488,-196"/>
<polygon fill="black" stroke="black" points="495.744,-199.5 505.744,-196 495.744,-192.5 495.744,-199.5"/>
</g>
<!-- hexsocketheadcap -->
<g id="node3" class="node"><title>hexsocketheadcap</title>
<ellipse fill="none" stroke="black" cx="348" cy="-142" rx="101.116" ry="18.3848"/>
<text text-anchor="middle" x="348" y="-138.4" font-family="Times Roman,serif" font-size="14.00">hexsocketheadcap</text>
</g>
<!-- hex_socket.scad:hex_socket2 -->
<g id="node14" class="node"><title>hex_socket.scad:hex_socket2</title>
<ellipse fill="none" stroke="black" cx="660" cy="-142" rx="154.149" ry="18.3848"/>
<text text-anchor="middle" x="660" y="-138.4" font-family="Times Roman,serif" font-size="14.00">hex_socket.scad:hex_socket2</text>
</g>
<!-- hexsocketheadcap&#45;&gt;hex_socket.scad:hex_socket2 -->
<g id="edge14" class="edge"><title>hexsocketheadcap&#45;&gt;hex_socket.scad:hex_socket2</title>
<path fill="none" stroke="black" d="M449.297,-142C464.185,-142 479.835,-142 495.598,-142"/>
<polygon fill="black" stroke="black" points="495.967,-145.5 505.967,-142 495.967,-138.5 495.967,-145.5"/>
</g>
<!-- ISO10642 -->
<g id="node5" class="node"><title>ISO10642</title>
<ellipse fill="none" stroke="black" cx="103" cy="-304" rx="60.8112" ry="18.3848"/>
<text text-anchor="middle" x="103" y="-300.4" font-family="Times Roman,serif" font-size="14.00">ISO10642</text>
</g>
<!-- ISO10642&#45;&gt;hexsocketcountersunk -->
<g id="edge8" class="edge"><title>ISO10642&#45;&gt;hexsocketcountersunk</title>
<path fill="none" stroke="black" d="M150.556,-292.672C165.937,-288.432 182.91,-283.133 198,-277 238.129,-260.691 281.402,-236.555 311.108,-218.872"/>
<polygon fill="black" stroke="black" points="313.102,-221.757 319.873,-213.607 309.498,-215.756 313.102,-221.757"/>
</g>
<!-- DINISO10642 -->
<g id="node6" class="node"><title>DINISO10642</title>
<ellipse fill="none" stroke="black" cx="103" cy="-250" rx="79.9031" ry="18.3848"/>
<text text-anchor="middle" x="103" y="-246.4" font-family="Times Roman,serif" font-size="14.00">DINISO10642</text>
</g>
<!-- DINISO10642&#45;&gt;hexsocketcountersunk -->
<g id="edge10" class="edge"><title>DINISO10642&#45;&gt;hexsocketcountersunk</title>
<path fill="none" stroke="black" d="M160.442,-237.339C193.15,-230.13 234.575,-221 270.169,-213.154"/>
<polygon fill="black" stroke="black" points="271.03,-216.549 280.042,-210.978 269.523,-209.713 271.03,-216.549"/>
</g>
<!-- DIN7991 -->
<g id="node7" class="node"><title>DIN7991</title>
<ellipse fill="none" stroke="black" cx="103" cy="-196" rx="55.8614" ry="18.3848"/>
<text text-anchor="middle" x="103" y="-192.4" font-family="Times Roman,serif" font-size="14.00">DIN7991</text>
</g>
<!-- DIN7991&#45;&gt;hexsocketcountersunk -->
<g id="edge12" class="edge"><title>DIN7991&#45;&gt;hexsocketcountersunk</title>
<path fill="none" stroke="black" d="M159.208,-196C176.369,-196 196.015,-196 216,-196"/>
<polygon fill="black" stroke="black" points="216.148,-199.5 226.148,-196 216.148,-192.5 216.148,-199.5"/>
</g>
<!-- ISO4762 -->
<g id="node8" class="node"><title>ISO4762</title>
<ellipse fill="none" stroke="black" cx="103" cy="-142" rx="53.9477" ry="18.3848"/>
<text text-anchor="middle" x="103" y="-138.4" font-family="Times Roman,serif" font-size="14.00">ISO4762</text>
</g>
<!-- ISO4762&#45;&gt;hexsocketheadcap -->
<g id="edge16" class="edge"><title>ISO4762&#45;&gt;hexsocketheadcap</title>
<path fill="none" stroke="black" d="M157.678,-142C181.04,-142 209.208,-142 236.627,-142"/>
<polygon fill="black" stroke="black" points="236.684,-145.5 246.684,-142 236.684,-138.5 236.684,-145.5"/>
</g>
<!-- DINENISO4762 -->
<g id="node9" class="node"><title>DINENISO4762</title>
<ellipse fill="none" stroke="black" cx="103" cy="-88" rx="86.9741" ry="18.3848"/>
<text text-anchor="middle" x="103" y="-84.4" font-family="Times Roman,serif" font-size="14.00">DINENISO4762</text>
</g>
<!-- DINENISO4762&#45;&gt;hexsocketheadcap -->
<g id="edge18" class="edge"><title>DINENISO4762&#45;&gt;hexsocketheadcap</title>
<path fill="none" stroke="black" d="M162.62,-101.141C196.283,-108.56 238.636,-117.895 274.359,-125.769"/>
<polygon fill="black" stroke="black" points="273.727,-129.214 284.246,-127.948 275.234,-122.378 273.727,-129.214"/>
</g>
<!-- DIN912 -->
<g id="node10" class="node"><title>DIN912</title>
<ellipse fill="none" stroke="black" cx="103" cy="-34" rx="48.9975" ry="18.3848"/>
<text text-anchor="middle" x="103" y="-30.4" font-family="Times Roman,serif" font-size="14.00">DIN912</text>
</g>
<!-- DIN912&#45;&gt;hexsocketheadcap -->
<g id="edge20" class="edge"><title>DIN912&#45;&gt;hexsocketheadcap</title>
<path fill="none" stroke="black" d="M144.811,-43.7725C161.619,-48.2423 181.004,-54.0925 198,-61 238.253,-77.3594 281.67,-101.595 311.383,-119.292"/>
<polygon fill="black" stroke="black" points="309.772,-122.407 320.146,-124.559 313.378,-116.408 309.772,-122.407"/>
</g>
</g>
</svg>
