<?xml version="1.0" encoding="UTF-8" standalone="no"?>
<!DOCTYPE svg PUBLIC "-//W3C//DTD SVG 1.1//EN"
 "http://www.w3.org/Graphics/SVG/1.1/DTD/svg11.dtd">
<!-- Generated by graphviz version 2.26.3 (20100126.1600)
 -->
<!-- Title: G Pages: 1 -->
<svg width="638pt" height="426pt"
 viewBox="0.00 0.00 638.00 426.00" xmlns="http://www.w3.org/2000/svg" xmlns:xlink="http://www.w3.org/1999/xlink">
<g id="graph1" class="graph" transform="scale(1 1) rotate(0) translate(4 422)">
<title>G</title>
<polygon fill="white" stroke="white" points="-4,5 -4,-422 635,-422 635,5 -4,5"/>
<g id="graph2" class="cluster"><title>cluster_cl</title>
<polygon fill="none" stroke="black" points="218,-62 218,-356 426,-356 426,-62 218,-62"/>
<text text-anchor="middle" x="322" y="-339.4" font-family="Times Roman,serif" font-size="14.00">Classes</text>
</g>
<g id="graph3" class="cluster"><title>cluster_std</title>
<polygon fill="none" stroke="black" points="8,-8 8,-410 198,-410 198,-8 8,-8"/>
<text text-anchor="middle" x="103" y="-393.4" font-family="Times Roman,serif" font-size="14.00">Standards</text>
</g>
<g id="graph4" class="cluster"><title>cluster_fcd</title>
<polygon fill="none" stroke="black" points="456,-213 456,-291 612,-291 612,-213 456,-213"/>
<text text-anchor="middle" x="534" y="-274.4" font-family="Times Roman,serif" font-size="14.00">FreeCAD</text>
</g>
<g id="graph5" class="cluster"><title>cluster_ocd</title>
<polygon fill="none" stroke="black" points="446,-127 446,-205 622,-205 622,-127 446,-127"/>
<text text-anchor="middle" x="534" y="-188.4" font-family="Times Roman,serif" font-size="14.00">OpenSCAD</text>
</g>
<!-- hexagonthinnut1 -->
<g id="node2" class="node"><title>hexagonthinnut1</title>
<ellipse fill="none" stroke="black" cx="322" cy="-304" rx="96.1665" ry="18.3848"/>
<text text-anchor="middle" x="322" y="-300.4" font-family="Times Roman,serif" font-size="14.00">hexagonthinnut1</text>
</g>
<!-- nut.py:nut1 -->
<g id="node16" class="node"><title>nut.py:nut1</title>
<ellipse fill="none" stroke="black" cx="534" cy="-239" rx="68.7979" ry="18.3848"/>
<text text-anchor="middle" x="534" y="-235.4" font-family="Times Roman,serif" font-size="14.00">nut.py:nut1</text>
</g>
<!-- hexagonthinnut1&#45;&gt;nut.py:nut1 -->
<g id="edge6" class="edge"><title>hexagonthinnut1&#45;&gt;nut.py:nut1</title>
<path fill="none" stroke="black" d="M380.548,-289.723C395.441,-285.839 411.37,-281.464 426,-277 445.338,-271.099 466.36,-263.888 484.673,-257.34"/>
<polygon fill="black" stroke="black" points="486.039,-260.568 494.26,-253.885 483.666,-253.983 486.039,-260.568"/>
</g>
<!-- nut.scad:nut1 -->
<g id="node18" class="node"><title>nut.scad:nut1</title>
<ellipse fill="none" stroke="black" cx="534" cy="-153" rx="79.9031" ry="18.3848"/>
<text text-anchor="middle" x="534" y="-149.4" font-family="Times Roman,serif" font-size="14.00">nut.scad:nut1</text>
</g>
<!-- hexagonthinnut1&#45;&gt;nut.scad:nut1 -->
<g id="edge8" class="edge"><title>hexagonthinnut1&#45;&gt;nut.scad:nut1</title>
<path fill="none" stroke="black" d="M400.031,-293.404C409.626,-289.455 418.63,-284.138 426,-277 448.63,-255.084 427.059,-234.172 446,-209 456.831,-194.606 472.532,-182.942 487.683,-174.061"/>
<polygon fill="black" stroke="black" points="489.464,-177.075 496.499,-169.154 486.059,-170.959 489.464,-177.075"/>
</g>
<!-- hexagonthinnut2 -->
<g id="node3" class="node"><title>hexagonthinnut2</title>
<ellipse fill="none" stroke="black" cx="322" cy="-250" rx="96.1665" ry="18.3848"/>
<text text-anchor="middle" x="322" y="-246.4" font-family="Times Roman,serif" font-size="14.00">hexagonthinnut2</text>
</g>
<!-- hexagonthinnut2&#45;&gt;nut.py:nut1 -->
<g id="edge14" class="edge"><title>hexagonthinnut2&#45;&gt;nut.py:nut1</title>
<path fill="none" stroke="black" d="M414.678,-245.191C428.351,-244.482 442.324,-243.757 455.669,-243.064"/>
<polygon fill="black" stroke="black" points="455.93,-246.556 465.736,-242.542 455.568,-239.565 455.93,-246.556"/>
</g>
<!-- hexagonthinnut2&#45;&gt;nut.scad:nut1 -->
<g id="edge16" class="edge"><title>hexagonthinnut2&#45;&gt;nut.scad:nut1</title>
<path fill="none" stroke="black" d="M387.598,-236.773C400.62,-233.098 413.974,-228.55 426,-223 435.852,-218.454 436.976,-215.025 446,-209 462.9,-197.715 481.894,-185.563 497.897,-175.473"/>
<polygon fill="black" stroke="black" points="499.845,-178.383 506.449,-170.098 496.12,-172.456 499.845,-178.383"/>
</g>
<!-- hexagonnut1 -->
<g id="node4" class="node"><title>hexagonnut1</title>
<ellipse fill="none" stroke="black" cx="322" cy="-196" rx="77.0746" ry="18.3848"/>
<text text-anchor="middle" x="322" y="-192.4" font-family="Times Roman,serif" font-size="14.00">hexagonnut1</text>
</g>
<!-- hexagonnut1&#45;&gt;nut.py:nut1 -->
<g id="edge20" class="edge"><title>hexagonnut1&#45;&gt;nut.py:nut1</title>
<path fill="none" stroke="black" d="M380.21,-207.807C407.842,-213.411 440.954,-220.127 469.364,-225.89"/>
<polygon fill="black" stroke="black" points="468.704,-229.327 479.2,-227.885 470.095,-222.467 468.704,-229.327"/>
</g>
<!-- hexagonnut1&#45;&gt;nut.scad:nut1 -->
<g id="edge22" class="edge"><title>hexagonnut1&#45;&gt;nut.scad:nut1</title>
<path fill="none" stroke="black" d="M380.21,-184.193C406.302,-178.901 437.28,-172.618 464.572,-167.082"/>
<polygon fill="black" stroke="black" points="465.34,-170.498 474.444,-165.08 463.948,-163.637 465.34,-170.498"/>
</g>
<!-- hexagonnut2 -->
<g id="node5" class="node"><title>hexagonnut2</title>
<ellipse fill="none" stroke="black" cx="322" cy="-142" rx="77.0746" ry="18.3848"/>
<text text-anchor="middle" x="322" y="-138.4" font-family="Times Roman,serif" font-size="14.00">hexagonnut2</text>
</g>
<!-- hexagonnut2&#45;&gt;nut.py:nut1 -->
<g id="edge26" class="edge"><title>hexagonnut2&#45;&gt;nut.py:nut1</title>
<path fill="none" stroke="black" d="M389.77,-150.696C402.768,-154.715 415.561,-160.549 426,-169 441.448,-181.507 431.029,-195.926 446,-209 452.964,-215.082 461.218,-219.944 469.835,-223.827"/>
<polygon fill="black" stroke="black" points="468.702,-227.145 479.284,-227.669 471.339,-220.661 468.702,-227.145"/>
</g>
<!-- hexagonnut2&#45;&gt;nut.scad:nut1 -->
<g id="edge28" class="edge"><title>hexagonnut2&#45;&gt;nut.scad:nut1</title>
<path fill="none" stroke="black" d="M397.34,-145.909C412.961,-146.72 429.553,-147.581 445.593,-148.413"/>
<polygon fill="black" stroke="black" points="445.869,-151.932 456.037,-148.955 446.232,-144.941 445.869,-151.932"/>
</g>
<!-- hexagonnut3 -->
<g id="node6" class="node"><title>hexagonnut3</title>
<ellipse fill="none" stroke="black" cx="322" cy="-88" rx="77.0746" ry="18.3848"/>
<text text-anchor="middle" x="322" y="-84.4" font-family="Times Roman,serif" font-size="14.00">hexagonnut3</text>
</g>
<!-- hexagonnut3&#45;&gt;nut.py:nut1 -->
<g id="edge32" class="edge"><title>hexagonnut3&#45;&gt;nut.py:nut1</title>
<path fill="none" stroke="black" d="M392.897,-95.194C405.277,-99.3599 417.038,-105.632 426,-115 455.525,-145.865 417.645,-177.056 446,-209 451.839,-215.578 459.179,-220.715 467.117,-224.726"/>
<polygon fill="black" stroke="black" points="465.725,-227.938 476.286,-228.794 468.564,-221.539 465.725,-227.938"/>
</g>
<!-- hexagonnut3&#45;&gt;nut.scad:nut1 -->
<g id="edge34" class="edge"><title>hexagonnut3&#45;&gt;nut.scad:nut1</title>
<path fill="none" stroke="black" d="M375.684,-101.016C391.929,-105.202 409.764,-110.046 426,-115 444.768,-120.727 465.121,-127.688 483.046,-134.079"/>
<polygon fill="black" stroke="black" points="482.135,-137.471 492.729,-137.56 484.503,-130.883 482.135,-137.471"/>
</g>
<!-- ISO4035 -->
<g id="node8" class="node"><title>ISO4035</title>
<ellipse fill="none" stroke="black" cx="103" cy="-358" rx="53.9477" ry="18.3848"/>
<text text-anchor="middle" x="103" y="-354.4" font-family="Times Roman,serif" font-size="14.00">ISO4035</text>
</g>
<!-- ISO4035&#45;&gt;hexagonthinnut1 -->
<g id="edge10" class="edge"><title>ISO4035&#45;&gt;hexagonthinnut1</title>
<path fill="none" stroke="black" d="M146.792,-347.202C177.352,-339.667 218.749,-329.459 253.631,-320.858"/>
<polygon fill="black" stroke="black" points="254.882,-324.154 263.753,-318.362 253.206,-317.358 254.882,-324.154"/>
</g>
<!-- DINENISO4035 -->
<g id="node9" class="node"><title>DINENISO4035</title>
<ellipse fill="none" stroke="black" cx="103" cy="-304" rx="86.9741" ry="18.3848"/>
<text text-anchor="middle" x="103" y="-300.4" font-family="Times Roman,serif" font-size="14.00">DINENISO4035</text>
</g>
<!-- DINENISO4035&#45;&gt;hexagonthinnut1 -->
<g id="edge12" class="edge"><title>DINENISO4035&#45;&gt;hexagonthinnut1</title>
<path fill="none" stroke="black" d="M190.184,-304C198.586,-304 207.171,-304 215.729,-304"/>
<polygon fill="black" stroke="black" points="215.752,-307.5 225.752,-304 215.752,-300.5 215.752,-307.5"/>
</g>
<!-- DIN439B -->
<g id="node10" class="node"><title>DIN439B</title>
<ellipse fill="none" stroke="black" cx="103" cy="-250" rx="56.0679" ry="18.3848"/>
<text text-anchor="middle" x="103" y="-246.4" font-family="Times Roman,serif" font-size="14.00">DIN439B</text>
</g>
<!-- DIN439B&#45;&gt;hexagonthinnut2 -->
<g id="edge18" class="edge"><title>DIN439B&#45;&gt;hexagonthinnut2</title>
<path fill="none" stroke="black" d="M159.683,-250C176.843,-250 196.278,-250 215.586,-250"/>
<polygon fill="black" stroke="black" points="215.658,-253.5 225.658,-250 215.658,-246.5 215.658,-253.5"/>
</g>
<!-- ISO4032 -->
<g id="node11" class="node"><title>ISO4032</title>
<ellipse fill="none" stroke="black" cx="103" cy="-196" rx="53.9477" ry="18.3848"/>
<text text-anchor="middle" x="103" y="-192.4" font-family="Times Roman,serif" font-size="14.00">ISO4032</text>
</g>
<!-- ISO4032&#45;&gt;hexagonnut1 -->
<g id="edge24" class="edge"><title>ISO4032&#45;&gt;hexagonnut1</title>
<path fill="none" stroke="black" d="M157.698,-196C180.962,-196 208.672,-196 234.647,-196"/>
<polygon fill="black" stroke="black" points="234.885,-199.5 244.885,-196 234.885,-192.5 234.885,-199.5"/>
</g>
<!-- DIN934 -->
<g id="node12" class="node"><title>DIN934</title>
<ellipse fill="none" stroke="black" cx="103" cy="-142" rx="48.9975" ry="18.3848"/>
<text text-anchor="middle" x="103" y="-138.4" font-family="Times Roman,serif" font-size="14.00">DIN934</text>
</g>
<!-- DIN934&#45;&gt;hexagonnut2 -->
<g id="edge30" class="edge"><title>DIN934&#45;&gt;hexagonnut2</title>
<path fill="none" stroke="black" d="M152.694,-142C176.86,-142 206.631,-142 234.434,-142"/>
<polygon fill="black" stroke="black" points="234.575,-145.5 244.575,-142 234.574,-138.5 234.575,-145.5"/>
</g>
<!-- ANSI B18.2.2 -->
<g id="node13" class="node"><title>ANSI B18.2.2</title>
<ellipse fill="none" stroke="black" cx="103" cy="-88" rx="77.7817" ry="18.3848"/>
<text text-anchor="middle" x="103" y="-84.4" font-family="Times Roman,serif" font-size="14.00">ANSI B18.2.2</text>
</g>
<!-- ANSI B18.2.2&#45;&gt;hexagonnut3 -->
<g id="edge36" class="edge"><title>ANSI B18.2.2&#45;&gt;hexagonnut3</title>
<path fill="none" stroke="black" d="M181.137,-88C198.49,-88 216.992,-88 234.687,-88"/>
<polygon fill="black" stroke="black" points="234.998,-91.5001 244.998,-88 234.997,-84.5001 234.998,-91.5001"/>
</g>
<!-- ASME B18.2.2 -->
<g id="node14" class="node"><title>ASME B18.2.2</title>
<ellipse fill="none" stroke="black" cx="103" cy="-34" rx="82.0244" ry="18.3848"/>
<text text-anchor="middle" x="103" y="-30.4" font-family="Times Roman,serif" font-size="14.00">ASME B18.2.2</text>
</g>
<!-- ASME B18.2.2&#45;&gt;hexagonnut3 -->
<g id="edge38" class="edge"><title>ASME B18.2.2&#45;&gt;hexagonnut3</title>
<path fill="none" stroke="black" d="M157.698,-47.4872C188.468,-55.0744 227.018,-64.5797 259.042,-72.476"/>
<polygon fill="black" stroke="black" points="258.208,-75.8751 268.755,-74.871 259.883,-69.0787 258.208,-75.8751"/>
</g>
</g>
</svg>
