<?xml version="1.0" encoding="UTF-8" standalone="no"?>
<!DOCTYPE svg PUBLIC "-//W3C//DTD SVG 1.1//EN"
 "http://www.w3.org/Graphics/SVG/1.1/DTD/svg11.dtd">
<!-- Generated by graphviz version 2.26.3 (20100126.1600)
 -->
<!-- Title: G Pages: 1 -->
<svg width="976pt" height="232pt"
 viewBox="0.00 0.00 976.00 232.00" xmlns="http://www.w3.org/2000/svg" xmlns:xlink="http://www.w3.org/1999/xlink">
<g id="graph1" class="graph" transform="scale(1 1) rotate(0) translate(4 228)">
<title>G</title>
<polygon fill="white" stroke="white" points="-4,5 -4,-228 973,-228 973,5 -4,5"/>
<g id="graph2" class="cluster"><title>cluster_cl</title>
<polygon fill="none" stroke="black" points="332,-12 332,-206 564,-206 564,-12 332,-12"/>
<text text-anchor="middle" x="448" y="-189.4" font-family="Times Roman,serif" font-size="14.00">Classes</text>
</g>
<g id="graph3" class="cluster"><title>cluster_std</title>
<polygon fill="none" stroke="black" points="8,-12 8,-112 240,-112 240,-12 8,-12"/>
<text text-anchor="middle" x="124" y="-95.4" font-family="Times Roman,serif" font-size="14.00">Standards</text>
</g>
<g id="graph4" class="cluster"><title>cluster_fcd</title>
<polygon fill="none" stroke="black" points="656,-116 656,-216 960,-216 960,-116 656,-116"/>
<text text-anchor="middle" x="808" y="-199.4" font-family="Times Roman,serif" font-size="14.00">FreeCAD</text>
</g>
<g id="graph5" class="cluster"><title>cluster_ocd</title>
<polygon fill="none" stroke="black" points="656,-8 656,-108 960,-108 960,-8 656,-8"/>
<text text-anchor="middle" x="808" y="-91.4" font-family="Times Roman,serif" font-size="14.00">OpenSCAD</text>
</g>
<!-- genericpipe -->
<g id="node2" class="node"><title>genericpipe</title>
<ellipse fill="none" stroke="black" cx="448" cy="-143" rx="108" ry="29"/>
<text text-anchor="middle" x="448" y="-139.4" font-family="Times Roman,serif" font-size="14.00">genericpipe</text>
</g>
<!-- pipes.py:pipe -->
<g id="node7" class="node"><title>pipes.py:pipe</title>
<ellipse fill="none" stroke="black" cx="808" cy="-153" rx="144" ry="29"/>
<text text-anchor="middle" x="808" y="-149.4" font-family="Times Roman,serif" font-size="14.00">pipes.py:pipe</text>
</g>
<!-- genericpipe&#45;&gt;pipes.py:pipe -->
<g id="edge6" class="edge"><title>genericpipe&#45;&gt;pipes.py:pipe</title>
<path fill="none" stroke="black" d="M555.524,-145.987C586.693,-146.853 621.342,-147.815 654.736,-148.743"/>
<polygon fill="black" stroke="black" points="654.961,-152.25 665.054,-149.029 655.155,-145.253 654.961,-152.25"/>
</g>
<!-- pipe.scad:pipe -->
<g id="node9" class="node"><title>pipe.scad:pipe</title>
<ellipse fill="none" stroke="black" cx="808" cy="-45" rx="144" ry="29"/>
<text text-anchor="middle" x="808" y="-41.4" font-family="Times Roman,serif" font-size="14.00">pipe.scad:pipe</text>
</g>
<!-- genericpipe&#45;&gt;pipe.scad:pipe -->
<g id="edge8" class="edge"><title>genericpipe&#45;&gt;pipe.scad:pipe</title>
<path fill="none" stroke="black" d="M523.907,-122.336C578.817,-107.389 653.418,-87.0806 712.395,-71.0257"/>
<polygon fill="black" stroke="black" points="713.364,-74.3895 722.094,-68.3856 711.525,-67.6352 713.364,-74.3895"/>
</g>
<!-- din11850range2 -->
<g id="node3" class="node"><title>din11850range2</title>
<ellipse fill="none" stroke="black" cx="448" cy="-49" rx="108" ry="29"/>
<text text-anchor="middle" x="448" y="-45.4" font-family="Times Roman,serif" font-size="14.00">din11850range2</text>
</g>
<!-- din11850range2&#45;&gt;pipes.py:pipe -->
<g id="edge10" class="edge"><title>din11850range2&#45;&gt;pipes.py:pipe</title>
<path fill="none" stroke="black" d="M516.683,-71.4542C577.269,-91.2611 656,-117 656,-117 656,-117 677.459,-122.082 704.25,-128.428"/>
<polygon fill="black" stroke="black" points="703.795,-131.917 714.332,-130.816 705.408,-125.105 703.795,-131.917"/>
</g>
<!-- din11850range2&#45;&gt;pipe.scad:pipe -->
<g id="edge12" class="edge"><title>din11850range2&#45;&gt;pipe.scad:pipe</title>
<path fill="none" stroke="black" d="M556.012,-47.7999C586.794,-47.4578 620.938,-47.0785 653.899,-46.7122"/>
<polygon fill="black" stroke="black" points="654.125,-50.21 664.086,-46.599 654.047,-43.2105 654.125,-50.21"/>
</g>
<!-- DIN11850 Range 2 -->
<g id="node5" class="node"><title>DIN11850 Range 2</title>
<ellipse fill="none" stroke="black" cx="124" cy="-49" rx="108" ry="29"/>
<text text-anchor="middle" x="124" y="-45.4" font-family="Times Roman,serif" font-size="14.00">DIN11850 Range 2</text>
</g>
<!-- DIN11850 Range 2&#45;&gt;din11850range2 -->
<g id="edge14" class="edge"><title>DIN11850 Range 2&#45;&gt;din11850range2</title>
<path fill="none" stroke="black" d="M232.338,-49C263.545,-49 297.748,-49 329.536,-49"/>
<polygon fill="black" stroke="black" points="329.764,-52.5001 339.764,-49 329.764,-45.5001 329.764,-52.5001"/>
</g>
</g>
</svg>
