<?xml version="1.0" encoding="UTF-8" standalone="no"?>
<!DOCTYPE svg PUBLIC "-//W3C//DTD SVG 1.1//EN"
 "http://www.w3.org/Graphics/SVG/1.1/DTD/svg11.dtd">
<!-- Generated by graphviz version 2.26.3 (20100126.1600)
 -->
<!-- Title: G Pages: 1 -->
<svg width="976pt" height="218pt"
 viewBox="0.00 0.00 976.00 218.00" xmlns="http://www.w3.org/2000/svg" xmlns:xlink="http://www.w3.org/1999/xlink">
<g id="graph1" class="graph" transform="scale(1 1) rotate(0) translate(4 214)">
<title>G</title>
<polygon fill="white" stroke="white" points="-4,5 -4,-214 973,-214 973,5 -4,5"/>
<g id="graph2" class="cluster"><title>cluster_cl</title>
<polygon fill="none" stroke="black" points="332,-8 332,-202 564,-202 564,-8 332,-8"/>
<text text-anchor="middle" x="448" y="-185.4" font-family="Times Roman,serif" font-size="14.00">Classes</text>
</g>
<g id="graph3" class="cluster"><title>cluster_std</title>
<polygon fill="none" stroke="black" points="8,-8 8,-108 240,-108 240,-8 8,-8"/>
<text text-anchor="middle" x="124" y="-91.4" font-family="Times Roman,serif" font-size="14.00">Standards</text>
</g>
<g id="graph5" class="cluster"><title>cluster_ocd</title>
<polygon fill="none" stroke="black" points="656,-55 656,-155 960,-155 960,-55 656,-55"/>
<text text-anchor="middle" x="808" y="-138.4" font-family="Times Roman,serif" font-size="14.00">OpenSCAD</text>
</g>
<!-- genericpipe -->
<g id="node2" class="node"><title>genericpipe</title>
<ellipse fill="none" stroke="black" cx="448" cy="-139" rx="108" ry="29"/>
<text text-anchor="middle" x="448" y="-135.4" font-family="Times Roman,serif" font-size="14.00">genericpipe</text>
</g>
<!-- pipe.scad:pipe -->
<g id="node8" class="node"><title>pipe.scad:pipe</title>
<ellipse fill="none" stroke="black" cx="808" cy="-92" rx="144" ry="29"/>
<text text-anchor="middle" x="808" y="-88.4" font-family="Times Roman,serif" font-size="14.00">pipe.scad:pipe</text>
</g>
<!-- genericpipe&#45;&gt;pipe.scad:pipe -->
<g id="edge6" class="edge"><title>genericpipe&#45;&gt;pipe.scad:pipe</title>
<path fill="none" stroke="black" d="M545.421,-126.281C585.894,-120.997 633.477,-114.785 676.941,-109.111"/>
<polygon fill="black" stroke="black" points="677.554,-112.56 687.017,-107.795 676.648,-105.619 677.554,-112.56"/>
</g>
<!-- din11850range2 -->
<g id="node3" class="node"><title>din11850range2</title>
<ellipse fill="none" stroke="black" cx="448" cy="-45" rx="108" ry="29"/>
<text text-anchor="middle" x="448" y="-41.4" font-family="Times Roman,serif" font-size="14.00">din11850range2</text>
</g>
<!-- din11850range2&#45;&gt;pipe.scad:pipe -->
<g id="edge8" class="edge"><title>din11850range2&#45;&gt;pipe.scad:pipe</title>
<path fill="none" stroke="black" d="M545.421,-57.7189C585.894,-63.0028 633.477,-69.2151 676.941,-74.8895"/>
<polygon fill="black" stroke="black" points="676.648,-78.3809 687.017,-76.205 677.554,-71.4398 676.648,-78.3809"/>
</g>
<!-- DIN11850 Range 2 -->
<g id="node5" class="node"><title>DIN11850 Range 2</title>
<ellipse fill="none" stroke="black" cx="124" cy="-45" rx="108" ry="29"/>
<text text-anchor="middle" x="124" y="-41.4" font-family="Times Roman,serif" font-size="14.00">DIN11850 Range 2</text>
</g>
<!-- DIN11850 Range 2&#45;&gt;din11850range2 -->
<g id="edge10" class="edge"><title>DIN11850 Range 2&#45;&gt;din11850range2</title>
<path fill="none" stroke="black" d="M232.338,-45C263.545,-45 297.748,-45 329.536,-45"/>
<polygon fill="black" stroke="black" points="329.764,-48.5001 339.764,-45 329.764,-41.5001 329.764,-48.5001"/>
</g>
</g>
</svg>
