<?xml version="1.0" encoding="UTF-8" standalone="no"?>
<!DOCTYPE svg PUBLIC "-//W3C//DTD SVG 1.1//EN"
 "http://www.w3.org/Graphics/SVG/1.1/DTD/svg11.dtd">
<!-- Generated by graphviz version 2.26.3 (20100126.1600)
 -->
<!-- Title: G Pages: 1 -->
<svg width="510pt" height="264pt"
 viewBox="0.00 0.00 510.00 264.00" xmlns="http://www.w3.org/2000/svg" xmlns:xlink="http://www.w3.org/1999/xlink">
<g id="graph1" class="graph" transform="scale(1 1) rotate(0) translate(4 260)">
<title>G</title>
<polygon fill="white" stroke="white" points="-4,5 -4,-260 507,-260 507,5 -4,5"/>
<g id="graph2" class="cluster"><title>cluster_cl</title>
<polygon fill="none" stroke="black" points="8,-8 8,-248 184,-248 184,-8 8,-8"/>
<text text-anchor="middle" x="96" y="-231.4" font-family="Times Roman,serif" font-size="14.00">Classes</text>
</g>
<g id="graph4" class="cluster"><title>cluster_fcd</title>
<polygon fill="none" stroke="black" points="204,-8 204,-248 494,-248 494,-8 204,-8"/>
<text text-anchor="middle" x="349" y="-231.4" font-family="Times Roman,serif" font-size="14.00">FreeCAD</text>
</g>
<!-- tslot20x20 -->
<g id="node2" class="node"><title>tslot20x20</title>
<ellipse fill="none" stroke="black" cx="96" cy="-196" rx="65.0538" ry="18.3848"/>
<text text-anchor="middle" x="96" y="-192.4" font-family="Times Roman,serif" font-size="14.00">tslot20x20</text>
</g>
<!-- tslot&#45;20x20.fcstd:Fillet -->
<g id="node8" class="node"><title>tslot&#45;20x20.fcstd:Fillet</title>
<ellipse fill="none" stroke="black" cx="349" cy="-196" rx="120.915" ry="18.3848"/>
<text text-anchor="middle" x="349" y="-192.4" font-family="Times Roman,serif" font-size="14.00">tslot&#45;20x20.fcstd:Fillet</text>
</g>
<!-- tslot20x20&#45;&gt;tslot&#45;20x20.fcstd:Fillet -->
<g id="edge6" class="edge"><title>tslot20x20&#45;&gt;tslot&#45;20x20.fcstd:Fillet</title>
<path fill="none" stroke="black" d="M161.154,-196C178.484,-196 197.841,-196 217.361,-196"/>
<polygon fill="black" stroke="black" points="217.574,-199.5 227.574,-196 217.574,-192.5 217.574,-199.5"/>
</g>
<!-- tslot20x20&#45;1s -->
<g id="node3" class="node"><title>tslot20x20&#45;1s</title>
<ellipse fill="none" stroke="black" cx="96" cy="-142" rx="79.9031" ry="18.3848"/>
<text text-anchor="middle" x="96" y="-138.4" font-family="Times Roman,serif" font-size="14.00">tslot20x20&#45;1s</text>
</g>
<!-- tslot&#45;20x20&#45;1S.fcstd:Fillet -->
<g id="node9" class="node"><title>tslot&#45;20x20&#45;1S.fcstd:Fillet</title>
<ellipse fill="none" stroke="black" cx="349" cy="-142" rx="137.179" ry="18.3848"/>
<text text-anchor="middle" x="349" y="-138.4" font-family="Times Roman,serif" font-size="14.00">tslot&#45;20x20&#45;1S.fcstd:Fillet</text>
</g>
<!-- tslot20x20&#45;1s&#45;&gt;tslot&#45;20x20&#45;1S.fcstd:Fillet -->
<g id="edge8" class="edge"><title>tslot20x20&#45;1s&#45;&gt;tslot&#45;20x20&#45;1S.fcstd:Fillet</title>
<path fill="none" stroke="black" d="M176.051,-142C184.271,-142 192.795,-142 201.454,-142"/>
<polygon fill="black" stroke="black" points="201.672,-145.5 211.672,-142 201.672,-138.5 201.672,-145.5"/>
</g>
<!-- tslot20x20&#45;2s -->
<g id="node4" class="node"><title>tslot20x20&#45;2s</title>
<ellipse fill="none" stroke="black" cx="96" cy="-88" rx="79.9031" ry="18.3848"/>
<text text-anchor="middle" x="96" y="-84.4" font-family="Times Roman,serif" font-size="14.00">tslot20x20&#45;2s</text>
</g>
<!-- tslot&#45;20x20&#45;2S.fcstd:Fillet -->
<g id="node10" class="node"><title>tslot&#45;20x20&#45;2S.fcstd:Fillet</title>
<ellipse fill="none" stroke="black" cx="349" cy="-88" rx="137.179" ry="18.3848"/>
<text text-anchor="middle" x="349" y="-84.4" font-family="Times Roman,serif" font-size="14.00">tslot&#45;20x20&#45;2S.fcstd:Fillet</text>
</g>
<!-- tslot20x20&#45;2s&#45;&gt;tslot&#45;20x20&#45;2S.fcstd:Fillet -->
<g id="edge10" class="edge"><title>tslot20x20&#45;2s&#45;&gt;tslot&#45;20x20&#45;2S.fcstd:Fillet</title>
<path fill="none" stroke="black" d="M176.051,-88C184.271,-88 192.795,-88 201.454,-88"/>
<polygon fill="black" stroke="black" points="201.672,-91.5001 211.672,-88 201.672,-84.5001 201.672,-91.5001"/>
</g>
<!-- tslot20x20&#45;3s -->
<g id="node5" class="node"><title>tslot20x20&#45;3s</title>
<ellipse fill="none" stroke="black" cx="96" cy="-34" rx="79.9031" ry="18.3848"/>
<text text-anchor="middle" x="96" y="-30.4" font-family="Times Roman,serif" font-size="14.00">tslot20x20&#45;3s</text>
</g>
<!-- tslot&#45;20x20&#45;3S.fcstd:Fillet -->
<g id="node11" class="node"><title>tslot&#45;20x20&#45;3S.fcstd:Fillet</title>
<ellipse fill="none" stroke="black" cx="349" cy="-34" rx="137.179" ry="18.3848"/>
<text text-anchor="middle" x="349" y="-30.4" font-family="Times Roman,serif" font-size="14.00">tslot&#45;20x20&#45;3S.fcstd:Fillet</text>
</g>
<!-- tslot20x20&#45;3s&#45;&gt;tslot&#45;20x20&#45;3S.fcstd:Fillet -->
<g id="edge12" class="edge"><title>tslot20x20&#45;3s&#45;&gt;tslot&#45;20x20&#45;3S.fcstd:Fillet</title>
<path fill="none" stroke="black" d="M176.051,-34C184.271,-34 192.795,-34 201.454,-34"/>
<polygon fill="black" stroke="black" points="201.672,-37.5001 211.672,-34 201.672,-30.5001 201.672,-37.5001"/>
</g>
</g>
</svg>
