<?xml version="1.0" encoding="UTF-8" standalone="no"?>
<!DOCTYPE svg PUBLIC "-//W3C//DTD SVG 1.1//EN"
 "http://www.w3.org/Graphics/SVG/1.1/DTD/svg11.dtd">
<!-- Generated by graphviz version 2.26.3 (20100126.1600)
 -->
<!-- Title: G Pages: 1 -->
<svg width="804pt" height="1020pt"
 viewBox="0.00 0.00 804.00 1020.00" xmlns="http://www.w3.org/2000/svg" xmlns:xlink="http://www.w3.org/1999/xlink">
<g id="graph1" class="graph" transform="scale(1 1) rotate(0) translate(4 1016)">
<title>G</title>
<polygon fill="white" stroke="white" points="-4,5 -4,-1016 801,-1016 801,5 -4,5"/>
<g id="graph2" class="cluster"><title>cluster_cl</title>
<polygon fill="none" stroke="black" points="218,-359 218,-653 518,-653 518,-359 218,-359"/>
<text text-anchor="middle" x="368" y="-636.4" font-family="Times Roman,serif" font-size="14.00">Classes</text>
</g>
<g id="graph3" class="cluster"><title>cluster_std</title>
<polygon fill="none" stroke="black" points="8,-8 8,-1004 198,-1004 198,-8 8,-8"/>
<text text-anchor="middle" x="103" y="-987.4" font-family="Times Roman,serif" font-size="14.00">Standards</text>
</g>
<g id="graph4" class="cluster"><title>cluster_fcd</title>
<polygon fill="none" stroke="black" points="548,-521 548,-653 778,-653 778,-521 548,-521"/>
<text text-anchor="middle" x="663" y="-636.4" font-family="Times Roman,serif" font-size="14.00">FreeCAD</text>
</g>
<g id="graph5" class="cluster"><title>cluster_ocd</title>
<polygon fill="none" stroke="black" points="538,-381 538,-513 788,-513 788,-381 538,-381"/>
<text text-anchor="middle" x="663" y="-496.4" font-family="Times Roman,serif" font-size="14.00">OpenSCAD</text>
</g>
<!-- plainwasher1 -->
<g id="node2" class="node"><title>plainwasher1</title>
<ellipse fill="none" stroke="black" cx="368" cy="-439" rx="77.7817" ry="18.3848"/>
<text text-anchor="middle" x="368" y="-435.4" font-family="Times Roman,serif" font-size="14.00">plainwasher1</text>
</g>
<!-- washer.py:washer1 -->
<g id="node27" class="node"><title>washer.py:washer1</title>
<ellipse fill="none" stroke="black" cx="663" cy="-547" rx="106.773" ry="18.3848"/>
<text text-anchor="middle" x="663" y="-543.4" font-family="Times Roman,serif" font-size="14.00">washer.py:washer1</text>
</g>
<!-- plainwasher1&#45;&gt;washer.py:washer1 -->
<g id="edge6" class="edge"><title>plainwasher1&#45;&gt;washer.py:washer1</title>
<path fill="none" stroke="black" d="M445.985,-438.352C471.283,-441.728 497.961,-449.542 518,-466 536.815,-481.452 519.636,-501.013 538,-517 545.845,-523.829 554.976,-529.167 564.666,-533.328"/>
<polygon fill="black" stroke="black" points="563.514,-536.635 574.103,-536.969 566.033,-530.104 563.514,-536.635"/>
</g>
<!-- washer.scad:washer1 -->
<g id="node30" class="node"><title>washer.scad:washer1</title>
<ellipse fill="none" stroke="black" cx="663" cy="-407" rx="116.172" ry="18.3848"/>
<text text-anchor="middle" x="663" y="-403.4" font-family="Times Roman,serif" font-size="14.00">washer.scad:washer1</text>
</g>
<!-- plainwasher1&#45;&gt;washer.scad:washer1 -->
<g id="edge8" class="edge"><title>plainwasher1&#45;&gt;washer.scad:washer1</title>
<path fill="none" stroke="black" d="M438.66,-431.335C474.176,-427.483 517.939,-422.735 557.355,-418.46"/>
<polygon fill="black" stroke="black" points="557.977,-421.913 567.541,-417.355 557.222,-414.954 557.977,-421.913"/>
</g>
<!-- plainwasherchamfered -->
<g id="node3" class="node"><title>plainwasherchamfered</title>
<ellipse fill="none" stroke="black" cx="368" cy="-601" rx="121.122" ry="18.3848"/>
<text text-anchor="middle" x="368" y="-597.4" font-family="Times Roman,serif" font-size="14.00">plainwasherchamfered</text>
</g>
<!-- washer.py:washer2 -->
<g id="node28" class="node"><title>washer.py:washer2</title>
<ellipse fill="none" stroke="black" cx="663" cy="-601" rx="106.773" ry="18.3848"/>
<text text-anchor="middle" x="663" y="-597.4" font-family="Times Roman,serif" font-size="14.00">washer.py:washer2</text>
</g>
<!-- plainwasherchamfered&#45;&gt;washer.py:washer2 -->
<g id="edge20" class="edge"><title>plainwasherchamfered&#45;&gt;washer.py:washer2</title>
<path fill="none" stroke="black" d="M489.691,-601C508.171,-601 527.209,-601 545.596,-601"/>
<polygon fill="black" stroke="black" points="545.736,-604.5 555.735,-601 545.735,-597.5 545.736,-604.5"/>
</g>
<!-- washer.scad:washer2 -->
<g id="node31" class="node"><title>washer.scad:washer2</title>
<ellipse fill="none" stroke="black" cx="663" cy="-461" rx="116.172" ry="18.3848"/>
<text text-anchor="middle" x="663" y="-457.4" font-family="Times Roman,serif" font-size="14.00">washer.scad:washer2</text>
</g>
<!-- plainwasherchamfered&#45;&gt;washer.scad:washer2 -->
<g id="edge22" class="edge"><title>plainwasherchamfered&#45;&gt;washer.scad:washer2</title>
<path fill="none" stroke="black" d="M480.859,-594.279C494.403,-589.704 507.225,-583.181 518,-574 538.435,-556.587 519.827,-536.762 538,-517 553.007,-500.68 573.663,-488.82 593.863,-480.336"/>
<polygon fill="black" stroke="black" points="595.395,-483.493 603.401,-476.554 592.815,-476.986 595.395,-483.493"/>
</g>
<!-- plainwasher2 -->
<g id="node4" class="node"><title>plainwasher2</title>
<ellipse fill="none" stroke="black" cx="368" cy="-547" rx="77.7817" ry="18.3848"/>
<text text-anchor="middle" x="368" y="-543.4" font-family="Times Roman,serif" font-size="14.00">plainwasher2</text>
</g>
<!-- plainwasher2&#45;&gt;washer.py:washer1 -->
<g id="edge32" class="edge"><title>plainwasher2&#45;&gt;washer.py:washer1</title>
<path fill="none" stroke="black" d="M446.28,-547C476.677,-547 512.146,-547 545.482,-547"/>
<polygon fill="black" stroke="black" points="545.751,-550.5 555.751,-547 545.751,-543.5 545.751,-550.5"/>
</g>
<!-- plainwasher2&#45;&gt;washer.scad:washer1 -->
<g id="edge34" class="edge"><title>plainwasher2&#45;&gt;washer.scad:washer1</title>
<path fill="none" stroke="black" d="M445.467,-549.499C471.47,-546.422 498.728,-538.324 518,-520 546.439,-492.96 510.034,-461.529 538,-434 543.103,-428.977 548.904,-424.791 555.146,-421.311"/>
<polygon fill="black" stroke="black" points="557.129,-424.238 564.577,-416.702 554.055,-417.948 557.129,-424.238"/>
</g>
<!-- plainwasherforcheesehead -->
<g id="node5" class="node"><title>plainwasherforcheesehead</title>
<ellipse fill="none" stroke="black" cx="368" cy="-493" rx="140.922" ry="18.3848"/>
<text text-anchor="middle" x="368" y="-489.4" font-family="Times Roman,serif" font-size="14.00">plainwasherforcheesehead</text>
</g>
<!-- plainwasherforcheesehead&#45;&gt;washer.py:washer1 -->
<g id="edge44" class="edge"><title>plainwasherforcheesehead&#45;&gt;washer.py:washer1</title>
<path fill="none" stroke="black" d="M450.149,-507.695C472.19,-511.663 496.007,-515.973 518,-520 538.563,-523.765 560.758,-527.875 581.452,-531.726"/>
<polygon fill="black" stroke="black" points="581.005,-535.203 591.477,-533.594 582.287,-528.322 581.005,-535.203"/>
</g>
<!-- plainwasherforcheesehead&#45;&gt;washer.scad:washer1 -->
<g id="edge46" class="edge"><title>plainwasherforcheesehead&#45;&gt;washer.scad:washer1</title>
<path fill="none" stroke="black" d="M483.713,-482.466C495.883,-478.407 507.592,-473.046 518,-466 531.888,-456.597 524.277,-443.642 538,-434 545.127,-428.992 553.006,-424.885 561.239,-421.521"/>
<polygon fill="black" stroke="black" points="562.502,-424.785 570.662,-418.029 560.069,-418.222 562.502,-424.785"/>
</g>
<!-- heavydutyplainwasher -->
<g id="node6" class="node"><title>heavydutyplainwasher</title>
<ellipse fill="none" stroke="black" cx="368" cy="-385" rx="123.037" ry="18.3848"/>
<text text-anchor="middle" x="368" y="-381.4" font-family="Times Roman,serif" font-size="14.00">heavydutyplainwasher</text>
</g>
<!-- heavydutyplainwasher&#45;&gt;washer.py:washer1 -->
<g id="edge56" class="edge"><title>heavydutyplainwasher&#45;&gt;washer.py:washer1</title>
<path fill="none" stroke="black" d="M484.434,-391.09C496.917,-395.857 508.504,-402.599 518,-412 551.761,-445.421 505.213,-482.623 538,-517 544.688,-524.012 552.703,-529.508 561.402,-533.802"/>
<polygon fill="black" stroke="black" points="560.123,-537.062 570.688,-537.853 562.922,-530.646 560.123,-537.062"/>
</g>
<!-- heavydutyplainwasher&#45;&gt;washer.scad:washer1 -->
<g id="edge58" class="edge"><title>heavydutyplainwasher&#45;&gt;washer.scad:washer1</title>
<path fill="none" stroke="black" d="M477.847,-393.192C500.679,-394.895 524.8,-396.694 547.817,-398.41"/>
<polygon fill="black" stroke="black" points="547.723,-401.913 557.956,-399.166 548.244,-394.932 547.723,-401.913"/>
</g>
<!-- ISO7089 -->
<g id="node8" class="node"><title>ISO7089</title>
<ellipse fill="none" stroke="black" cx="103" cy="-142" rx="53.9477" ry="18.3848"/>
<text text-anchor="middle" x="103" y="-138.4" font-family="Times Roman,serif" font-size="14.00">ISO7089</text>
</g>
<!-- ISO7089&#45;&gt;plainwasher1 -->
<g id="edge10" class="edge"><title>ISO7089&#45;&gt;plainwasher1</title>
<path fill="none" stroke="black" d="M156.685,-145.794C172.238,-149.601 187.765,-156.549 198,-169 232.406,-210.857 181.569,-371.893 218,-412 234.268,-429.909 258.051,-438.469 281.906,-442.074"/>
<polygon fill="black" stroke="black" points="281.759,-445.582 292.112,-443.329 282.613,-438.635 281.759,-445.582"/>
</g>
<!-- EN7089 -->
<g id="node9" class="node"><title>EN7089</title>
<ellipse fill="none" stroke="black" cx="103" cy="-88" rx="50.9117" ry="18.3848"/>
<text text-anchor="middle" x="103" y="-84.4" font-family="Times Roman,serif" font-size="14.00">EN7089</text>
</g>
<!-- EN7089&#45;&gt;plainwasher1 -->
<g id="edge12" class="edge"><title>EN7089&#45;&gt;plainwasher1</title>
<path fill="none" stroke="black" d="M153.818,-91.0133C170.355,-94.6386 187.211,-101.674 198,-115 239.623,-166.413 173.888,-362.706 218,-412 234.284,-430.197 258.32,-438.783 282.403,-442.322"/>
<polygon fill="black" stroke="black" points="281.996,-445.799 292.34,-443.51 282.826,-438.848 281.996,-445.799"/>
</g>
<!-- DINENISO7089 -->
<g id="node10" class="node"><title>DINENISO7089</title>
<ellipse fill="none" stroke="black" cx="103" cy="-304" rx="86.9741" ry="18.3848"/>
<text text-anchor="middle" x="103" y="-300.4" font-family="Times Roman,serif" font-size="14.00">DINENISO7089</text>
</g>
<!-- DINENISO7089&#45;&gt;plainwasher1 -->
<g id="edge14" class="edge"><title>DINENISO7089&#45;&gt;plainwasher1</title>
<path fill="none" stroke="black" d="M173.66,-314.836C182.735,-318.732 191.211,-323.97 198,-331 223.76,-357.673 190.954,-386.632 218,-412 234.811,-427.769 257.549,-435.932 280.234,-439.841"/>
<polygon fill="black" stroke="black" points="279.882,-443.326 290.283,-441.307 280.893,-436.4 279.882,-443.326"/>
</g>
<!-- DINEN27089 -->
<g id="node11" class="node"><title>DINEN27089</title>
<ellipse fill="none" stroke="black" cx="103" cy="-250" rx="75.1594" ry="18.3848"/>
<text text-anchor="middle" x="103" y="-246.4" font-family="Times Roman,serif" font-size="14.00">DINEN27089</text>
</g>
<!-- DINEN27089&#45;&gt;plainwasher1 -->
<g id="edge16" class="edge"><title>DINEN27089&#45;&gt;plainwasher1</title>
<path fill="none" stroke="black" d="M169.975,-258.488C180.603,-262.582 190.534,-268.496 198,-277 238.017,-322.581 175.781,-368.451 218,-412 234.518,-429.039 257.874,-437.453 281.248,-441.194"/>
<polygon fill="black" stroke="black" points="280.872,-444.675 291.246,-442.523 281.795,-437.736 280.872,-444.675"/>
</g>
<!-- DIN125A -->
<g id="node12" class="node"><title>DIN125A</title>
<ellipse fill="none" stroke="black" cx="103" cy="-196" rx="56.0679" ry="18.3848"/>
<text text-anchor="middle" x="103" y="-192.4" font-family="Times Roman,serif" font-size="14.00">DIN125A</text>
</g>
<!-- DIN125A&#45;&gt;plainwasher1 -->
<g id="edge18" class="edge"><title>DIN125A&#45;&gt;plainwasher1</title>
<path fill="none" stroke="black" d="M158,-200.313C173.044,-204.2 187.952,-211.063 198,-223 252.394,-287.624 160.48,-350.141 218,-412 234.397,-429.633 258.09,-438.142 281.821,-441.785"/>
<polygon fill="black" stroke="black" points="281.614,-445.287 291.972,-443.061 282.487,-438.342 281.614,-445.287"/>
</g>
<!-- ISO7090 -->
<g id="node13" class="node"><title>ISO7090</title>
<ellipse fill="none" stroke="black" cx="103" cy="-844" rx="53.9477" ry="18.3848"/>
<text text-anchor="middle" x="103" y="-840.4" font-family="Times Roman,serif" font-size="14.00">ISO7090</text>
</g>
<!-- ISO7090&#45;&gt;plainwasherchamfered -->
<g id="edge24" class="edge"><title>ISO7090&#45;&gt;plainwasherchamfered</title>
<path fill="none" stroke="black" d="M152.407,-836.156C167.898,-832.125 184.469,-826.069 198,-817 272.388,-767.144 329.064,-674.319 354.025,-628.307"/>
<polygon fill="black" stroke="black" points="357.247,-629.702 358.865,-619.231 351.071,-626.408 357.247,-629.702"/>
</g>
<!-- DINISO7090 -->
<g id="node14" class="node"><title>DINISO7090</title>
<ellipse fill="none" stroke="black" cx="103" cy="-790" rx="73.0388" ry="18.3848"/>
<text text-anchor="middle" x="103" y="-786.4" font-family="Times Roman,serif" font-size="14.00">DINISO7090</text>
</g>
<!-- DINISO7090&#45;&gt;plainwasherchamfered -->
<g id="edge26" class="edge"><title>DINISO7090&#45;&gt;plainwasherchamfered</title>
<path fill="none" stroke="black" d="M160.074,-778.615C173.033,-774.733 186.388,-769.635 198,-763 260.92,-727.049 318.422,-662.922 347.696,-627.078"/>
<polygon fill="black" stroke="black" points="350.631,-629.014 354.181,-619.031 345.181,-624.621 350.631,-629.014"/>
</g>
<!-- DINENISO7090 -->
<g id="node15" class="node"><title>DINENISO7090</title>
<ellipse fill="none" stroke="black" cx="103" cy="-952" rx="86.9741" ry="18.3848"/>
<text text-anchor="middle" x="103" y="-948.4" font-family="Times Roman,serif" font-size="14.00">DINENISO7090</text>
</g>
<!-- DINENISO7090&#45;&gt;plainwasherchamfered -->
<g id="edge28" class="edge"><title>DINENISO7090&#45;&gt;plainwasherchamfered</title>
<path fill="none" stroke="black" d="M170.258,-940.348C180.239,-936.58 189.882,-931.595 198,-925 296.574,-844.919 344.868,-692.301 361.294,-629.292"/>
<polygon fill="black" stroke="black" points="364.765,-629.841 363.828,-619.287 357.98,-628.122 364.765,-629.841"/>
</g>
<!-- DIN125B -->
<g id="node16" class="node"><title>DIN125B</title>
<ellipse fill="none" stroke="black" cx="103" cy="-898" rx="56.0679" ry="18.3848"/>
<text text-anchor="middle" x="103" y="-894.4" font-family="Times Roman,serif" font-size="14.00">DIN125B</text>
</g>
<!-- DIN125B&#45;&gt;plainwasherchamfered -->
<g id="edge30" class="edge"><title>DIN125B&#45;&gt;plainwasherchamfered</title>
<path fill="none" stroke="black" d="M154.959,-890.467C169.898,-886.47 185.512,-880.354 198,-871 284.424,-806.264 337.802,-683.561 358.349,-628.708"/>
<polygon fill="black" stroke="black" points="361.759,-629.575 361.912,-618.981 355.186,-627.167 361.759,-629.575"/>
</g>
<!-- DIN126 -->
<g id="node17" class="node"><title>DIN126</title>
<ellipse fill="none" stroke="black" cx="103" cy="-682" rx="48.9975" ry="18.3848"/>
<text text-anchor="middle" x="103" y="-678.4" font-family="Times Roman,serif" font-size="14.00">DIN126</text>
</g>
<!-- DIN126&#45;&gt;plainwasher2 -->
<g id="edge36" class="edge"><title>DIN126&#45;&gt;plainwasher2</title>
<path fill="none" stroke="black" d="M151.584,-678.101C168.301,-674.422 185.851,-667.58 198,-655 223.76,-628.327 190.954,-599.368 218,-574 234.811,-558.231 257.549,-550.068 280.234,-546.159"/>
<polygon fill="black" stroke="black" points="280.893,-549.6 290.283,-544.693 279.882,-542.674 280.893,-549.6"/>
</g>
<!-- DINISO7091 -->
<g id="node18" class="node"><title>DINISO7091</title>
<ellipse fill="none" stroke="black" cx="103" cy="-628" rx="73.0388" ry="18.3848"/>
<text text-anchor="middle" x="103" y="-624.4" font-family="Times Roman,serif" font-size="14.00">DINISO7091</text>
</g>
<!-- DINISO7091&#45;&gt;plainwasher2 -->
<g id="edge38" class="edge"><title>DINISO7091&#45;&gt;plainwasher2</title>
<path fill="none" stroke="black" d="M162.952,-617.408C175.224,-613.518 187.564,-608.217 198,-601 210.282,-592.505 205.313,-581.878 218,-574 236.714,-562.38 259.119,-555.462 280.836,-551.417"/>
<polygon fill="black" stroke="black" points="281.467,-554.86 290.75,-549.754 280.309,-547.957 281.467,-554.86"/>
</g>
<!-- DINENISO7091 -->
<g id="node19" class="node"><title>DINENISO7091</title>
<ellipse fill="none" stroke="black" cx="103" cy="-574" rx="86.9741" ry="18.3848"/>
<text text-anchor="middle" x="103" y="-570.4" font-family="Times Roman,serif" font-size="14.00">DINENISO7091</text>
</g>
<!-- DINENISO7091&#45;&gt;plainwasher2 -->
<g id="edge40" class="edge"><title>DINENISO7091&#45;&gt;plainwasher2</title>
<path fill="none" stroke="black" d="M181.075,-566.045C214.143,-562.676 252.685,-558.749 286.152,-555.339"/>
<polygon fill="black" stroke="black" points="286.77,-558.794 296.364,-554.299 286.06,-551.831 286.77,-558.794"/>
</g>
<!-- ISO7091 -->
<g id="node20" class="node"><title>ISO7091</title>
<ellipse fill="none" stroke="black" cx="103" cy="-736" rx="53.9477" ry="18.3848"/>
<text text-anchor="middle" x="103" y="-732.4" font-family="Times Roman,serif" font-size="14.00">ISO7091</text>
</g>
<!-- ISO7091&#45;&gt;plainwasher2 -->
<g id="edge42" class="edge"><title>ISO7091&#45;&gt;plainwasher2</title>
<path fill="none" stroke="black" d="M156.206,-731.798C171.733,-727.97 187.367,-721.112 198,-709 238.017,-663.419 175.781,-617.549 218,-574 234.518,-556.961 257.874,-548.547 281.248,-544.806"/>
<polygon fill="black" stroke="black" points="281.795,-548.264 291.246,-543.477 280.872,-541.325 281.795,-548.264"/>
</g>
<!-- DIN433 -->
<g id="node21" class="node"><title>DIN433</title>
<ellipse fill="none" stroke="black" cx="103" cy="-466" rx="48.9975" ry="18.3848"/>
<text text-anchor="middle" x="103" y="-462.4" font-family="Times Roman,serif" font-size="14.00">DIN433</text>
</g>
<!-- DIN433&#45;&gt;plainwasherforcheesehead -->
<g id="edge48" class="edge"><title>DIN433&#45;&gt;plainwasherforcheesehead</title>
<path fill="none" stroke="black" d="M150.683,-470.858C177.808,-473.622 213.115,-477.219 247.357,-480.708"/>
<polygon fill="black" stroke="black" points="247.154,-484.205 257.457,-481.737 247.863,-477.241 247.154,-484.205"/>
</g>
<!-- ISO7092 -->
<g id="node22" class="node"><title>ISO7092</title>
<ellipse fill="none" stroke="black" cx="103" cy="-412" rx="53.9477" ry="18.3848"/>
<text text-anchor="middle" x="103" y="-408.4" font-family="Times Roman,serif" font-size="14.00">ISO7092</text>
</g>
<!-- ISO7092&#45;&gt;plainwasherforcheesehead -->
<g id="edge50" class="edge"><title>ISO7092&#45;&gt;plainwasherforcheesehead</title>
<path fill="none" stroke="black" d="M152.566,-419.611C168.067,-423.627 184.603,-429.734 198,-439 210.282,-447.495 205.313,-458.122 218,-466 226.345,-471.182 235.425,-475.429 244.85,-478.903"/>
<polygon fill="black" stroke="black" points="243.782,-482.236 254.376,-482.125 246.025,-475.605 243.782,-482.236"/>
</g>
<!-- DINISO7092 -->
<g id="node23" class="node"><title>DINISO7092</title>
<ellipse fill="none" stroke="black" cx="103" cy="-358" rx="73.0388" ry="18.3848"/>
<text text-anchor="middle" x="103" y="-354.4" font-family="Times Roman,serif" font-size="14.00">DINISO7092</text>
</g>
<!-- DINISO7092&#45;&gt;plainwasherforcheesehead -->
<g id="edge52" class="edge"><title>DINISO7092&#45;&gt;plainwasherforcheesehead</title>
<path fill="none" stroke="black" d="M167.86,-366.55C179.091,-370.606 189.781,-376.49 198,-385 223.76,-411.673 190.954,-440.632 218,-466 223.573,-471.227 229.796,-475.618 236.454,-479.296"/>
<polygon fill="black" stroke="black" points="235.262,-482.61 245.78,-483.88 238.349,-476.328 235.262,-482.61"/>
</g>
<!-- DINENISO7092 -->
<g id="node24" class="node"><title>DINENISO7092</title>
<ellipse fill="none" stroke="black" cx="103" cy="-520" rx="86.9741" ry="18.3848"/>
<text text-anchor="middle" x="103" y="-516.4" font-family="Times Roman,serif" font-size="14.00">DINENISO7092</text>
</g>
<!-- DINENISO7092&#45;&gt;plainwasherforcheesehead -->
<g id="edge54" class="edge"><title>DINENISO7092&#45;&gt;plainwasherforcheesehead</title>
<path fill="none" stroke="black" d="M181.075,-512.045C201.729,-509.941 224.518,-507.619 246.873,-505.341"/>
<polygon fill="black" stroke="black" points="247.51,-508.795 257.104,-504.299 246.8,-501.831 247.51,-508.795"/>
</g>
<!-- DIN7349 -->
<g id="node25" class="node"><title>DIN7349</title>
<ellipse fill="none" stroke="black" cx="103" cy="-34" rx="55.8614" ry="18.3848"/>
<text text-anchor="middle" x="103" y="-30.4" font-family="Times Roman,serif" font-size="14.00">DIN7349</text>
</g>
<!-- DIN7349&#45;&gt;heavydutyplainwasher -->
<g id="edge60" class="edge"><title>DIN7349&#45;&gt;heavydutyplainwasher</title>
<path fill="none" stroke="black" d="M154.936,-40.799C170.044,-44.769 185.756,-51.0535 198,-61 296.574,-141.081 344.868,-293.699 361.294,-356.708"/>
<polygon fill="black" stroke="black" points="357.98,-357.878 363.828,-366.713 364.765,-356.159 357.98,-357.878"/>
</g>
</g>
</svg>
