<?xml version="1.0" encoding="UTF-8" standalone="no"?>
<!DOCTYPE svg PUBLIC "-//W3C//DTD SVG 1.1//EN"
 "http://www.w3.org/Graphics/SVG/1.1/DTD/svg11.dtd">
<!-- Generated by graphviz version 2.26.3 (20100126.1600)
 -->
<!-- Title: G Pages: 1 -->
<svg width="976pt" height="1722pt"
 viewBox="0.00 0.00 976.00 1722.00" xmlns="http://www.w3.org/2000/svg" xmlns:xlink="http://www.w3.org/1999/xlink">
<g id="graph1" class="graph" transform="scale(1 1) rotate(0) translate(4 1718)">
<title>G</title>
<polygon fill="white" stroke="white" points="-4,5 -4,-1718 973,-1718 973,5 -4,5"/>
<g id="graph2" class="cluster"><title>cluster_cl</title>
<polygon fill="none" stroke="black" points="332,-619 332,-1095 564,-1095 564,-619 332,-619"/>
<text text-anchor="middle" x="448" y="-1078.4" font-family="Times Roman,serif" font-size="14.00">Classes</text>
</g>
<g id="graph3" class="cluster"><title>cluster_std</title>
<polygon fill="none" stroke="black" points="8,-8 8,-1706 240,-1706 240,-8 8,-8"/>
<text text-anchor="middle" x="124" y="-1689.4" font-family="Times Roman,serif" font-size="14.00">Standards</text>
</g>
<g id="graph4" class="cluster"><title>cluster_fcd</title>
<polygon fill="none" stroke="black" points="656,-901 656,-1095 960,-1095 960,-901 656,-901"/>
<text text-anchor="middle" x="808" y="-1078.4" font-family="Times Roman,serif" font-size="14.00">FreeCAD</text>
</g>
<g id="graph5" class="cluster"><title>cluster_ocd</title>
<polygon fill="none" stroke="black" points="656,-699 656,-893 960,-893 960,-699 656,-699"/>
<text text-anchor="middle" x="808" y="-876.4" font-family="Times Roman,serif" font-size="14.00">OpenSCAD</text>
</g>
<!-- plainwasher1 -->
<g id="node2" class="node"><title>plainwasher1</title>
<ellipse fill="none" stroke="black" cx="448" cy="-750" rx="108" ry="29"/>
<text text-anchor="middle" x="448" y="-746.4" font-family="Times Roman,serif" font-size="14.00">plainwasher1</text>
</g>
<!-- washer.py:washer1 -->
<g id="node27" class="node"><title>washer.py:washer1</title>
<ellipse fill="none" stroke="black" cx="808" cy="-938" rx="144" ry="29"/>
<text text-anchor="middle" x="808" y="-934.4" font-family="Times Roman,serif" font-size="14.00">washer.py:washer1</text>
</g>
<!-- plainwasher1&#45;&gt;washer.py:washer1 -->
<g id="edge6" class="edge"><title>plainwasher1&#45;&gt;washer.py:washer1</title>
<path fill="none" stroke="black" d="M507.699,-774.188C536.122,-785.705 564,-797 564,-797 564,-797 656,-902 656,-902 656,-902 677.459,-907.082 704.25,-913.428"/>
<polygon fill="black" stroke="black" points="703.795,-916.917 714.332,-915.816 705.408,-910.105 703.795,-916.917"/>
</g>
<!-- washer.scad:washer1 -->
<g id="node30" class="node"><title>washer.scad:washer1</title>
<ellipse fill="none" stroke="black" cx="808" cy="-736" rx="144" ry="29"/>
<text text-anchor="middle" x="808" y="-732.4" font-family="Times Roman,serif" font-size="14.00">washer.scad:washer1</text>
</g>
<!-- plainwasher1&#45;&gt;washer.scad:washer1 -->
<g id="edge8" class="edge"><title>plainwasher1&#45;&gt;washer.scad:washer1</title>
<path fill="none" stroke="black" d="M555.037,-745.837C586.823,-744.601 622.263,-743.223 656.316,-741.899"/>
<polygon fill="black" stroke="black" points="656.499,-745.394 666.355,-741.508 656.227,-738.4 656.499,-745.394"/>
</g>
<!-- plainwasherchamfered -->
<g id="node3" class="node"><title>plainwasherchamfered</title>
<ellipse fill="none" stroke="black" cx="448" cy="-1032" rx="108" ry="29"/>
<text text-anchor="middle" x="448" y="-1028.4" font-family="Times Roman,serif" font-size="14.00">plainwasherchamfered</text>
</g>
<!-- washer.py:washer2 -->
<g id="node28" class="node"><title>washer.py:washer2</title>
<ellipse fill="none" stroke="black" cx="808" cy="-1032" rx="144" ry="29"/>
<text text-anchor="middle" x="808" y="-1028.4" font-family="Times Roman,serif" font-size="14.00">washer.py:washer2</text>
</g>
<!-- plainwasherchamfered&#45;&gt;washer.py:washer2 -->
<g id="edge20" class="edge"><title>plainwasherchamfered&#45;&gt;washer.py:washer2</title>
<path fill="none" stroke="black" d="M556.012,-1032C586.7,-1032 620.73,-1032 653.598,-1032"/>
<polygon fill="black" stroke="black" points="653.756,-1035.5 663.756,-1032 653.756,-1028.5 653.756,-1035.5"/>
</g>
<!-- washer.scad:washer2 -->
<g id="node31" class="node"><title>washer.scad:washer2</title>
<ellipse fill="none" stroke="black" cx="808" cy="-830" rx="144" ry="29"/>
<text text-anchor="middle" x="808" y="-826.4" font-family="Times Roman,serif" font-size="14.00">washer.scad:washer2</text>
</g>
<!-- plainwasherchamfered&#45;&gt;washer.scad:washer2 -->
<g id="edge22" class="edge"><title>plainwasherchamfered&#45;&gt;washer.scad:washer2</title>
<path fill="none" stroke="black" d="M507.699,-1007.81C536.122,-996.295 564,-985 564,-985 564,-985 656,-892 656,-892 656,-892 695.801,-875.765 734.67,-859.911"/>
<polygon fill="black" stroke="black" points="736.041,-863.132 743.979,-856.114 733.398,-856.65 736.041,-863.132"/>
</g>
<!-- plainwasher2 -->
<g id="node4" class="node"><title>plainwasher2</title>
<ellipse fill="none" stroke="black" cx="448" cy="-938" rx="108" ry="29"/>
<text text-anchor="middle" x="448" y="-934.4" font-family="Times Roman,serif" font-size="14.00">plainwasher2</text>
</g>
<!-- plainwasher2&#45;&gt;washer.py:washer1 -->
<g id="edge32" class="edge"><title>plainwasher2&#45;&gt;washer.py:washer1</title>
<path fill="none" stroke="black" d="M556.012,-938C586.7,-938 620.73,-938 653.598,-938"/>
<polygon fill="black" stroke="black" points="653.756,-941.5 663.756,-938 653.756,-934.5 653.756,-941.5"/>
</g>
<!-- plainwasher2&#45;&gt;washer.scad:washer1 -->
<g id="edge34" class="edge"><title>plainwasher2&#45;&gt;washer.scad:washer1</title>
<path fill="none" stroke="black" d="M507.699,-913.812C536.122,-902.295 564,-891 564,-891 564,-891 656,-783 656,-783 656,-783 686.02,-773.717 719.378,-763.403"/>
<polygon fill="black" stroke="black" points="720.809,-766.624 729.329,-760.326 718.741,-759.936 720.809,-766.624"/>
</g>
<!-- plainwasherforcheesehead -->
<g id="node5" class="node"><title>plainwasherforcheesehead</title>
<ellipse fill="none" stroke="black" cx="448" cy="-844" rx="108" ry="29"/>
<text text-anchor="middle" x="448" y="-840.4" font-family="Times Roman,serif" font-size="14.00">plainwasherforcheesehead</text>
</g>
<!-- plainwasherforcheesehead&#45;&gt;washer.py:washer1 -->
<g id="edge44" class="edge"><title>plainwasherforcheesehead&#45;&gt;washer.py:washer1</title>
<path fill="none" stroke="black" d="M523.093,-864.939C582.672,-881.553 656,-902 656,-902 656,-902 677.459,-907.082 704.25,-913.428"/>
<polygon fill="black" stroke="black" points="703.795,-916.917 714.332,-915.816 705.408,-910.105 703.795,-916.917"/>
</g>
<!-- plainwasherforcheesehead&#45;&gt;washer.scad:washer1 -->
<g id="edge46" class="edge"><title>plainwasherforcheesehead&#45;&gt;washer.scad:washer1</title>
<path fill="none" stroke="black" d="M520.418,-822.275C577.328,-805.201 656.901,-781.33 717.921,-763.024"/>
<polygon fill="black" stroke="black" points="718.976,-766.361 727.549,-760.135 716.965,-759.657 718.976,-766.361"/>
</g>
<!-- heavydutyplainwasher -->
<g id="node6" class="node"><title>heavydutyplainwasher</title>
<ellipse fill="none" stroke="black" cx="448" cy="-656" rx="108" ry="29"/>
<text text-anchor="middle" x="448" y="-652.4" font-family="Times Roman,serif" font-size="14.00">heavydutyplainwasher</text>
</g>
<!-- heavydutyplainwasher&#45;&gt;washer.py:washer1 -->
<g id="edge56" class="edge"><title>heavydutyplainwasher&#45;&gt;washer.py:washer1</title>
<path fill="none" stroke="black" d="M507.699,-680.188C536.122,-691.705 564,-703 564,-703 564,-703 656,-902 656,-902 656,-902 677.459,-907.082 704.25,-913.428"/>
<polygon fill="black" stroke="black" points="703.795,-916.917 714.332,-915.816 705.408,-910.105 703.795,-916.917"/>
</g>
<!-- heavydutyplainwasher&#45;&gt;washer.scad:washer1 -->
<g id="edge58" class="edge"><title>heavydutyplainwasher&#45;&gt;washer.scad:washer1</title>
<path fill="none" stroke="black" d="M531.496,-674.555C582.043,-685.787 647.005,-700.223 701.26,-712.28"/>
<polygon fill="black" stroke="black" points="700.739,-715.75 711.26,-714.502 702.258,-708.916 700.739,-715.75"/>
</g>
<!-- ISO7089 -->
<g id="node8" class="node"><title>ISO7089</title>
<ellipse fill="none" stroke="black" cx="124" cy="-233" rx="108" ry="29"/>
<text text-anchor="middle" x="124" y="-229.4" font-family="Times Roman,serif" font-size="14.00">ISO7089</text>
</g>
<!-- ISO7089&#45;&gt;plainwasher1 -->
<g id="edge10" class="edge"><title>ISO7089&#45;&gt;plainwasher1</title>
<path fill="none" stroke="black" d="M183.699,-257.188C212.122,-268.705 240,-280 240,-280 240,-280 332,-703 332,-703 332,-703 354.113,-711.96 379.03,-722.055"/>
<polygon fill="black" stroke="black" points="377.719,-725.3 388.301,-725.812 380.347,-718.812 377.719,-725.3"/>
</g>
<!-- EN7089 -->
<g id="node9" class="node"><title>EN7089</title>
<ellipse fill="none" stroke="black" cx="124" cy="-139" rx="108" ry="29"/>
<text text-anchor="middle" x="124" y="-135.4" font-family="Times Roman,serif" font-size="14.00">EN7089</text>
</g>
<!-- EN7089&#45;&gt;plainwasher1 -->
<g id="edge12" class="edge"><title>EN7089&#45;&gt;plainwasher1</title>
<path fill="none" stroke="black" d="M183.699,-163.188C212.122,-174.705 240,-186 240,-186 240,-186 332,-703 332,-703 332,-703 354.113,-711.96 379.03,-722.055"/>
<polygon fill="black" stroke="black" points="377.719,-725.3 388.301,-725.812 380.347,-718.812 377.719,-725.3"/>
</g>
<!-- DINENISO7089 -->
<g id="node10" class="node"><title>DINENISO7089</title>
<ellipse fill="none" stroke="black" cx="124" cy="-515" rx="108" ry="29"/>
<text text-anchor="middle" x="124" y="-511.4" font-family="Times Roman,serif" font-size="14.00">DINENISO7089</text>
</g>
<!-- DINENISO7089&#45;&gt;plainwasher1 -->
<g id="edge14" class="edge"><title>DINENISO7089&#45;&gt;plainwasher1</title>
<path fill="none" stroke="black" d="M183.699,-539.188C212.122,-550.705 240,-562 240,-562 240,-562 332,-703 332,-703 332,-703 354.113,-711.96 379.03,-722.055"/>
<polygon fill="black" stroke="black" points="377.719,-725.3 388.301,-725.812 380.347,-718.812 377.719,-725.3"/>
</g>
<!-- DINEN27089 -->
<g id="node11" class="node"><title>DINEN27089</title>
<ellipse fill="none" stroke="black" cx="124" cy="-421" rx="108" ry="29"/>
<text text-anchor="middle" x="124" y="-417.4" font-family="Times Roman,serif" font-size="14.00">DINEN27089</text>
</g>
<!-- DINEN27089&#45;&gt;plainwasher1 -->
<g id="edge16" class="edge"><title>DINEN27089&#45;&gt;plainwasher1</title>
<path fill="none" stroke="black" d="M183.699,-445.188C212.122,-456.705 240,-468 240,-468 240,-468 332,-703 332,-703 332,-703 354.113,-711.96 379.03,-722.055"/>
<polygon fill="black" stroke="black" points="377.719,-725.3 388.301,-725.812 380.347,-718.812 377.719,-725.3"/>
</g>
<!-- DIN125A -->
<g id="node12" class="node"><title>DIN125A</title>
<ellipse fill="none" stroke="black" cx="124" cy="-327" rx="108" ry="29"/>
<text text-anchor="middle" x="124" y="-323.4" font-family="Times Roman,serif" font-size="14.00">DIN125A</text>
</g>
<!-- DIN125A&#45;&gt;plainwasher1 -->
<g id="edge18" class="edge"><title>DIN125A&#45;&gt;plainwasher1</title>
<path fill="none" stroke="black" d="M183.699,-351.188C212.122,-362.705 240,-374 240,-374 240,-374 332,-703 332,-703 332,-703 354.113,-711.96 379.03,-722.055"/>
<polygon fill="black" stroke="black" points="377.719,-725.3 388.301,-725.812 380.347,-718.812 377.719,-725.3"/>
</g>
<!-- ISO7090 -->
<g id="node13" class="node"><title>ISO7090</title>
<ellipse fill="none" stroke="black" cx="124" cy="-1455" rx="108" ry="29"/>
<text text-anchor="middle" x="124" y="-1451.4" font-family="Times Roman,serif" font-size="14.00">ISO7090</text>
</g>
<!-- ISO7090&#45;&gt;plainwasherchamfered -->
<g id="edge24" class="edge"><title>ISO7090&#45;&gt;plainwasherchamfered</title>
<path fill="none" stroke="black" d="M183.699,-1430.81C212.122,-1419.3 240,-1408 240,-1408 240,-1408 374.23,-1165.35 427.028,-1069.91"/>
<polygon fill="black" stroke="black" points="430.246,-1071.32 432.024,-1060.88 424.121,-1067.94 430.246,-1071.32"/>
</g>
<!-- DINISO7090 -->
<g id="node14" class="node"><title>DINISO7090</title>
<ellipse fill="none" stroke="black" cx="124" cy="-1361" rx="108" ry="29"/>
<text text-anchor="middle" x="124" y="-1357.4" font-family="Times Roman,serif" font-size="14.00">DINISO7090</text>
</g>
<!-- DINISO7090&#45;&gt;plainwasherchamfered -->
<g id="edge26" class="edge"><title>DINISO7090&#45;&gt;plainwasherchamfered</title>
<path fill="none" stroke="black" d="M183.699,-1336.81C212.122,-1325.3 240,-1314 240,-1314 240,-1314 364.268,-1145.52 420.7,-1069.01"/>
<polygon fill="black" stroke="black" points="423.792,-1070.72 426.911,-1060.59 418.159,-1066.56 423.792,-1070.72"/>
</g>
<!-- DINENISO7090 -->
<g id="node15" class="node"><title>DINENISO7090</title>
<ellipse fill="none" stroke="black" cx="124" cy="-1643" rx="108" ry="29"/>
<text text-anchor="middle" x="124" y="-1639.4" font-family="Times Roman,serif" font-size="14.00">DINENISO7090</text>
</g>
<!-- DINENISO7090&#45;&gt;plainwasherchamfered -->
<g id="edge28" class="edge"><title>DINENISO7090&#45;&gt;plainwasherchamfered</title>
<path fill="none" stroke="black" d="M183.699,-1618.81C212.122,-1607.3 240,-1596 240,-1596 240,-1596 386.614,-1198.45 433.657,-1070.89"/>
<polygon fill="black" stroke="black" points="437.079,-1071.73 437.255,-1061.14 430.511,-1069.31 437.079,-1071.73"/>
</g>
<!-- DIN125B -->
<g id="node16" class="node"><title>DIN125B</title>
<ellipse fill="none" stroke="black" cx="124" cy="-1549" rx="108" ry="29"/>
<text text-anchor="middle" x="124" y="-1545.4" font-family="Times Roman,serif" font-size="14.00">DIN125B</text>
</g>
<!-- DIN125B&#45;&gt;plainwasherchamfered -->
<g id="edge30" class="edge"><title>DIN125B&#45;&gt;plainwasherchamfered</title>
<path fill="none" stroke="black" d="M183.699,-1524.81C212.122,-1513.3 240,-1502 240,-1502 240,-1502 381.433,-1182.42 431.047,-1070.31"/>
<polygon fill="black" stroke="black" points="434.299,-1071.61 435.146,-1061.05 427.898,-1068.77 434.299,-1071.61"/>
</g>
<!-- DIN126 -->
<g id="node17" class="node"><title>DIN126</title>
<ellipse fill="none" stroke="black" cx="124" cy="-1173" rx="108" ry="29"/>
<text text-anchor="middle" x="124" y="-1169.4" font-family="Times Roman,serif" font-size="14.00">DIN126</text>
</g>
<!-- DIN126&#45;&gt;plainwasher2 -->
<g id="edge36" class="edge"><title>DIN126&#45;&gt;plainwasher2</title>
<path fill="none" stroke="black" d="M183.699,-1148.81C212.122,-1137.3 240,-1126 240,-1126 240,-1126 332,-985 332,-985 332,-985 354.113,-976.04 379.03,-965.945"/>
<polygon fill="black" stroke="black" points="380.347,-969.188 388.301,-962.188 377.719,-962.7 380.347,-969.188"/>
</g>
<!-- DINISO7091 -->
<g id="node18" class="node"><title>DINISO7091</title>
<ellipse fill="none" stroke="black" cx="124" cy="-1079" rx="108" ry="29"/>
<text text-anchor="middle" x="124" y="-1075.4" font-family="Times Roman,serif" font-size="14.00">DINISO7091</text>
</g>
<!-- DINISO7091&#45;&gt;plainwasher2 -->
<g id="edge38" class="edge"><title>DINISO7091&#45;&gt;plainwasher2</title>
<path fill="none" stroke="black" d="M183.699,-1054.81C212.122,-1043.3 240,-1032 240,-1032 240,-1032 332,-985 332,-985 332,-985 354.113,-976.04 379.03,-965.945"/>
<polygon fill="black" stroke="black" points="380.347,-969.188 388.301,-962.188 377.719,-962.7 380.347,-969.188"/>
</g>
<!-- DINENISO7091 -->
<g id="node19" class="node"><title>DINENISO7091</title>
<ellipse fill="none" stroke="black" cx="124" cy="-985" rx="108" ry="29"/>
<text text-anchor="middle" x="124" y="-981.4" font-family="Times Roman,serif" font-size="14.00">DINENISO7091</text>
</g>
<!-- DINENISO7091&#45;&gt;plainwasher2 -->
<g id="edge40" class="edge"><title>DINENISO7091&#45;&gt;plainwasher2</title>
<path fill="none" stroke="black" d="M219.021,-971.216C257.838,-965.585 302.882,-959.051 342.697,-953.275"/>
<polygon fill="black" stroke="black" points="343.306,-956.724 352.7,-951.824 342.301,-949.796 343.306,-956.724"/>
</g>
<!-- ISO7091 -->
<g id="node20" class="node"><title>ISO7091</title>
<ellipse fill="none" stroke="black" cx="124" cy="-1267" rx="108" ry="29"/>
<text text-anchor="middle" x="124" y="-1263.4" font-family="Times Roman,serif" font-size="14.00">ISO7091</text>
</g>
<!-- ISO7091&#45;&gt;plainwasher2 -->
<g id="edge42" class="edge"><title>ISO7091&#45;&gt;plainwasher2</title>
<path fill="none" stroke="black" d="M183.699,-1242.81C212.122,-1231.3 240,-1220 240,-1220 240,-1220 332,-985 332,-985 332,-985 354.113,-976.04 379.03,-965.945"/>
<polygon fill="black" stroke="black" points="380.347,-969.188 388.301,-962.188 377.719,-962.7 380.347,-969.188"/>
</g>
<!-- DIN433 -->
<g id="node21" class="node"><title>DIN433</title>
<ellipse fill="none" stroke="black" cx="124" cy="-797" rx="108" ry="29"/>
<text text-anchor="middle" x="124" y="-793.4" font-family="Times Roman,serif" font-size="14.00">DIN433</text>
</g>
<!-- DIN433&#45;&gt;plainwasherforcheesehead -->
<g id="edge48" class="edge"><title>DIN433&#45;&gt;plainwasherforcheesehead</title>
<path fill="none" stroke="black" d="M219.021,-810.784C257.838,-816.415 302.882,-822.949 342.697,-828.725"/>
<polygon fill="black" stroke="black" points="342.301,-832.204 352.7,-830.176 343.306,-825.276 342.301,-832.204"/>
</g>
<!-- ISO7092 -->
<g id="node22" class="node"><title>ISO7092</title>
<ellipse fill="none" stroke="black" cx="124" cy="-703" rx="108" ry="29"/>
<text text-anchor="middle" x="124" y="-699.4" font-family="Times Roman,serif" font-size="14.00">ISO7092</text>
</g>
<!-- ISO7092&#45;&gt;plainwasherforcheesehead -->
<g id="edge50" class="edge"><title>ISO7092&#45;&gt;plainwasherforcheesehead</title>
<path fill="none" stroke="black" d="M183.699,-727.188C212.122,-738.705 240,-750 240,-750 240,-750 332,-797 332,-797 332,-797 354.113,-805.96 379.03,-816.055"/>
<polygon fill="black" stroke="black" points="377.719,-819.3 388.301,-819.812 380.347,-812.812 377.719,-819.3"/>
</g>
<!-- DINISO7092 -->
<g id="node23" class="node"><title>DINISO7092</title>
<ellipse fill="none" stroke="black" cx="124" cy="-609" rx="108" ry="29"/>
<text text-anchor="middle" x="124" y="-605.4" font-family="Times Roman,serif" font-size="14.00">DINISO7092</text>
</g>
<!-- DINISO7092&#45;&gt;plainwasherforcheesehead -->
<g id="edge52" class="edge"><title>DINISO7092&#45;&gt;plainwasherforcheesehead</title>
<path fill="none" stroke="black" d="M183.699,-633.188C212.122,-644.705 240,-656 240,-656 240,-656 332,-797 332,-797 332,-797 354.113,-805.96 379.03,-816.055"/>
<polygon fill="black" stroke="black" points="377.719,-819.3 388.301,-819.812 380.347,-812.812 377.719,-819.3"/>
</g>
<!-- DINENISO7092 -->
<g id="node24" class="node"><title>DINENISO7092</title>
<ellipse fill="none" stroke="black" cx="124" cy="-891" rx="108" ry="29"/>
<text text-anchor="middle" x="124" y="-887.4" font-family="Times Roman,serif" font-size="14.00">DINENISO7092</text>
</g>
<!-- DINENISO7092&#45;&gt;plainwasherforcheesehead -->
<g id="edge54" class="edge"><title>DINENISO7092&#45;&gt;plainwasherforcheesehead</title>
<path fill="none" stroke="black" d="M219.021,-877.216C257.838,-871.585 302.882,-865.051 342.697,-859.275"/>
<polygon fill="black" stroke="black" points="343.306,-862.724 352.7,-857.824 342.301,-855.796 343.306,-862.724"/>
</g>
<!-- DIN7349 -->
<g id="node25" class="node"><title>DIN7349</title>
<ellipse fill="none" stroke="black" cx="124" cy="-45" rx="108" ry="29"/>
<text text-anchor="middle" x="124" y="-41.4" font-family="Times Roman,serif" font-size="14.00">DIN7349</text>
</g>
<!-- DIN7349&#45;&gt;heavydutyplainwasher -->
<g id="edge60" class="edge"><title>DIN7349&#45;&gt;heavydutyplainwasher</title>
<path fill="none" stroke="black" d="M183.699,-69.1884C212.122,-80.7045 240,-92 240,-92 240,-92 386.614,-489.549 433.657,-617.108"/>
<polygon fill="black" stroke="black" points="430.511,-618.693 437.255,-626.865 437.079,-616.271 430.511,-618.693"/>
</g>
</g>
</svg>
