<?xml version="1.0" encoding="UTF-8" standalone="no"?>
<!DOCTYPE svg PUBLIC "-//W3C//DTD SVG 1.1//EN"
 "http://www.w3.org/Graphics/SVG/1.1/DTD/svg11.dtd">
<!-- Generated by graphviz version 2.36.0 (20140111.2315)
 -->
<!-- Title: G Pages: 1 -->
<svg width="652pt" height="226pt"
 viewBox="0.00 0.00 652.00 226.00" xmlns="http://www.w3.org/2000/svg" xmlns:xlink="http://www.w3.org/1999/xlink">
<g id="graph0" class="graph" transform="scale(1 1) rotate(0) translate(4 222)">
<title>G</title>
<polygon fill="white" stroke="none" points="-4,4 -4,-222 648,-222 648,4 -4,4"/>
<g id="clust1" class="cluster"><title>cluster_cl</title>
<polygon fill="none" stroke="black" points="8,-34 8,-131 240,-131 240,-34 8,-34"/>
<text text-anchor="middle" x="124" y="-115.8" font-family="Times,serif" font-size="14.00">Classes</text>
</g>
<g id="clust3" class="cluster"><title>cluster_fcd</title>
<polygon fill="none" stroke="black" points="332,-113 332,-210 636,-210 636,-113 332,-113"/>
<text text-anchor="middle" x="484" y="-194.8" font-family="Times,serif" font-size="14.00">FreeCAD</text>
</g>
<g id="clust4" class="cluster"><title>cluster_ocd</title>
<polygon fill="none" stroke="black" points="332,-8 332,-105 636,-105 636,-8 332,-8"/>
<text text-anchor="middle" x="484" y="-89.8" font-family="Times,serif" font-size="14.00">OpenSCAD</text>
</g>
<!-- roundBattery -->
<g id="node1" class="node"><title>roundBattery</title>
<ellipse fill="none" stroke="black" cx="124" cy="-71" rx="108" ry="29"/>
<text text-anchor="middle" x="124" y="-67.3" font-family="Times,serif" font-size="14.00">roundBattery</text>
</g>
<!-- batteries.py:roundBattery -->
<g id="node2" class="node"><title>batteries.py:roundBattery</title>
<ellipse fill="none" stroke="black" cx="484" cy="-150" rx="144" ry="29"/>
<text text-anchor="middle" x="484" y="-146.3" font-family="Times,serif" font-size="14.00">batteries.py:roundBattery</text>
</g>
<!-- roundBattery&#45;&gt;batteries.py:roundBattery -->
<g id="edge1" class="edge"><title>roundBattery&#45;&gt;batteries.py:roundBattery</title>
<path fill="none" stroke="black" d="M207.582,-89.2234C258.028,-100.355 323.036,-114.701 377.226,-126.659"/>
<polygon fill="black" stroke="black" points="376.694,-130.125 387.213,-128.863 378.202,-123.29 376.694,-130.125"/>
</g>
<!-- batteries.scad:roundBatteryBase -->
<g id="node3" class="node"><title>batteries.scad:roundBatteryBase</title>
<ellipse fill="none" stroke="black" cx="484" cy="-45" rx="144" ry="29"/>
<text text-anchor="middle" x="484" y="-41.3" font-family="Times,serif" font-size="14.00">batteries.scad:roundBatteryBase</text>
</g>
<!-- roundBattery&#45;&gt;batteries.scad:roundBatteryBase -->
<g id="edge2" class="edge"><title>roundBattery&#45;&gt;batteries.scad:roundBatteryBase</title>
<path fill="none" stroke="black" d="M228.548,-63.4797C262.808,-60.9916 301.582,-58.1756 338.347,-55.5056"/>
<polygon fill="black" stroke="black" points="338.937,-58.972 348.658,-54.7567 338.43,-51.9903 338.937,-58.972"/>
</g>
</g>
</svg>
