<?xml version="1.0" encoding="UTF-8" standalone="no"?>
<!DOCTYPE svg PUBLIC "-//W3C//DTD SVG 1.1//EN"
 "http://www.w3.org/Graphics/SVG/1.1/DTD/svg11.dtd">
<!-- Generated by graphviz version 2.36.0 (20140111.2315)
 -->
<!-- Title: G Pages: 1 -->
<svg width="976pt" height="790pt"
 viewBox="0.00 0.00 976.00 790.00" xmlns="http://www.w3.org/2000/svg" xmlns:xlink="http://www.w3.org/1999/xlink">
<g id="graph0" class="graph" transform="scale(1 1) rotate(0) translate(4 786)">
<title>G</title>
<polygon fill="white" stroke="none" points="-4,4 -4,-786 972,-786 972,4 -4,4"/>
<g id="clust1" class="cluster"><title>cluster_cl</title>
<polygon fill="none" stroke="black" points="332,-113 332,-680 564,-680 564,-113 332,-113"/>
<text text-anchor="middle" x="448" y="-664.8" font-family="Times,serif" font-size="14.00">Classes</text>
</g>
<g id="clust2" class="cluster"><title>cluster_std</title>
<polygon fill="none" stroke="black" points="8,-113 8,-774 240,-774 240,-113 8,-113"/>
<text text-anchor="middle" x="124" y="-758.8" font-family="Times,serif" font-size="14.00">Standards</text>
</g>
<g id="clust3" class="cluster"><title>cluster_fcd</title>
<polygon fill="none" stroke="black" points="656,-207 656,-680 960,-680 960,-207 656,-207"/>
<text text-anchor="middle" x="808" y="-664.8" font-family="Times,serif" font-size="14.00">FreeCAD</text>
</g>
<g id="clust4" class="cluster"><title>cluster_ocd</title>
<polygon fill="none" stroke="black" points="656,-8 656,-199 960,-199 960,-8 656,-8"/>
<text text-anchor="middle" x="808" y="-183.8" font-family="Times,serif" font-size="14.00">OpenSCAD</text>
</g>
<!-- singlerowradialbearing -->
<g id="node1" class="node"><title>singlerowradialbearing</title>
<ellipse fill="none" stroke="black" cx="448" cy="-150" rx="108" ry="29"/>
<text text-anchor="middle" x="448" y="-146.3" font-family="Times,serif" font-size="14.00">singlerowradialbearing</text>
</g>
<!-- bearings.py:singlerowradialbearing -->
<g id="node14" class="node"><title>bearings.py:singlerowradialbearing</title>
<ellipse fill="none" stroke="black" cx="808" cy="-244" rx="144" ry="29"/>
<text text-anchor="middle" x="808" y="-240.3" font-family="Times,serif" font-size="14.00">bearings.py:singlerowradialbearing</text>
</g>
<!-- singlerowradialbearing&#45;&gt;bearings.py:singlerowradialbearing -->
<g id="edge1" class="edge"><title>singlerowradialbearing&#45;&gt;bearings.py:singlerowradialbearing</title>
<path fill="none" stroke="black" d="M522.855,-170.694C582.302,-187.35 656,-208 656,-208 656,-208 678.106,-213.27 705.402,-219.778"/>
<polygon fill="black" stroke="black" points="704.707,-223.21 715.246,-222.125 706.33,-216.401 704.707,-223.21"/>
</g>
<!-- bearings.scad:singlerowradialbearing -->
<g id="node19" class="node"><title>bearings.scad:singlerowradialbearing</title>
<ellipse fill="none" stroke="black" cx="808" cy="-45" rx="144" ry="29"/>
<text text-anchor="middle" x="808" y="-41.3" font-family="Times,serif" font-size="14.00">bearings.scad:singlerowradialbearing</text>
</g>
<!-- singlerowradialbearing&#45;&gt;bearings.scad:singlerowradialbearing -->
<g id="edge2" class="edge"><title>singlerowradialbearing&#45;&gt;bearings.scad:singlerowradialbearing</title>
<path fill="none" stroke="black" d="M521.016,-128.878C577.397,-112.342 656.144,-89.2453 716.735,-71.4744"/>
<polygon fill="black" stroke="black" points="718.068,-74.731 726.678,-68.558 716.097,-68.014 718.068,-74.731"/>
</g>
<!-- singlerowradialbearingimperial -->
<g id="node2" class="node"><title>singlerowradialbearingimperial</title>
<ellipse fill="none" stroke="black" cx="448" cy="-244" rx="108" ry="29"/>
<text text-anchor="middle" x="448" y="-240.3" font-family="Times,serif" font-size="14.00">singlerowradialbearingimperial</text>
</g>
<!-- singlerowradialbearingimperial&#45;&gt;bearings.py:singlerowradialbearing -->
<g id="edge4" class="edge"><title>singlerowradialbearingimperial&#45;&gt;bearings.py:singlerowradialbearing</title>
<path fill="none" stroke="black" d="M556.412,-244C587.022,-244 620.977,-244 653.755,-244"/>
<polygon fill="black" stroke="black" points="653.885,-247.5 663.885,-244 653.885,-240.5 653.885,-247.5"/>
</g>
<!-- singlerowradialbearingimperial&#45;&gt;bearings.scad:singlerowradialbearing -->
<g id="edge5" class="edge"><title>singlerowradialbearingimperial&#45;&gt;bearings.scad:singlerowradialbearing</title>
<path fill="none" stroke="black" d="M506.5,-220C535.25,-208 564,-196 564,-196 564,-196 656,-92 656,-92 656,-92 686.302,-82.5683 719.757,-72.155"/>
<polygon fill="black" stroke="black" points="721.223,-75.3646 729.731,-69.0507 719.142,-68.6809 721.223,-75.3646"/>
</g>
<!-- doublerowradialbearing -->
<g id="node3" class="node"><title>doublerowradialbearing</title>
<ellipse fill="none" stroke="black" cx="448" cy="-526" rx="108" ry="29"/>
<text text-anchor="middle" x="448" y="-522.3" font-family="Times,serif" font-size="14.00">doublerowradialbearing</text>
</g>
<!-- bearings.py:doublerowradialbearing -->
<g id="node15" class="node"><title>bearings.py:doublerowradialbearing</title>
<ellipse fill="none" stroke="black" cx="808" cy="-526" rx="144" ry="29"/>
<text text-anchor="middle" x="808" y="-522.3" font-family="Times,serif" font-size="14.00">bearings.py:doublerowradialbearing</text>
</g>
<!-- doublerowradialbearing&#45;&gt;bearings.py:doublerowradialbearing -->
<g id="edge6" class="edge"><title>doublerowradialbearing&#45;&gt;bearings.py:doublerowradialbearing</title>
<path fill="none" stroke="black" d="M556.412,-526C587.022,-526 620.977,-526 653.755,-526"/>
<polygon fill="black" stroke="black" points="653.885,-529.5 663.885,-526 653.885,-522.5 653.885,-529.5"/>
</g>
<!-- axialthrustbearing -->
<g id="node4" class="node"><title>axialthrustbearing</title>
<ellipse fill="none" stroke="black" cx="448" cy="-338" rx="108" ry="29"/>
<text text-anchor="middle" x="448" y="-334.3" font-family="Times,serif" font-size="14.00">axialthrustbearing</text>
</g>
<!-- bearings.py:axialthrustbearing -->
<g id="node16" class="node"><title>bearings.py:axialthrustbearing</title>
<ellipse fill="none" stroke="black" cx="808" cy="-338" rx="144" ry="29"/>
<text text-anchor="middle" x="808" y="-334.3" font-family="Times,serif" font-size="14.00">bearings.py:axialthrustbearing</text>
</g>
<!-- axialthrustbearing&#45;&gt;bearings.py:axialthrustbearing -->
<g id="edge8" class="edge"><title>axialthrustbearing&#45;&gt;bearings.py:axialthrustbearing</title>
<path fill="none" stroke="black" d="M556.412,-338C587.022,-338 620.977,-338 653.755,-338"/>
<polygon fill="black" stroke="black" points="653.885,-341.5 663.885,-338 653.885,-334.5 653.885,-341.5"/>
</g>
<!-- bearings.scad:axialthrustbearing -->
<g id="node20" class="node"><title>bearings.scad:axialthrustbearing</title>
<ellipse fill="none" stroke="black" cx="808" cy="-139" rx="144" ry="29"/>
<text text-anchor="middle" x="808" y="-135.3" font-family="Times,serif" font-size="14.00">bearings.scad:axialthrustbearing</text>
</g>
<!-- axialthrustbearing&#45;&gt;bearings.scad:axialthrustbearing -->
<g id="edge9" class="edge"><title>axialthrustbearing&#45;&gt;bearings.scad:axialthrustbearing</title>
<path fill="none" stroke="black" d="M506.5,-314C535.25,-302 564,-290 564,-290 564,-290 656,-198 656,-198 656,-198 694.379,-183.004 732.44,-168.133"/>
<polygon fill="black" stroke="black" points="734.046,-171.263 742.086,-164.364 731.498,-164.743 734.046,-171.263"/>
</g>
<!-- needleroller -->
<g id="node5" class="node"><title>needleroller</title>
<ellipse fill="none" stroke="black" cx="448" cy="-432" rx="108" ry="29"/>
<text text-anchor="middle" x="448" y="-428.3" font-family="Times,serif" font-size="14.00">needleroller</text>
</g>
<!-- bearings.py:needlebearing -->
<g id="node17" class="node"><title>bearings.py:needlebearing</title>
<ellipse fill="none" stroke="black" cx="808" cy="-432" rx="144" ry="29"/>
<text text-anchor="middle" x="808" y="-428.3" font-family="Times,serif" font-size="14.00">bearings.py:needlebearing</text>
</g>
<!-- needleroller&#45;&gt;bearings.py:needlebearing -->
<g id="edge12" class="edge"><title>needleroller&#45;&gt;bearings.py:needlebearing</title>
<path fill="none" stroke="black" d="M556.412,-432C587.022,-432 620.977,-432 653.755,-432"/>
<polygon fill="black" stroke="black" points="653.885,-435.5 663.885,-432 653.885,-428.5 653.885,-435.5"/>
</g>
<!-- cylindricalrollerbearing -->
<g id="node6" class="node"><title>cylindricalrollerbearing</title>
<ellipse fill="none" stroke="black" cx="448" cy="-620" rx="108" ry="29"/>
<text text-anchor="middle" x="448" y="-616.3" font-family="Times,serif" font-size="14.00">cylindricalrollerbearing</text>
</g>
<!-- bearings.py:cylindricalrollerbearing -->
<g id="node18" class="node"><title>bearings.py:cylindricalrollerbearing</title>
<ellipse fill="none" stroke="black" cx="808" cy="-620" rx="144" ry="29"/>
<text text-anchor="middle" x="808" y="-616.3" font-family="Times,serif" font-size="14.00">bearings.py:cylindricalrollerbearing</text>
</g>
<!-- cylindricalrollerbearing&#45;&gt;bearings.py:cylindricalrollerbearing -->
<g id="edge15" class="edge"><title>cylindricalrollerbearing&#45;&gt;bearings.py:cylindricalrollerbearing</title>
<path fill="none" stroke="black" d="M556.412,-620C587.022,-620 620.977,-620 653.755,-620"/>
<polygon fill="black" stroke="black" points="653.885,-623.5 663.885,-620 653.885,-616.5 653.885,-623.5"/>
</g>
<!-- DIN625&#45;1 -->
<g id="node7" class="node"><title>DIN625&#45;1</title>
<ellipse fill="none" stroke="black" cx="124" cy="-150" rx="108" ry="29"/>
<text text-anchor="middle" x="124" y="-146.3" font-family="Times,serif" font-size="14.00">DIN625&#45;1</text>
</g>
<!-- DIN625&#45;1&#45;&gt;singlerowradialbearing -->
<g id="edge3" class="edge"><title>DIN625&#45;1&#45;&gt;singlerowradialbearing</title>
<path fill="none" stroke="black" d="M232.221,-150C263.505,-150 297.848,-150 329.719,-150"/>
<polygon fill="black" stroke="black" points="329.973,-153.5 339.973,-150 329.973,-146.5 329.973,-153.5"/>
</g>
<!-- DIN625&#45;3 -->
<g id="node8" class="node"><title>DIN625&#45;3</title>
<ellipse fill="none" stroke="black" cx="124" cy="-620" rx="108" ry="29"/>
<text text-anchor="middle" x="124" y="-616.3" font-family="Times,serif" font-size="14.00">DIN625&#45;3</text>
</g>
<!-- DIN625&#45;3&#45;&gt;doublerowradialbearing -->
<g id="edge7" class="edge"><title>DIN625&#45;3&#45;&gt;doublerowradialbearing</title>
<path fill="none" stroke="black" d="M197.263,-598.905C247.083,-584.361 313.389,-565.004 365.158,-549.892"/>
<polygon fill="black" stroke="black" points="366.36,-553.187 374.978,-547.025 364.398,-546.468 366.36,-553.187"/>
</g>
<!-- DIN711 -->
<g id="node9" class="node"><title>DIN711</title>
<ellipse fill="none" stroke="black" cx="124" cy="-338" rx="108" ry="29"/>
<text text-anchor="middle" x="124" y="-334.3" font-family="Times,serif" font-size="14.00">DIN711</text>
</g>
<!-- DIN711&#45;&gt;axialthrustbearing -->
<g id="edge10" class="edge"><title>DIN711&#45;&gt;axialthrustbearing</title>
<path fill="none" stroke="black" d="M232.221,-338C263.505,-338 297.848,-338 329.719,-338"/>
<polygon fill="black" stroke="black" points="329.973,-341.5 339.973,-338 329.973,-334.5 329.973,-341.5"/>
</g>
<!-- ISO104 -->
<g id="node10" class="node"><title>ISO104</title>
<ellipse fill="none" stroke="black" cx="124" cy="-244" rx="108" ry="29"/>
<text text-anchor="middle" x="124" y="-240.3" font-family="Times,serif" font-size="14.00">ISO104</text>
</g>
<!-- ISO104&#45;&gt;axialthrustbearing -->
<g id="edge11" class="edge"><title>ISO104&#45;&gt;axialthrustbearing</title>
<path fill="none" stroke="black" d="M197.263,-265.095C247.083,-279.639 313.389,-298.996 365.158,-314.108"/>
<polygon fill="black" stroke="black" points="364.398,-317.532 374.978,-316.975 366.36,-310.813 364.398,-317.532"/>
</g>
<!-- DIN5405&#45;1 -->
<g id="node11" class="node"><title>DIN5405&#45;1</title>
<ellipse fill="none" stroke="black" cx="124" cy="-526" rx="108" ry="29"/>
<text text-anchor="middle" x="124" y="-522.3" font-family="Times,serif" font-size="14.00">DIN5405&#45;1</text>
</g>
<!-- DIN5405&#45;1&#45;&gt;needleroller -->
<g id="edge13" class="edge"><title>DIN5405&#45;1&#45;&gt;needleroller</title>
<path fill="none" stroke="black" d="M197.263,-504.905C247.083,-490.361 313.389,-471.004 365.158,-455.892"/>
<polygon fill="black" stroke="black" points="366.36,-459.187 374.978,-453.025 364.398,-452.468 366.36,-459.187"/>
</g>
<!-- ISO 3030 -->
<g id="node12" class="node"><title>ISO 3030</title>
<ellipse fill="none" stroke="black" cx="124" cy="-432" rx="108" ry="29"/>
<text text-anchor="middle" x="124" y="-428.3" font-family="Times,serif" font-size="14.00">ISO 3030</text>
</g>
<!-- ISO 3030&#45;&gt;needleroller -->
<g id="edge14" class="edge"><title>ISO 3030&#45;&gt;needleroller</title>
<path fill="none" stroke="black" d="M232.221,-432C263.505,-432 297.848,-432 329.719,-432"/>
<polygon fill="black" stroke="black" points="329.973,-435.5 339.973,-432 329.973,-428.5 329.973,-435.5"/>
</g>
<!-- DIN5412&#45;1 -->
<g id="node13" class="node"><title>DIN5412&#45;1</title>
<ellipse fill="none" stroke="black" cx="124" cy="-714" rx="108" ry="29"/>
<text text-anchor="middle" x="124" y="-710.3" font-family="Times,serif" font-size="14.00">DIN5412&#45;1</text>
</g>
<!-- DIN5412&#45;1&#45;&gt;cylindricalrollerbearing -->
<g id="edge16" class="edge"><title>DIN5412&#45;1&#45;&gt;cylindricalrollerbearing</title>
<path fill="none" stroke="black" d="M197.263,-692.905C247.083,-678.361 313.389,-659.004 365.158,-643.892"/>
<polygon fill="black" stroke="black" points="366.36,-647.187 374.978,-641.025 364.398,-640.468 366.36,-647.187"/>
</g>
</g>
</svg>
