<?xml version="1.0" encoding="UTF-8" standalone="no"?>
<!DOCTYPE svg PUBLIC "-//W3C//DTD SVG 1.1//EN"
 "http://www.w3.org/Graphics/SVG/1.1/DTD/svg11.dtd">
<!-- Generated by graphviz version 2.36.0 (20140111.2315)
 -->
<!-- Title: G Pages: 1 -->
<svg width="652pt" height="121pt"
 viewBox="0.00 0.00 652.00 121.00" xmlns="http://www.w3.org/2000/svg" xmlns:xlink="http://www.w3.org/1999/xlink">
<g id="graph0" class="graph" transform="scale(1 1) rotate(0) translate(4 117)">
<title>G</title>
<polygon fill="white" stroke="none" points="-4,4 -4,-117 648,-117 648,4 -4,4"/>
<g id="clust1" class="cluster"><title>cluster_cl</title>
<polygon fill="none" stroke="black" points="8,-8 8,-105 240,-105 240,-8 8,-8"/>
<text text-anchor="middle" x="124" y="-89.8" font-family="Times,serif" font-size="14.00">Classes</text>
</g>
<g id="clust3" class="cluster"><title>cluster_fcd</title>
<polygon fill="none" stroke="black" points="332,-8 332,-105 636,-105 636,-8 332,-8"/>
<text text-anchor="middle" x="484" y="-89.8" font-family="Times,serif" font-size="14.00">FreeCAD</text>
</g>
<!-- tube bar crimped ends -->
<g id="node1" class="node"><title>tube bar crimped ends</title>
<ellipse fill="none" stroke="black" cx="124" cy="-45" rx="108" ry="29"/>
<text text-anchor="middle" x="124" y="-41.3" font-family="Times,serif" font-size="14.00">tube bar crimped ends</text>
</g>
<!-- connecting_bars.py:tube_bar_crimped_ends -->
<g id="node2" class="node"><title>connecting_bars.py:tube_bar_crimped_ends</title>
<ellipse fill="none" stroke="black" cx="484" cy="-45" rx="144" ry="29"/>
<text text-anchor="middle" x="484" y="-41.3" font-family="Times,serif" font-size="14.00">connecting_bars.py:tube_bar_crimped_ends</text>
</g>
<!-- tube bar crimped ends&#45;&gt;connecting_bars.py:tube_bar_crimped_ends -->
<g id="edge1" class="edge"><title>tube bar crimped ends&#45;&gt;connecting_bars.py:tube_bar_crimped_ends</title>
<path fill="none" stroke="black" d="M232.412,-45C263.022,-45 296.977,-45 329.755,-45"/>
<polygon fill="black" stroke="black" points="329.885,-48.5001 339.885,-45 329.885,-41.5001 329.885,-48.5001"/>
</g>
</g>
</svg>
