<?xml version="1.0" encoding="UTF-8" standalone="no"?>
<!DOCTYPE svg PUBLIC "-//W3C//DTD SVG 1.1//EN"
 "http://www.w3.org/Graphics/SVG/1.1/DTD/svg11.dtd">
<!-- Generated by graphviz version 2.26.3 (20100126.1600)
 -->
<!-- Title: G Pages: 1 -->
<svg width="652pt" height="124pt"
 viewBox="0.00 0.00 652.00 124.00" xmlns="http://www.w3.org/2000/svg" xmlns:xlink="http://www.w3.org/1999/xlink">
<g id="graph1" class="graph" transform="scale(1 1) rotate(0) translate(4 120)">
<title>G</title>
<polygon fill="white" stroke="white" points="-4,5 -4,-120 649,-120 649,5 -4,5"/>
<g id="graph2" class="cluster"><title>cluster_cl</title>
<polygon fill="none" stroke="black" points="8,-8 8,-108 240,-108 240,-8 8,-8"/>
<text text-anchor="middle" x="124" y="-91.4" font-family="Times Roman,serif" font-size="14.00">Classes</text>
</g>
<g id="graph4" class="cluster"><title>cluster_fcd</title>
<polygon fill="none" stroke="black" points="332,-8 332,-108 636,-108 636,-8 332,-8"/>
<text text-anchor="middle" x="484" y="-91.4" font-family="Times Roman,serif" font-size="14.00">FreeCAD</text>
</g>
<!-- crimped pipe -->
<g id="node2" class="node"><title>crimped pipe</title>
<ellipse fill="none" stroke="black" cx="124" cy="-45" rx="108" ry="29"/>
<text text-anchor="middle" x="124" y="-41.4" font-family="Times Roman,serif" font-size="14.00">crimped pipe</text>
</g>
<!-- crimped_pipes.py:crimped_pipe -->
<g id="node5" class="node"><title>crimped_pipes.py:crimped_pipe</title>
<ellipse fill="none" stroke="black" cx="484" cy="-45" rx="144" ry="29"/>
<text text-anchor="middle" x="484" y="-41.4" font-family="Times Roman,serif" font-size="14.00">crimped_pipes.py:crimped_pipe</text>
</g>
<!-- crimped pipe&#45;&gt;crimped_pipes.py:crimped_pipe -->
<g id="edge6" class="edge"><title>crimped pipe&#45;&gt;crimped_pipes.py:crimped_pipe</title>
<path fill="none" stroke="black" d="M232.012,-45C262.7,-45 296.73,-45 329.598,-45"/>
<polygon fill="black" stroke="black" points="329.756,-48.5001 339.756,-45 329.756,-41.5001 329.756,-48.5001"/>
</g>
</g>
</svg>
