<?xml version="1.0" encoding="UTF-8" standalone="no"?>
<!DOCTYPE svg PUBLIC "-//W3C//DTD SVG 1.1//EN"
 "http://www.w3.org/Graphics/SVG/1.1/DTD/svg11.dtd">
<!-- Generated by graphviz version 2.36.0 (20140111.2315)
 -->
<!-- Title: G Pages: 1 -->
<svg width="976pt" height="1437pt"
 viewBox="0.00 0.00 976.00 1437.00" xmlns="http://www.w3.org/2000/svg" xmlns:xlink="http://www.w3.org/1999/xlink">
<g id="graph0" class="graph" transform="scale(1 1) rotate(0) translate(4 1433)">
<title>G</title>
<polygon fill="white" stroke="none" points="-4,4 -4,-1433 972,-1433 972,4 -4,4"/>
<g id="clust1" class="cluster"><title>cluster_cl</title>
<polygon fill="none" stroke="black" points="332,-290 332,-951 564,-951 564,-290 332,-290"/>
<text text-anchor="middle" x="448" y="-935.8" font-family="Times,serif" font-size="14.00">Classes</text>
</g>
<g id="clust2" class="cluster"><title>cluster_std</title>
<polygon fill="none" stroke="black" points="8,-8 8,-1421 240,-1421 240,-8 8,-8"/>
<text text-anchor="middle" x="124" y="-1405.8" font-family="Times,serif" font-size="14.00">Standards</text>
</g>
<g id="clust3" class="cluster"><title>cluster_fcd</title>
<polygon fill="none" stroke="black" points="656,-859 656,-1050 960,-1050 960,-859 656,-859"/>
<text text-anchor="middle" x="808" y="-1034.8" font-family="Times,serif" font-size="14.00">FreeCAD</text>
</g>
<g id="clust4" class="cluster"><title>cluster_ocd</title>
<polygon fill="none" stroke="black" points="656,-660 656,-851 960,-851 960,-660 656,-660"/>
<text text-anchor="middle" x="808" y="-835.8" font-family="Times,serif" font-size="14.00">OpenSCAD</text>
</g>
<!-- hexsocketcountersunk -->
<g id="node1" class="node"><title>hexsocketcountersunk</title>
<ellipse fill="none" stroke="black" cx="448" cy="-891" rx="108" ry="29"/>
<text text-anchor="middle" x="448" y="-887.3" font-family="Times,serif" font-size="14.00">hexsocketcountersunk</text>
</g>
<!-- hex_socket.py:hex_socket1 -->
<g id="node23" class="node"><title>hex_socket.py:hex_socket1</title>
<ellipse fill="none" stroke="black" cx="808" cy="-990" rx="144" ry="29"/>
<text text-anchor="middle" x="808" y="-986.3" font-family="Times,serif" font-size="14.00">hex_socket.py:hex_socket1</text>
</g>
<!-- hexsocketcountersunk&#45;&gt;hex_socket.py:hex_socket1 -->
<g id="edge1" class="edge"><title>hexsocketcountersunk&#45;&gt;hex_socket.py:hex_socket1</title>
<path fill="none" stroke="black" d="M523.178,-911.513C578.469,-926.803 654.363,-947.79 713.76,-964.216"/>
<polygon fill="black" stroke="black" points="712.949,-967.623 723.52,-966.915 714.815,-960.876 712.949,-967.623"/>
</g>
<!-- hex_socket.scad:hex_socket1 -->
<g id="node25" class="node"><title>hex_socket.scad:hex_socket1</title>
<ellipse fill="none" stroke="black" cx="808" cy="-791" rx="144" ry="29"/>
<text text-anchor="middle" x="808" y="-787.3" font-family="Times,serif" font-size="14.00">hex_socket.scad:hex_socket1</text>
</g>
<!-- hexsocketcountersunk&#45;&gt;hex_socket.scad:hex_socket1 -->
<g id="edge2" class="edge"><title>hexsocketcountersunk&#45;&gt;hex_socket.scad:hex_socket1</title>
<path fill="none" stroke="black" d="M522.744,-870.401C578.197,-854.911 654.553,-833.583 714.165,-816.931"/>
<polygon fill="black" stroke="black" points="715.269,-820.257 723.959,-814.196 713.386,-813.515 715.269,-820.257"/>
</g>
<!-- hexsocketheadcap -->
<g id="node2" class="node"><title>hexsocketheadcap</title>
<ellipse fill="none" stroke="black" cx="448" cy="-797" rx="108" ry="29"/>
<text text-anchor="middle" x="448" y="-793.3" font-family="Times,serif" font-size="14.00">hexsocketheadcap</text>
</g>
<!-- hex_socket.py:hex_socket2 -->
<g id="node24" class="node"><title>hex_socket.py:hex_socket2</title>
<ellipse fill="none" stroke="black" cx="808" cy="-896" rx="144" ry="29"/>
<text text-anchor="middle" x="808" y="-892.3" font-family="Times,serif" font-size="14.00">hex_socket.py:hex_socket2</text>
</g>
<!-- hexsocketheadcap&#45;&gt;hex_socket.py:hex_socket2 -->
<g id="edge6" class="edge"><title>hexsocketheadcap&#45;&gt;hex_socket.py:hex_socket2</title>
<path fill="none" stroke="black" d="M519.37,-818.417C579.379,-836.681 656,-860 656,-860 656,-860 678.106,-865.27 705.402,-871.778"/>
<polygon fill="black" stroke="black" points="704.707,-875.21 715.246,-874.125 706.33,-868.401 704.707,-875.21"/>
</g>
<!-- hex_socket.scad:hex_socket2 -->
<g id="node26" class="node"><title>hex_socket.scad:hex_socket2</title>
<ellipse fill="none" stroke="black" cx="808" cy="-697" rx="144" ry="29"/>
<text text-anchor="middle" x="808" y="-693.3" font-family="Times,serif" font-size="14.00">hex_socket.scad:hex_socket2</text>
</g>
<!-- hexsocketheadcap&#45;&gt;hex_socket.scad:hex_socket2 -->
<g id="edge7" class="edge"><title>hexsocketheadcap&#45;&gt;hex_socket.scad:hex_socket2</title>
<path fill="none" stroke="black" d="M522.744,-776.401C578.197,-760.911 654.553,-739.583 714.165,-722.931"/>
<polygon fill="black" stroke="black" points="715.269,-726.257 723.959,-720.196 713.386,-719.515 715.269,-726.257"/>
</g>
<!-- hexsocketsetscrewflat -->
<g id="node3" class="node"><title>hexsocketsetscrewflat</title>
<ellipse fill="none" stroke="black" cx="448" cy="-703" rx="108" ry="29"/>
<text text-anchor="middle" x="448" y="-699.3" font-family="Times,serif" font-size="14.00">hexsocketsetscrewflat</text>
</g>
<!-- hexsocketsetscrewcone -->
<g id="node4" class="node"><title>hexsocketsetscrewcone</title>
<ellipse fill="none" stroke="black" cx="448" cy="-609" rx="108" ry="29"/>
<text text-anchor="middle" x="448" y="-605.3" font-family="Times,serif" font-size="14.00">hexsocketsetscrewcone</text>
</g>
<!-- hexsocketsetscrewdog -->
<g id="node5" class="node"><title>hexsocketsetscrewdog</title>
<ellipse fill="none" stroke="black" cx="448" cy="-515" rx="108" ry="29"/>
<text text-anchor="middle" x="448" y="-511.3" font-family="Times,serif" font-size="14.00">hexsocketsetscrewdog</text>
</g>
<!-- hexsocketsetscrewcup -->
<g id="node6" class="node"><title>hexsocketsetscrewcup</title>
<ellipse fill="none" stroke="black" cx="448" cy="-421" rx="108" ry="29"/>
<text text-anchor="middle" x="448" y="-417.3" font-family="Times,serif" font-size="14.00">hexsocketsetscrewcup</text>
</g>
<!-- hexsocketsetscrewall -->
<g id="node7" class="node"><title>hexsocketsetscrewall</title>
<ellipse fill="none" stroke="black" cx="448" cy="-327" rx="108" ry="29"/>
<text text-anchor="middle" x="448" y="-323.3" font-family="Times,serif" font-size="14.00">hexsocketsetscrewall</text>
</g>
<!-- ISO10642 -->
<g id="node8" class="node"><title>ISO10642</title>
<ellipse fill="none" stroke="black" cx="124" cy="-1361" rx="108" ry="29"/>
<text text-anchor="middle" x="124" y="-1357.3" font-family="Times,serif" font-size="14.00">ISO10642</text>
</g>
<!-- ISO10642&#45;&gt;hexsocketcountersunk -->
<g id="edge3" class="edge"><title>ISO10642&#45;&gt;hexsocketcountersunk</title>
<path fill="none" stroke="black" d="M182.5,-1337C211.25,-1325 240,-1313 240,-1313 240,-1313 377.938,-1031.79 428.613,-928.485"/>
<polygon fill="black" stroke="black" points="431.835,-929.863 433.097,-919.344 425.55,-926.781 431.835,-929.863"/>
</g>
<!-- DINISO10642 -->
<g id="node9" class="node"><title>DINISO10642</title>
<ellipse fill="none" stroke="black" cx="124" cy="-1267" rx="108" ry="29"/>
<text text-anchor="middle" x="124" y="-1263.3" font-family="Times,serif" font-size="14.00">DINISO10642</text>
</g>
<!-- DINISO10642&#45;&gt;hexsocketcountersunk -->
<g id="edge4" class="edge"><title>DINISO10642&#45;&gt;hexsocketcountersunk</title>
<path fill="none" stroke="black" d="M182.5,-1243C211.25,-1231 240,-1219 240,-1219 240,-1219 369.624,-1013.6 423.722,-927.886"/>
<polygon fill="black" stroke="black" points="426.795,-929.574 429.172,-919.249 420.875,-925.838 426.795,-929.574"/>
</g>
<!-- DIN7991 -->
<g id="node10" class="node"><title>DIN7991</title>
<ellipse fill="none" stroke="black" cx="124" cy="-1173" rx="108" ry="29"/>
<text text-anchor="middle" x="124" y="-1169.3" font-family="Times,serif" font-size="14.00">DIN7991</text>
</g>
<!-- DIN7991&#45;&gt;hexsocketcountersunk -->
<g id="edge5" class="edge"><title>DIN7991&#45;&gt;hexsocketcountersunk</title>
<path fill="none" stroke="black" d="M182.5,-1149C211.25,-1137 240,-1125 240,-1125 240,-1125 357.835,-991.796 415.695,-926.389"/>
<polygon fill="black" stroke="black" points="418.437,-928.571 422.442,-918.762 413.194,-923.933 418.437,-928.571"/>
</g>
<!-- ISO4762 -->
<g id="node11" class="node"><title>ISO4762</title>
<ellipse fill="none" stroke="black" cx="124" cy="-1079" rx="108" ry="29"/>
<text text-anchor="middle" x="124" y="-1075.3" font-family="Times,serif" font-size="14.00">ISO4762</text>
</g>
<!-- ISO4762&#45;&gt;hexsocketheadcap -->
<g id="edge8" class="edge"><title>ISO4762&#45;&gt;hexsocketheadcap</title>
<path fill="none" stroke="black" d="M182.5,-1055C211.25,-1043 240,-1031 240,-1031 240,-1031 332,-844 332,-844 332,-844 354.274,-834.897 379.216,-824.703"/>
<polygon fill="black" stroke="black" points="380.557,-827.936 388.489,-820.913 377.908,-821.456 380.557,-827.936"/>
</g>
<!-- DINENISO4762 -->
<g id="node12" class="node"><title>DINENISO4762</title>
<ellipse fill="none" stroke="black" cx="124" cy="-985" rx="108" ry="29"/>
<text text-anchor="middle" x="124" y="-981.3" font-family="Times,serif" font-size="14.00">DINENISO4762</text>
</g>
<!-- DINENISO4762&#45;&gt;hexsocketheadcap -->
<g id="edge9" class="edge"><title>DINENISO4762&#45;&gt;hexsocketheadcap</title>
<path fill="none" stroke="black" d="M182.5,-961C211.25,-949 240,-937 240,-937 240,-937 332,-844 332,-844 332,-844 354.274,-834.897 379.216,-824.703"/>
<polygon fill="black" stroke="black" points="380.557,-827.936 388.489,-820.913 377.908,-821.456 380.557,-827.936"/>
</g>
<!-- DIN912 -->
<g id="node13" class="node"><title>DIN912</title>
<ellipse fill="none" stroke="black" cx="124" cy="-891" rx="108" ry="29"/>
<text text-anchor="middle" x="124" y="-887.3" font-family="Times,serif" font-size="14.00">DIN912</text>
</g>
<!-- DIN912&#45;&gt;hexsocketheadcap -->
<g id="edge10" class="edge"><title>DIN912&#45;&gt;hexsocketheadcap</title>
<path fill="none" stroke="black" d="M197.263,-869.905C247.083,-855.361 313.389,-836.004 365.158,-820.892"/>
<polygon fill="black" stroke="black" points="366.36,-824.187 374.978,-818.025 364.398,-817.468 366.36,-824.187"/>
</g>
<!-- DIN913 -->
<g id="node14" class="node"><title>DIN913</title>
<ellipse fill="none" stroke="black" cx="124" cy="-797" rx="108" ry="29"/>
<text text-anchor="middle" x="124" y="-793.3" font-family="Times,serif" font-size="14.00">DIN913</text>
</g>
<!-- DIN913&#45;&gt;hexsocketsetscrewflat -->
<g id="edge11" class="edge"><title>DIN913&#45;&gt;hexsocketsetscrewflat</title>
<path fill="none" stroke="black" d="M197.263,-775.905C247.083,-761.361 313.389,-742.004 365.158,-726.892"/>
<polygon fill="black" stroke="black" points="366.36,-730.187 374.978,-724.025 364.398,-723.468 366.36,-730.187"/>
</g>
<!-- ISO4026 -->
<g id="node15" class="node"><title>ISO4026</title>
<ellipse fill="none" stroke="black" cx="124" cy="-703" rx="108" ry="29"/>
<text text-anchor="middle" x="124" y="-699.3" font-family="Times,serif" font-size="14.00">ISO4026</text>
</g>
<!-- ISO4026&#45;&gt;hexsocketsetscrewflat -->
<g id="edge12" class="edge"><title>ISO4026&#45;&gt;hexsocketsetscrewflat</title>
<path fill="none" stroke="black" d="M232.221,-703C263.505,-703 297.848,-703 329.719,-703"/>
<polygon fill="black" stroke="black" points="329.973,-706.5 339.973,-703 329.973,-699.5 329.973,-706.5"/>
</g>
<!-- DIN914 -->
<g id="node16" class="node"><title>DIN914</title>
<ellipse fill="none" stroke="black" cx="124" cy="-609" rx="108" ry="29"/>
<text text-anchor="middle" x="124" y="-605.3" font-family="Times,serif" font-size="14.00">DIN914</text>
</g>
<!-- DIN914&#45;&gt;hexsocketsetscrewcone -->
<g id="edge13" class="edge"><title>DIN914&#45;&gt;hexsocketsetscrewcone</title>
<path fill="none" stroke="black" d="M232.221,-609C263.505,-609 297.848,-609 329.719,-609"/>
<polygon fill="black" stroke="black" points="329.973,-612.5 339.973,-609 329.973,-605.5 329.973,-612.5"/>
</g>
<!-- ISO4027 -->
<g id="node17" class="node"><title>ISO4027</title>
<ellipse fill="none" stroke="black" cx="124" cy="-515" rx="108" ry="29"/>
<text text-anchor="middle" x="124" y="-511.3" font-family="Times,serif" font-size="14.00">ISO4027</text>
</g>
<!-- ISO4027&#45;&gt;hexsocketsetscrewcone -->
<g id="edge14" class="edge"><title>ISO4027&#45;&gt;hexsocketsetscrewcone</title>
<path fill="none" stroke="black" d="M197.263,-536.095C247.083,-550.639 313.389,-569.996 365.158,-585.108"/>
<polygon fill="black" stroke="black" points="364.398,-588.532 374.978,-587.975 366.36,-581.813 364.398,-588.532"/>
</g>
<!-- DIN915 -->
<g id="node18" class="node"><title>DIN915</title>
<ellipse fill="none" stroke="black" cx="124" cy="-421" rx="108" ry="29"/>
<text text-anchor="middle" x="124" y="-417.3" font-family="Times,serif" font-size="14.00">DIN915</text>
</g>
<!-- DIN915&#45;&gt;hexsocketsetscrewdog -->
<g id="edge15" class="edge"><title>DIN915&#45;&gt;hexsocketsetscrewdog</title>
<path fill="none" stroke="black" d="M197.263,-442.095C247.083,-456.639 313.389,-475.996 365.158,-491.108"/>
<polygon fill="black" stroke="black" points="364.398,-494.532 374.978,-493.975 366.36,-487.813 364.398,-494.532"/>
</g>
<!-- ISO4028 -->
<g id="node19" class="node"><title>ISO4028</title>
<ellipse fill="none" stroke="black" cx="124" cy="-327" rx="108" ry="29"/>
<text text-anchor="middle" x="124" y="-323.3" font-family="Times,serif" font-size="14.00">ISO4028</text>
</g>
<!-- ISO4028&#45;&gt;hexsocketsetscrewdog -->
<g id="edge16" class="edge"><title>ISO4028&#45;&gt;hexsocketsetscrewdog</title>
<path fill="none" stroke="black" d="M183.511,-350.913C211.92,-362.524 240,-374 240,-374 240,-374 332,-467 332,-467 332,-467 354.805,-476.519 380.104,-487.078"/>
<polygon fill="black" stroke="black" points="378.923,-490.378 389.5,-491 381.62,-483.918 378.923,-490.378"/>
</g>
<!-- DIN916 -->
<g id="node20" class="node"><title>DIN916</title>
<ellipse fill="none" stroke="black" cx="124" cy="-233" rx="108" ry="29"/>
<text text-anchor="middle" x="124" y="-229.3" font-family="Times,serif" font-size="14.00">DIN916</text>
</g>
<!-- DIN916&#45;&gt;hexsocketsetscrewcup -->
<g id="edge17" class="edge"><title>DIN916&#45;&gt;hexsocketsetscrewcup</title>
<path fill="none" stroke="black" d="M183.511,-256.913C211.92,-268.524 240,-280 240,-280 240,-280 332,-373 332,-373 332,-373 354.805,-382.519 380.104,-393.078"/>
<polygon fill="black" stroke="black" points="378.923,-396.378 389.5,-397 381.62,-389.918 378.923,-396.378"/>
</g>
<!-- ISO4029 -->
<g id="node21" class="node"><title>ISO4029</title>
<ellipse fill="none" stroke="black" cx="124" cy="-139" rx="108" ry="29"/>
<text text-anchor="middle" x="124" y="-135.3" font-family="Times,serif" font-size="14.00">ISO4029</text>
</g>
<!-- ISO4029&#45;&gt;hexsocketsetscrewcup -->
<g id="edge18" class="edge"><title>ISO4029&#45;&gt;hexsocketsetscrewcup</title>
<path fill="none" stroke="black" d="M183.511,-162.913C211.92,-174.524 240,-186 240,-186 240,-186 332,-373 332,-373 332,-373 354.805,-382.519 380.104,-393.078"/>
<polygon fill="black" stroke="black" points="378.923,-396.378 389.5,-397 381.62,-389.918 378.923,-396.378"/>
</g>
<!-- ANSI B18.3.6M -->
<g id="node22" class="node"><title>ANSI B18.3.6M</title>
<ellipse fill="none" stroke="black" cx="124" cy="-45" rx="108" ry="29"/>
<text text-anchor="middle" x="124" y="-41.3" font-family="Times,serif" font-size="14.00">ANSI B18.3.6M</text>
</g>
<!-- ANSI B18.3.6M&#45;&gt;hexsocketsetscrewall -->
<g id="edge19" class="edge"><title>ANSI B18.3.6M&#45;&gt;hexsocketsetscrewall</title>
<path fill="none" stroke="black" d="M183.511,-68.9131C211.92,-80.5238 240,-92 240,-92 240,-92 357.835,-225.774 415.695,-291.46"/>
<polygon fill="black" stroke="black" points="413.205,-293.929 422.442,-299.12 418.458,-289.302 413.205,-293.929"/>
</g>
</g>
</svg>
