<?xml version="1.0" encoding="UTF-8" standalone="no"?>
<!DOCTYPE svg PUBLIC "-//W3C//DTD SVG 1.1//EN"
 "http://www.w3.org/Graphics/SVG/1.1/DTD/svg11.dtd">
<!-- Generated by graphviz version 2.36.0 (20140111.2315)
 -->
<!-- Title: G Pages: 1 -->
<svg width="976pt" height="685pt"
 viewBox="0.00 0.00 976.00 685.00" xmlns="http://www.w3.org/2000/svg" xmlns:xlink="http://www.w3.org/1999/xlink">
<g id="graph0" class="graph" transform="scale(1 1) rotate(0) translate(4 681)">
<title>G</title>
<polygon fill="white" stroke="none" points="-4,4 -4,-681 972,-681 972,4 -4,4"/>
<g id="clust1" class="cluster"><title>cluster_cl</title>
<polygon fill="none" stroke="black" points="332,-102 332,-575 564,-575 564,-102 332,-102"/>
<text text-anchor="middle" x="448" y="-559.8" font-family="Times,serif" font-size="14.00">Classes</text>
</g>
<g id="clust2" class="cluster"><title>cluster_std</title>
<polygon fill="none" stroke="black" points="8,-8 8,-669 240,-669 240,-8 8,-8"/>
<text text-anchor="middle" x="124" y="-653.8" font-family="Times,serif" font-size="14.00">Standards</text>
</g>
<g id="clust3" class="cluster"><title>cluster_fcd</title>
<polygon fill="none" stroke="black" points="656,-342 656,-439 960,-439 960,-342 656,-342"/>
<text text-anchor="middle" x="808" y="-423.8" font-family="Times,serif" font-size="14.00">FreeCAD</text>
</g>
<g id="clust4" class="cluster"><title>cluster_ocd</title>
<polygon fill="none" stroke="black" points="656,-237 656,-334 960,-334 960,-237 656,-237"/>
<text text-anchor="middle" x="808" y="-318.8" font-family="Times,serif" font-size="14.00">OpenSCAD</text>
</g>
<!-- hexagonthinnut1 -->
<g id="node1" class="node"><title>hexagonthinnut1</title>
<ellipse fill="none" stroke="black" cx="448" cy="-515" rx="108" ry="29"/>
<text text-anchor="middle" x="448" y="-511.3" font-family="Times,serif" font-size="14.00">hexagonthinnut1</text>
</g>
<!-- nut.py:nut1 -->
<g id="node13" class="node"><title>nut.py:nut1</title>
<ellipse fill="none" stroke="black" cx="808" cy="-379" rx="144" ry="29"/>
<text text-anchor="middle" x="808" y="-375.3" font-family="Times,serif" font-size="14.00">nut.py:nut1</text>
</g>
<!-- hexagonthinnut1&#45;&gt;nut.py:nut1 -->
<g id="edge1" class="edge"><title>hexagonthinnut1&#45;&gt;nut.py:nut1</title>
<path fill="none" stroke="black" d="M510.542,-491.621C571.612,-468.421 665.34,-432.815 731.017,-407.865"/>
<polygon fill="black" stroke="black" points="732.391,-411.087 740.496,-404.264 729.905,-404.543 732.391,-411.087"/>
</g>
<!-- nut.scad:nut1 -->
<g id="node14" class="node"><title>nut.scad:nut1</title>
<ellipse fill="none" stroke="black" cx="808" cy="-274" rx="144" ry="29"/>
<text text-anchor="middle" x="808" y="-270.3" font-family="Times,serif" font-size="14.00">nut.scad:nut1</text>
</g>
<!-- hexagonthinnut1&#45;&gt;nut.scad:nut1 -->
<g id="edge2" class="edge"><title>hexagonthinnut1&#45;&gt;nut.scad:nut1</title>
<path fill="none" stroke="black" d="M506.5,-491C535.25,-479 564,-467 564,-467 564,-467 656,-333 656,-333 656,-333 694.379,-318.004 732.44,-303.133"/>
<polygon fill="black" stroke="black" points="734.046,-306.263 742.086,-299.364 731.498,-299.743 734.046,-306.263"/>
</g>
<!-- hexagonthinnut2 -->
<g id="node2" class="node"><title>hexagonthinnut2</title>
<ellipse fill="none" stroke="black" cx="448" cy="-421" rx="108" ry="29"/>
<text text-anchor="middle" x="448" y="-417.3" font-family="Times,serif" font-size="14.00">hexagonthinnut2</text>
</g>
<!-- hexagonthinnut2&#45;&gt;nut.py:nut1 -->
<g id="edge5" class="edge"><title>hexagonthinnut2&#45;&gt;nut.py:nut1</title>
<path fill="none" stroke="black" d="M547.299,-409.468C586.296,-404.893 631.757,-399.559 673.644,-394.645"/>
<polygon fill="black" stroke="black" points="674.12,-398.113 683.645,-393.472 673.305,-391.161 674.12,-398.113"/>
</g>
<!-- hexagonthinnut2&#45;&gt;nut.scad:nut1 -->
<g id="edge6" class="edge"><title>hexagonthinnut2&#45;&gt;nut.scad:nut1</title>
<path fill="none" stroke="black" d="M506.5,-397C535.25,-385 564,-373 564,-373 564,-373 656,-333 656,-333 656,-333 694.379,-318.004 732.44,-303.133"/>
<polygon fill="black" stroke="black" points="734.046,-306.263 742.086,-299.364 731.498,-299.743 734.046,-306.263"/>
</g>
<!-- hexagonnut1 -->
<g id="node3" class="node"><title>hexagonnut1</title>
<ellipse fill="none" stroke="black" cx="448" cy="-327" rx="108" ry="29"/>
<text text-anchor="middle" x="448" y="-323.3" font-family="Times,serif" font-size="14.00">hexagonnut1</text>
</g>
<!-- hexagonnut1&#45;&gt;nut.py:nut1 -->
<g id="edge8" class="edge"><title>hexagonnut1&#45;&gt;nut.py:nut1</title>
<path fill="none" stroke="black" d="M543.06,-340.662C585.425,-346.816 636.053,-354.17 681.585,-360.783"/>
<polygon fill="black" stroke="black" points="681.121,-364.253 691.521,-362.226 682.128,-357.325 681.121,-364.253"/>
</g>
<!-- hexagonnut1&#45;&gt;nut.scad:nut1 -->
<g id="edge9" class="edge"><title>hexagonnut1&#45;&gt;nut.scad:nut1</title>
<path fill="none" stroke="black" d="M542.593,-313.144C585.248,-306.829 636.355,-299.263 682.218,-292.473"/>
<polygon fill="black" stroke="black" points="682.844,-295.919 692.223,-290.992 681.819,-288.994 682.844,-295.919"/>
</g>
<!-- hexagonnut2 -->
<g id="node4" class="node"><title>hexagonnut2</title>
<ellipse fill="none" stroke="black" cx="448" cy="-233" rx="108" ry="29"/>
<text text-anchor="middle" x="448" y="-229.3" font-family="Times,serif" font-size="14.00">hexagonnut2</text>
</g>
<!-- hexagonnut2&#45;&gt;nut.py:nut1 -->
<g id="edge11" class="edge"><title>hexagonnut2&#45;&gt;nut.py:nut1</title>
<path fill="none" stroke="black" d="M507.511,-256.913C535.92,-268.524 564,-280 564,-280 564,-280 656,-343 656,-343 656,-343 678.106,-348.27 705.402,-354.778"/>
<polygon fill="black" stroke="black" points="704.707,-358.21 715.246,-357.125 706.33,-351.401 704.707,-358.21"/>
</g>
<!-- hexagonnut2&#45;&gt;nut.scad:nut1 -->
<g id="edge12" class="edge"><title>hexagonnut2&#45;&gt;nut.scad:nut1</title>
<path fill="none" stroke="black" d="M547.299,-244.258C586.104,-248.702 631.31,-253.879 673.027,-258.657"/>
<polygon fill="black" stroke="black" points="672.654,-262.137 682.987,-259.797 673.45,-255.182 672.654,-262.137"/>
</g>
<!-- hexagonnut3 -->
<g id="node5" class="node"><title>hexagonnut3</title>
<ellipse fill="none" stroke="black" cx="448" cy="-139" rx="108" ry="29"/>
<text text-anchor="middle" x="448" y="-135.3" font-family="Times,serif" font-size="14.00">hexagonnut3</text>
</g>
<!-- hexagonnut3&#45;&gt;nut.py:nut1 -->
<g id="edge14" class="edge"><title>hexagonnut3&#45;&gt;nut.py:nut1</title>
<path fill="none" stroke="black" d="M507.511,-162.913C535.92,-174.524 564,-186 564,-186 564,-186 656,-343 656,-343 656,-343 678.106,-348.27 705.402,-354.778"/>
<polygon fill="black" stroke="black" points="704.707,-358.21 715.246,-357.125 706.33,-351.401 704.707,-358.21"/>
</g>
<!-- hexagonnut3&#45;&gt;nut.scad:nut1 -->
<g id="edge15" class="edge"><title>hexagonnut3&#45;&gt;nut.scad:nut1</title>
<path fill="none" stroke="black" d="M510.95,-162.361C571.893,-185.342 665.071,-220.479 730.579,-245.182"/>
<polygon fill="black" stroke="black" points="729.445,-248.495 740.037,-248.748 731.915,-241.945 729.445,-248.495"/>
</g>
<!-- ISO4035 -->
<g id="node6" class="node"><title>ISO4035</title>
<ellipse fill="none" stroke="black" cx="124" cy="-609" rx="108" ry="29"/>
<text text-anchor="middle" x="124" y="-605.3" font-family="Times,serif" font-size="14.00">ISO4035</text>
</g>
<!-- ISO4035&#45;&gt;hexagonthinnut1 -->
<g id="edge3" class="edge"><title>ISO4035&#45;&gt;hexagonthinnut1</title>
<path fill="none" stroke="black" d="M197.263,-587.905C247.083,-573.361 313.389,-554.004 365.158,-538.892"/>
<polygon fill="black" stroke="black" points="366.36,-542.187 374.978,-536.025 364.398,-535.468 366.36,-542.187"/>
</g>
<!-- DINENISO4035 -->
<g id="node7" class="node"><title>DINENISO4035</title>
<ellipse fill="none" stroke="black" cx="124" cy="-515" rx="108" ry="29"/>
<text text-anchor="middle" x="124" y="-511.3" font-family="Times,serif" font-size="14.00">DINENISO4035</text>
</g>
<!-- DINENISO4035&#45;&gt;hexagonthinnut1 -->
<g id="edge4" class="edge"><title>DINENISO4035&#45;&gt;hexagonthinnut1</title>
<path fill="none" stroke="black" d="M232.221,-515C263.505,-515 297.848,-515 329.719,-515"/>
<polygon fill="black" stroke="black" points="329.973,-518.5 339.973,-515 329.973,-511.5 329.973,-518.5"/>
</g>
<!-- DIN439B -->
<g id="node8" class="node"><title>DIN439B</title>
<ellipse fill="none" stroke="black" cx="124" cy="-421" rx="108" ry="29"/>
<text text-anchor="middle" x="124" y="-417.3" font-family="Times,serif" font-size="14.00">DIN439B</text>
</g>
<!-- DIN439B&#45;&gt;hexagonthinnut2 -->
<g id="edge7" class="edge"><title>DIN439B&#45;&gt;hexagonthinnut2</title>
<path fill="none" stroke="black" d="M232.221,-421C263.505,-421 297.848,-421 329.719,-421"/>
<polygon fill="black" stroke="black" points="329.973,-424.5 339.973,-421 329.973,-417.5 329.973,-424.5"/>
</g>
<!-- ISO4032 -->
<g id="node9" class="node"><title>ISO4032</title>
<ellipse fill="none" stroke="black" cx="124" cy="-327" rx="108" ry="29"/>
<text text-anchor="middle" x="124" y="-323.3" font-family="Times,serif" font-size="14.00">ISO4032</text>
</g>
<!-- ISO4032&#45;&gt;hexagonnut1 -->
<g id="edge10" class="edge"><title>ISO4032&#45;&gt;hexagonnut1</title>
<path fill="none" stroke="black" d="M232.221,-327C263.505,-327 297.848,-327 329.719,-327"/>
<polygon fill="black" stroke="black" points="329.973,-330.5 339.973,-327 329.973,-323.5 329.973,-330.5"/>
</g>
<!-- DIN934 -->
<g id="node10" class="node"><title>DIN934</title>
<ellipse fill="none" stroke="black" cx="124" cy="-233" rx="108" ry="29"/>
<text text-anchor="middle" x="124" y="-229.3" font-family="Times,serif" font-size="14.00">DIN934</text>
</g>
<!-- DIN934&#45;&gt;hexagonnut2 -->
<g id="edge13" class="edge"><title>DIN934&#45;&gt;hexagonnut2</title>
<path fill="none" stroke="black" d="M232.221,-233C263.505,-233 297.848,-233 329.719,-233"/>
<polygon fill="black" stroke="black" points="329.973,-236.5 339.973,-233 329.973,-229.5 329.973,-236.5"/>
</g>
<!-- ANSI B18.2.2 -->
<g id="node11" class="node"><title>ANSI B18.2.2</title>
<ellipse fill="none" stroke="black" cx="124" cy="-139" rx="108" ry="29"/>
<text text-anchor="middle" x="124" y="-135.3" font-family="Times,serif" font-size="14.00">ANSI B18.2.2</text>
</g>
<!-- ANSI B18.2.2&#45;&gt;hexagonnut3 -->
<g id="edge16" class="edge"><title>ANSI B18.2.2&#45;&gt;hexagonnut3</title>
<path fill="none" stroke="black" d="M232.221,-139C263.505,-139 297.848,-139 329.719,-139"/>
<polygon fill="black" stroke="black" points="329.973,-142.5 339.973,-139 329.973,-135.5 329.973,-142.5"/>
</g>
<!-- ASME B18.2.2 -->
<g id="node12" class="node"><title>ASME B18.2.2</title>
<ellipse fill="none" stroke="black" cx="124" cy="-45" rx="108" ry="29"/>
<text text-anchor="middle" x="124" y="-41.3" font-family="Times,serif" font-size="14.00">ASME B18.2.2</text>
</g>
<!-- ASME B18.2.2&#45;&gt;hexagonnut3 -->
<g id="edge17" class="edge"><title>ASME B18.2.2&#45;&gt;hexagonnut3</title>
<path fill="none" stroke="black" d="M197.263,-66.0954C247.083,-80.6392 313.389,-99.9955 365.158,-115.108"/>
<polygon fill="black" stroke="black" points="364.398,-118.532 374.978,-117.975 366.36,-111.813 364.398,-118.532"/>
</g>
</g>
</svg>
