<?xml version="1.0" encoding="UTF-8" standalone="no"?>
<!DOCTYPE svg PUBLIC "-//W3C//DTD SVG 1.1//EN"
 "http://www.w3.org/Graphics/SVG/1.1/DTD/svg11.dtd">
<!-- Generated by graphviz version 2.26.3 (20100126.1600)
 -->
<!-- Title: G Pages: 1 -->
<svg width="976pt" height="469pt"
 viewBox="0.00 0.00 976.00 469.00" xmlns="http://www.w3.org/2000/svg" xmlns:xlink="http://www.w3.org/1999/xlink">
<g id="graph1" class="graph" transform="scale(1 1) rotate(0) translate(4 465)">
<title>G</title>
<polygon fill="white" stroke="white" points="-4,5 -4,-465 973,-465 973,5 -4,5"/>
<g id="graph2" class="cluster"><title>cluster_cl</title>
<polygon fill="none" stroke="black" points="332,-109 332,-397 564,-397 564,-109 332,-109"/>
<text text-anchor="middle" x="448" y="-380.4" font-family="Times Roman,serif" font-size="14.00">Classes</text>
</g>
<g id="graph3" class="cluster"><title>cluster_std</title>
<polygon fill="none" stroke="black" points="8,-8 8,-390 240,-390 240,-8 8,-8"/>
<text text-anchor="middle" x="124" y="-373.4" font-family="Times Roman,serif" font-size="14.00">Standards</text>
</g>
<g id="graph4" class="cluster"><title>cluster_fcd</title>
<polygon fill="none" stroke="black" points="656,-259 656,-453 960,-453 960,-259 656,-259"/>
<text text-anchor="middle" x="808" y="-436.4" font-family="Times Roman,serif" font-size="14.00">FreeCAD</text>
</g>
<g id="graph5" class="cluster"><title>cluster_ocd</title>
<polygon fill="none" stroke="black" points="656,-57 656,-251 960,-251 960,-57 656,-57"/>
<text text-anchor="middle" x="808" y="-234.4" font-family="Times Roman,serif" font-size="14.00">OpenSCAD</text>
</g>
<!-- genericpipe -->
<g id="node2" class="node"><title>genericpipe</title>
<ellipse fill="none" stroke="black" cx="448" cy="-334" rx="108" ry="29"/>
<text text-anchor="middle" x="448" y="-330.4" font-family="Times Roman,serif" font-size="14.00">genericpipe</text>
</g>
<!-- pipes.py:pipe -->
<g id="node11" class="node"><title>pipes.py:pipe</title>
<ellipse fill="none" stroke="black" cx="808" cy="-390" rx="144" ry="29"/>
<text text-anchor="middle" x="808" y="-386.4" font-family="Times Roman,serif" font-size="14.00">pipes.py:pipe</text>
</g>
<!-- genericpipe&#45;&gt;pipes.py:pipe -->
<g id="edge6" class="edge"><title>genericpipe&#45;&gt;pipes.py:pipe</title>
<path fill="none" stroke="black" d="M541.646,-348.567C585.025,-355.315 637.174,-363.427 683.785,-370.678"/>
<polygon fill="black" stroke="black" points="683.531,-374.18 693.95,-372.259 684.607,-367.263 683.531,-374.18"/>
</g>
<!-- pipe.scad:pipe -->
<g id="node14" class="node"><title>pipe.scad:pipe</title>
<ellipse fill="none" stroke="black" cx="808" cy="-188" rx="144" ry="29"/>
<text text-anchor="middle" x="808" y="-184.4" font-family="Times Roman,serif" font-size="14.00">pipe.scad:pipe</text>
</g>
<!-- genericpipe&#45;&gt;pipe.scad:pipe -->
<g id="edge8" class="edge"><title>genericpipe&#45;&gt;pipe.scad:pipe</title>
<path fill="none" stroke="black" d="M507.699,-309.812C536.122,-298.295 564,-287 564,-287 564,-287 662.551,-247.014 734.389,-217.867"/>
<polygon fill="black" stroke="black" points="735.941,-221.014 743.892,-214.011 733.31,-214.528 735.941,-221.014"/>
</g>
<!-- din11850range2 -->
<g id="node3" class="node"><title>din11850range2</title>
<ellipse fill="none" stroke="black" cx="448" cy="-240" rx="108" ry="29"/>
<text text-anchor="middle" x="448" y="-236.4" font-family="Times Roman,serif" font-size="14.00">din11850range2</text>
</g>
<!-- din11850range2&#45;&gt;pipes.py:pipe -->
<g id="edge10" class="edge"><title>din11850range2&#45;&gt;pipes.py:pipe</title>
<path fill="none" stroke="black" d="M507.699,-264.188C536.122,-275.705 564,-287 564,-287 564,-287 656,-343 656,-343 656,-343 686.02,-352.283 719.378,-362.597"/>
<polygon fill="black" stroke="black" points="718.741,-366.064 729.329,-365.674 720.809,-359.376 718.741,-366.064"/>
</g>
<!-- din11850range2&#45;&gt;pipe.scad:pipe -->
<g id="edge12" class="edge"><title>din11850range2&#45;&gt;pipe.scad:pipe</title>
<path fill="none" stroke="black" d="M543.528,-226.201C585.552,-220.131 635.52,-212.914 680.647,-206.395"/>
<polygon fill="black" stroke="black" points="681.401,-209.823 690.798,-204.929 680.4,-202.895 681.401,-209.823"/>
</g>
<!-- nominalpipesize -->
<g id="node4" class="node"><title>nominalpipesize</title>
<ellipse fill="none" stroke="black" cx="448" cy="-146" rx="108" ry="29"/>
<text text-anchor="middle" x="448" y="-142.4" font-family="Times Roman,serif" font-size="14.00">nominalpipesize</text>
</g>
<!-- pipes.py:pipe_wall -->
<g id="node12" class="node"><title>pipes.py:pipe_wall</title>
<ellipse fill="none" stroke="black" cx="808" cy="-296" rx="144" ry="29"/>
<text text-anchor="middle" x="808" y="-292.4" font-family="Times Roman,serif" font-size="14.00">pipes.py:pipe_wall</text>
</g>
<!-- nominalpipesize&#45;&gt;pipes.py:pipe_wall -->
<g id="edge16" class="edge"><title>nominalpipesize&#45;&gt;pipes.py:pipe_wall</title>
<path fill="none" stroke="black" d="M507.699,-170.188C536.122,-181.705 564,-193 564,-193 564,-193 656,-260 656,-260 656,-260 677.459,-265.082 704.25,-271.428"/>
<polygon fill="black" stroke="black" points="703.795,-274.917 714.332,-273.816 705.408,-268.105 703.795,-274.917"/>
</g>
<!-- pipe.scad:pipe_wall -->
<g id="node15" class="node"><title>pipe.scad:pipe_wall</title>
<ellipse fill="none" stroke="black" cx="808" cy="-94" rx="144" ry="29"/>
<text text-anchor="middle" x="808" y="-90.4" font-family="Times Roman,serif" font-size="14.00">pipe.scad:pipe_wall</text>
</g>
<!-- nominalpipesize&#45;&gt;pipe.scad:pipe_wall -->
<g id="edge18" class="edge"><title>nominalpipesize&#45;&gt;pipe.scad:pipe_wall</title>
<path fill="none" stroke="black" d="M543.528,-132.201C585.552,-126.131 635.52,-118.914 680.647,-112.395"/>
<polygon fill="black" stroke="black" points="681.401,-115.823 690.798,-110.929 680.4,-108.895 681.401,-115.823"/>
</g>
<!-- DIN11850 Range 2 -->
<g id="node6" class="node"><title>DIN11850 Range 2</title>
<ellipse fill="none" stroke="black" cx="124" cy="-327" rx="108" ry="29"/>
<text text-anchor="middle" x="124" y="-323.4" font-family="Times Roman,serif" font-size="14.00">DIN11850 Range 2</text>
</g>
<!-- DIN11850 Range 2&#45;&gt;din11850range2 -->
<g id="edge14" class="edge"><title>DIN11850 Range 2&#45;&gt;din11850range2</title>
<path fill="none" stroke="black" d="M200.373,-306.492C248.782,-293.494 311.506,-276.651 361.712,-263.17"/>
<polygon fill="black" stroke="black" points="362.829,-266.494 371.579,-260.521 361.013,-259.734 362.829,-266.494"/>
</g>
<!-- ANSI B36.10M -->
<g id="node7" class="node"><title>ANSI B36.10M</title>
<ellipse fill="none" stroke="black" cx="124" cy="-139" rx="108" ry="29"/>
<text text-anchor="middle" x="124" y="-135.4" font-family="Times Roman,serif" font-size="14.00">ANSI B36.10M</text>
</g>
<!-- ANSI B36.10M&#45;&gt;nominalpipesize -->
<g id="edge20" class="edge"><title>ANSI B36.10M&#45;&gt;nominalpipesize</title>
<path fill="none" stroke="black" d="M231.887,-141.331C263.365,-142.011 297.922,-142.758 329.99,-143.45"/>
<polygon fill="black" stroke="black" points="330.235,-146.956 340.308,-143.673 330.386,-139.958 330.235,-146.956"/>
</g>
<!-- ASME B36.10M -->
<g id="node8" class="node"><title>ASME B36.10M</title>
<ellipse fill="none" stroke="black" cx="124" cy="-45" rx="108" ry="29"/>
<text text-anchor="middle" x="124" y="-41.4" font-family="Times Roman,serif" font-size="14.00">ASME B36.10M</text>
</g>
<!-- ASME B36.10M&#45;&gt;nominalpipesize -->
<g id="edge22" class="edge"><title>ASME B36.10M&#45;&gt;nominalpipesize</title>
<path fill="none" stroke="black" d="M194.703,-67.0401C245.712,-82.941 314.651,-104.431 367.729,-120.977"/>
<polygon fill="black" stroke="black" points="366.859,-124.372 377.448,-124.007 368.943,-117.689 366.859,-124.372"/>
</g>
<!-- API 5L -->
<g id="node9" class="node"><title>API 5L</title>
<ellipse fill="none" stroke="black" cx="124" cy="-233" rx="108" ry="29"/>
<text text-anchor="middle" x="124" y="-229.4" font-family="Times Roman,serif" font-size="14.00">API 5L</text>
</g>
<!-- API 5L&#45;&gt;nominalpipesize -->
<g id="edge24" class="edge"><title>API 5L&#45;&gt;nominalpipesize</title>
<path fill="none" stroke="black" d="M200.373,-212.492C248.782,-199.494 311.506,-182.651 361.712,-169.17"/>
<polygon fill="black" stroke="black" points="362.829,-172.494 371.579,-166.521 361.013,-165.734 362.829,-172.494"/>
</g>
</g>
</svg>
