<?xml version="1.0" encoding="UTF-8" standalone="no"?>
<!DOCTYPE svg PUBLIC "-//W3C//DTD SVG 1.1//EN"
 "http://www.w3.org/Graphics/SVG/1.1/DTD/svg11.dtd">
<!-- Generated by graphviz version 2.36.0 (20140111.2315)
 -->
<!-- Title: G Pages: 1 -->
<svg width="976pt" height="462pt"
 viewBox="0.00 0.00 976.00 462.00" xmlns="http://www.w3.org/2000/svg" xmlns:xlink="http://www.w3.org/1999/xlink">
<g id="graph0" class="graph" transform="scale(1 1) rotate(0) translate(4 458)">
<title>G</title>
<polygon fill="white" stroke="none" points="-4,4 -4,-458 972,-458 972,4 -4,4"/>
<g id="clust1" class="cluster"><title>cluster_cl</title>
<polygon fill="none" stroke="black" points="332,-107 332,-392 564,-392 564,-107 332,-107"/>
<text text-anchor="middle" x="448" y="-376.8" font-family="Times,serif" font-size="14.00">Classes</text>
</g>
<g id="clust2" class="cluster"><title>cluster_std</title>
<polygon fill="none" stroke="black" points="8,-8 8,-387 240,-387 240,-8 8,-8"/>
<text text-anchor="middle" x="124" y="-371.8" font-family="Times,serif" font-size="14.00">Standards</text>
</g>
<g id="clust3" class="cluster"><title>cluster_fcd</title>
<polygon fill="none" stroke="black" points="656,-255 656,-446 960,-446 960,-255 656,-255"/>
<text text-anchor="middle" x="808" y="-430.8" font-family="Times,serif" font-size="14.00">FreeCAD</text>
</g>
<g id="clust4" class="cluster"><title>cluster_ocd</title>
<polygon fill="none" stroke="black" points="656,-56 656,-247 960,-247 960,-56 656,-56"/>
<text text-anchor="middle" x="808" y="-231.8" font-family="Times,serif" font-size="14.00">OpenSCAD</text>
</g>
<!-- genericpipe -->
<g id="node1" class="node"><title>genericpipe</title>
<ellipse fill="none" stroke="black" cx="448" cy="-332" rx="108" ry="29"/>
<text text-anchor="middle" x="448" y="-328.3" font-family="Times,serif" font-size="14.00">genericpipe</text>
</g>
<!-- pipes.py:pipe -->
<g id="node8" class="node"><title>pipes.py:pipe</title>
<ellipse fill="none" stroke="black" cx="808" cy="-386" rx="144" ry="29"/>
<text text-anchor="middle" x="808" y="-382.3" font-family="Times,serif" font-size="14.00">pipes.py:pipe</text>
</g>
<!-- genericpipe&#45;&gt;pipes.py:pipe -->
<g id="edge1" class="edge"><title>genericpipe&#45;&gt;pipes.py:pipe</title>
<path fill="none" stroke="black" d="M542.126,-346.047C585.071,-352.525 636.659,-360.306 682.852,-367.274"/>
<polygon fill="black" stroke="black" points="682.518,-370.763 692.928,-368.794 683.562,-363.841 682.518,-370.763"/>
</g>
<!-- pipe.scad:pipe -->
<g id="node10" class="node"><title>pipe.scad:pipe</title>
<ellipse fill="none" stroke="black" cx="808" cy="-187" rx="144" ry="29"/>
<text text-anchor="middle" x="808" y="-183.3" font-family="Times,serif" font-size="14.00">pipe.scad:pipe</text>
</g>
<!-- genericpipe&#45;&gt;pipe.scad:pipe -->
<g id="edge2" class="edge"><title>genericpipe&#45;&gt;pipe.scad:pipe</title>
<path fill="none" stroke="black" d="M506.661,-308.044C567.911,-282.598 656,-246 656,-246 656,-246 694.379,-231.004 732.44,-216.133"/>
<polygon fill="black" stroke="black" points="734.046,-219.263 742.086,-212.364 731.498,-212.743 734.046,-219.263"/>
</g>
<!-- din11850range2 -->
<g id="node2" class="node"><title>din11850range2</title>
<ellipse fill="none" stroke="black" cx="448" cy="-238" rx="108" ry="29"/>
<text text-anchor="middle" x="448" y="-234.3" font-family="Times,serif" font-size="14.00">din11850range2</text>
</g>
<!-- din11850range2&#45;&gt;pipes.py:pipe -->
<g id="edge3" class="edge"><title>din11850range2&#45;&gt;pipes.py:pipe</title>
<path fill="none" stroke="black" d="M507.511,-261.913C535.92,-273.524 564,-285 564,-285 564,-285 656,-338 656,-338 656,-338 687.295,-347.948 721.39,-358.786"/>
<polygon fill="black" stroke="black" points="720.467,-362.165 731.058,-361.859 722.588,-355.494 720.467,-362.165"/>
</g>
<!-- din11850range2&#45;&gt;pipe.scad:pipe -->
<g id="edge4" class="edge"><title>din11850range2&#45;&gt;pipe.scad:pipe</title>
<path fill="none" stroke="black" d="M543.529,-224.534C585.417,-218.566 635.314,-211.458 680.36,-205.041"/>
<polygon fill="black" stroke="black" points="681.085,-208.473 690.492,-203.598 680.098,-201.543 681.085,-208.473"/>
</g>
<!-- nominalpipesize -->
<g id="node3" class="node"><title>nominalpipesize</title>
<ellipse fill="none" stroke="black" cx="448" cy="-144" rx="108" ry="29"/>
<text text-anchor="middle" x="448" y="-140.3" font-family="Times,serif" font-size="14.00">nominalpipesize</text>
</g>
<!-- pipes.py:pipe_wall -->
<g id="node9" class="node"><title>pipes.py:pipe_wall</title>
<ellipse fill="none" stroke="black" cx="808" cy="-292" rx="144" ry="29"/>
<text text-anchor="middle" x="808" y="-288.3" font-family="Times,serif" font-size="14.00">pipes.py:pipe_wall</text>
</g>
<!-- nominalpipesize&#45;&gt;pipes.py:pipe_wall -->
<g id="edge6" class="edge"><title>nominalpipesize&#45;&gt;pipes.py:pipe_wall</title>
<path fill="none" stroke="black" d="M507.511,-167.913C535.92,-179.524 564,-191 564,-191 564,-191 656,-256 656,-256 656,-256 678.106,-261.27 705.402,-267.778"/>
<polygon fill="black" stroke="black" points="704.707,-271.21 715.246,-270.125 706.33,-264.401 704.707,-271.21"/>
</g>
<!-- pipe.scad:pipe_wall -->
<g id="node11" class="node"><title>pipe.scad:pipe_wall</title>
<ellipse fill="none" stroke="black" cx="808" cy="-93" rx="144" ry="29"/>
<text text-anchor="middle" x="808" y="-89.3" font-family="Times,serif" font-size="14.00">pipe.scad:pipe_wall</text>
</g>
<!-- nominalpipesize&#45;&gt;pipe.scad:pipe_wall -->
<g id="edge7" class="edge"><title>nominalpipesize&#45;&gt;pipe.scad:pipe_wall</title>
<path fill="none" stroke="black" d="M543.529,-130.534C585.417,-124.566 635.314,-117.458 680.36,-111.041"/>
<polygon fill="black" stroke="black" points="681.085,-114.473 690.492,-109.598 680.098,-107.543 681.085,-114.473"/>
</g>
<!-- DIN11850 Range 2 -->
<g id="node4" class="node"><title>DIN11850 Range 2</title>
<ellipse fill="none" stroke="black" cx="124" cy="-327" rx="108" ry="29"/>
<text text-anchor="middle" x="124" y="-323.3" font-family="Times,serif" font-size="14.00">DIN11850 Range 2</text>
</g>
<!-- DIN11850 Range 2&#45;&gt;din11850range2 -->
<g id="edge5" class="edge"><title>DIN11850 Range 2&#45;&gt;din11850range2</title>
<path fill="none" stroke="black" d="M199.278,-306.47C248.221,-292.942 312.405,-275.202 363.176,-261.169"/>
<polygon fill="black" stroke="black" points="364.111,-264.542 372.818,-258.504 362.247,-257.794 364.111,-264.542"/>
</g>
<!-- ANSI B36.10M -->
<g id="node5" class="node"><title>ANSI B36.10M</title>
<ellipse fill="none" stroke="black" cx="124" cy="-139" rx="108" ry="29"/>
<text text-anchor="middle" x="124" y="-135.3" font-family="Times,serif" font-size="14.00">ANSI B36.10M</text>
</g>
<!-- ANSI B36.10M&#45;&gt;nominalpipesize -->
<g id="edge8" class="edge"><title>ANSI B36.10M&#45;&gt;nominalpipesize</title>
<path fill="none" stroke="black" d="M232.221,-140.665C263.505,-141.151 297.848,-141.684 329.719,-142.179"/>
<polygon fill="black" stroke="black" points="329.919,-145.682 339.973,-142.338 330.028,-138.683 329.919,-145.682"/>
</g>
<!-- ASME B36.10M -->
<g id="node6" class="node"><title>ASME B36.10M</title>
<ellipse fill="none" stroke="black" cx="124" cy="-45" rx="108" ry="29"/>
<text text-anchor="middle" x="124" y="-41.3" font-family="Times,serif" font-size="14.00">ASME B36.10M</text>
</g>
<!-- ASME B36.10M&#45;&gt;nominalpipesize -->
<g id="edge9" class="edge"><title>ASME B36.10M&#45;&gt;nominalpipesize</title>
<path fill="none" stroke="black" d="M195.266,-66.6036C245.96,-82.1897 314.474,-103.254 367.225,-119.473"/>
<polygon fill="black" stroke="black" points="366.296,-122.849 376.883,-122.442 368.354,-116.158 366.296,-122.849"/>
</g>
<!-- API 5L -->
<g id="node7" class="node"><title>API 5L</title>
<ellipse fill="none" stroke="black" cx="124" cy="-233" rx="108" ry="29"/>
<text text-anchor="middle" x="124" y="-229.3" font-family="Times,serif" font-size="14.00">API 5L</text>
</g>
<!-- API 5L&#45;&gt;nominalpipesize -->
<g id="edge10" class="edge"><title>API 5L&#45;&gt;nominalpipesize</title>
<path fill="none" stroke="black" d="M199.278,-212.47C248.221,-198.942 312.405,-181.202 363.176,-167.169"/>
<polygon fill="black" stroke="black" points="364.111,-170.542 372.818,-164.504 362.247,-163.794 364.111,-170.542"/>
</g>
</g>
</svg>
