<?xml version="1.0" encoding="UTF-8" standalone="no"?>
<!DOCTYPE svg PUBLIC "-//W3C//DTD SVG 1.1//EN"
 "http://www.w3.org/Graphics/SVG/1.1/DTD/svg11.dtd">
<!-- Generated by graphviz version 2.26.3 (20100126.1600)
 -->
<!-- Title: G Pages: 1 -->
<svg width="976pt" height="218pt"
 viewBox="0.00 0.00 976.00 218.00" xmlns="http://www.w3.org/2000/svg" xmlns:xlink="http://www.w3.org/1999/xlink">
<g id="graph1" class="graph" transform="scale(1 1) rotate(0) translate(4 214)">
<title>G</title>
<polygon fill="white" stroke="white" points="-4,5 -4,-214 973,-214 973,5 -4,5"/>
<g id="graph2" class="cluster"><title>cluster_cl</title>
<polygon fill="none" stroke="black" points="332,-8 332,-202 564,-202 564,-8 332,-8"/>
<text text-anchor="middle" x="448" y="-185.4" font-family="Times Roman,serif" font-size="14.00">Classes</text>
</g>
<g id="graph3" class="cluster"><title>cluster_std</title>
<polygon fill="none" stroke="black" points="8,-8 8,-202 240,-202 240,-8 8,-8"/>
<text text-anchor="middle" x="124" y="-185.4" font-family="Times Roman,serif" font-size="14.00">Standards</text>
</g>
<g id="graph4" class="cluster"><title>cluster_fcd</title>
<polygon fill="none" stroke="black" points="656,-8 656,-108 960,-108 960,-8 656,-8"/>
<text text-anchor="middle" x="808" y="-91.4" font-family="Times Roman,serif" font-size="14.00">FreeCAD</text>
</g>
<!-- cbeam_upe -->
<g id="node2" class="node"><title>cbeam_upe</title>
<ellipse fill="none" stroke="black" cx="448" cy="-139" rx="108" ry="29"/>
<text text-anchor="middle" x="448" y="-135.4" font-family="Times Roman,serif" font-size="14.00">cbeam_upe</text>
</g>
<!-- profiles&#45;rolled_c&#45;beams.py:cbeam_parallel_flange -->
<g id="node8" class="node"><title>profiles&#45;rolled_c&#45;beams.py:cbeam_parallel_flange</title>
<ellipse fill="none" stroke="black" cx="808" cy="-45" rx="144" ry="29"/>
<text text-anchor="middle" x="808" y="-41.4" font-family="Times Roman,serif" font-size="14.00">profiles&#45;rolled_c&#45;beams.py:cbeam_parallel_flange</text>
</g>
<!-- cbeam_upe&#45;&gt;profiles&#45;rolled_c&#45;beams.py:cbeam_parallel_flange -->
<g id="edge6" class="edge"><title>cbeam_upe&#45;&gt;profiles&#45;rolled_c&#45;beams.py:cbeam_parallel_flange</title>
<path fill="none" stroke="black" d="M525.671,-118.719C579.698,-104.612 652.142,-85.6961 710.119,-70.5577"/>
<polygon fill="black" stroke="black" points="711.239,-73.8829 720.03,-67.97 709.47,-67.11 711.239,-73.8829"/>
</g>
<!-- cbeam_uap -->
<g id="node3" class="node"><title>cbeam_uap</title>
<ellipse fill="none" stroke="black" cx="448" cy="-45" rx="108" ry="29"/>
<text text-anchor="middle" x="448" y="-41.4" font-family="Times Roman,serif" font-size="14.00">cbeam_uap</text>
</g>
<!-- cbeam_uap&#45;&gt;profiles&#45;rolled_c&#45;beams.py:cbeam_parallel_flange -->
<g id="edge10" class="edge"><title>cbeam_uap&#45;&gt;profiles&#45;rolled_c&#45;beams.py:cbeam_parallel_flange</title>
<path fill="none" stroke="black" d="M556.012,-45C586.7,-45 620.73,-45 653.598,-45"/>
<polygon fill="black" stroke="black" points="653.756,-48.5001 663.756,-45 653.756,-41.5001 653.756,-48.5001"/>
</g>
<!-- DIN1026&#45;2 -->
<g id="node5" class="node"><title>DIN1026&#45;2</title>
<ellipse fill="none" stroke="black" cx="124" cy="-139" rx="108" ry="29"/>
<text text-anchor="middle" x="124" y="-135.4" font-family="Times Roman,serif" font-size="14.00">DIN1026&#45;2</text>
</g>
<!-- DIN1026&#45;2&#45;&gt;cbeam_upe -->
<g id="edge8" class="edge"><title>DIN1026&#45;2&#45;&gt;cbeam_upe</title>
<path fill="none" stroke="black" d="M232.338,-139C263.545,-139 297.748,-139 329.536,-139"/>
<polygon fill="black" stroke="black" points="329.764,-142.5 339.764,-139 329.764,-135.5 329.764,-142.5"/>
</g>
<!-- NFA45&#45;255 -->
<g id="node6" class="node"><title>NFA45&#45;255</title>
<ellipse fill="none" stroke="black" cx="124" cy="-45" rx="108" ry="29"/>
<text text-anchor="middle" x="124" y="-41.4" font-family="Times Roman,serif" font-size="14.00">NFA45&#45;255</text>
</g>
<!-- NFA45&#45;255&#45;&gt;cbeam_uap -->
<g id="edge12" class="edge"><title>NFA45&#45;255&#45;&gt;cbeam_uap</title>
<path fill="none" stroke="black" d="M232.338,-45C263.545,-45 297.748,-45 329.536,-45"/>
<polygon fill="black" stroke="black" points="329.764,-48.5001 339.764,-45 329.764,-41.5001 329.764,-48.5001"/>
</g>
</g>
</svg>
