<?xml version="1.0" encoding="UTF-8" standalone="no"?>
<!DOCTYPE svg PUBLIC "-//W3C//DTD SVG 1.1//EN"
 "http://www.w3.org/Graphics/SVG/1.1/DTD/svg11.dtd">
<!-- Generated by graphviz version 2.26.3 (20100126.1600)
 -->
<!-- Title: G Pages: 1 -->
<svg width="652pt" height="500pt"
 viewBox="0.00 0.00 652.00 500.00" xmlns="http://www.w3.org/2000/svg" xmlns:xlink="http://www.w3.org/1999/xlink">
<g id="graph1" class="graph" transform="scale(1 1) rotate(0) translate(4 496)">
<title>G</title>
<polygon fill="white" stroke="white" points="-4,5 -4,-496 649,-496 649,5 -4,5"/>
<g id="graph2" class="cluster"><title>cluster_cl</title>
<polygon fill="none" stroke="black" points="8,-8 8,-484 240,-484 240,-8 8,-8"/>
<text text-anchor="middle" x="124" y="-467.4" font-family="Times Roman,serif" font-size="14.00">Classes</text>
</g>
<g id="graph4" class="cluster"><title>cluster_fcd</title>
<polygon fill="none" stroke="black" points="332,-8 332,-484 636,-484 636,-8 332,-8"/>
<text text-anchor="middle" x="484" y="-467.4" font-family="Times Roman,serif" font-size="14.00">FreeCAD</text>
</g>
<!-- tslot20x20 -->
<g id="node2" class="node"><title>tslot20x20</title>
<ellipse fill="none" stroke="black" cx="124" cy="-421" rx="108" ry="29"/>
<text text-anchor="middle" x="124" y="-417.4" font-family="Times Roman,serif" font-size="14.00">tslot20x20</text>
</g>
<!-- tslot&#45;20x20.fcstd:Fillet -->
<g id="node9" class="node"><title>tslot&#45;20x20.fcstd:Fillet</title>
<ellipse fill="none" stroke="black" cx="484" cy="-421" rx="144" ry="29"/>
<text text-anchor="middle" x="484" y="-417.4" font-family="Times Roman,serif" font-size="14.00">tslot&#45;20x20.fcstd:Fillet</text>
</g>
<!-- tslot20x20&#45;&gt;tslot&#45;20x20.fcstd:Fillet -->
<g id="edge6" class="edge"><title>tslot20x20&#45;&gt;tslot&#45;20x20.fcstd:Fillet</title>
<path fill="none" stroke="black" d="M232.012,-421C262.7,-421 296.73,-421 329.598,-421"/>
<polygon fill="black" stroke="black" points="329.756,-424.5 339.756,-421 329.756,-417.5 329.756,-424.5"/>
</g>
<!-- tslot20x20&#45;1s -->
<g id="node3" class="node"><title>tslot20x20&#45;1s</title>
<ellipse fill="none" stroke="black" cx="124" cy="-327" rx="108" ry="29"/>
<text text-anchor="middle" x="124" y="-323.4" font-family="Times Roman,serif" font-size="14.00">tslot20x20&#45;1s</text>
</g>
<!-- tslot&#45;20x20&#45;1S.fcstd:Fillet -->
<g id="node10" class="node"><title>tslot&#45;20x20&#45;1S.fcstd:Fillet</title>
<ellipse fill="none" stroke="black" cx="484" cy="-327" rx="144" ry="29"/>
<text text-anchor="middle" x="484" y="-323.4" font-family="Times Roman,serif" font-size="14.00">tslot&#45;20x20&#45;1S.fcstd:Fillet</text>
</g>
<!-- tslot20x20&#45;1s&#45;&gt;tslot&#45;20x20&#45;1S.fcstd:Fillet -->
<g id="edge8" class="edge"><title>tslot20x20&#45;1s&#45;&gt;tslot&#45;20x20&#45;1S.fcstd:Fillet</title>
<path fill="none" stroke="black" d="M232.012,-327C262.7,-327 296.73,-327 329.598,-327"/>
<polygon fill="black" stroke="black" points="329.756,-330.5 339.756,-327 329.756,-323.5 329.756,-330.5"/>
</g>
<!-- tslot20x20&#45;2s -->
<g id="node4" class="node"><title>tslot20x20&#45;2s</title>
<ellipse fill="none" stroke="black" cx="124" cy="-233" rx="108" ry="29"/>
<text text-anchor="middle" x="124" y="-229.4" font-family="Times Roman,serif" font-size="14.00">tslot20x20&#45;2s</text>
</g>
<!-- tslot&#45;20x20&#45;2S.fcstd:Fillet -->
<g id="node11" class="node"><title>tslot&#45;20x20&#45;2S.fcstd:Fillet</title>
<ellipse fill="none" stroke="black" cx="484" cy="-233" rx="144" ry="29"/>
<text text-anchor="middle" x="484" y="-229.4" font-family="Times Roman,serif" font-size="14.00">tslot&#45;20x20&#45;2S.fcstd:Fillet</text>
</g>
<!-- tslot20x20&#45;2s&#45;&gt;tslot&#45;20x20&#45;2S.fcstd:Fillet -->
<g id="edge10" class="edge"><title>tslot20x20&#45;2s&#45;&gt;tslot&#45;20x20&#45;2S.fcstd:Fillet</title>
<path fill="none" stroke="black" d="M232.012,-233C262.7,-233 296.73,-233 329.598,-233"/>
<polygon fill="black" stroke="black" points="329.756,-236.5 339.756,-233 329.756,-229.5 329.756,-236.5"/>
</g>
<!-- tslot20x20&#45;2sa -->
<g id="node5" class="node"><title>tslot20x20&#45;2sa</title>
<ellipse fill="none" stroke="black" cx="124" cy="-139" rx="108" ry="29"/>
<text text-anchor="middle" x="124" y="-135.4" font-family="Times Roman,serif" font-size="14.00">tslot20x20&#45;2sa</text>
</g>
<!-- tslot&#45;20x20&#45;2SA.fcstd:Fillet -->
<g id="node12" class="node"><title>tslot&#45;20x20&#45;2SA.fcstd:Fillet</title>
<ellipse fill="none" stroke="black" cx="484" cy="-139" rx="144" ry="29"/>
<text text-anchor="middle" x="484" y="-135.4" font-family="Times Roman,serif" font-size="14.00">tslot&#45;20x20&#45;2SA.fcstd:Fillet</text>
</g>
<!-- tslot20x20&#45;2sa&#45;&gt;tslot&#45;20x20&#45;2SA.fcstd:Fillet -->
<g id="edge12" class="edge"><title>tslot20x20&#45;2sa&#45;&gt;tslot&#45;20x20&#45;2SA.fcstd:Fillet</title>
<path fill="none" stroke="black" d="M232.012,-139C262.7,-139 296.73,-139 329.598,-139"/>
<polygon fill="black" stroke="black" points="329.756,-142.5 339.756,-139 329.756,-135.5 329.756,-142.5"/>
</g>
<!-- tslot20x20&#45;3s -->
<g id="node6" class="node"><title>tslot20x20&#45;3s</title>
<ellipse fill="none" stroke="black" cx="124" cy="-45" rx="108" ry="29"/>
<text text-anchor="middle" x="124" y="-41.4" font-family="Times Roman,serif" font-size="14.00">tslot20x20&#45;3s</text>
</g>
<!-- tslot&#45;20x20&#45;3S.fcstd:Fillet -->
<g id="node13" class="node"><title>tslot&#45;20x20&#45;3S.fcstd:Fillet</title>
<ellipse fill="none" stroke="black" cx="484" cy="-45" rx="144" ry="29"/>
<text text-anchor="middle" x="484" y="-41.4" font-family="Times Roman,serif" font-size="14.00">tslot&#45;20x20&#45;3S.fcstd:Fillet</text>
</g>
<!-- tslot20x20&#45;3s&#45;&gt;tslot&#45;20x20&#45;3S.fcstd:Fillet -->
<g id="edge14" class="edge"><title>tslot20x20&#45;3s&#45;&gt;tslot&#45;20x20&#45;3S.fcstd:Fillet</title>
<path fill="none" stroke="black" d="M232.012,-45C262.7,-45 296.73,-45 329.598,-45"/>
<polygon fill="black" stroke="black" points="329.756,-48.5001 339.756,-45 329.756,-41.5001 329.756,-48.5001"/>
</g>
</g>
</svg>
