<?xml version="1.0" encoding="UTF-8" standalone="no"?>
<!DOCTYPE svg PUBLIC "-//W3C//DTD SVG 1.1//EN"
 "http://www.w3.org/Graphics/SVG/1.1/DTD/svg11.dtd">
<!-- Generated by graphviz version 2.36.0 (20140111.2315)
 -->
<!-- Title: G Pages: 1 -->
<svg width="976pt" height="591pt"
 viewBox="0.00 0.00 976.00 591.00" xmlns="http://www.w3.org/2000/svg" xmlns:xlink="http://www.w3.org/1999/xlink">
<g id="graph0" class="graph" transform="scale(1 1) rotate(0) translate(4 587)">
<title>G</title>
<polygon fill="white" stroke="none" points="-4,4 -4,-587 972,-587 972,4 -4,4"/>
<g id="clust1" class="cluster"><title>cluster_cl</title>
<polygon fill="none" stroke="black" points="332,-8 332,-575 564,-575 564,-8 332,-8"/>
<text text-anchor="middle" x="448" y="-559.8" font-family="Times,serif" font-size="14.00">Classes</text>
</g>
<g id="clust2" class="cluster"><title>cluster_std</title>
<polygon fill="none" stroke="black" points="8,-102 8,-387 240,-387 240,-102 8,-102"/>
<text text-anchor="middle" x="124" y="-371.8" font-family="Times,serif" font-size="14.00">Standards</text>
</g>
<g id="clust3" class="cluster"><title>cluster_fcd</title>
<polygon fill="none" stroke="black" points="656,-149 656,-434 960,-434 960,-149 656,-149"/>
<text text-anchor="middle" x="808" y="-418.8" font-family="Times,serif" font-size="14.00">FreeCAD</text>
</g>
<!-- generic_circle_hollow -->
<g id="node1" class="node"><title>generic_circle_hollow</title>
<ellipse fill="none" stroke="black" cx="448" cy="-515" rx="108" ry="29"/>
<text text-anchor="middle" x="448" y="-511.3" font-family="Times,serif" font-size="14.00">generic_circle_hollow</text>
</g>
<!-- profiles&#45;hot_finished&#45;hollow.py:circle_hollow -->
<g id="node10" class="node"><title>profiles&#45;hot_finished&#45;hollow.py:circle_hollow</title>
<ellipse fill="none" stroke="black" cx="808" cy="-374" rx="144" ry="29"/>
<text text-anchor="middle" x="808" y="-370.3" font-family="Times,serif" font-size="14.00">profiles&#45;hot_finished&#45;hollow.py:circle_hollow</text>
</g>
<!-- generic_circle_hollow&#45;&gt;profiles&#45;hot_finished&#45;hollow.py:circle_hollow -->
<g id="edge1" class="edge"><title>generic_circle_hollow&#45;&gt;profiles&#45;hot_finished&#45;hollow.py:circle_hollow</title>
<path fill="none" stroke="black" d="M508.921,-491.4C570.485,-467.152 666.443,-429.359 732.776,-403.234"/>
<polygon fill="black" stroke="black" points="734.318,-406.388 742.34,-399.467 731.753,-399.875 734.318,-406.388"/>
</g>
<!-- generic_square_hollow -->
<g id="node2" class="node"><title>generic_square_hollow</title>
<ellipse fill="none" stroke="black" cx="448" cy="-327" rx="108" ry="29"/>
<text text-anchor="middle" x="448" y="-323.3" font-family="Times,serif" font-size="14.00">generic_square_hollow</text>
</g>
<!-- profiles&#45;hot_finished&#45;hollow.py:square_hollow -->
<g id="node11" class="node"><title>profiles&#45;hot_finished&#45;hollow.py:square_hollow</title>
<ellipse fill="none" stroke="black" cx="808" cy="-280" rx="144" ry="29"/>
<text text-anchor="middle" x="808" y="-276.3" font-family="Times,serif" font-size="14.00">profiles&#45;hot_finished&#45;hollow.py:square_hollow</text>
</g>
<!-- generic_square_hollow&#45;&gt;profiles&#45;hot_finished&#45;hollow.py:square_hollow -->
<g id="edge2" class="edge"><title>generic_square_hollow&#45;&gt;profiles&#45;hot_finished&#45;hollow.py:square_hollow</title>
<path fill="none" stroke="black" d="M544.937,-314.405C585.577,-309.069 633.556,-302.771 677.281,-297.03"/>
<polygon fill="black" stroke="black" points="677.957,-300.472 687.416,-295.7 677.045,-293.531 677.957,-300.472"/>
</g>
<!-- generic_rectangular_hollow -->
<g id="node3" class="node"><title>generic_rectangular_hollow</title>
<ellipse fill="none" stroke="black" cx="448" cy="-139" rx="108" ry="29"/>
<text text-anchor="middle" x="448" y="-135.3" font-family="Times,serif" font-size="14.00">generic_rectangular_hollow</text>
</g>
<!-- profiles&#45;hot_finished&#45;hollow.py:rectangle_hollow -->
<g id="node12" class="node"><title>profiles&#45;hot_finished&#45;hollow.py:rectangle_hollow</title>
<ellipse fill="none" stroke="black" cx="808" cy="-186" rx="144" ry="29"/>
<text text-anchor="middle" x="808" y="-182.3" font-family="Times,serif" font-size="14.00">profiles&#45;hot_finished&#45;hollow.py:rectangle_hollow</text>
</g>
<!-- generic_rectangular_hollow&#45;&gt;profiles&#45;hot_finished&#45;hollow.py:rectangle_hollow -->
<g id="edge3" class="edge"><title>generic_rectangular_hollow&#45;&gt;profiles&#45;hot_finished&#45;hollow.py:rectangle_hollow</title>
<path fill="none" stroke="black" d="M544.937,-151.595C585.577,-156.931 633.556,-163.229 677.281,-168.97"/>
<polygon fill="black" stroke="black" points="677.045,-172.469 687.416,-170.3 677.957,-165.528 677.045,-172.469"/>
</g>
<!-- circle_hollow -->
<g id="node4" class="node"><title>circle_hollow</title>
<ellipse fill="none" stroke="black" cx="448" cy="-421" rx="108" ry="29"/>
<text text-anchor="middle" x="448" y="-417.3" font-family="Times,serif" font-size="14.00">circle_hollow</text>
</g>
<!-- circle_hollow&#45;&gt;profiles&#45;hot_finished&#45;hollow.py:circle_hollow -->
<g id="edge4" class="edge"><title>circle_hollow&#45;&gt;profiles&#45;hot_finished&#45;hollow.py:circle_hollow</title>
<path fill="none" stroke="black" d="M544.937,-408.405C585.577,-403.069 633.556,-396.771 677.281,-391.03"/>
<polygon fill="black" stroke="black" points="677.957,-394.472 687.416,-389.7 677.045,-387.531 677.957,-394.472"/>
</g>
<!-- square_hollow -->
<g id="node5" class="node"><title>square_hollow</title>
<ellipse fill="none" stroke="black" cx="448" cy="-233" rx="108" ry="29"/>
<text text-anchor="middle" x="448" y="-229.3" font-family="Times,serif" font-size="14.00">square_hollow</text>
</g>
<!-- square_hollow&#45;&gt;profiles&#45;hot_finished&#45;hollow.py:square_hollow -->
<g id="edge6" class="edge"><title>square_hollow&#45;&gt;profiles&#45;hot_finished&#45;hollow.py:square_hollow</title>
<path fill="none" stroke="black" d="M544.937,-245.595C585.577,-250.931 633.556,-257.229 677.281,-262.97"/>
<polygon fill="black" stroke="black" points="677.045,-266.469 687.416,-264.3 677.957,-259.528 677.045,-266.469"/>
</g>
<!-- rectangular_hollow -->
<g id="node6" class="node"><title>rectangular_hollow</title>
<ellipse fill="none" stroke="black" cx="448" cy="-45" rx="108" ry="29"/>
<text text-anchor="middle" x="448" y="-41.3" font-family="Times,serif" font-size="14.00">rectangular_hollow</text>
</g>
<!-- rectangular_hollow&#45;&gt;profiles&#45;hot_finished&#45;hollow.py:rectangle_hollow -->
<g id="edge8" class="edge"><title>rectangular_hollow&#45;&gt;profiles&#45;hot_finished&#45;hollow.py:rectangle_hollow</title>
<path fill="none" stroke="black" d="M508.921,-68.6002C570.485,-92.8476 666.443,-130.641 732.776,-156.766"/>
<polygon fill="black" stroke="black" points="731.753,-160.125 742.34,-160.533 734.318,-153.612 731.753,-160.125"/>
</g>
<!-- EN 10210&#45;2 circular -->
<g id="node7" class="node"><title>EN 10210&#45;2 circular</title>
<ellipse fill="none" stroke="black" cx="124" cy="-327" rx="108" ry="29"/>
<text text-anchor="middle" x="124" y="-323.3" font-family="Times,serif" font-size="14.00">EN 10210&#45;2 circular</text>
</g>
<!-- EN 10210&#45;2 circular&#45;&gt;circle_hollow -->
<g id="edge5" class="edge"><title>EN 10210&#45;2 circular&#45;&gt;circle_hollow</title>
<path fill="none" stroke="black" d="M197.263,-348.095C247.083,-362.639 313.389,-381.996 365.158,-397.108"/>
<polygon fill="black" stroke="black" points="364.398,-400.532 374.978,-399.975 366.36,-393.813 364.398,-400.532"/>
</g>
<!-- EN 10210&#45;2 square -->
<g id="node8" class="node"><title>EN 10210&#45;2 square</title>
<ellipse fill="none" stroke="black" cx="124" cy="-233" rx="108" ry="29"/>
<text text-anchor="middle" x="124" y="-229.3" font-family="Times,serif" font-size="14.00">EN 10210&#45;2 square</text>
</g>
<!-- EN 10210&#45;2 square&#45;&gt;square_hollow -->
<g id="edge7" class="edge"><title>EN 10210&#45;2 square&#45;&gt;square_hollow</title>
<path fill="none" stroke="black" d="M232.221,-233C263.505,-233 297.848,-233 329.719,-233"/>
<polygon fill="black" stroke="black" points="329.973,-236.5 339.973,-233 329.973,-229.5 329.973,-236.5"/>
</g>
<!-- EN 10210&#45;2 rectangular -->
<g id="node9" class="node"><title>EN 10210&#45;2 rectangular</title>
<ellipse fill="none" stroke="black" cx="124" cy="-139" rx="108" ry="29"/>
<text text-anchor="middle" x="124" y="-135.3" font-family="Times,serif" font-size="14.00">EN 10210&#45;2 rectangular</text>
</g>
<!-- EN 10210&#45;2 rectangular&#45;&gt;rectangular_hollow -->
<g id="edge9" class="edge"><title>EN 10210&#45;2 rectangular&#45;&gt;rectangular_hollow</title>
<path fill="none" stroke="black" d="M197.263,-117.905C247.083,-103.361 313.389,-84.0045 365.158,-68.8917"/>
<polygon fill="black" stroke="black" points="366.36,-72.1872 374.978,-66.025 364.398,-65.4676 366.36,-72.1872"/>
</g>
</g>
</svg>
