<?xml version="1.0" encoding="UTF-8" standalone="no"?>
<!DOCTYPE svg PUBLIC "-//W3C//DTD SVG 1.1//EN"
 "http://www.w3.org/Graphics/SVG/1.1/DTD/svg11.dtd">
<!-- Generated by graphviz version 2.26.3 (20100126.1600)
 -->
<!-- Title: G Pages: 1 -->
<svg width="652pt" height="984pt"
 viewBox="0.00 0.00 652.00 984.00" xmlns="http://www.w3.org/2000/svg" xmlns:xlink="http://www.w3.org/1999/xlink">
<g id="graph1" class="graph" transform="scale(1 1) rotate(0) translate(4 980)">
<title>G</title>
<polygon fill="white" stroke="white" points="-4,5 -4,-980 649,-980 649,5 -4,5"/>
<g id="graph2" class="cluster"><title>cluster_cl</title>
<polygon fill="none" stroke="black" points="8,-250 8,-726 240,-726 240,-250 8,-250"/>
<text text-anchor="middle" x="124" y="-709.4" font-family="Times Roman,serif" font-size="14.00">Classes</text>
</g>
<g id="graph4" class="cluster"><title>cluster_fcd</title>
<polygon fill="none" stroke="black" points="332,-492 332,-968 636,-968 636,-492 332,-492"/>
<text text-anchor="middle" x="484" y="-951.4" font-family="Times Roman,serif" font-size="14.00">FreeCAD</text>
</g>
<g id="graph5" class="cluster"><title>cluster_ocd</title>
<polygon fill="none" stroke="black" points="332,-8 332,-484 636,-484 636,-8 332,-8"/>
<text text-anchor="middle" x="484" y="-467.4" font-family="Times Roman,serif" font-size="14.00">OpenSCAD</text>
</g>
<!-- tslot20x20 -->
<g id="node2" class="node"><title>tslot20x20</title>
<ellipse fill="none" stroke="black" cx="124" cy="-663" rx="108" ry="29"/>
<text text-anchor="middle" x="124" y="-659.4" font-family="Times Roman,serif" font-size="14.00">tslot20x20</text>
</g>
<!-- tslot&#45;20x20.fcstd:Fillet -->
<g id="node9" class="node"><title>tslot&#45;20x20.fcstd:Fillet</title>
<ellipse fill="none" stroke="black" cx="484" cy="-905" rx="144" ry="29"/>
<text text-anchor="middle" x="484" y="-901.4" font-family="Times Roman,serif" font-size="14.00">tslot&#45;20x20.fcstd:Fillet</text>
</g>
<!-- tslot20x20&#45;&gt;tslot&#45;20x20.fcstd:Fillet -->
<g id="edge6" class="edge"><title>tslot20x20&#45;&gt;tslot&#45;20x20.fcstd:Fillet</title>
<path fill="none" stroke="black" d="M153.801,-690.939C211.315,-744.858 332,-858 332,-858 332,-858 362.02,-867.283 395.378,-877.597"/>
<polygon fill="black" stroke="black" points="394.741,-881.064 405.329,-880.674 396.809,-874.376 394.741,-881.064"/>
</g>
<!-- aluminiumProfiles.scad:tslot_20x20_base -->
<g id="node15" class="node"><title>aluminiumProfiles.scad:tslot_20x20_base</title>
<ellipse fill="none" stroke="black" cx="484" cy="-421" rx="144" ry="29"/>
<text text-anchor="middle" x="484" y="-417.4" font-family="Times Roman,serif" font-size="14.00">aluminiumProfiles.scad:tslot_20x20_base</text>
</g>
<!-- tslot20x20&#45;&gt;aluminiumProfiles.scad:tslot_20x20_base -->
<g id="edge8" class="edge"><title>tslot20x20&#45;&gt;aluminiumProfiles.scad:tslot_20x20_base</title>
<path fill="none" stroke="black" d="M183.699,-638.812C212.122,-627.295 240,-616 240,-616 240,-616 332,-483 332,-483 332,-483 371.801,-466.765 410.67,-450.911"/>
<polygon fill="black" stroke="black" points="412.041,-454.132 419.979,-447.114 409.398,-447.65 412.041,-454.132"/>
</g>
<!-- tslot20x20&#45;1s -->
<g id="node3" class="node"><title>tslot20x20&#45;1s</title>
<ellipse fill="none" stroke="black" cx="124" cy="-569" rx="108" ry="29"/>
<text text-anchor="middle" x="124" y="-565.4" font-family="Times Roman,serif" font-size="14.00">tslot20x20&#45;1s</text>
</g>
<!-- tslot&#45;20x20&#45;1S.fcstd:Fillet -->
<g id="node10" class="node"><title>tslot&#45;20x20&#45;1S.fcstd:Fillet</title>
<ellipse fill="none" stroke="black" cx="484" cy="-811" rx="144" ry="29"/>
<text text-anchor="middle" x="484" y="-807.4" font-family="Times Roman,serif" font-size="14.00">tslot&#45;20x20&#45;1S.fcstd:Fillet</text>
</g>
<!-- tslot20x20&#45;1s&#45;&gt;tslot&#45;20x20&#45;1S.fcstd:Fillet -->
<g id="edge10" class="edge"><title>tslot20x20&#45;1s&#45;&gt;tslot&#45;20x20&#45;1S.fcstd:Fillet</title>
<path fill="none" stroke="black" d="M183.699,-593.188C212.122,-604.705 240,-616 240,-616 240,-616 332,-764 332,-764 332,-764 362.02,-773.283 395.378,-783.597"/>
<polygon fill="black" stroke="black" points="394.741,-787.064 405.329,-786.674 396.809,-780.376 394.741,-787.064"/>
</g>
<!-- aluminiumProfiles.scad:tslot_20x20_1s_base -->
<g id="node16" class="node"><title>aluminiumProfiles.scad:tslot_20x20_1s_base</title>
<ellipse fill="none" stroke="black" cx="484" cy="-327" rx="144" ry="29"/>
<text text-anchor="middle" x="484" y="-323.4" font-family="Times Roman,serif" font-size="14.00">aluminiumProfiles.scad:tslot_20x20_1s_base</text>
</g>
<!-- tslot20x20&#45;1s&#45;&gt;aluminiumProfiles.scad:tslot_20x20_1s_base -->
<g id="edge12" class="edge"><title>tslot20x20&#45;1s&#45;&gt;aluminiumProfiles.scad:tslot_20x20_1s_base</title>
<path fill="none" stroke="black" d="M183.699,-544.812C212.122,-533.295 240,-522 240,-522 240,-522 332,-374 332,-374 332,-374 362.02,-364.717 395.378,-354.403"/>
<polygon fill="black" stroke="black" points="396.809,-357.624 405.329,-351.326 394.741,-350.936 396.809,-357.624"/>
</g>
<!-- tslot20x20&#45;2s -->
<g id="node4" class="node"><title>tslot20x20&#45;2s</title>
<ellipse fill="none" stroke="black" cx="124" cy="-475" rx="108" ry="29"/>
<text text-anchor="middle" x="124" y="-471.4" font-family="Times Roman,serif" font-size="14.00">tslot20x20&#45;2s</text>
</g>
<!-- tslot&#45;20x20&#45;2S.fcstd:Fillet -->
<g id="node11" class="node"><title>tslot&#45;20x20&#45;2S.fcstd:Fillet</title>
<ellipse fill="none" stroke="black" cx="484" cy="-717" rx="144" ry="29"/>
<text text-anchor="middle" x="484" y="-713.4" font-family="Times Roman,serif" font-size="14.00">tslot&#45;20x20&#45;2S.fcstd:Fillet</text>
</g>
<!-- tslot20x20&#45;2s&#45;&gt;tslot&#45;20x20&#45;2S.fcstd:Fillet -->
<g id="edge14" class="edge"><title>tslot20x20&#45;2s&#45;&gt;tslot&#45;20x20&#45;2S.fcstd:Fillet</title>
<path fill="none" stroke="black" d="M183.699,-499.188C212.122,-510.705 240,-522 240,-522 240,-522 332,-670 332,-670 332,-670 362.02,-679.283 395.378,-689.597"/>
<polygon fill="black" stroke="black" points="394.741,-693.064 405.329,-692.674 396.809,-686.376 394.741,-693.064"/>
</g>
<!-- aluminiumProfiles.scad:tslot_20x20_2s_base -->
<g id="node17" class="node"><title>aluminiumProfiles.scad:tslot_20x20_2s_base</title>
<ellipse fill="none" stroke="black" cx="484" cy="-233" rx="144" ry="29"/>
<text text-anchor="middle" x="484" y="-229.4" font-family="Times Roman,serif" font-size="14.00">aluminiumProfiles.scad:tslot_20x20_2s_base</text>
</g>
<!-- tslot20x20&#45;2s&#45;&gt;aluminiumProfiles.scad:tslot_20x20_2s_base -->
<g id="edge16" class="edge"><title>tslot20x20&#45;2s&#45;&gt;aluminiumProfiles.scad:tslot_20x20_2s_base</title>
<path fill="none" stroke="black" d="M183.699,-450.812C212.122,-439.295 240,-428 240,-428 240,-428 332,-280 332,-280 332,-280 362.02,-270.717 395.378,-260.403"/>
<polygon fill="black" stroke="black" points="396.809,-263.624 405.329,-257.326 394.741,-256.936 396.809,-263.624"/>
</g>
<!-- tslot20x20&#45;2sa -->
<g id="node5" class="node"><title>tslot20x20&#45;2sa</title>
<ellipse fill="none" stroke="black" cx="124" cy="-381" rx="108" ry="29"/>
<text text-anchor="middle" x="124" y="-377.4" font-family="Times Roman,serif" font-size="14.00">tslot20x20&#45;2sa</text>
</g>
<!-- tslot&#45;20x20&#45;2SA.fcstd:Fillet -->
<g id="node12" class="node"><title>tslot&#45;20x20&#45;2SA.fcstd:Fillet</title>
<ellipse fill="none" stroke="black" cx="484" cy="-623" rx="144" ry="29"/>
<text text-anchor="middle" x="484" y="-619.4" font-family="Times Roman,serif" font-size="14.00">tslot&#45;20x20&#45;2SA.fcstd:Fillet</text>
</g>
<!-- tslot20x20&#45;2sa&#45;&gt;tslot&#45;20x20&#45;2SA.fcstd:Fillet -->
<g id="edge18" class="edge"><title>tslot20x20&#45;2sa&#45;&gt;tslot&#45;20x20&#45;2SA.fcstd:Fillet</title>
<path fill="none" stroke="black" d="M183.699,-405.188C212.122,-416.705 240,-428 240,-428 240,-428 332,-576 332,-576 332,-576 362.02,-585.283 395.378,-595.597"/>
<polygon fill="black" stroke="black" points="394.741,-599.064 405.329,-598.674 396.809,-592.376 394.741,-599.064"/>
</g>
<!-- aluminiumProfiles.scad:tslot_20x20_2sa_base -->
<g id="node18" class="node"><title>aluminiumProfiles.scad:tslot_20x20_2sa_base</title>
<ellipse fill="none" stroke="black" cx="484" cy="-139" rx="144" ry="29"/>
<text text-anchor="middle" x="484" y="-135.4" font-family="Times Roman,serif" font-size="14.00">aluminiumProfiles.scad:tslot_20x20_2sa_base</text>
</g>
<!-- tslot20x20&#45;2sa&#45;&gt;aluminiumProfiles.scad:tslot_20x20_2sa_base -->
<g id="edge20" class="edge"><title>tslot20x20&#45;2sa&#45;&gt;aluminiumProfiles.scad:tslot_20x20_2sa_base</title>
<path fill="none" stroke="black" d="M183.699,-356.812C212.122,-345.295 240,-334 240,-334 240,-334 332,-186 332,-186 332,-186 362.02,-176.717 395.378,-166.403"/>
<polygon fill="black" stroke="black" points="396.809,-169.624 405.329,-163.326 394.741,-162.936 396.809,-169.624"/>
</g>
<!-- tslot20x20&#45;3s -->
<g id="node6" class="node"><title>tslot20x20&#45;3s</title>
<ellipse fill="none" stroke="black" cx="124" cy="-287" rx="108" ry="29"/>
<text text-anchor="middle" x="124" y="-283.4" font-family="Times Roman,serif" font-size="14.00">tslot20x20&#45;3s</text>
</g>
<!-- tslot&#45;20x20&#45;3S.fcstd:Fillet -->
<g id="node13" class="node"><title>tslot&#45;20x20&#45;3S.fcstd:Fillet</title>
<ellipse fill="none" stroke="black" cx="484" cy="-529" rx="144" ry="29"/>
<text text-anchor="middle" x="484" y="-525.4" font-family="Times Roman,serif" font-size="14.00">tslot&#45;20x20&#45;3S.fcstd:Fillet</text>
</g>
<!-- tslot20x20&#45;3s&#45;&gt;tslot&#45;20x20&#45;3S.fcstd:Fillet -->
<g id="edge22" class="edge"><title>tslot20x20&#45;3s&#45;&gt;tslot&#45;20x20&#45;3S.fcstd:Fillet</title>
<path fill="none" stroke="black" d="M183.699,-311.188C212.122,-322.705 240,-334 240,-334 240,-334 332,-493 332,-493 332,-493 353.459,-498.082 380.25,-504.428"/>
<polygon fill="black" stroke="black" points="379.795,-507.917 390.332,-506.816 381.408,-501.105 379.795,-507.917"/>
</g>
<!-- aluminiumProfiles.scad:tslot_20x20_3s_base -->
<g id="node19" class="node"><title>aluminiumProfiles.scad:tslot_20x20_3s_base</title>
<ellipse fill="none" stroke="black" cx="484" cy="-45" rx="144" ry="29"/>
<text text-anchor="middle" x="484" y="-41.4" font-family="Times Roman,serif" font-size="14.00">aluminiumProfiles.scad:tslot_20x20_3s_base</text>
</g>
<!-- tslot20x20&#45;3s&#45;&gt;aluminiumProfiles.scad:tslot_20x20_3s_base -->
<g id="edge24" class="edge"><title>tslot20x20&#45;3s&#45;&gt;aluminiumProfiles.scad:tslot_20x20_3s_base</title>
<path fill="none" stroke="black" d="M153.801,-259.061C211.315,-205.142 332,-92 332,-92 332,-92 362.02,-82.7174 395.378,-72.4028"/>
<polygon fill="black" stroke="black" points="396.809,-75.624 405.329,-69.326 394.741,-68.9364 396.809,-75.624"/>
</g>
</g>
</svg>
