<?xml version="1.0" encoding="UTF-8" standalone="no"?>
<!DOCTYPE svg PUBLIC "-//W3C//DTD SVG 1.1//EN"
 "http://www.w3.org/Graphics/SVG/1.1/DTD/svg11.dtd">
<!-- Generated by graphviz version 2.36.0 (20140111.2315)
 -->
<!-- Title: G Pages: 1 -->
<svg width="652pt" height="1166pt"
 viewBox="0.00 0.00 652.00 1166.00" xmlns="http://www.w3.org/2000/svg" xmlns:xlink="http://www.w3.org/1999/xlink">
<g id="graph0" class="graph" transform="scale(1 1) rotate(0) translate(4 1162)">
<title>G</title>
<polygon fill="white" stroke="none" points="-4,4 -4,-1162 648,-1162 648,4 -4,4"/>
<g id="clust1" class="cluster"><title>cluster_cl</title>
<polygon fill="none" stroke="black" points="8,-8 8,-1139 240,-1139 240,-8 8,-8"/>
<text text-anchor="middle" x="124" y="-1123.8" font-family="Times,serif" font-size="14.00">Classes</text>
</g>
<g id="clust3" class="cluster"><title>cluster_fcd</title>
<polygon fill="none" stroke="black" points="332,-8 332,-669 636,-669 636,-8 332,-8"/>
<text text-anchor="middle" x="484" y="-653.8" font-family="Times,serif" font-size="14.00">FreeCAD</text>
</g>
<g id="clust4" class="cluster"><title>cluster_ocd</title>
<polygon fill="none" stroke="black" points="332,-677 332,-1150 636,-1150 636,-677 332,-677"/>
<text text-anchor="middle" x="484" y="-1134.8" font-family="Times,serif" font-size="14.00">OpenSCAD</text>
</g>
<!-- tslot20x20 -->
<g id="node1" class="node"><title>tslot20x20</title>
<ellipse fill="none" stroke="black" cx="124" cy="-1079" rx="108" ry="29"/>
<text text-anchor="middle" x="124" y="-1075.3" font-family="Times,serif" font-size="14.00">tslot20x20</text>
</g>
<!-- aluminiumProfiles.scad:tslot_20x20_base -->
<g id="node20" class="node"><title>aluminiumProfiles.scad:tslot_20x20_base</title>
<ellipse fill="none" stroke="black" cx="484" cy="-1090" rx="144" ry="29"/>
<text text-anchor="middle" x="484" y="-1086.3" font-family="Times,serif" font-size="14.00">aluminiumProfiles.scad:tslot_20x20_base</text>
</g>
<!-- tslot20x20&#45;&gt;aluminiumProfiles.scad:tslot_20x20_base -->
<g id="edge1" class="edge"><title>tslot20x20&#45;&gt;aluminiumProfiles.scad:tslot_20x20_base</title>
<path fill="none" stroke="black" d="M231.443,-1082.27C262.729,-1083.23 297.576,-1084.3 331.122,-1085.33"/>
<polygon fill="black" stroke="black" points="331.383,-1088.84 341.486,-1085.65 331.598,-1081.85 331.383,-1088.84"/>
</g>
<!-- tslot20x20&#45;1s -->
<g id="node2" class="node"><title>tslot20x20&#45;1s</title>
<ellipse fill="none" stroke="black" cx="124" cy="-985" rx="108" ry="29"/>
<text text-anchor="middle" x="124" y="-981.3" font-family="Times,serif" font-size="14.00">tslot20x20&#45;1s</text>
</g>
<!-- aluminiumProfiles.scad:tslot_20x20_1s_base -->
<g id="node21" class="node"><title>aluminiumProfiles.scad:tslot_20x20_1s_base</title>
<ellipse fill="none" stroke="black" cx="484" cy="-996" rx="144" ry="29"/>
<text text-anchor="middle" x="484" y="-992.3" font-family="Times,serif" font-size="14.00">aluminiumProfiles.scad:tslot_20x20_1s_base</text>
</g>
<!-- tslot20x20&#45;1s&#45;&gt;aluminiumProfiles.scad:tslot_20x20_1s_base -->
<g id="edge2" class="edge"><title>tslot20x20&#45;1s&#45;&gt;aluminiumProfiles.scad:tslot_20x20_1s_base</title>
<path fill="none" stroke="black" d="M231.443,-988.271C262.729,-989.232 297.576,-990.303 331.122,-991.333"/>
<polygon fill="black" stroke="black" points="331.383,-994.843 341.486,-991.652 331.598,-987.846 331.383,-994.843"/>
</g>
<!-- tslot20x20&#45;2s -->
<g id="node3" class="node"><title>tslot20x20&#45;2s</title>
<ellipse fill="none" stroke="black" cx="124" cy="-891" rx="108" ry="29"/>
<text text-anchor="middle" x="124" y="-887.3" font-family="Times,serif" font-size="14.00">tslot20x20&#45;2s</text>
</g>
<!-- aluminiumProfiles.scad:tslot_20x20_2s_base -->
<g id="node22" class="node"><title>aluminiumProfiles.scad:tslot_20x20_2s_base</title>
<ellipse fill="none" stroke="black" cx="484" cy="-902" rx="144" ry="29"/>
<text text-anchor="middle" x="484" y="-898.3" font-family="Times,serif" font-size="14.00">aluminiumProfiles.scad:tslot_20x20_2s_base</text>
</g>
<!-- tslot20x20&#45;2s&#45;&gt;aluminiumProfiles.scad:tslot_20x20_2s_base -->
<g id="edge3" class="edge"><title>tslot20x20&#45;2s&#45;&gt;aluminiumProfiles.scad:tslot_20x20_2s_base</title>
<path fill="none" stroke="black" d="M231.443,-894.271C262.729,-895.232 297.576,-896.303 331.122,-897.333"/>
<polygon fill="black" stroke="black" points="331.383,-900.843 341.486,-897.652 331.598,-893.846 331.383,-900.843"/>
</g>
<!-- tslot20x20&#45;2sa -->
<g id="node4" class="node"><title>tslot20x20&#45;2sa</title>
<ellipse fill="none" stroke="black" cx="124" cy="-797" rx="108" ry="29"/>
<text text-anchor="middle" x="124" y="-793.3" font-family="Times,serif" font-size="14.00">tslot20x20&#45;2sa</text>
</g>
<!-- aluminiumProfiles.scad:tslot_20x20_2sa_base -->
<g id="node23" class="node"><title>aluminiumProfiles.scad:tslot_20x20_2sa_base</title>
<ellipse fill="none" stroke="black" cx="484" cy="-808" rx="144" ry="29"/>
<text text-anchor="middle" x="484" y="-804.3" font-family="Times,serif" font-size="14.00">aluminiumProfiles.scad:tslot_20x20_2sa_base</text>
</g>
<!-- tslot20x20&#45;2sa&#45;&gt;aluminiumProfiles.scad:tslot_20x20_2sa_base -->
<g id="edge4" class="edge"><title>tslot20x20&#45;2sa&#45;&gt;aluminiumProfiles.scad:tslot_20x20_2sa_base</title>
<path fill="none" stroke="black" d="M231.443,-800.271C262.729,-801.232 297.576,-802.303 331.122,-803.333"/>
<polygon fill="black" stroke="black" points="331.383,-806.843 341.486,-803.652 331.598,-799.846 331.383,-806.843"/>
</g>
<!-- tslot20x20&#45;3s -->
<g id="node5" class="node"><title>tslot20x20&#45;3s</title>
<ellipse fill="none" stroke="black" cx="124" cy="-703" rx="108" ry="29"/>
<text text-anchor="middle" x="124" y="-699.3" font-family="Times,serif" font-size="14.00">tslot20x20&#45;3s</text>
</g>
<!-- aluminiumProfiles.scad:tslot_20x20_3s_base -->
<g id="node24" class="node"><title>aluminiumProfiles.scad:tslot_20x20_3s_base</title>
<ellipse fill="none" stroke="black" cx="484" cy="-714" rx="144" ry="29"/>
<text text-anchor="middle" x="484" y="-710.3" font-family="Times,serif" font-size="14.00">aluminiumProfiles.scad:tslot_20x20_3s_base</text>
</g>
<!-- tslot20x20&#45;3s&#45;&gt;aluminiumProfiles.scad:tslot_20x20_3s_base -->
<g id="edge5" class="edge"><title>tslot20x20&#45;3s&#45;&gt;aluminiumProfiles.scad:tslot_20x20_3s_base</title>
<path fill="none" stroke="black" d="M231.443,-706.271C262.729,-707.232 297.576,-708.303 331.122,-709.333"/>
<polygon fill="black" stroke="black" points="331.383,-712.843 341.486,-709.652 331.598,-705.846 331.383,-712.843"/>
</g>
<!-- vslot20x20 -->
<g id="node6" class="node"><title>vslot20x20</title>
<ellipse fill="none" stroke="black" cx="124" cy="-609" rx="108" ry="29"/>
<text text-anchor="middle" x="124" y="-605.3" font-family="Times,serif" font-size="14.00">vslot20x20</text>
</g>
<!-- profiles.py:vslot20x20 -->
<g id="node13" class="node"><title>profiles.py:vslot20x20</title>
<ellipse fill="none" stroke="black" cx="484" cy="-609" rx="144" ry="29"/>
<text text-anchor="middle" x="484" y="-605.3" font-family="Times,serif" font-size="14.00">profiles.py:vslot20x20</text>
</g>
<!-- vslot20x20&#45;&gt;profiles.py:vslot20x20 -->
<g id="edge6" class="edge"><title>vslot20x20&#45;&gt;profiles.py:vslot20x20</title>
<path fill="none" stroke="black" d="M232.412,-609C263.022,-609 296.977,-609 329.755,-609"/>
<polygon fill="black" stroke="black" points="329.885,-612.5 339.885,-609 329.885,-605.5 329.885,-612.5"/>
</g>
<!-- vslot20x40 -->
<g id="node7" class="node"><title>vslot20x40</title>
<ellipse fill="none" stroke="black" cx="124" cy="-515" rx="108" ry="29"/>
<text text-anchor="middle" x="124" y="-511.3" font-family="Times,serif" font-size="14.00">vslot20x40</text>
</g>
<!-- profiles.py:vslot20x40 -->
<g id="node14" class="node"><title>profiles.py:vslot20x40</title>
<ellipse fill="none" stroke="black" cx="484" cy="-515" rx="144" ry="29"/>
<text text-anchor="middle" x="484" y="-511.3" font-family="Times,serif" font-size="14.00">profiles.py:vslot20x40</text>
</g>
<!-- vslot20x40&#45;&gt;profiles.py:vslot20x40 -->
<g id="edge7" class="edge"><title>vslot20x40&#45;&gt;profiles.py:vslot20x40</title>
<path fill="none" stroke="black" d="M232.412,-515C263.022,-515 296.977,-515 329.755,-515"/>
<polygon fill="black" stroke="black" points="329.885,-518.5 339.885,-515 329.885,-511.5 329.885,-518.5"/>
</g>
<!-- vslot20x60 -->
<g id="node8" class="node"><title>vslot20x60</title>
<ellipse fill="none" stroke="black" cx="124" cy="-421" rx="108" ry="29"/>
<text text-anchor="middle" x="124" y="-417.3" font-family="Times,serif" font-size="14.00">vslot20x60</text>
</g>
<!-- profiles.py:vslot20x60 -->
<g id="node15" class="node"><title>profiles.py:vslot20x60</title>
<ellipse fill="none" stroke="black" cx="484" cy="-421" rx="144" ry="29"/>
<text text-anchor="middle" x="484" y="-417.3" font-family="Times,serif" font-size="14.00">profiles.py:vslot20x60</text>
</g>
<!-- vslot20x60&#45;&gt;profiles.py:vslot20x60 -->
<g id="edge8" class="edge"><title>vslot20x60&#45;&gt;profiles.py:vslot20x60</title>
<path fill="none" stroke="black" d="M232.412,-421C263.022,-421 296.977,-421 329.755,-421"/>
<polygon fill="black" stroke="black" points="329.885,-424.5 339.885,-421 329.885,-417.5 329.885,-424.5"/>
</g>
<!-- vslot20x80 -->
<g id="node9" class="node"><title>vslot20x80</title>
<ellipse fill="none" stroke="black" cx="124" cy="-327" rx="108" ry="29"/>
<text text-anchor="middle" x="124" y="-323.3" font-family="Times,serif" font-size="14.00">vslot20x80</text>
</g>
<!-- profiles.py:vslot20x80 -->
<g id="node16" class="node"><title>profiles.py:vslot20x80</title>
<ellipse fill="none" stroke="black" cx="484" cy="-327" rx="144" ry="29"/>
<text text-anchor="middle" x="484" y="-323.3" font-family="Times,serif" font-size="14.00">profiles.py:vslot20x80</text>
</g>
<!-- vslot20x80&#45;&gt;profiles.py:vslot20x80 -->
<g id="edge9" class="edge"><title>vslot20x80&#45;&gt;profiles.py:vslot20x80</title>
<path fill="none" stroke="black" d="M232.412,-327C263.022,-327 296.977,-327 329.755,-327"/>
<polygon fill="black" stroke="black" points="329.885,-330.5 339.885,-327 329.885,-323.5 329.885,-330.5"/>
</g>
<!-- openbuildsdualvwheel -->
<g id="node10" class="node"><title>openbuildsdualvwheel</title>
<ellipse fill="none" stroke="black" cx="124" cy="-233" rx="108" ry="29"/>
<text text-anchor="middle" x="124" y="-229.3" font-family="Times,serif" font-size="14.00">openbuildsdualvwheel</text>
</g>
<!-- wheels.py:dualvwheel -->
<g id="node17" class="node"><title>wheels.py:dualvwheel</title>
<ellipse fill="none" stroke="black" cx="484" cy="-233" rx="144" ry="29"/>
<text text-anchor="middle" x="484" y="-229.3" font-family="Times,serif" font-size="14.00">wheels.py:dualvwheel</text>
</g>
<!-- openbuildsdualvwheel&#45;&gt;wheels.py:dualvwheel -->
<g id="edge10" class="edge"><title>openbuildsdualvwheel&#45;&gt;wheels.py:dualvwheel</title>
<path fill="none" stroke="black" d="M232.412,-233C263.022,-233 296.977,-233 329.755,-233"/>
<polygon fill="black" stroke="black" points="329.885,-236.5 339.885,-233 329.885,-229.5 329.885,-236.5"/>
</g>
<!-- openbuildssolidvwheel -->
<g id="node11" class="node"><title>openbuildssolidvwheel</title>
<ellipse fill="none" stroke="black" cx="124" cy="-139" rx="108" ry="29"/>
<text text-anchor="middle" x="124" y="-135.3" font-family="Times,serif" font-size="14.00">openbuildssolidvwheel</text>
</g>
<!-- wheels.py:solidvwheel -->
<g id="node18" class="node"><title>wheels.py:solidvwheel</title>
<ellipse fill="none" stroke="black" cx="484" cy="-139" rx="144" ry="29"/>
<text text-anchor="middle" x="484" y="-135.3" font-family="Times,serif" font-size="14.00">wheels.py:solidvwheel</text>
</g>
<!-- openbuildssolidvwheel&#45;&gt;wheels.py:solidvwheel -->
<g id="edge11" class="edge"><title>openbuildssolidvwheel&#45;&gt;wheels.py:solidvwheel</title>
<path fill="none" stroke="black" d="M232.412,-139C263.022,-139 296.977,-139 329.755,-139"/>
<polygon fill="black" stroke="black" points="329.885,-142.5 339.885,-139 329.885,-135.5 329.885,-142.5"/>
</g>
<!-- openbuildssolidminivwheel -->
<g id="node12" class="node"><title>openbuildssolidminivwheel</title>
<ellipse fill="none" stroke="black" cx="124" cy="-45" rx="108" ry="29"/>
<text text-anchor="middle" x="124" y="-41.3" font-family="Times,serif" font-size="14.00">openbuildssolidminivwheel</text>
</g>
<!-- wheels.py:minivwheel -->
<g id="node19" class="node"><title>wheels.py:minivwheel</title>
<ellipse fill="none" stroke="black" cx="484" cy="-45" rx="144" ry="29"/>
<text text-anchor="middle" x="484" y="-41.3" font-family="Times,serif" font-size="14.00">wheels.py:minivwheel</text>
</g>
<!-- openbuildssolidminivwheel&#45;&gt;wheels.py:minivwheel -->
<g id="edge12" class="edge"><title>openbuildssolidminivwheel&#45;&gt;wheels.py:minivwheel</title>
<path fill="none" stroke="black" d="M232.412,-45C263.022,-45 296.977,-45 329.755,-45"/>
<polygon fill="black" stroke="black" points="329.885,-48.5001 339.885,-45 329.885,-41.5001 329.885,-48.5001"/>
</g>
</g>
</svg>
