<?xml version="1.0" encoding="UTF-8" standalone="no"?>
<!DOCTYPE svg PUBLIC "-//W3C//DTD SVG 1.1//EN"
 "http://www.w3.org/Graphics/SVG/1.1/DTD/svg11.dtd">
<!-- Generated by graphviz version 2.26.3 (20100126.1600)
 -->
<!-- Title: G Pages: 1 -->
<svg width="976pt" height="594pt"
 viewBox="0.00 0.00 976.00 594.00" xmlns="http://www.w3.org/2000/svg" xmlns:xlink="http://www.w3.org/1999/xlink">
<g id="graph1" class="graph" transform="scale(1 1) rotate(0) translate(4 590)">
<title>G</title>
<polygon fill="white" stroke="white" points="-4,5 -4,-590 973,-590 973,5 -4,5"/>
<g id="graph2" class="cluster"><title>cluster_cl</title>
<polygon fill="none" stroke="black" points="332,-8 332,-578 564,-578 564,-8 332,-8"/>
<text text-anchor="middle" x="448" y="-561.4" font-family="Times Roman,serif" font-size="14.00">Classes</text>
</g>
<g id="graph3" class="cluster"><title>cluster_std</title>
<polygon fill="none" stroke="black" points="8,-102 8,-390 240,-390 240,-102 8,-102"/>
<text text-anchor="middle" x="124" y="-373.4" font-family="Times Roman,serif" font-size="14.00">Standards</text>
</g>
<g id="graph4" class="cluster"><title>cluster_fcd</title>
<polygon fill="none" stroke="black" points="656,-149 656,-437 960,-437 960,-149 656,-149"/>
<text text-anchor="middle" x="808" y="-420.4" font-family="Times Roman,serif" font-size="14.00">FreeCAD</text>
</g>
<!-- generic_circle_hollow -->
<g id="node2" class="node"><title>generic_circle_hollow</title>
<ellipse fill="none" stroke="black" cx="448" cy="-515" rx="108" ry="29"/>
<text text-anchor="middle" x="448" y="-511.4" font-family="Times Roman,serif" font-size="14.00">generic_circle_hollow</text>
</g>
<!-- profiles&#45;hot_finished&#45;hollow.py:circle_hollow -->
<g id="node13" class="node"><title>profiles&#45;hot_finished&#45;hollow.py:circle_hollow</title>
<ellipse fill="none" stroke="black" cx="808" cy="-374" rx="144" ry="29"/>
<text text-anchor="middle" x="808" y="-370.4" font-family="Times Roman,serif" font-size="14.00">profiles&#45;hot_finished&#45;hollow.py:circle_hollow</text>
</g>
<!-- generic_circle_hollow&#45;&gt;profiles&#45;hot_finished&#45;hollow.py:circle_hollow -->
<g id="edge6" class="edge"><title>generic_circle_hollow&#45;&gt;profiles&#45;hot_finished&#45;hollow.py:circle_hollow</title>
<path fill="none" stroke="black" d="M509.069,-491.081C570.732,-466.93 666.098,-429.578 732.475,-403.581"/>
<polygon fill="black" stroke="black" points="734.016,-406.736 742.051,-399.83 731.463,-400.218 734.016,-406.736"/>
</g>
<!-- generic_square_hollow -->
<g id="node3" class="node"><title>generic_square_hollow</title>
<ellipse fill="none" stroke="black" cx="448" cy="-327" rx="108" ry="29"/>
<text text-anchor="middle" x="448" y="-323.4" font-family="Times Roman,serif" font-size="14.00">generic_square_hollow</text>
</g>
<!-- profiles&#45;hot_finished&#45;hollow.py:square_hollow -->
<g id="node14" class="node"><title>profiles&#45;hot_finished&#45;hollow.py:square_hollow</title>
<ellipse fill="none" stroke="black" cx="808" cy="-280" rx="144" ry="29"/>
<text text-anchor="middle" x="808" y="-276.4" font-family="Times Roman,serif" font-size="14.00">profiles&#45;hot_finished&#45;hollow.py:square_hollow</text>
</g>
<!-- generic_square_hollow&#45;&gt;profiles&#45;hot_finished&#45;hollow.py:square_hollow -->
<g id="edge8" class="edge"><title>generic_square_hollow&#45;&gt;profiles&#45;hot_finished&#45;hollow.py:square_hollow</title>
<path fill="none" stroke="black" d="M545.421,-314.281C585.894,-308.997 633.477,-302.785 676.941,-297.111"/>
<polygon fill="black" stroke="black" points="677.554,-300.56 687.017,-295.795 676.648,-293.619 677.554,-300.56"/>
</g>
<!-- generic_rectangular_hollow -->
<g id="node4" class="node"><title>generic_rectangular_hollow</title>
<ellipse fill="none" stroke="black" cx="448" cy="-139" rx="108" ry="29"/>
<text text-anchor="middle" x="448" y="-135.4" font-family="Times Roman,serif" font-size="14.00">generic_rectangular_hollow</text>
</g>
<!-- profiles&#45;hot_finished&#45;hollow.py:rectangle_hollow -->
<g id="node15" class="node"><title>profiles&#45;hot_finished&#45;hollow.py:rectangle_hollow</title>
<ellipse fill="none" stroke="black" cx="808" cy="-186" rx="144" ry="29"/>
<text text-anchor="middle" x="808" y="-182.4" font-family="Times Roman,serif" font-size="14.00">profiles&#45;hot_finished&#45;hollow.py:rectangle_hollow</text>
</g>
<!-- generic_rectangular_hollow&#45;&gt;profiles&#45;hot_finished&#45;hollow.py:rectangle_hollow -->
<g id="edge10" class="edge"><title>generic_rectangular_hollow&#45;&gt;profiles&#45;hot_finished&#45;hollow.py:rectangle_hollow</title>
<path fill="none" stroke="black" d="M545.421,-151.719C585.894,-157.003 633.477,-163.215 676.941,-168.889"/>
<polygon fill="black" stroke="black" points="676.648,-172.381 687.017,-170.205 677.554,-165.44 676.648,-172.381"/>
</g>
<!-- circle_hollow -->
<g id="node5" class="node"><title>circle_hollow</title>
<ellipse fill="none" stroke="black" cx="448" cy="-421" rx="108" ry="29"/>
<text text-anchor="middle" x="448" y="-417.4" font-family="Times Roman,serif" font-size="14.00">circle_hollow</text>
</g>
<!-- circle_hollow&#45;&gt;profiles&#45;hot_finished&#45;hollow.py:circle_hollow -->
<g id="edge12" class="edge"><title>circle_hollow&#45;&gt;profiles&#45;hot_finished&#45;hollow.py:circle_hollow</title>
<path fill="none" stroke="black" d="M545.421,-408.281C585.894,-402.997 633.477,-396.785 676.941,-391.111"/>
<polygon fill="black" stroke="black" points="677.554,-394.56 687.017,-389.795 676.648,-387.619 677.554,-394.56"/>
</g>
<!-- square_hollow -->
<g id="node6" class="node"><title>square_hollow</title>
<ellipse fill="none" stroke="black" cx="448" cy="-233" rx="108" ry="29"/>
<text text-anchor="middle" x="448" y="-229.4" font-family="Times Roman,serif" font-size="14.00">square_hollow</text>
</g>
<!-- square_hollow&#45;&gt;profiles&#45;hot_finished&#45;hollow.py:square_hollow -->
<g id="edge16" class="edge"><title>square_hollow&#45;&gt;profiles&#45;hot_finished&#45;hollow.py:square_hollow</title>
<path fill="none" stroke="black" d="M545.421,-245.719C585.894,-251.003 633.477,-257.215 676.941,-262.889"/>
<polygon fill="black" stroke="black" points="676.648,-266.381 687.017,-264.205 677.554,-259.44 676.648,-266.381"/>
</g>
<!-- rectangular_hollow -->
<g id="node7" class="node"><title>rectangular_hollow</title>
<ellipse fill="none" stroke="black" cx="448" cy="-45" rx="108" ry="29"/>
<text text-anchor="middle" x="448" y="-41.4" font-family="Times Roman,serif" font-size="14.00">rectangular_hollow</text>
</g>
<!-- rectangular_hollow&#45;&gt;profiles&#45;hot_finished&#45;hollow.py:rectangle_hollow -->
<g id="edge20" class="edge"><title>rectangular_hollow&#45;&gt;profiles&#45;hot_finished&#45;hollow.py:rectangle_hollow</title>
<path fill="none" stroke="black" d="M509.069,-68.9187C570.732,-93.0698 666.098,-130.422 732.475,-156.419"/>
<polygon fill="black" stroke="black" points="731.463,-159.782 742.051,-160.17 734.016,-153.264 731.463,-159.782"/>
</g>
<!-- EN 10210&#45;2 circular -->
<g id="node9" class="node"><title>EN 10210&#45;2 circular</title>
<ellipse fill="none" stroke="black" cx="124" cy="-327" rx="108" ry="29"/>
<text text-anchor="middle" x="124" y="-323.4" font-family="Times Roman,serif" font-size="14.00">EN 10210&#45;2 circular</text>
</g>
<!-- EN 10210&#45;2 circular&#45;&gt;circle_hollow -->
<g id="edge14" class="edge"><title>EN 10210&#45;2 circular&#45;&gt;circle_hollow</title>
<path fill="none" stroke="black" d="M197.521,-348.33C247.247,-362.757 313.017,-381.838 364.685,-396.828"/>
<polygon fill="black" stroke="black" points="363.911,-400.248 374.49,-399.673 365.862,-393.525 363.911,-400.248"/>
</g>
<!-- EN 10210&#45;2 square -->
<g id="node10" class="node"><title>EN 10210&#45;2 square</title>
<ellipse fill="none" stroke="black" cx="124" cy="-233" rx="108" ry="29"/>
<text text-anchor="middle" x="124" y="-229.4" font-family="Times Roman,serif" font-size="14.00">EN 10210&#45;2 square</text>
</g>
<!-- EN 10210&#45;2 square&#45;&gt;square_hollow -->
<g id="edge18" class="edge"><title>EN 10210&#45;2 square&#45;&gt;square_hollow</title>
<path fill="none" stroke="black" d="M232.338,-233C263.545,-233 297.748,-233 329.536,-233"/>
<polygon fill="black" stroke="black" points="329.764,-236.5 339.764,-233 329.764,-229.5 329.764,-236.5"/>
</g>
<!-- EN 10210&#45;2 rectangular -->
<g id="node11" class="node"><title>EN 10210&#45;2 rectangular</title>
<ellipse fill="none" stroke="black" cx="124" cy="-139" rx="108" ry="29"/>
<text text-anchor="middle" x="124" y="-135.4" font-family="Times Roman,serif" font-size="14.00">EN 10210&#45;2 rectangular</text>
</g>
<!-- EN 10210&#45;2 rectangular&#45;&gt;rectangular_hollow -->
<g id="edge22" class="edge"><title>EN 10210&#45;2 rectangular&#45;&gt;rectangular_hollow</title>
<path fill="none" stroke="black" d="M197.521,-117.67C247.247,-103.243 313.017,-84.1616 364.685,-69.1718"/>
<polygon fill="black" stroke="black" points="365.862,-72.4746 374.49,-66.3268 363.911,-65.7519 365.862,-72.4746"/>
</g>
</g>
</svg>
