<?xml version="1.0" encoding="UTF-8" standalone="no"?>
<!DOCTYPE svg PUBLIC "-//W3C//DTD SVG 1.1//EN"
 "http://www.w3.org/Graphics/SVG/1.1/DTD/svg11.dtd">
<!-- Generated by graphviz version 2.26.3 (20100126.1600)
 -->
<!-- Title: G Pages: 1 -->
<svg width="652pt" height="1454pt"
 viewBox="0.00 0.00 652.00 1454.00" xmlns="http://www.w3.org/2000/svg" xmlns:xlink="http://www.w3.org/1999/xlink">
<g id="graph1" class="graph" transform="scale(1 1) rotate(0) translate(4 1450)">
<title>G</title>
<polygon fill="white" stroke="white" points="-4,5 -4,-1450 649,-1450 649,5 -4,5"/>
<g id="graph2" class="cluster"><title>cluster_cl</title>
<polygon fill="none" stroke="black" points="8,-492 8,-1438 240,-1438 240,-492 8,-492"/>
<text text-anchor="middle" x="124" y="-1421.4" font-family="Times Roman,serif" font-size="14.00">Classes</text>
</g>
<g id="graph4" class="cluster"><title>cluster_fcd</title>
<polygon fill="none" stroke="black" points="332,-492 332,-1438 636,-1438 636,-492 332,-492"/>
<text text-anchor="middle" x="484" y="-1421.4" font-family="Times Roman,serif" font-size="14.00">FreeCAD</text>
</g>
<g id="graph5" class="cluster"><title>cluster_ocd</title>
<polygon fill="none" stroke="black" points="332,-8 332,-484 636,-484 636,-8 332,-8"/>
<text text-anchor="middle" x="484" y="-467.4" font-family="Times Roman,serif" font-size="14.00">OpenSCAD</text>
</g>
<!-- tslot20x20 -->
<g id="node2" class="node"><title>tslot20x20</title>
<ellipse fill="none" stroke="black" cx="124" cy="-905" rx="108" ry="29"/>
<text text-anchor="middle" x="124" y="-901.4" font-family="Times Roman,serif" font-size="14.00">tslot20x20</text>
</g>
<!-- tslot&#45;20x20.fcstd:Fillet -->
<g id="node14" class="node"><title>tslot&#45;20x20.fcstd:Fillet</title>
<ellipse fill="none" stroke="black" cx="484" cy="-905" rx="144" ry="29"/>
<text text-anchor="middle" x="484" y="-901.4" font-family="Times Roman,serif" font-size="14.00">tslot&#45;20x20.fcstd:Fillet</text>
</g>
<!-- tslot20x20&#45;&gt;tslot&#45;20x20.fcstd:Fillet -->
<g id="edge6" class="edge"><title>tslot20x20&#45;&gt;tslot&#45;20x20.fcstd:Fillet</title>
<path fill="none" stroke="black" d="M232.012,-905C262.7,-905 296.73,-905 329.598,-905"/>
<polygon fill="black" stroke="black" points="329.756,-908.5 339.756,-905 329.756,-901.5 329.756,-908.5"/>
</g>
<!-- aluminiumProfiles.scad:tslot_20x20_base -->
<g id="node25" class="node"><title>aluminiumProfiles.scad:tslot_20x20_base</title>
<ellipse fill="none" stroke="black" cx="484" cy="-421" rx="144" ry="29"/>
<text text-anchor="middle" x="484" y="-417.4" font-family="Times Roman,serif" font-size="14.00">aluminiumProfiles.scad:tslot_20x20_base</text>
</g>
<!-- tslot20x20&#45;&gt;aluminiumProfiles.scad:tslot_20x20_base -->
<g id="edge8" class="edge"><title>tslot20x20&#45;&gt;aluminiumProfiles.scad:tslot_20x20_base</title>
<path fill="none" stroke="black" d="M183.699,-880.812C212.122,-869.295 240,-858 240,-858 240,-858 332,-483 332,-483 332,-483 371.801,-466.765 410.67,-450.911"/>
<polygon fill="black" stroke="black" points="412.041,-454.132 419.979,-447.114 409.398,-447.65 412.041,-454.132"/>
</g>
<!-- tslot20x20&#45;1s -->
<g id="node3" class="node"><title>tslot20x20&#45;1s</title>
<ellipse fill="none" stroke="black" cx="124" cy="-811" rx="108" ry="29"/>
<text text-anchor="middle" x="124" y="-807.4" font-family="Times Roman,serif" font-size="14.00">tslot20x20&#45;1s</text>
</g>
<!-- tslot&#45;20x20&#45;1S.fcstd:Fillet -->
<g id="node15" class="node"><title>tslot&#45;20x20&#45;1S.fcstd:Fillet</title>
<ellipse fill="none" stroke="black" cx="484" cy="-811" rx="144" ry="29"/>
<text text-anchor="middle" x="484" y="-807.4" font-family="Times Roman,serif" font-size="14.00">tslot&#45;20x20&#45;1S.fcstd:Fillet</text>
</g>
<!-- tslot20x20&#45;1s&#45;&gt;tslot&#45;20x20&#45;1S.fcstd:Fillet -->
<g id="edge10" class="edge"><title>tslot20x20&#45;1s&#45;&gt;tslot&#45;20x20&#45;1S.fcstd:Fillet</title>
<path fill="none" stroke="black" d="M232.012,-811C262.7,-811 296.73,-811 329.598,-811"/>
<polygon fill="black" stroke="black" points="329.756,-814.5 339.756,-811 329.756,-807.5 329.756,-814.5"/>
</g>
<!-- aluminiumProfiles.scad:tslot_20x20_1s_base -->
<g id="node26" class="node"><title>aluminiumProfiles.scad:tslot_20x20_1s_base</title>
<ellipse fill="none" stroke="black" cx="484" cy="-327" rx="144" ry="29"/>
<text text-anchor="middle" x="484" y="-323.4" font-family="Times Roman,serif" font-size="14.00">aluminiumProfiles.scad:tslot_20x20_1s_base</text>
</g>
<!-- tslot20x20&#45;1s&#45;&gt;aluminiumProfiles.scad:tslot_20x20_1s_base -->
<g id="edge12" class="edge"><title>tslot20x20&#45;1s&#45;&gt;aluminiumProfiles.scad:tslot_20x20_1s_base</title>
<path fill="none" stroke="black" d="M183.699,-786.812C212.122,-775.295 240,-764 240,-764 240,-764 332,-374 332,-374 332,-374 362.02,-364.717 395.378,-354.403"/>
<polygon fill="black" stroke="black" points="396.809,-357.624 405.329,-351.326 394.741,-350.936 396.809,-357.624"/>
</g>
<!-- tslot20x20&#45;2s -->
<g id="node4" class="node"><title>tslot20x20&#45;2s</title>
<ellipse fill="none" stroke="black" cx="124" cy="-717" rx="108" ry="29"/>
<text text-anchor="middle" x="124" y="-713.4" font-family="Times Roman,serif" font-size="14.00">tslot20x20&#45;2s</text>
</g>
<!-- tslot&#45;20x20&#45;2S.fcstd:Fillet -->
<g id="node16" class="node"><title>tslot&#45;20x20&#45;2S.fcstd:Fillet</title>
<ellipse fill="none" stroke="black" cx="484" cy="-717" rx="144" ry="29"/>
<text text-anchor="middle" x="484" y="-713.4" font-family="Times Roman,serif" font-size="14.00">tslot&#45;20x20&#45;2S.fcstd:Fillet</text>
</g>
<!-- tslot20x20&#45;2s&#45;&gt;tslot&#45;20x20&#45;2S.fcstd:Fillet -->
<g id="edge14" class="edge"><title>tslot20x20&#45;2s&#45;&gt;tslot&#45;20x20&#45;2S.fcstd:Fillet</title>
<path fill="none" stroke="black" d="M232.012,-717C262.7,-717 296.73,-717 329.598,-717"/>
<polygon fill="black" stroke="black" points="329.756,-720.5 339.756,-717 329.756,-713.5 329.756,-720.5"/>
</g>
<!-- aluminiumProfiles.scad:tslot_20x20_2s_base -->
<g id="node27" class="node"><title>aluminiumProfiles.scad:tslot_20x20_2s_base</title>
<ellipse fill="none" stroke="black" cx="484" cy="-233" rx="144" ry="29"/>
<text text-anchor="middle" x="484" y="-229.4" font-family="Times Roman,serif" font-size="14.00">aluminiumProfiles.scad:tslot_20x20_2s_base</text>
</g>
<!-- tslot20x20&#45;2s&#45;&gt;aluminiumProfiles.scad:tslot_20x20_2s_base -->
<g id="edge16" class="edge"><title>tslot20x20&#45;2s&#45;&gt;aluminiumProfiles.scad:tslot_20x20_2s_base</title>
<path fill="none" stroke="black" d="M183.699,-692.812C212.122,-681.295 240,-670 240,-670 240,-670 332,-280 332,-280 332,-280 362.02,-270.717 395.378,-260.403"/>
<polygon fill="black" stroke="black" points="396.809,-263.624 405.329,-257.326 394.741,-256.936 396.809,-263.624"/>
</g>
<!-- tslot20x20&#45;2sa -->
<g id="node5" class="node"><title>tslot20x20&#45;2sa</title>
<ellipse fill="none" stroke="black" cx="124" cy="-623" rx="108" ry="29"/>
<text text-anchor="middle" x="124" y="-619.4" font-family="Times Roman,serif" font-size="14.00">tslot20x20&#45;2sa</text>
</g>
<!-- tslot&#45;20x20&#45;2SA.fcstd:Fillet -->
<g id="node17" class="node"><title>tslot&#45;20x20&#45;2SA.fcstd:Fillet</title>
<ellipse fill="none" stroke="black" cx="484" cy="-623" rx="144" ry="29"/>
<text text-anchor="middle" x="484" y="-619.4" font-family="Times Roman,serif" font-size="14.00">tslot&#45;20x20&#45;2SA.fcstd:Fillet</text>
</g>
<!-- tslot20x20&#45;2sa&#45;&gt;tslot&#45;20x20&#45;2SA.fcstd:Fillet -->
<g id="edge18" class="edge"><title>tslot20x20&#45;2sa&#45;&gt;tslot&#45;20x20&#45;2SA.fcstd:Fillet</title>
<path fill="none" stroke="black" d="M232.012,-623C262.7,-623 296.73,-623 329.598,-623"/>
<polygon fill="black" stroke="black" points="329.756,-626.5 339.756,-623 329.756,-619.5 329.756,-626.5"/>
</g>
<!-- aluminiumProfiles.scad:tslot_20x20_2sa_base -->
<g id="node28" class="node"><title>aluminiumProfiles.scad:tslot_20x20_2sa_base</title>
<ellipse fill="none" stroke="black" cx="484" cy="-139" rx="144" ry="29"/>
<text text-anchor="middle" x="484" y="-135.4" font-family="Times Roman,serif" font-size="14.00">aluminiumProfiles.scad:tslot_20x20_2sa_base</text>
</g>
<!-- tslot20x20&#45;2sa&#45;&gt;aluminiumProfiles.scad:tslot_20x20_2sa_base -->
<g id="edge20" class="edge"><title>tslot20x20&#45;2sa&#45;&gt;aluminiumProfiles.scad:tslot_20x20_2sa_base</title>
<path fill="none" stroke="black" d="M183.699,-598.812C212.122,-587.295 240,-576 240,-576 240,-576 332,-186 332,-186 332,-186 362.02,-176.717 395.378,-166.403"/>
<polygon fill="black" stroke="black" points="396.809,-169.624 405.329,-163.326 394.741,-162.936 396.809,-169.624"/>
</g>
<!-- tslot20x20&#45;3s -->
<g id="node6" class="node"><title>tslot20x20&#45;3s</title>
<ellipse fill="none" stroke="black" cx="124" cy="-529" rx="108" ry="29"/>
<text text-anchor="middle" x="124" y="-525.4" font-family="Times Roman,serif" font-size="14.00">tslot20x20&#45;3s</text>
</g>
<!-- tslot&#45;20x20&#45;3S.fcstd:Fillet -->
<g id="node18" class="node"><title>tslot&#45;20x20&#45;3S.fcstd:Fillet</title>
<ellipse fill="none" stroke="black" cx="484" cy="-529" rx="144" ry="29"/>
<text text-anchor="middle" x="484" y="-525.4" font-family="Times Roman,serif" font-size="14.00">tslot&#45;20x20&#45;3S.fcstd:Fillet</text>
</g>
<!-- tslot20x20&#45;3s&#45;&gt;tslot&#45;20x20&#45;3S.fcstd:Fillet -->
<g id="edge22" class="edge"><title>tslot20x20&#45;3s&#45;&gt;tslot&#45;20x20&#45;3S.fcstd:Fillet</title>
<path fill="none" stroke="black" d="M232.012,-529C262.7,-529 296.73,-529 329.598,-529"/>
<polygon fill="black" stroke="black" points="329.756,-532.5 339.756,-529 329.756,-525.5 329.756,-532.5"/>
</g>
<!-- aluminiumProfiles.scad:tslot_20x20_3s_base -->
<g id="node29" class="node"><title>aluminiumProfiles.scad:tslot_20x20_3s_base</title>
<ellipse fill="none" stroke="black" cx="484" cy="-45" rx="144" ry="29"/>
<text text-anchor="middle" x="484" y="-41.4" font-family="Times Roman,serif" font-size="14.00">aluminiumProfiles.scad:tslot_20x20_3s_base</text>
</g>
<!-- tslot20x20&#45;3s&#45;&gt;aluminiumProfiles.scad:tslot_20x20_3s_base -->
<g id="edge24" class="edge"><title>tslot20x20&#45;3s&#45;&gt;aluminiumProfiles.scad:tslot_20x20_3s_base</title>
<path fill="none" stroke="black" d="M137.809,-499.989C184.264,-402.387 332,-92 332,-92 332,-92 362.02,-82.7174 395.378,-72.4028"/>
<polygon fill="black" stroke="black" points="396.809,-75.624 405.329,-69.326 394.741,-68.9364 396.809,-75.624"/>
</g>
<!-- vslot20x20 -->
<g id="node7" class="node"><title>vslot20x20</title>
<ellipse fill="none" stroke="black" cx="124" cy="-1375" rx="108" ry="29"/>
<text text-anchor="middle" x="124" y="-1371.4" font-family="Times Roman,serif" font-size="14.00">vslot20x20</text>
</g>
<!-- 20x20_Vrail_s.fcstd:Pad -->
<g id="node19" class="node"><title>20x20_Vrail_s.fcstd:Pad</title>
<ellipse fill="none" stroke="black" cx="484" cy="-1375" rx="144" ry="29"/>
<text text-anchor="middle" x="484" y="-1371.4" font-family="Times Roman,serif" font-size="14.00">20x20_Vrail_s.fcstd:Pad</text>
</g>
<!-- vslot20x20&#45;&gt;20x20_Vrail_s.fcstd:Pad -->
<g id="edge26" class="edge"><title>vslot20x20&#45;&gt;20x20_Vrail_s.fcstd:Pad</title>
<path fill="none" stroke="black" d="M232.012,-1375C262.7,-1375 296.73,-1375 329.598,-1375"/>
<polygon fill="black" stroke="black" points="329.756,-1378.5 339.756,-1375 329.756,-1371.5 329.756,-1378.5"/>
</g>
<!-- vslot20x40 -->
<g id="node8" class="node"><title>vslot20x40</title>
<ellipse fill="none" stroke="black" cx="124" cy="-1281" rx="108" ry="29"/>
<text text-anchor="middle" x="124" y="-1277.4" font-family="Times Roman,serif" font-size="14.00">vslot20x40</text>
</g>
<!-- 20x40_Vrail_s.fcstd:Pad -->
<g id="node20" class="node"><title>20x40_Vrail_s.fcstd:Pad</title>
<ellipse fill="none" stroke="black" cx="484" cy="-1281" rx="144" ry="29"/>
<text text-anchor="middle" x="484" y="-1277.4" font-family="Times Roman,serif" font-size="14.00">20x40_Vrail_s.fcstd:Pad</text>
</g>
<!-- vslot20x40&#45;&gt;20x40_Vrail_s.fcstd:Pad -->
<g id="edge28" class="edge"><title>vslot20x40&#45;&gt;20x40_Vrail_s.fcstd:Pad</title>
<path fill="none" stroke="black" d="M232.012,-1281C262.7,-1281 296.73,-1281 329.598,-1281"/>
<polygon fill="black" stroke="black" points="329.756,-1284.5 339.756,-1281 329.756,-1277.5 329.756,-1284.5"/>
</g>
<!-- vslot20x60 -->
<g id="node9" class="node"><title>vslot20x60</title>
<ellipse fill="none" stroke="black" cx="124" cy="-1187" rx="108" ry="29"/>
<text text-anchor="middle" x="124" y="-1183.4" font-family="Times Roman,serif" font-size="14.00">vslot20x60</text>
</g>
<!-- 20x60_Vrail_s.fcstd:Pad -->
<g id="node21" class="node"><title>20x60_Vrail_s.fcstd:Pad</title>
<ellipse fill="none" stroke="black" cx="484" cy="-1187" rx="144" ry="29"/>
<text text-anchor="middle" x="484" y="-1183.4" font-family="Times Roman,serif" font-size="14.00">20x60_Vrail_s.fcstd:Pad</text>
</g>
<!-- vslot20x60&#45;&gt;20x60_Vrail_s.fcstd:Pad -->
<g id="edge30" class="edge"><title>vslot20x60&#45;&gt;20x60_Vrail_s.fcstd:Pad</title>
<path fill="none" stroke="black" d="M232.012,-1187C262.7,-1187 296.73,-1187 329.598,-1187"/>
<polygon fill="black" stroke="black" points="329.756,-1190.5 339.756,-1187 329.756,-1183.5 329.756,-1190.5"/>
</g>
<!-- vslot20x80 -->
<g id="node10" class="node"><title>vslot20x80</title>
<ellipse fill="none" stroke="black" cx="124" cy="-1093" rx="108" ry="29"/>
<text text-anchor="middle" x="124" y="-1089.4" font-family="Times Roman,serif" font-size="14.00">vslot20x80</text>
</g>
<!-- 20x80_Vrail_s.fcstd:Pad -->
<g id="node22" class="node"><title>20x80_Vrail_s.fcstd:Pad</title>
<ellipse fill="none" stroke="black" cx="484" cy="-1093" rx="144" ry="29"/>
<text text-anchor="middle" x="484" y="-1089.4" font-family="Times Roman,serif" font-size="14.00">20x80_Vrail_s.fcstd:Pad</text>
</g>
<!-- vslot20x80&#45;&gt;20x80_Vrail_s.fcstd:Pad -->
<g id="edge32" class="edge"><title>vslot20x80&#45;&gt;20x80_Vrail_s.fcstd:Pad</title>
<path fill="none" stroke="black" d="M232.012,-1093C262.7,-1093 296.73,-1093 329.598,-1093"/>
<polygon fill="black" stroke="black" points="329.756,-1096.5 339.756,-1093 329.756,-1089.5 329.756,-1096.5"/>
</g>
<!-- openbuildsdualvwheel -->
<g id="node11" class="node"><title>openbuildsdualvwheel</title>
<ellipse fill="none" stroke="black" cx="124" cy="-999" rx="108" ry="29"/>
<text text-anchor="middle" x="124" y="-995.4" font-family="Times Roman,serif" font-size="14.00">openbuildsdualvwheel</text>
</g>
<!-- V_Wheel.fcstd:Revolution -->
<g id="node23" class="node"><title>V_Wheel.fcstd:Revolution</title>
<ellipse fill="none" stroke="black" cx="484" cy="-999" rx="144" ry="29"/>
<text text-anchor="middle" x="484" y="-995.4" font-family="Times Roman,serif" font-size="14.00">V_Wheel.fcstd:Revolution</text>
</g>
<!-- openbuildsdualvwheel&#45;&gt;V_Wheel.fcstd:Revolution -->
<g id="edge34" class="edge"><title>openbuildsdualvwheel&#45;&gt;V_Wheel.fcstd:Revolution</title>
<path fill="none" stroke="black" d="M232.012,-999C262.7,-999 296.73,-999 329.598,-999"/>
<polygon fill="black" stroke="black" points="329.756,-1002.5 339.756,-999 329.756,-995.5 329.756,-1002.5"/>
</g>
</g>
</svg>
